<svg xmlns="http://www.w3.org/2000/svg" viewBox="0 0 400 300"><g id="_244_recycling_flatline" data-name="#244_recycling_flatline"><rect x="119.61" y="35.99" width="18.9" height="12.18" transform="translate(-5.54 24.5) rotate(-10.62)" fill="#fff"/><path d="M120.89,50.31a.58.58,0,0,1-.28-.09.54.54,0,0,1-.21-.32l-2.24-12a.5.5,0,0,1,.4-.58l18.58-3.49a.51.51,0,0,1,.58.4l2.25,12a.52.52,0,0,1-.08.37.49.49,0,0,1-.32.21L121,50.3Zm-1.65-12.07,2.05,11,17.6-3.3-2.06-11Z" fill="#231f20"/><rect x="116.06" y="32.36" width="23.08" height="3.77" rx="1.89" transform="translate(-4.12 24.09) rotate(-10.62)" fill="#fff"/><path d="M118.11,38.41a2.39,2.39,0,0,1-.44-4.73l19-3.56a2.39,2.39,0,1,1,.88,4.69h0l-19,3.56A3.42,3.42,0,0,1,118.11,38.41Zm19-7.33-.25,0-19,3.56a1.39,1.39,0,0,0-1.11,1.62,1.38,1.38,0,0,0,1.62,1.1l19-3.55a1.39,1.39,0,0,0-.26-2.75Zm.35,3.24h0Z" fill="#231f20"/><path d="M139.78,45l-19.66,3.69C111,52.9,99.93,61.11,97,69.58l72-13.5C163.11,49.27,149.8,45.63,139.78,45Z" fill="#fff"/><path d="M97,70.08a.53.53,0,0,1-.38-.18.51.51,0,0,1-.09-.49c3-8.5,13.92-16.77,23.43-21.21a.53.53,0,0,1,.12,0l19.66-3.69h.13c10.46.69,23.65,4.45,29.51,11.29a.48.48,0,0,1,.09.49.47.47,0,0,1-.38.32L97,70.07Zm23.32-20.94c-9,4.2-19.25,11.86-22.53,19.78L168,55.75c-5.93-6.19-18.26-9.61-28.17-10.28Z" fill="#231f20"/><path d="M103.89,61.31h75.44a0,0,0,0,1,0,0v90.08a5.35,5.35,0,0,1-5.35,5.35H109.24a5.35,5.35,0,0,1-5.35-5.35V61.31a0,0,0,0,1,0,0Z" transform="translate(-17.66 27.95) rotate(-10.62)" fill="#fff"/><path d="M117.6,162.48a5.87,5.87,0,0,1-5.75-4.77L95.26,69.17a.5.5,0,0,1,.4-.59L169.8,54.69a.51.51,0,0,1,.38.07.54.54,0,0,1,.21.32L187,143.63a5.84,5.84,0,0,1-4.67,6.82l-63.64,11.93A5.61,5.61,0,0,1,117.6,162.48Zm-21.27-93,16.5,88.05a4.87,4.87,0,0,0,5.66,3.88l63.64-11.93h0a4.86,4.86,0,0,0,3.87-5.66L169.5,55.76Z" fill="#231f20"/><rect x="90.74" y="58.36" width="84.15" height="7.52" rx="3.76" transform="translate(-9.17 25.53) rotate(-10.62)" fill="#fff"/><path d="M95.16,73.44A4.26,4.26,0,0,1,94.38,65L169.7,50.88a4.26,4.26,0,1,1,1.56,8.37L95.94,73.37A4.11,4.11,0,0,1,95.16,73.44Zm75.33-21.63a3.14,3.14,0,0,0-.61,0L94.56,66a3.25,3.25,0,0,0-2.6,3.8,3.26,3.26,0,0,0,3.8,2.61l75.32-14.12h0a3.25,3.25,0,0,0,1.24-5.89A3.19,3.19,0,0,0,170.49,51.81Z" fill="#231f20"/><rect x="98.1" y="97.64" width="84.15" height="7.52" rx="3.76" transform="translate(-16.28 27.56) rotate(-10.62)" fill="#fff"/><path d="M102.52,112.71a4.26,4.26,0,0,1-.78-8.44l75.32-14.12a4.26,4.26,0,1,1,1.56,8.37L103.3,112.64A4.11,4.11,0,0,1,102.52,112.71Zm75.33-21.63a3.14,3.14,0,0,0-.61,0l-75.32,14.12a3.26,3.26,0,0,0,1.2,6.41l75.32-14.12h0a3.26,3.26,0,0,0-.59-6.46Z" fill="#231f20"/><rect x="105.46" y="136.91" width="84.15" height="7.52" rx="3.76" transform="translate(-23.39 29.59) rotate(-10.62)" fill="#fff"/><path d="M109.88,152a4.26,4.26,0,0,1-.78-8.44l75.32-14.12a4.26,4.26,0,1,1,1.57,8.37h0l-75.32,14.12A4.29,4.29,0,0,1,109.88,152Zm75.33-21.63a4.18,4.18,0,0,0-.61.05l-75.32,14.12a3.26,3.26,0,0,0,1.2,6.41l75.32-14.12a3.21,3.21,0,0,0,2.09-1.36,3.24,3.24,0,0,0-.85-4.53A3.19,3.19,0,0,0,185.21,130.35Zm.68,7h0Z" fill="#231f20"/><path d="M169,84.71a.5.5,0,0,1-.49-.43L165.52,65a.49.49,0,0,1,.42-.57.5.5,0,0,1,.57.42l2.94,19.33a.5.5,0,0,1-.42.57Z" fill="#d1d3d4"/><path d="M235.87,47.54s-1.67,17.29,3.28,20.72,43.73,12.28,43.73,12.28.48,11.49-11.29,11.2-40.68-6.25-42.51-15.6S235.87,47.54,235.87,47.54Z" fill="#231f20"/><path d="M272,92.24h-.44c-11.63-.29-41.08-6.25-43-16-1.84-9.4,6.47-28.11,6.82-28.91a.5.5,0,0,1,1,.26c0,.17-1.58,17,3.08,20.26C244.26,71.19,282.61,80,283,80.05a.48.48,0,0,1,.38.47c0,.21.18,5.28-3.2,8.71A10.94,10.94,0,0,1,272,92.24ZM235.17,50.5c-2.27,5.64-7,18.55-5.6,25.55,1.73,8.84,30,14.89,42,15.19,3.37.07,6-.83,7.87-2.7,2.57-2.61,2.88-6.4,2.91-7.6-4.31-1-38.75-9-43.51-12.26C235,66,234.93,55.7,235.17,50.5Z" fill="#231f20"/><path d="M291.68,59.28a288.23,288.23,0,0,1-.25,63.49c-3.46,29.19-19.59,27-19.59,27S282.69,96,291.68,59.28Z" fill="#231f20"/><path d="M272.61,150.34c-.49,0-.79,0-.84,0a.54.54,0,0,1-.34-.21.49.49,0,0,1-.08-.39c.11-.54,10.95-54.26,19.84-90.54a.5.5,0,0,1,1,.05,291.08,291.08,0,0,1-.24,63.62c-1.39,11.74-5,19.91-10.6,24.29A14.4,14.4,0,0,1,272.61,150.34Zm-.17-1a13.4,13.4,0,0,0,8.31-3c5.4-4.21,8.83-12.16,10.19-23.6a295.62,295.62,0,0,0,.55-60.55C283.24,96.27,273.6,143.62,272.44,149.33Z" fill="#231f20"/><path d="M235.87,47.54l-6.69.74S208.35,119,210.05,130.77s51.39,25.75,61.79,19,20.75-78.69,19.84-90.52l-6-.14s-3,17-9.5,22.94-39.82-4.75-42.08-10.87S235.87,47.54,235.87,47.54Z" fill="#fff"/><path d="M262.89,152c-10.9,0-27.45-4.1-39.13-9.41-6.1-2.78-13.52-7.08-14.2-11.79-1.7-11.72,18.29-79.81,19.14-82.7a.5.5,0,0,1,.43-.36l6.68-.74a.51.51,0,0,1,.43.17.47.47,0,0,1,.11.44c0,.18-4,17.48-1.78,23.39,1.11,3,11.34,7.78,22.33,10.47,9.44,2.32,16.53,2.39,19,.2,6.31-5.71,9.32-22.49,9.35-22.65a.5.5,0,0,1,.49-.42h0l6,.14a.49.49,0,0,1,.48.46c.86,11.18-9.26,84-20.06,91C270.16,151.48,266.91,152,262.89,152ZM229.57,48.74c-1.52,5.18-20.63,70.85-19,82,.48,3.32,5.32,7.24,13.63,11,15.65,7.12,40.6,12.05,47.39,7.66,10.09-6.52,20.18-77.29,19.63-89.61l-5.09-.12c-.52,2.74-3.52,17.31-9.58,22.8-3.85,3.48-15.18,1.18-19.87,0-10.22-2.51-21.63-7.34-23-11.11-2.07-5.56.86-19.91,1.59-23.27Z" fill="#231f20"/><path d="M227.88,128.8a.5.5,0,0,1-.06-1c34.6-4.41,44.5-24.49,44.6-24.69a.5.5,0,0,1,.9.42c-.1.21-10.2,20.78-45.37,25.26Z" fill="#d1d3d4"/><path d="M237.54,98.38a25,25,0,0,1-7.33-.92c-1-.33-1.23-.63-1.33-.84a.5.5,0,0,1,.24-.67.51.51,0,0,1,.65.21c1,1,13.22,3.13,24.88-3a.5.5,0,0,1,.47.88A37.77,37.77,0,0,1,237.54,98.38Zm-7.75-2.18Z" fill="#d1d3d4"/><path d="M207.24,145.29a52.31,52.31,0,0,0,38.62-13S227.15,125.76,207.24,145.29Z" fill="#231f20"/><path d="M210.53,145.89c-2.05,0-3.3-.1-3.34-.11a.49.49,0,0,1-.43-.33.51.51,0,0,1,.13-.52c10.38-10.19,20.45-13.21,27.07-14a29.54,29.54,0,0,1,12.07.86.52.52,0,0,1,.32.37.49.49,0,0,1-.15.47A56.55,56.55,0,0,1,229,142.86,54.89,54.89,0,0,1,210.53,145.89Zm-2.12-1a55,55,0,0,0,20.21-2.93,57.27,57.27,0,0,0,16.22-9.38C241,131.6,225.17,129,208.41,144.85Z" fill="#231f20"/><path d="M245.86,132.3s-22.64,1.36-38.62,13c-1.82-8.32-4-16.59-6.29-24.77C199.07,114,197,107.41,194.56,101a78.24,78.24,0,0,0-3.46-7.85c-2.32-4.48-2.62-5.25,3.13-5a11.44,11.44,0,0,0,.68-4.49l6.74,2A1.67,1.67,0,0,0,204,85l4.38-5.91c-.13.17,2.61,2.56,2.88,2.79,1,.86,1.53,1.7,2.59.91,1.81-1.36,2-5.84,1.8-7.81a58.23,58.23,0,0,1,7.6,5.14,19.68,19.68,0,0,0,1-7.06c9.72,3.65,11.56,14,14.49,22.76C239.74,98.76,248.29,132.16,245.86,132.3Z" fill="#fff"/><path d="M207.24,145.79a.39.39,0,0,1-.18,0,.47.47,0,0,1-.31-.36c-1.72-7.88-3.78-16-6.29-24.73-1.55-5.42-3.67-12.53-6.36-19.44a81.5,81.5,0,0,0-3.44-7.8c-1.26-2.42-2-3.88-1.4-4.86s2-1,4.62-.91a11.07,11.07,0,0,0,.53-4,.48.48,0,0,1,.19-.42.47.47,0,0,1,.45-.09l6.75,2a1.22,1.22,0,0,0,1.8-.55L208,78.77h0a.51.51,0,0,1,.7-.11.53.53,0,0,1,.18.28,36.65,36.65,0,0,0,2.73,2.54l.48.44c.79.73,1,.82,1.48.45,1.59-1.19,1.83-5.44,1.6-7.35a.53.53,0,0,1,.22-.48.51.51,0,0,1,.53,0A57.52,57.52,0,0,1,223,79.25a19.09,19.09,0,0,0,.76-6.2.51.51,0,0,1,.2-.43.5.5,0,0,1,.47-.06C233,75.79,235.57,84,238,92c.38,1.24.77,2.47,1.17,3.68s9.14,34.06,7.29,36.81a.78.78,0,0,1-.61.36h0c-.22,0-22.64,1.46-38.36,12.89A.53.53,0,0,1,207.24,145.79ZM192.7,88.63c-1.14,0-2.35.08-2.59.47s.54,2.12,1.44,3.86a82.09,82.09,0,0,1,3.48,7.9c2.71,7,4.84,14.08,6.4,19.52,2.43,8.51,4.44,16.39,6.13,24.06,15.32-10.78,36.14-12.5,38.15-12.63,1.18-2.54-6.22-32.2-7.45-35.87-.4-1.2-.79-2.45-1.18-3.7-2.32-7.49-4.72-15.22-12.32-18.47a20.12,20.12,0,0,1-1,6.48.5.5,0,0,1-.33.32.48.48,0,0,1-.45-.09,58.59,58.59,0,0,0-6.73-4.63c.08,2.26-.3,6-2.06,7.31-1.21.9-2,.15-2.76-.52l-.45-.41a31.27,31.27,0,0,1-2.56-2.34l-4,5.38a2.68,2.68,0,0,1-1.13,1,2.71,2.71,0,0,1-1.76-.09l-6.09-1.84a12,12,0,0,1-.72,4,.49.49,0,0,1-.49.33C193.81,88.65,193.26,88.63,192.7,88.63Zm53.13,43.17h0Z" fill="#231f20"/><path d="M207.25,117.79a.57.57,0,0,1-.18,0,.46.46,0,0,1-.29-.3l-6.7-19.22a.51.51,0,0,1,.1-.5c6.68-7.45,27-10,27.82-10.14a.49.49,0,0,1,.53.32L236,108.39a.51.51,0,0,1-.08.49.48.48,0,0,1-.45.18c-9.77-1.28-27.8,8.57-28,8.67A.53.53,0,0,1,207.25,117.79ZM201.12,98.2l6.41,18.37c3-1.61,17.91-9.27,27.26-8.58l-7.06-19.35C224.87,89,207.25,91.73,201.12,98.2Z" fill="#d1d3d4"/><path d="M179.83,78s-.05,14,5.51,26.14,9.19,28.7,6.25,34.33-17.7,9.34-17.7,9.34-.14-29.42.71-40.85S179.83,78,179.83,78Z" fill="#231f20"/><path d="M173.89,148.33a.54.54,0,0,1-.3-.1.52.52,0,0,1-.2-.4c0-.29-.14-29.57.71-40.88s5.2-28.88,5.25-29a.5.5,0,0,1,1,.12c0,.14,0,14.07,5.46,25.93,5.51,12,9.34,28.85,6.25,34.77-3,5.76-17.41,9.44-18,9.6Zm5.6-66.72c-1.31,5.69-3.78,17.2-4.39,25.41-.77,10.34-.72,35.77-.71,40.16,2.81-.78,14.3-4.2,16.76-8.92,2.91-5.58-1-22.34-6.27-33.89C181,96,179.86,86.61,179.49,81.61Z" fill="#231f20"/><path d="M145.9,74.69s-3,20-6.93,26.26l-9.35-3.51s3.13-11.64,7.27-16.78A16.36,16.36,0,0,1,145.9,74.69Z" fill="#231f20"/><path d="M139,101.45a.57.57,0,0,1-.18,0l-9.35-3.51a.5.5,0,0,1-.3-.6c.13-.48,3.2-11.8,7.36-17a16.78,16.78,0,0,1,9.31-6.16.55.55,0,0,1,.44.14.52.52,0,0,1,.14.43c-.12.82-3.09,20.19-7,26.46A.48.48,0,0,1,139,101.45Zm-8.75-4.32,8.53,3.21c3.29-5.73,5.95-21.38,6.53-25a16.8,16.8,0,0,0-8,5.61C133.7,85.42,130.84,95,130.22,97.13Z" fill="#231f20"/><path d="M142.31,70.91s-14.83,20.09-21,36.53c-8.12,21.49-4.9,32.87,6,38.8,9.34,5.09,46.45,6.73,51.31-1.76S173.82,91.93,179.83,78c0,0-4.29-5.32-6.84-1.63-1.13,1.63-3,23.34-3,23.34s-32.17-.49-36-5.19c0,0,6.88-13.21,11.89-19.85A6,6,0,0,0,142.31,70.91Z" fill="#fff"/><path d="M154.71,151c-11.3,0-23.16-1.79-27.72-4.27-11.92-6.51-13.89-19-6.19-39.41,6.17-16.32,21-36.45,21.1-36.65a.49.49,0,0,1,.56-.18,6.45,6.45,0,0,1,3.91,4.1.49.49,0,0,1-.08.45c-4.49,6-10.6,17.43-11.67,19.47,3.72,3.46,25.9,4.6,34.91,4.76.4-4.51,1.94-21.52,3-23.11a3.16,3.16,0,0,1,2.52-1.52c2.51-.07,5,3,5.13,3.11a.49.49,0,0,1,.07.52c-3.14,7.27-1.92,23.38-.84,37.6,1,13.31,1.88,24.8-.48,28.91C176.4,149.22,165.82,151,154.71,151ZM142.48,71.53c-1.9,2.62-15,21-20.74,36.09-7.49,19.82-5.67,31.95,5.73,38.18,9.68,5.28,46.08,6.38,50.63-1.57,2.21-3.84,1.3-15.74.35-28.33-1.12-14.84-2.29-30.18.8-37.79-.59-.66-2.44-2.58-4.13-2.52a2.14,2.14,0,0,0-1.72,1.09c-.77,1.1-2.19,14.75-2.91,23.09a.5.5,0,0,1-.5.46h0c-1.32,0-32.44-.55-36.36-5.37a.5.5,0,0,1-.06-.55c.07-.13,6.82-13,11.78-19.72A5.52,5.52,0,0,0,142.48,71.53Z" fill="#231f20"/><path d="M129,115.77c-1.3,0-2.05,0-2.09,0a.5.5,0,1,1,0-1c.25,0,25,1,39.76-9.18a.5.5,0,1,1,.57.82C154.79,115,135.38,115.77,129,115.77Z" fill="#d1d3d4"/><path d="M140.68,141.35a.5.5,0,0,1-.12-1c.21-.05,21.06-5.24,27.62-15.08a.51.51,0,0,1,.7-.14.5.5,0,0,1,.14.69c-6.78,10.17-27.35,15.29-28.22,15.5Z" fill="#d1d3d4"/><path d="M188.13,109.37s6.9,5.22,10.77,7.74S210,127.72,210,127.72s3.54-3.87,5.72-2a8.11,8.11,0,0,0,4,2s-1-5.73,4-3.54,7.58-6.39,12.46,7.58,1.51,19.69-1,21.54-8.42-.17-15.32,1.68-11.61,2.87-17.33,1-14.48-3.71-14.48-3.71S191.83,114.59,188.13,109.37Z" fill="#fff"/><path d="M188.13,109.37s6.9,5.22,10.77,7.74S210,127.72,210,127.72s2.3-2.52,4.34-2.52a2,2,0,0,1,1.38.5,8.11,8.11,0,0,0,4,2s-.71-4,2-4a5.14,5.14,0,0,1,2,.5,4.42,4.42,0,0,0,1.8.38c1.77,0,3.25-1,4.72-1,1.8,0,3.6,1.51,5.94,8.22,4.88,14,1.51,19.69-1,21.54-1,.73-2.53.86-4.43.86-1,0-2.12,0-3.32,0a28.78,28.78,0,0,0-7.57.85c-4.33,1.17-7.8,2-11.19,2a19.54,19.54,0,0,1-6.14-1c-5.73-1.85-14.48-3.71-14.48-3.71s3.7-37.69,0-42.91m0-1a1.05,1.05,0,0,0-.7.28,1,1,0,0,0-.12,1.3c1.41,2,2.51,14.85-.17,42.23a1,1,0,0,0,.78,1.08c.09,0,8.77,1.87,14.38,3.69a20.71,20.71,0,0,0,6.45,1c3.6,0,7.32-.92,11.45-2a27.47,27.47,0,0,1,7.31-.82h1.79l1.53,0c2.21,0,3.82-.18,5-1,2.22-1.63,6.8-7.11,1.36-22.68-2.2-6.31-4.2-8.89-6.88-8.89a7.9,7.9,0,0,0-2.46.53,7.34,7.34,0,0,1-2.26.49,3.45,3.45,0,0,1-1.4-.29,5.91,5.91,0,0,0-2.39-.59,2.86,2.86,0,0,0-2.26,1,4.56,4.56,0,0,0-.87,2.69,8.51,8.51,0,0,1-2.31-1.44,3.05,3.05,0,0,0-2-.73,7.21,7.21,0,0,0-4.29,2.08c-1.94-2.11-7.35-7.88-10.61-10-3.8-2.48-10.65-7.65-10.72-7.71a1,1,0,0,0-.6-.2Z" fill="#231f20"/><ellipse cx="188.13" cy="130.83" rx="8.58" ry="21.45" fill="#fff"/><path d="M188.13,109.37c4.74,0,8.58,9.61,8.58,21.46s-3.84,21.45-8.58,21.45-8.58-9.61-8.58-21.45,3.84-21.46,8.58-21.46m0-1c-5.37,0-9.58,9.86-9.58,22.46s4.21,22.45,9.58,22.45,9.58-9.86,9.58-22.45-4.21-22.46-9.58-22.46Z" fill="#231f20"/><path d="M209.15,145.87l-.13,0a.51.51,0,0,1-.35-.62c3.84-13.48,1-17.16,1-17.2a.5.5,0,0,1,.07-.7.52.52,0,0,1,.71.07c.13.16,3.21,4.13-.77,18.11A.49.49,0,0,1,209.15,145.87Z" fill="#d1d3d4"/><path d="M223.13,146.3h0a.5.5,0,0,1-.47-.53c.73-13.5-3.17-17.66-3.21-17.7a.5.5,0,1,1,.71-.71c.17.18,4.26,4.44,3.5,18.46A.51.51,0,0,1,223.13,146.3Z" fill="#d1d3d4"/><path d="M232.29,116.88s2.85,17.94,5.4,22.07,8.89,10.16,8.89,10.16a16.35,16.35,0,0,0,17.47-7.62s-4.77-6.67-4.77-9.84,1.59-14.77,1.59-14.77Z" fill="#fff"/><path d="M249.89,150a15.33,15.33,0,0,1-3.44-.35.68.68,0,0,1-.22-.12c-.26-.25-6.42-6.13-9-10.27s-5.35-21.52-5.47-22.25a.5.5,0,0,1,.12-.41.49.49,0,0,1,.38-.17h28.58a.5.5,0,0,1,.38.17.51.51,0,0,1,.12.39c0,.12-1.59,11.6-1.59,14.71s4.63,9.49,4.68,9.55a.52.52,0,0,1,0,.56A16.75,16.75,0,0,1,249.89,150Zm-3.06-1.29a15.68,15.68,0,0,0,16.62-7.16c-.93-1.32-4.67-6.9-4.67-9.85s1.2-11.88,1.52-14.27H232.88c.51,3.1,3,17.72,5.23,21.31C240.42,142.44,246,147.89,246.83,148.66Z" fill="#231f20"/><ellipse cx="246.58" cy="116.88" rx="14.29" ry="6.19" fill="#231f20"/><path d="M246.58,123.57c-8.3,0-14.79-2.94-14.79-6.69s6.49-6.7,14.79-6.7,14.79,2.94,14.79,6.7S254.87,123.57,246.58,123.57Zm0-12.39c-7.48,0-13.79,2.61-13.79,5.7s6.31,5.69,13.79,5.69,13.79-2.61,13.79-5.69S254.05,111.18,246.58,111.18Z" fill="#231f20"/><path d="M243.05,139.3h-.62a.5.5,0,0,1-.48-.52.52.52,0,0,1,.52-.48c8.23.29,13.35-6.09,13.4-6.16a.5.5,0,0,1,.79.62C256.44,133,251.41,139.3,243.05,139.3Z" fill="#d1d3d4"/><path d="M153.29,121.45l-4.15-19.14a1.16,1.16,0,1,0-2.27.38l2.24,11.81-3.22.54-2.15-11.82a1.16,1.16,0,1,0-2.27.38l1.83,11.87-3.22.54-1.73-11.89a1.16,1.16,0,1,0-2.28.38L138.4,124a7.54,7.54,0,0,0,5.46,6L149,168.42a4.49,4.49,0,1,0,8.85-1.49l-7.72-38A7.54,7.54,0,0,0,153.29,121.45Z" fill="#fff"/><path d="M153.41,172.82a4.92,4.92,0,0,1-3-1,5,5,0,0,1-2-3.35l-5.06-38.14a8,8,0,0,1-5.5-6.32l-2.33-19.47a1.72,1.72,0,0,1,1.33-2,1.54,1.54,0,0,1,1.27.35,1.87,1.87,0,0,1,.66,1.16l1.66,11.4,2.23-.38L141,103.67a1.93,1.93,0,0,1,.24-1.31,1.59,1.59,0,0,1,1.09-.74,1.54,1.54,0,0,1,1.26.35,1.94,1.94,0,0,1,.67,1.16l2,11.33,2.24-.37-2.15-11.3a1.89,1.89,0,0,1,.24-1.33,1.59,1.59,0,0,1,1.08-.75,1.61,1.61,0,0,1,1.18.29,1.86,1.86,0,0,1,.75,1.23l4.15,19.12v0a8.08,8.08,0,0,1-3.14,7.77l7.66,37.69a5,5,0,0,1-4.9,6ZM137.16,103.5h-.08a.74.74,0,0,0-.51.91l2.32,19.47a7.08,7.08,0,0,0,5.1,5.6.48.48,0,0,1,.36.41l5.11,38.45a4,4,0,1,0,7.87-1.32l-7.72-38a.5.5,0,0,1,.2-.51,7,7,0,0,0,3-7l-4.15-19.13a.9.9,0,0,0-.35-.61.56.56,0,0,0-.43-.11.62.62,0,0,0-.4.28.9.9,0,0,0-.11.63l2.24,11.79a.46.46,0,0,1-.08.38.47.47,0,0,1-.32.21l-3.23.54a.5.5,0,0,1-.57-.4l-2.15-11.82a.94.94,0,0,0-.31-.57.59.59,0,0,0-.47-.13.53.53,0,0,0-.39.28,1,1,0,0,0-.12.63l1.83,11.88a.5.5,0,0,1-.41.57l-3.22.54a.52.52,0,0,1-.38-.09.5.5,0,0,1-.2-.33l-1.73-11.89a.83.83,0,0,0-.31-.55A.57.57,0,0,0,137.16,103.5Z" fill="#231f20"/><path d="M142.1,159.65c-6.43,6.49-29.89-1-49.15-20.05S64.77,98.34,71.2,91.84,97,97,116.21,116.07,148.52,153.15,142.1,159.65Z" fill="#fff"/><path d="M135,162.41c-10.34,0-27.56-7.82-42.36-22.46C74.16,121.72,63.79,98.62,70.84,91.49c3.24-3.27,9.56-2.42,18.29,2.45,8,4.47,17.75,12.2,27.43,21.77C147.22,146,145.94,156.47,142.45,160h0C140.85,161.61,138.26,162.41,135,162.41ZM76.17,90.52a6.22,6.22,0,0,0-4.62,1.67c-3,3-2.45,10,1.35,18.62,4.12,9.4,11.36,19.5,20.4,28.43s19.27,15.72,29.22,19.49c9,3.42,16.19,3.63,19.22.56h0c5.41-5.47-4.27-21.49-25.88-42.87-9.62-9.51-19.29-17.18-27.22-21.61C83.53,92,79.32,90.52,76.17,90.52Zm65.93,69.13h0Z" fill="#231f20"/><path d="M129.45,152.8c-7.38,0-21.07-6.51-32.22-17.53-15-14.8-21.82-31.08-17.73-35.22,5.29-5.35,24.44,12.45,32.43,20.35,6.36,6.28,13.45,13.46,17.85,19.11,4.76,6.1,6,9.88,4,11.93A6,6,0,0,1,129.45,152.8ZM82.2,100a2.68,2.68,0,0,0-2,.71c-3.28,3.32,2.72,19,17.72,33.81,14.28,14.11,31.48,19.88,35.15,16.17h0c1.55-1.57.18-5.14-4.09-10.6s-11.43-12.76-17.76-19C97.65,107.69,87,100,82.2,100Z" fill="#d1d3d4"/><path d="M126.51,106c-2.13-7.82-7.17-10.73-12.06-9.4s-7.77,6.38-5.65,14.21c1.6,5.88,5.57,11.66,9.53,13.59l9.3,39.26a3.46,3.46,0,0,0,4.28,2.56l2-.54a3.46,3.46,0,0,0,2.4-4.37l-11.66-38C127.51,119.87,128.22,112.3,126.51,106Z" fill="#fff"/><path d="M131,166.83a4,4,0,0,1-2-.56,3.92,3.92,0,0,1-1.82-2.51l-9.24-39c-4-2.06-8-7.81-9.58-13.8-1-3.81-1-7.22.22-9.88a8.89,8.89,0,0,1,13.27-3.6c2.36,1.7,4.15,4.61,5.18,8.41h0c1.77,6.52,1,14-1.83,17.52l11.59,37.78a4,4,0,0,1-2.75,5l-2,.53A3.79,3.79,0,0,1,131,166.83ZM116.73,96.78a8.11,8.11,0,0,0-2.15.29,7.61,7.61,0,0,0-5.13,4.39c-1.08,2.44-1.14,5.63-.17,9.21,1.59,5.84,5.48,11.42,9.27,13.27a.51.51,0,0,1,.26.33l9.3,39.26a3,3,0,0,0,1.37,1.88,2.92,2.92,0,0,0,2.29.32l2-.54a3,3,0,0,0,2-3.74l-11.66-38a.5.5,0,0,1,.1-.47c2.7-3.17,3.49-10.56,1.8-16.82-1-3.58-2.64-6.3-4.81-7.86A7.62,7.62,0,0,0,116.73,96.78Z" fill="#231f20"/><path d="M119.23,121H119c-2.61-.17-4.51-3.78-4.59-3.93a.5.5,0,0,1,.89-.46s1.72,3.26,3.77,3.4c.9.06,1.79-.52,2.64-1.72,3.77-5.36.29-14.71.25-14.8a.52.52,0,0,1,.29-.65.5.5,0,0,1,.65.29c.15.41,3.7,9.94-.38,15.73A4.18,4.18,0,0,1,119.23,121Z" fill="#d1d3d4"/><path d="M293.39,184.6A108,108,0,0,1,266.67,178a9,9,0,0,1-4.85-11.91c2.13-4.86,4.95-11.76,7.22-18.76a101,101,0,0,0,3.2-12.14c1.56-8.61,2.52-17.28,4-24.48,1.27-6.07,2.94-11.11,5.7-14.21a44.94,44.94,0,0,1,12.71-10l16.74,4.16A44.94,44.94,0,0,1,318,105.4c1,4,.11,9.26-1.61,15.22-2,7.08-5.24,15.19-7.89,23.53a99.45,99.45,0,0,0-2.85,12.23c-1.26,7.24-2,14.66-2.39,20A9,9,0,0,1,293.39,184.6Z" fill="#fff"/><path d="M294.68,86.49l16.74,4.16A44.94,44.94,0,0,1,318,105.4c1,4,.11,9.26-1.61,15.22-2,7.08-5.24,15.19-7.89,23.53a99.45,99.45,0,0,0-2.85,12.23c-1.26,7.24-2,14.66-2.39,20a9,9,0,0,1-9,8.31c-.29,0-.58,0-.88,0A108,108,0,0,1,266.67,178a9,9,0,0,1-4.85-11.91c2.13-4.86,4.95-11.76,7.22-18.76a101,101,0,0,0,3.2-12.14c1.56-8.61,2.52-17.28,4-24.48,1.27-6.07,2.94-11.11,5.7-14.21a44.94,44.94,0,0,1,12.71-10m0-1a1,1,0,0,0-.43.1,45.7,45.7,0,0,0-13,10.2c-2.59,2.92-4.42,7.45-5.93,14.67-.84,4-1.51,8.47-2.21,13.17-.56,3.7-1.13,7.53-1.83,11.34a97.27,97.27,0,0,1-3.16,12c-2.34,7.22-5.2,14.14-7.18,18.67a9.9,9.9,0,0,0-.11,7.72,10,10,0,0,0,5.49,5.52,108,108,0,0,0,27,6.7c.32,0,.64,0,1,0a10,10,0,0,0,10-9.23c.37-4.94,1.08-12.39,2.39-19.86a96.38,96.38,0,0,1,2.82-12.1c1.17-3.69,2.45-7.34,3.69-10.87,1.57-4.48,3.06-8.72,4.2-12.68,2-7.09,2.54-12,1.62-15.74a45.67,45.67,0,0,0-6.74-15.11,1.07,1.07,0,0,0-.56-.37l-16.74-4.16a1,1,0,0,0-.24,0Z" fill="#231f20"/><rect x="295.66" y="78.93" width="16.84" height="7.79" transform="translate(28.92 -70.83) rotate(13.94)" fill="#fff"/><path d="M296.85,77l16.35,4.06-1.88,7.56-16.35-4L296.85,77m0-1a1,1,0,0,0-1,.76L294,84.34a1,1,0,0,0,.12.75,1,1,0,0,0,.61.46l16.35,4.06a1,1,0,0,0,.24,0,1,1,0,0,0,1-.75l1.88-7.57a1,1,0,0,0-.12-.75,1,1,0,0,0-.61-.46L297.09,76a1,1,0,0,0-.24,0Z" fill="#231f20"/><path d="M305.64,156.38,269,147.29a101,101,0,0,0,3.2-12.14c1.56-8.61,2.52-17.28,4-24.48l40.11,10c-2,7.08-5.24,15.19-7.89,23.53A99.45,99.45,0,0,0,305.64,156.38Z" fill="#d1d3d4"/><rect x="66.79" y="139.49" width="266.42" height="13.93" rx="6.71" fill="#e93af2"/><path d="M326.5,153.92H73.5a7.22,7.22,0,0,1-7.21-7.21v-.51A7.23,7.23,0,0,1,73.5,139h253a7.23,7.23,0,0,1,7.21,7.21v.51A7.22,7.22,0,0,1,326.5,153.92ZM73.5,140a6.22,6.22,0,0,0-6.21,6.21v.51a6.22,6.22,0,0,0,6.21,6.21h253a6.22,6.22,0,0,0,6.21-6.21v-.51A6.22,6.22,0,0,0,326.5,140Z" fill="#231f20"/><path d="M323.2,153.42l-1.05,5.94-12.43,99.93a11.56,11.56,0,0,1-11.47,10.13H101.88a11.56,11.56,0,0,1-11.49-10.28l-8.76-78.37L76.8,153.42Z" fill="#e93af2"/><path d="M298.25,269.92H101.88a12.06,12.06,0,0,1-12-10.72l-8.76-78.38-4.82-27.31a.48.48,0,0,1,.11-.41.49.49,0,0,1,.38-.18H323.2a.49.49,0,0,1,.38.18.48.48,0,0,1,.11.41l-1.05,5.94-12.42,99.9A12.08,12.08,0,0,1,298.25,269.92ZM77.4,153.92l4.72,26.76,8.77,78.41a11.05,11.05,0,0,0,11,9.83H298.25a11.07,11.07,0,0,0,11-9.69l12.43-99.93,1-5.38Z" fill="#231f20"/><path d="M193.63,171.35c3.63.73,5.62,3.6,7.89,6l-9.15,15.16-11.6-6.85c.14-.25.26-.45.38-.65,2.37-3.74,4.76-7.46,7.08-11.23a4.81,4.81,0,0,1,3.37-2.32,3.21,3.21,0,0,0,.33-.12Z" fill="#fff"/><path d="M211.33,224.87l.27,5.57c-.17-.23-.28-.36-.37-.5q-3.67-5.87-7.35-11.71a.69.69,0,0,1,0-.82q3.41-5.81,6.79-11.62l.31-.45c.07,1.41.12,2.67.17,3.94,0,.52,0,1.05.07,1.57,0,.16.22.41.36.42a42.16,42.16,0,0,0,14.17-.62c1-.26,2-.68,3-1.06a4.73,4.73,0,0,1-.2.47c-2.13,4.09-4.25,8.17-6.4,12.25a3.91,3.91,0,0,1-3.34,2.11c-2.11.17-4.24.26-6.36.38Z" fill="#fff"/><path d="M192.34,204.69l-5-3.13c-3.2,3.47-7.23,9.23-8.59,15.42-.14-.24-.26-.42-.36-.6q-3.19-6-6.39-12a3.64,3.64,0,0,1-.09-3.56c1.16-2.1,2.44-4.14,3.67-6.21L176,194l-4.61-2.84,0-.11c.21,0,.42,0,.63,0l13.53.52c.32,0,.6,0,.78.41,1.94,4.13,3.91,8.26,5.86,12.38Z" fill="#fff"/><path d="M202.2,189.6l5.17-3c-2.19-5.56-4.93-10.75-9.58-14.88h.73l13.59,0a3.93,3.93,0,0,1,3.49,2.06c1.15,1.92,2.28,3.86,3.42,5.79l.37.61,4.85-2.83c-.16.31-.24.47-.33.62-2.31,3.93-4.64,7.86-6.95,11.8a.75.75,0,0,1-.8.47q-6.78-.34-13.57-.65A3.75,3.75,0,0,1,202.2,189.6Z" fill="#fff"/><path d="M199.56,212,199,225.43l-3-.19c-3.79-.26-7.58-.54-11.37-.79a4,4,0,0,1-2.6-1.15,6.35,6.35,0,0,1-2-6.24c.46-2.06,1.12-4.07,1.66-6Z" fill="#fff"/><path d="M212.83,195.24l11.47-7.14c.14.21.26.39.37.57L231.3,200a5.46,5.46,0,0,1-1.07,7,11.59,11.59,0,0,1-4.81,2.45c-1,.29-2,.55-3,.78a.63.63,0,0,1-.56-.2q-4.41-7.19-8.79-14.38Z" fill="#fff"/><path d="M297,153.92H76.8a.51.51,0,0,1-.5-.5.5.5,0,0,1,.5-.5H297a.5.5,0,0,1,.5.5A.5.5,0,0,1,297,153.92Z" fill="#231f20"/><path d="M323.2,153.42l-1.05,5.94s-143.26-4-240.52,21.41L76.8,153.42Z" fill="#231f20"/><path d="M81.63,181.27a.53.53,0,0,1-.27-.08.49.49,0,0,1-.22-.33l-4.83-27.35a.48.48,0,0,1,.11-.41.49.49,0,0,1,.38-.18H323.2a.49.49,0,0,1,.38.18.48.48,0,0,1,.11.41l-1.05,5.94a.53.53,0,0,1-.51.41c-1.43,0-144.3-3.72-240.37,21.39ZM77.4,153.92,82,180.15c93.57-24.32,230.93-21.51,239.7-21.3l.87-4.93Z" fill="#231f20"/><path d="M153.42,235.9h4.37a9,9,0,0,1,1.81.18,4.54,4.54,0,0,1,1.53.61,3.18,3.18,0,0,1,1.05,1.16,3.79,3.79,0,0,1,.4,1.81,4,4,0,0,1-.43,2A3,3,0,0,1,161,242.8a4.72,4.72,0,0,1-1.66.56,12.62,12.62,0,0,1-2,.15h-1.65v5.37h-2.31Zm3.71,5.63c.33,0,.67,0,1,0a3.12,3.12,0,0,0,1-.22,1.67,1.67,0,0,0,.73-.55,2,2,0,0,0,0-2,1.68,1.68,0,0,0-.66-.55,2.85,2.85,0,0,0-.9-.25c-.33,0-.65-.05-1-.05h-1.65v3.65Z" fill="#231f20"/><path d="M168.3,235.9h2.31v10.89h5.52v2.09H168.3Z" fill="#231f20"/><path d="M185.69,235.9h2l5.6,13h-2.65l-1.21-3H183.8l-1.17,3H180Zm2.94,8-2-5.28-2,5.28Z" fill="#231f20"/><path d="M204.77,238.68a2.17,2.17,0,0,0-1-.78,3.52,3.52,0,0,0-1.29-.24,3.33,3.33,0,0,0-.78.09,2.09,2.09,0,0,0-.68.29,1.47,1.47,0,0,0-.49.53,1.5,1.5,0,0,0-.18.76,1.19,1.19,0,0,0,.46,1,4.43,4.43,0,0,0,1.13.6c.46.17.95.34,1.49.5a6,6,0,0,1,1.48.66,3.48,3.48,0,0,1,1.14,1.12,3.27,3.27,0,0,1,.46,1.85,4.14,4.14,0,0,1-.38,1.82,3.81,3.81,0,0,1-1,1.3,4.59,4.59,0,0,1-1.51.77,6.4,6.4,0,0,1-1.82.25,6.8,6.8,0,0,1-2.33-.4,4.47,4.47,0,0,1-1.93-1.36l1.75-1.68a3,3,0,0,0,1.11,1,3.18,3.18,0,0,0,1.46.35,2.8,2.8,0,0,0,.8-.11,2.47,2.47,0,0,0,.74-.33,1.67,1.67,0,0,0,.53-.56,1.51,1.51,0,0,0,.2-.78,1.36,1.36,0,0,0-.46-1.1,4.26,4.26,0,0,0-1.14-.65c-.45-.18-.95-.34-1.48-.5a6.46,6.46,0,0,1-1.49-.65,3.85,3.85,0,0,1-1.14-1.1,3.35,3.35,0,0,1-.45-1.85,3.45,3.45,0,0,1,.41-1.74,3.62,3.62,0,0,1,1.08-1.22,4.71,4.71,0,0,1,1.53-.73,7,7,0,0,1,1.76-.23,6.32,6.32,0,0,1,2,.31,4.73,4.73,0,0,1,1.74,1Z" fill="#231f20"/><path d="M215.26,238h-4V235.9h10.28V238h-4v10.89h-2.32Z" fill="#231f20"/><path d="M226.75,235.9h2.31v13h-2.31Z" fill="#231f20"/><path d="M244.49,238.94a4,4,0,0,0-1.39-1,3.71,3.71,0,0,0-1.35-.25,4.61,4.61,0,0,0-1.82.35,4.17,4.17,0,0,0-1.41,1,4.41,4.41,0,0,0-.9,1.47,4.94,4.94,0,0,0-.32,1.82,5.37,5.37,0,0,0,.32,1.92,4.49,4.49,0,0,0,.9,1.53,4.33,4.33,0,0,0,1.41,1,4.45,4.45,0,0,0,1.82.36,3.39,3.39,0,0,0,1.54-.37,4.23,4.23,0,0,0,1.38-1.2l1.91,1.35a5.11,5.11,0,0,1-2.15,1.76,6.61,6.61,0,0,1-2.69.55,7.71,7.71,0,0,1-2.77-.48,6.39,6.39,0,0,1-2.16-1.38,6.17,6.17,0,0,1-1.42-2.13,7.12,7.12,0,0,1-.52-2.77,7.4,7.4,0,0,1,.52-2.84,6.24,6.24,0,0,1,1.42-2.17,6.42,6.42,0,0,1,2.16-1.39,7.71,7.71,0,0,1,2.77-.48,6.31,6.31,0,0,1,2.44.46,5.64,5.64,0,0,1,2.1,1.59Z" fill="#231f20"/><path d="M302.17,260.35H97.83a.5.5,0,0,1-.5-.5.5.5,0,0,1,.5-.5H302.17a.5.5,0,0,1,.5.5A.5.5,0,0,1,302.17,260.35Z" fill="#231f20"/></g></svg>