<svg width="228" height="205" viewBox="0 0 228 205" fill="none" xmlns="http://www.w3.org/2000/svg">
<path d="M60.4835 4.0232L44.6455 6.99292L46.5593 17.1996L62.3973 14.2299L60.4835 4.0232Z" fill="white"/>
<path d="M46.5511 17.6333C46.4663 17.6287 46.384 17.6023 46.3124 17.5566C46.2214 17.4906 46.1577 17.3935 46.1333 17.2838L44.2235 7.05267C44.2036 6.94192 44.2283 6.82778 44.2922 6.73514C44.356 6.64251 44.454 6.57889 44.5646 6.55816L60.4057 3.58262C60.5162 3.56493 60.6292 3.5905 60.7213 3.65402C60.8134 3.71754 60.8775 3.81411 60.9002 3.92365L62.8186 14.1548C62.8363 14.2647 62.8119 14.3774 62.7503 14.4702C62.7192 14.5168 62.679 14.5567 62.6321 14.5875C62.5853 14.6182 62.5327 14.6392 62.4775 14.6493L46.6449 17.6248L46.5511 17.6333ZM45.1443 7.34255L46.8921 16.7211L61.8978 13.9075L60.1414 4.52899L45.1443 7.34255Z" fill="#231F20"/>
<path d="M60.0675 0.82964L43.8943 3.86221C43.0196 4.02622 42.4432 4.86639 42.6067 5.73878C42.7703 6.61118 43.612 7.18543 44.4867 7.02142L60.6599 3.98885C61.5346 3.82484 62.1111 2.98467 61.9475 2.11227C61.7839 1.23988 60.9422 0.665627 60.0675 0.82964Z" fill="white"/>
<path d="M44.1815 7.48742C43.6804 7.47813 43.2002 7.28444 42.8329 6.9434C42.4656 6.60237 42.2368 6.1379 42.1904 5.63882C42.144 5.13973 42.2831 4.64105 42.5813 4.23811C42.8794 3.83516 43.3156 3.55624 43.8064 3.45467L60.0056 0.41944C60.275 0.3524 60.5553 0.341112 60.8292 0.386274C61.1031 0.431436 61.3649 0.532094 61.5985 0.68207C61.8322 0.832045 62.0327 1.02817 62.1878 1.25843C62.3429 1.48868 62.4493 1.74819 62.5005 2.02104C62.5517 2.2939 62.5466 2.57433 62.4855 2.84514C62.4244 3.11596 62.3086 3.37143 62.1453 3.59589C61.9819 3.82036 61.7744 4.00907 61.5355 4.15046C61.2966 4.29184 61.0313 4.38292 60.7559 4.41809V4.41809L44.5567 7.45332C44.4325 7.47276 44.3072 7.48415 44.1815 7.48742V7.48742ZM60.3808 1.23793H60.1676L43.9684 4.27315C43.6599 4.3311 43.387 4.50908 43.2096 4.76803C43.0321 5.02697 42.9647 5.34573 43.022 5.65435C43.0506 5.80686 43.1092 5.95221 43.1942 6.08201C43.2792 6.21182 43.3891 6.32352 43.5175 6.41069C43.6458 6.49786 43.7902 6.55878 43.9422 6.58993C44.0942 6.62108 44.2509 6.62185 44.4032 6.5922L60.6024 3.5655C60.8874 3.50558 61.1403 3.34286 61.3129 3.10838C61.4855 2.87391 61.5658 2.58409 61.5384 2.29422C61.511 2.00435 61.3778 1.73471 61.1643 1.53674C60.9508 1.33877 60.6719 1.22634 60.3808 1.22088V1.23793Z" fill="#231F20"/>
<path d="M62.6565 13.106L45.8945 16.252C38.1189 19.8414 28.6807 26.8412 26.1826 34.0627L87.5692 22.5527C82.5474 16.7465 71.1994 13.6431 62.6565 13.106Z" fill="white"/>
<path d="M26.1828 34.489C26.1212 34.4869 26.0606 34.4722 26.0049 34.4458C25.9492 34.4194 25.8995 34.3819 25.8588 34.3355C25.8113 34.2783 25.7794 34.2098 25.7659 34.1367C25.7525 34.0635 25.7581 33.9881 25.7821 33.9178C28.3398 26.6707 37.6501 19.6198 45.7583 15.8343C45.7923 15.8304 45.8266 15.8304 45.8606 15.8343L62.6225 12.6882H62.7334C71.6515 13.2765 82.8972 16.4823 87.8933 22.314C87.9431 22.3699 87.9766 22.4385 87.9902 22.5121C88.0037 22.5858 87.9967 22.6618 87.9701 22.7318C87.947 22.803 87.9043 22.8663 87.8471 22.9145C87.7898 22.9627 87.7202 22.9939 87.6461 23.0046L26.1828 34.4805V34.489ZM46.0652 16.6357C38.3919 20.2166 29.6528 26.7475 26.8563 33.5L86.7168 22.2714C81.6609 16.9938 71.1485 14.078 62.6993 13.5067L46.0652 16.6357Z" fill="#231F20"/>
<path d="M25.1172 33.6223L88.335 21.7686L102.489 97.2545C102.712 98.4435 102.453 99.6724 101.77 100.671C101.087 101.669 100.035 102.355 98.8464 102.578L44.5951 112.751C43.4061 112.974 42.1772 112.715 41.1788 112.032C40.1804 111.349 39.4942 110.297 39.2713 109.108L25.1172 33.6223Z" fill="white"/>
<path d="M43.7466 113.268C42.5843 113.265 41.4594 112.858 40.5649 112.116C39.6704 111.374 39.062 110.343 38.8442 109.202L24.6997 33.7131C24.6886 33.6577 24.6886 33.6006 24.6998 33.5451C24.711 33.4897 24.7331 33.437 24.7649 33.3902C24.7966 33.3434 24.8373 33.3033 24.8847 33.2724C24.9321 33.2415 24.9851 33.2203 25.0407 33.2101L88.2519 21.3676C88.3635 21.3443 88.4799 21.3657 88.5759 21.4273C88.6669 21.4933 88.7305 21.5904 88.7549 21.7001L102.916 97.1971C103.037 97.8404 103.03 98.5012 102.896 99.1417C102.761 99.7823 102.501 100.39 102.131 100.93C101.761 101.47 101.289 101.932 100.74 102.289C100.192 102.646 99.5783 102.892 98.9349 103.012L44.6759 113.183C44.3697 113.242 44.0584 113.27 43.7466 113.268V113.268ZM25.612 33.9775L39.6797 109.048C39.8847 110.125 40.507 111.077 41.411 111.696C42.315 112.316 43.4273 112.553 44.5054 112.356L98.7643 102.185C99.8405 101.98 100.792 101.357 101.41 100.453C102.028 99.5487 102.264 98.4363 102.064 97.3591L87.9961 22.2799L25.612 33.9775Z" fill="#231F20"/>
<path d="M88.2379 18.5218L24.0229 30.5625C22.2827 30.8888 21.1366 32.564 21.4629 34.3042C21.7892 36.0443 23.4643 37.1905 25.2045 36.8642L89.4195 24.8235C91.1596 24.4972 92.3058 22.822 91.9795 21.0818C91.6532 19.3417 89.978 18.1955 88.2379 18.5218Z" fill="white"/>
<path d="M24.6139 37.3539C23.7145 37.3453 22.8503 37.0033 22.1886 36.3941C21.5269 35.7849 21.1148 34.9518 21.032 34.0562C20.9493 33.1606 21.2017 32.2661 21.7406 31.546C22.2794 30.8259 23.0663 30.3313 23.9489 30.158L88.1661 18.1194C88.6425 18.0122 89.1356 18.0021 89.616 18.0898C90.0963 18.1775 90.5541 18.3612 90.9619 18.6299C91.3696 18.8985 91.719 19.2467 91.9892 19.6534C92.2593 20.0602 92.4447 20.5173 92.5341 20.9973C92.6236 21.4774 92.6154 21.9705 92.5099 22.4473C92.4044 22.9241 92.2039 23.3747 91.9203 23.7722C91.6367 24.1697 91.2758 24.506 90.8593 24.7608C90.4428 25.0157 89.9792 25.184 89.4961 25.2556L25.279 37.2942C25.0597 37.3352 24.837 37.3552 24.6139 37.3539ZM88.8396 18.9123C88.6667 18.8954 88.4925 18.8954 88.3196 18.9123L24.1024 31.0106C23.7438 31.0772 23.4019 31.2139 23.0963 31.4129C22.7906 31.6119 22.5273 31.8692 22.3213 32.1702C22.1154 32.4712 21.9709 32.8099 21.8961 33.1669C21.8214 33.5239 21.8178 33.8921 21.8856 34.2504C22.0202 34.9751 22.4372 35.6167 23.0447 36.034C23.6523 36.4513 24.4008 36.6102 25.1255 36.4757L89.3427 24.4371C89.8845 24.3387 90.3847 24.0812 90.7795 23.6972C91.1743 23.3133 91.4458 22.8205 91.5592 22.2816C91.6727 21.7427 91.623 21.1822 91.4165 20.6717C91.21 20.1612 90.8561 19.7238 90.3999 19.4153C89.9439 19.0912 89.3991 18.9155 88.8396 18.9123V18.9123Z" fill="#231F20"/>
<path d="M94.5152 52.012L30.3002 64.0528C28.5601 64.379 27.4139 66.0542 27.7402 67.7944C28.0665 69.5345 29.7417 70.6807 31.4819 70.3544L95.6968 58.3137C97.437 57.9874 98.5832 56.3122 98.2569 54.5721C97.9306 52.8319 96.2554 51.6858 94.5152 52.012Z" fill="white"/>
<path d="M30.8893 70.8351C29.9899 70.8265 29.1257 70.4845 28.464 69.8753C27.8023 69.2661 27.3902 68.433 27.3074 67.5374C27.2246 66.6418 27.4771 65.7473 28.016 65.0272C28.5548 64.3071 29.3417 63.8125 30.2243 63.6392L94.4415 51.6006C94.9179 51.4934 95.411 51.4833 95.8914 51.571C96.3717 51.6587 96.8295 51.8424 97.2372 52.1111C97.645 52.3797 97.9944 52.7279 98.2646 53.1346C98.5347 53.5414 98.7201 53.9985 98.8095 54.4785C98.899 54.9586 98.8907 55.4517 98.7853 55.9285C98.6798 56.4053 98.4793 56.8559 98.1957 57.2534C97.9121 57.6509 97.5512 57.9872 97.1347 58.242C96.7182 58.4969 96.2546 58.6652 95.7715 58.7368L31.5543 70.7754C31.3351 70.8164 31.1124 70.8364 30.8893 70.8351ZM95.115 52.3935C94.9421 52.3766 94.7679 52.3766 94.595 52.3935L30.3778 64.4321C29.653 64.5678 29.0119 64.9858 28.5954 65.5942C28.1789 66.2026 28.0211 66.9515 28.1568 67.6762C28.2924 68.4009 28.7104 69.0421 29.3188 69.4586C29.9272 69.8751 30.6762 70.0329 31.4009 69.8972L95.6181 57.8586C96.2941 57.7273 96.8974 57.3496 97.3108 56.7988C97.7243 56.248 97.9185 55.5633 97.8559 54.8774C97.7932 54.1915 97.4782 53.5533 96.9718 53.0865C96.4654 52.6198 95.8037 52.3576 95.115 52.3509V52.3935Z" fill="#231F20"/>
<path d="M100.792 85.4942L36.5766 97.5349C34.8365 97.8612 33.6903 99.5364 34.0166 101.277C34.3429 103.017 36.0181 104.163 37.7582 103.837L101.973 91.7959C103.713 91.4696 104.86 89.7944 104.533 88.0542C104.207 86.3141 102.532 85.1679 100.792 85.4942Z" fill="white"/>
<path d="M37.1647 104.333C36.2653 104.325 35.4011 103.983 34.7394 103.374C34.0777 102.764 33.6656 101.931 33.5828 101.036C33.5 100.14 33.7525 99.2457 34.2914 98.5255C34.8302 97.8054 35.6171 97.3108 36.4997 97.1375L100.717 85.0989C101.192 84.9946 101.683 84.9868 102.161 85.0759C102.639 85.1649 103.095 85.3492 103.5 85.6176C103.906 85.886 104.253 86.2331 104.522 86.6384C104.791 87.0437 104.976 87.4988 105.066 87.9768C105.155 88.4549 105.148 88.946 105.044 89.4212C104.941 89.8964 104.742 90.3459 104.462 90.743C104.181 91.1402 103.823 91.4769 103.41 91.7332C102.997 91.9895 102.536 92.1602 102.055 92.2351L37.8383 104.274C37.6161 104.314 37.3906 104.334 37.1647 104.333V104.333ZM101.39 85.8918C101.216 85.8933 101.042 85.9076 100.87 85.9345L36.6532 97.9731C35.9284 98.1087 35.2873 98.5267 34.8708 99.1351C34.4543 99.7435 34.2965 100.492 34.4322 101.217C34.5678 101.942 34.9858 102.583 35.5942 103C36.2026 103.416 36.9516 103.574 37.6763 103.438L101.893 91.3996C102.253 91.3349 102.596 91.1991 102.902 90.9999C103.208 90.8008 103.471 90.5424 103.675 90.2401C103.884 89.9396 104.03 89.6008 104.106 89.2434C104.182 88.8859 104.187 88.5168 104.12 88.1576C104.052 87.7983 103.914 87.4561 103.714 87.1505C103.513 86.845 103.254 86.5824 102.951 86.3778C102.495 86.0537 101.95 85.878 101.39 85.8748V85.8918Z" fill="#231F20"/>
<path d="M87.5699 46.9624C87.4679 46.9614 87.3697 46.9238 87.293 46.8566C87.2164 46.7893 87.1664 46.6968 87.1521 46.5958L84.6029 30.1579C84.5932 30.1023 84.5949 30.0453 84.6078 29.9904C84.6207 29.9355 84.6447 29.8838 84.6781 29.8384C84.7116 29.793 84.7539 29.7548 84.8025 29.7262C84.8511 29.6976 84.905 29.6791 84.961 29.6719C85.0164 29.6634 85.0729 29.666 85.1274 29.6794C85.1818 29.6928 85.2331 29.7168 85.2782 29.7501C85.3234 29.7834 85.3615 29.8252 85.3905 29.8732C85.4194 29.9213 85.4386 29.9745 85.4469 30.03L87.9536 46.5106C87.962 46.566 87.9595 46.6226 87.9461 46.677C87.9326 46.7315 87.9086 46.7827 87.8753 46.8279C87.8421 46.873 87.8002 46.9111 87.7522 46.9401C87.7042 46.969 87.6509 46.9882 87.5955 46.9965L87.5699 46.9624Z" fill="#D1D3D4"/>
<path d="M144.583 15.2717C144.583 15.2717 143.159 30.013 147.379 32.9374C151.599 35.8618 184.663 43.4072 184.663 43.4072C184.663 43.4072 185.072 53.2035 175.037 52.9563C165.002 52.709 140.354 47.6276 138.794 39.6558C137.233 31.6841 144.583 15.2717 144.583 15.2717Z" fill="#231F20"/>
<path d="M175.387 53.3825H175.011C165.096 53.1352 139.987 48.0538 138.35 39.741C136.781 31.7266 143.866 15.7746 144.165 15.0926C144.179 15.0366 144.205 14.984 144.24 14.9379C144.274 14.8917 144.318 14.8529 144.368 14.8236C144.418 14.7943 144.473 14.7751 144.53 14.7671C144.588 14.7592 144.646 14.7626 144.702 14.7771C144.758 14.7917 144.81 14.8171 144.857 14.852C144.903 14.8868 144.941 14.9305 144.971 14.9803C145 15.0302 145.019 15.0854 145.027 15.1427C145.035 15.2 145.032 15.2583 145.017 15.3142C145.017 15.4592 143.67 29.8083 147.643 32.5877C151.736 35.4354 184.433 42.9467 184.765 42.9894C184.857 43.0089 184.939 43.0594 184.998 43.1323C185.057 43.2053 185.089 43.2963 185.089 43.3901C185.089 43.5691 185.243 47.8918 182.361 50.8162C181.436 51.699 180.34 52.3824 179.14 52.8239C177.941 53.2653 176.663 53.4555 175.387 53.3825V53.3825ZM143.986 17.7953C142.05 22.6039 138.017 33.6109 139.211 39.579C140.686 47.1159 164.789 52.2741 175.02 52.5299C177.893 52.5895 180.136 51.8222 181.73 50.2279C183.921 48.0026 184.185 44.7713 184.211 43.7482C180.536 42.8956 151.173 36.0748 147.115 33.2954C143.841 31.0105 143.781 22.2288 143.986 17.7953Z" fill="#231F20"/>
<path d="M192.166 25.281C194.088 43.2775 194.017 61.4313 191.953 79.412C189.003 104.299 175.25 102.432 175.25 102.432C175.25 102.432 184.501 56.5882 192.166 25.281Z" fill="#231F20"/>
<path d="M175.907 102.918C175.489 102.918 175.233 102.918 175.191 102.918C175.075 102.897 174.971 102.833 174.901 102.739C174.867 102.691 174.843 102.637 174.831 102.58C174.82 102.523 174.82 102.463 174.832 102.406C174.926 101.946 184.168 56.1447 191.748 25.2126C191.751 25.1567 191.764 25.1018 191.788 25.0511C191.813 25.0005 191.846 24.9551 191.888 24.9174C191.929 24.8798 191.978 24.8508 192.031 24.832C192.084 24.8131 192.14 24.8049 192.195 24.8077C192.251 24.8105 192.306 24.8243 192.357 24.8483C192.408 24.8723 192.453 24.906 192.491 24.9476C192.528 24.9892 192.557 25.0377 192.576 25.0905C192.595 25.1433 192.603 25.1993 192.6 25.2553C194.514 43.2891 194.446 61.4783 192.396 79.4971C191.211 89.5066 188.133 96.4722 183.358 100.207C181.243 101.91 178.622 102.863 175.907 102.918ZM175.762 102.065C178.345 102.038 180.842 101.136 182.847 99.5075C187.451 95.9181 190.375 89.14 191.535 79.3863C193.458 62.2396 193.615 44.9407 192.004 27.7619C184.97 56.8182 176.751 97.1884 175.762 102.057V102.065Z" fill="#231F20"/>
<path d="M144.582 15.2717L138.879 15.9026C138.879 15.9026 121.119 76.1979 122.569 86.2329C124.018 96.2679 166.383 108.187 175.25 102.432C184.117 96.6772 192.941 35.3417 192.166 25.2556L187.05 25.1362C187.05 25.1362 184.492 39.6303 178.95 44.6947C173.409 49.7591 145 40.6449 143.073 35.427C141.146 30.2091 144.582 15.2717 144.582 15.2717Z" fill="white"/>
<path d="M167.619 104.333C158.326 104.333 144.215 100.837 134.257 96.3102C129.056 93.94 122.73 90.2739 122.15 86.2582C120.701 76.2658 137.744 18.2128 138.469 15.7489C138.492 15.6669 138.54 15.5939 138.605 15.5391C138.671 15.4844 138.751 15.4506 138.836 15.4419L144.531 14.811C144.599 14.8046 144.668 14.8143 144.732 14.8395C144.795 14.8647 144.852 14.9046 144.898 14.9559C144.944 15.0055 144.976 15.0659 144.993 15.1315C145.009 15.197 145.009 15.2657 144.991 15.3311C144.991 15.4845 141.581 30.2344 143.474 35.2732C144.42 37.831 153.142 41.9064 162.512 44.1998C170.561 46.1778 176.605 46.2375 178.711 44.3703C184.091 39.502 186.657 25.1956 186.683 25.0592C186.699 24.9597 186.75 24.8692 186.826 24.8037C186.903 24.7381 187 24.7018 187.101 24.7011L192.216 24.8204C192.321 24.8224 192.422 24.8638 192.498 24.9365C192.574 25.0092 192.619 25.1078 192.626 25.2126C193.359 34.7446 184.731 96.8303 175.523 102.798C173.817 103.89 171.047 104.333 167.619 104.333ZM139.211 16.2945C137.915 20.7109 121.622 76.7006 123.012 86.207C123.421 89.0376 127.547 92.3798 134.632 95.5855C147.975 101.656 169.248 105.859 175.037 102.116C183.639 96.5575 192.242 36.2196 191.773 25.7156L187.433 25.6133C186.99 27.9494 184.432 40.3717 179.266 45.0524C175.983 48.0194 166.323 46.0585 162.325 45.0524C153.611 42.9124 143.883 38.7944 142.715 35.5801C140.95 30.8397 143.448 18.605 144.071 15.7403L139.211 16.2945Z" fill="#231F20"/>
<path d="M137.77 84.553C137.657 84.5598 137.546 84.5214 137.461 84.4463C137.376 84.3711 137.325 84.2654 137.318 84.1523C137.311 84.0393 137.35 83.9281 137.425 83.8434C137.5 83.7586 137.606 83.7072 137.719 83.7004C167.219 79.9405 175.659 62.8205 175.744 62.65C175.799 62.5611 175.885 62.4955 175.985 62.4656C176.085 62.4357 176.193 62.4436 176.287 62.4877C176.382 62.5319 176.457 62.6093 176.499 62.7052C176.54 62.8011 176.545 62.9089 176.512 63.008C176.427 63.1871 167.815 80.7249 137.83 84.5445L137.77 84.553Z" fill="#D1D3D4"/>
<path d="M146.006 58.6173C143.896 58.6668 141.789 58.4024 139.757 57.8329C138.904 57.5516 138.708 57.2958 138.623 57.1167C138.598 57.0659 138.584 57.0106 138.581 56.9543C138.578 56.8979 138.586 56.8415 138.606 56.7884C138.625 56.7352 138.654 56.6864 138.692 56.6447C138.73 56.603 138.776 56.5693 138.827 56.5455C138.925 56.5015 139.036 56.4955 139.139 56.5286C139.241 56.5616 139.328 56.6315 139.381 56.7246C140.234 57.5772 150.653 59.3932 160.594 54.1668C160.692 54.1226 160.804 54.1174 160.906 54.1523C161.008 54.1872 161.094 54.2596 161.145 54.3549C161.195 54.4501 161.208 54.5611 161.18 54.6655C161.153 54.7699 161.086 54.8598 160.995 54.9171C156.372 57.3476 151.228 58.6175 146.006 58.6173V58.6173Z" fill="#D1D3D4"/>
<path d="M120.173 98.6125C126.124 99.062 132.104 98.3126 137.76 96.4088C143.416 94.5049 148.632 91.4853 153.1 87.5288C153.1 87.5288 137.148 81.9614 120.173 98.6125Z" fill="#231F20"/>
<path d="M122.977 99.1241C121.23 99.1241 120.164 99.0388 120.13 99.0303C120.048 99.0247 119.969 98.995 119.904 98.9449C119.839 98.8949 119.79 98.8267 119.763 98.7489C119.739 98.672 119.736 98.5898 119.756 98.5115C119.775 98.4332 119.816 98.3619 119.874 98.3056C128.724 89.6177 137.31 87.0428 142.954 86.3693C146.398 85.901 149.902 86.1506 153.244 87.1025C153.312 87.1287 153.373 87.1712 153.42 87.2262C153.468 87.2812 153.501 87.3471 153.517 87.418C153.533 87.4901 153.53 87.5652 153.507 87.6356C153.485 87.706 153.444 87.7692 153.389 87.8187C149.059 91.5747 144.093 94.5283 138.725 96.5407C133.662 98.297 128.336 99.1709 122.977 99.1241V99.1241ZM121.17 98.2715C127.019 98.5217 132.864 97.6744 138.401 95.7734C143.418 93.8849 148.09 91.183 152.23 87.7761C148.956 86.9405 135.459 84.7238 121.17 98.2374V98.2715Z" fill="#231F20"/>
<path d="M153.101 87.5373C153.101 87.5373 133.798 88.6968 120.173 98.621C118.622 91.5274 116.763 84.4765 114.811 77.5023C113.208 71.9349 111.443 66.3163 109.363 60.8512C108.502 58.568 107.518 56.3337 106.413 54.1584C104.435 50.3387 104.179 49.6822 109.081 49.8954C109.528 48.6709 109.725 47.3692 109.661 46.0673L115.407 47.7724C115.574 47.8737 115.76 47.9397 115.953 47.9661C116.147 47.9926 116.344 47.979 116.531 47.9262C116.719 47.8734 116.894 47.7826 117.046 47.6594C117.197 47.5361 117.321 47.3831 117.411 47.2097L121.145 42.1709C121.035 42.3159 123.371 44.3535 123.601 44.5496C124.453 45.2829 124.905 45.9991 125.809 45.3255C127.352 44.166 127.514 40.3464 127.344 38.6668C129.616 39.9548 131.782 41.4202 133.823 43.0491C134.472 41.1113 134.761 39.0714 134.676 37.0298C142.963 40.1417 144.532 48.9661 147.03 56.4348C147.883 58.9414 155.172 87.4179 153.101 87.5373Z" fill="white"/>
<path d="M120.173 99.0388C120.123 99.0508 120.07 99.0508 120.02 99.0388C119.952 99.0157 119.892 98.9751 119.846 98.9212C119.8 98.8672 119.768 98.8019 119.755 98.7319C118.289 92.0134 116.533 85.0904 114.393 77.6473C113.071 73.0262 111.264 66.9643 108.97 61.0729C108.109 58.8065 107.13 56.5867 106.037 54.4227C104.963 52.3594 104.332 51.1146 104.844 50.2791C105.355 49.4436 106.549 49.4265 108.783 49.5032C109.141 48.4037 109.294 47.2477 109.235 46.0929C109.229 46.0244 109.241 45.9557 109.27 45.8931C109.298 45.8305 109.342 45.7761 109.397 45.7348C109.449 45.6903 109.511 45.6598 109.578 45.6464C109.645 45.633 109.715 45.637 109.78 45.6581L115.535 47.3632C115.663 47.4478 115.808 47.5031 115.96 47.5251C116.112 47.5471 116.266 47.5353 116.413 47.4905C116.56 47.4457 116.695 47.369 116.808 47.2659C116.922 47.1629 117.011 47.036 117.07 46.8943L120.821 41.8981C120.889 41.8082 120.989 41.7482 121.101 41.7307C121.212 41.7132 121.326 41.7396 121.418 41.8043C121.494 41.8654 121.547 41.9491 121.572 42.0431C122.31 42.804 123.087 43.5267 123.899 44.2086L124.308 44.5838C124.982 45.2062 125.161 45.2829 125.57 44.9675C126.926 43.9529 127.13 40.3294 126.934 38.7009C126.927 38.6222 126.941 38.5431 126.974 38.4713C127.006 38.3995 127.058 38.3375 127.122 38.2917C127.19 38.2503 127.268 38.2284 127.348 38.2284C127.428 38.2284 127.506 38.2503 127.574 38.2917C129.682 39.4795 131.7 40.8217 133.61 42.3074C134.115 40.5929 134.334 38.8069 134.258 37.0213C134.255 36.951 134.268 36.8808 134.298 36.817C134.328 36.7531 134.373 36.6974 134.429 36.6547C134.486 36.6137 134.553 36.5876 134.622 36.5786C134.692 36.5697 134.763 36.5783 134.829 36.6035C142.136 39.3574 144.327 46.3572 146.399 53.1779C146.723 54.2351 147.055 55.2838 147.397 56.3154C147.738 57.3471 155.189 85.3547 153.612 87.6993C153.556 87.7879 153.479 87.8619 153.389 87.9152C153.298 87.9686 153.197 87.9998 153.092 88.0063V88.0063C152.904 88.0063 133.789 89.2511 120.386 98.9962C120.32 99.0275 120.247 99.0421 120.173 99.0388V99.0388ZM107.777 50.3047C106.805 50.3047 105.773 50.3729 105.568 50.7054C105.364 51.0379 106.029 52.5129 106.796 53.9964C107.903 56.188 108.893 58.4362 109.763 60.7319C112.074 66.7 113.89 72.7364 115.22 77.3744C117.291 84.63 119.005 91.3484 120.446 97.8878C133.508 88.6969 151.259 87.2304 152.972 87.1196C153.979 84.954 147.669 59.6661 146.621 56.5371C146.28 55.514 145.947 54.4483 145.615 53.3825C143.637 46.9966 141.59 40.4061 135.111 37.6352C135.13 39.511 134.842 41.3774 134.258 43.16C134.236 43.2246 134.2 43.2831 134.151 43.3306C134.102 43.3781 134.042 43.4131 133.977 43.4328C133.911 43.4531 133.842 43.4566 133.775 43.4432C133.708 43.4298 133.646 43.3999 133.593 43.3561C131.775 41.9083 129.857 40.5893 127.855 39.4086C127.923 41.3354 127.599 44.5241 126.099 45.641C125.067 46.4083 124.394 45.7689 123.746 45.1977L123.362 44.8481C122.598 44.224 121.869 43.5579 121.179 42.853L117.769 47.44C117.536 47.8106 117.202 48.1065 116.806 48.2926C116.311 48.4349 115.783 48.4079 115.305 48.2158L110.113 46.6471C110.103 47.8105 109.896 48.9638 109.499 50.0574C109.469 50.1434 109.412 50.2174 109.337 50.2681C109.262 50.3189 109.172 50.3437 109.081 50.3388C108.723 50.3217 108.254 50.3047 107.777 50.3047Z" fill="#231F20"/>
<path d="M120.181 75.166C120.131 75.1742 120.079 75.1742 120.028 75.166C119.969 75.1459 119.917 75.1122 119.874 75.0678C119.831 75.0233 119.799 74.9694 119.781 74.9103L114.068 58.5235C114.044 58.4512 114.039 58.3737 114.054 58.2989C114.069 58.2241 114.103 58.1545 114.154 58.0972C119.849 51.7453 137.174 49.5712 137.873 49.4519C137.968 49.4384 138.065 49.4582 138.147 49.5079C138.229 49.5576 138.292 49.6342 138.325 49.7247L144.693 67.1517C144.719 67.2214 144.726 67.2963 144.714 67.3694C144.702 67.4425 144.671 67.5114 144.625 67.5694C144.581 67.6268 144.522 67.6712 144.454 67.6982C144.387 67.7251 144.313 67.7337 144.242 67.7229C135.912 66.6316 120.539 75.0296 120.369 75.1149C120.311 75.1453 120.247 75.1628 120.181 75.166V75.166ZM114.955 58.4638L120.42 74.1259C122.978 72.7532 135.69 66.2224 143.662 66.8106L137.642 50.313C135.204 50.6199 120.181 52.9475 114.955 58.4638Z" fill="#D1D3D4"/>
<path d="M96.8041 41.2415C96.8041 41.2415 96.7615 53.1777 101.502 63.5282C106.242 73.8787 109.337 87.9976 106.831 92.7977C104.324 97.5978 91.7397 100.761 91.7397 100.761C91.7397 100.761 91.6204 75.6776 92.3451 65.9325C93.0698 56.1874 96.8041 41.2415 96.8041 41.2415Z" fill="#231F20"/>
<path d="M91.7383 101.204C91.6465 101.202 91.5574 101.172 91.4825 101.119C91.4305 101.079 91.3882 101.027 91.3587 100.968C91.3292 100.909 91.3133 100.844 91.312 100.778C91.312 100.531 91.1927 75.567 91.9174 65.9241C92.6421 56.2813 96.3508 41.3013 96.3935 41.199C96.407 41.0859 96.465 40.9829 96.5545 40.9125C96.644 40.8422 96.7579 40.8103 96.8709 40.8239C96.984 40.8374 97.087 40.8954 97.1574 40.9849C97.2277 41.0744 97.2596 41.1882 97.2461 41.3013C97.2461 41.4207 97.2461 53.2973 101.901 63.409C106.599 73.6401 109.864 88.0063 107.23 93.0536C104.672 97.9645 92.3863 101.102 91.8833 101.238L91.7383 101.204ZM96.5128 44.3195C95.3959 49.1707 93.29 58.9841 92.77 65.9838C92.1135 74.7996 92.1561 96.481 92.1646 100.224C94.5604 99.5589 104.357 96.643 106.454 92.6188C108.935 87.8613 105.601 73.5719 101.108 63.7245C97.8002 56.5883 96.8283 48.5824 96.5128 44.3195V44.3195Z" fill="#231F20"/>
<path d="M67.8743 38.4194C67.8743 38.4194 65.3166 55.4713 61.9659 60.8085L53.9941 57.8159C53.9941 57.8159 56.6628 47.8917 60.1925 43.5094C62.1025 40.9915 64.811 39.1968 67.8743 38.4194V38.4194Z" fill="#231F20"/>
<path d="M61.9913 61.2348C61.9405 61.2429 61.8887 61.2429 61.8379 61.2348L53.8661 58.2422C53.7677 58.2038 53.687 58.1302 53.6397 58.0357C53.5925 57.9412 53.582 57.8324 53.6104 57.7306C53.7212 57.3214 56.3387 47.6701 59.8854 43.2366C61.8544 40.6313 64.6553 38.7781 67.8231 37.9846C67.8905 37.9761 67.959 37.9824 68.0238 38.003C68.0885 38.0236 68.1481 38.0581 68.1982 38.104C68.2444 38.1522 68.2792 38.2102 68.2998 38.2736C68.3205 38.3371 68.3266 38.4044 68.3176 38.4706C68.2153 39.1697 65.6831 55.6844 62.3494 61.0302C62.3132 61.0929 62.261 61.1449 62.198 61.1809C62.1351 61.2168 62.0638 61.2354 61.9913 61.2348ZM54.5312 57.5516L61.8038 60.2884C64.6088 55.4031 66.8767 42.06 67.3712 38.9736C64.6739 39.857 62.2999 41.5218 60.5505 43.7567C57.4726 47.5677 55.0342 55.7356 54.5056 57.5516H54.5312Z" fill="#231F20"/>
<path d="M64.8138 35.1968C64.8138 35.1968 52.1699 52.3253 46.9094 66.3419C39.9863 84.6641 42.7317 94.3666 52.0249 99.4225C59.9881 103.762 91.6278 105.16 95.7714 97.9219C99.915 90.6834 91.679 53.1182 96.803 41.2416C96.803 41.2416 93.1454 36.7059 90.9713 39.8519C90.0079 41.2416 88.4136 59.7514 88.4136 59.7514C88.4136 59.7514 60.9857 59.3336 57.7203 55.3265C57.7203 55.3265 63.5861 44.0637 67.8576 38.4025C67.6222 37.6746 67.2266 37.0087 66.6998 36.4539C66.1731 35.8991 65.5286 35.4695 64.8138 35.1968Z" fill="white"/>
<path d="M75.3864 103.481C65.7521 103.481 55.6404 101.955 51.7526 99.8402C41.5897 94.2898 39.9101 83.6409 46.475 66.2395C51.7355 52.3252 64.3795 35.1626 64.4647 34.9921C64.517 34.9182 64.5918 34.8634 64.6778 34.8357C64.7639 34.808 64.8567 34.809 64.9422 34.8386C65.7272 35.1291 66.4356 35.595 67.0133 36.2008C67.5911 36.8066 68.0228 37.5363 68.2758 38.3342C68.2965 38.3989 68.3011 38.4676 68.2892 38.5345C68.2773 38.6013 68.2493 38.6643 68.2076 38.7179C64.3795 43.8334 59.1701 53.5786 58.2578 55.3178C61.4295 58.2678 80.34 59.2398 88.0218 59.3762C88.3629 55.531 89.6758 41.0284 90.5796 39.6728C90.8057 39.2987 91.1195 38.9852 91.4938 38.7594C91.8681 38.5337 92.2917 38.4024 92.7281 38.3768C94.8681 38.3172 96.9911 40.9346 97.1019 41.0284C97.1529 41.089 97.1855 41.1629 97.1961 41.2414C97.2067 41.3199 97.1947 41.3998 97.1616 41.4718C94.4845 47.6701 95.5246 61.4053 96.4454 73.5292C97.298 84.8772 98.0483 94.6735 96.0362 98.1776C93.8791 101.963 84.8587 103.481 75.3864 103.481ZM64.9592 35.7253C63.3393 37.9591 52.1703 53.6297 47.2765 66.4953C40.8906 83.3937 42.4423 93.7356 52.1618 99.0473C60.4149 103.549 91.4492 104.487 95.3285 97.7087C97.2128 94.4347 96.4369 84.2889 95.6269 73.5548C94.672 60.9023 93.6745 47.8236 96.309 41.3353C95.806 40.7726 94.2287 39.1357 92.7878 39.1868C92.4854 39.2077 92.193 39.3036 91.937 39.4659C91.6809 39.6281 91.4693 39.8516 91.3213 40.1161C90.6648 41.054 89.4542 52.6919 88.8403 59.8025C88.8317 59.9095 88.783 60.0094 88.704 60.0821C88.625 60.1548 88.5214 60.195 88.414 60.1947V60.1947C87.2886 60.1947 60.756 59.7257 57.4138 55.6162C57.3601 55.5518 57.3265 55.4729 57.3174 55.3895C57.3083 55.3061 57.3241 55.2218 57.3626 55.1473C57.4223 55.0365 63.1773 44.0636 67.4062 38.3342C66.9657 37.1764 66.0864 36.239 64.9592 35.7253V35.7253Z" fill="#231F20"/>
<path d="M53.466 73.444C52.3577 73.444 51.7182 73.444 51.6841 73.444C51.571 73.444 51.4626 73.3991 51.3827 73.3192C51.3027 73.2392 51.2578 73.1308 51.2578 73.0177C51.2578 72.9047 51.3027 72.7963 51.3827 72.7163C51.4626 72.6364 51.571 72.5915 51.6841 72.5915C51.8973 72.5915 72.9989 73.444 85.5831 64.7647C85.6289 64.7292 85.6813 64.7035 85.7373 64.6889C85.7933 64.6744 85.8517 64.6714 85.9088 64.6802C85.966 64.689 86.0208 64.7093 86.0699 64.7399C86.119 64.7705 86.1613 64.8108 86.1944 64.8583C86.2274 64.9058 86.2504 64.9595 86.262 65.0162C86.2736 65.0728 86.2735 65.1313 86.2618 65.1879C86.2501 65.2446 86.2269 65.2982 86.1938 65.3457C86.1607 65.3931 86.1183 65.4333 86.0691 65.4638C75.4544 72.7876 58.9056 73.444 53.466 73.444Z" fill="#D1D3D4"/>
<path d="M63.4239 95.2531C63.3108 95.2667 63.197 95.2348 63.1075 95.1645C63.0179 95.0941 62.96 94.9911 62.9464 94.878C62.9329 94.7649 62.9648 94.6511 63.0351 94.5616C63.1055 94.472 63.2085 94.4141 63.3216 94.4006C63.5006 94.3579 81.2771 89.933 86.8701 81.5435C86.9342 81.4494 87.0326 81.3843 87.1442 81.362C87.2558 81.3396 87.3716 81.362 87.467 81.4241C87.5604 81.4866 87.6254 81.5835 87.6477 81.6937C87.6701 81.8039 87.648 81.9184 87.5863 82.0124C81.8057 90.6832 64.2679 95.0485 63.5262 95.2276L63.4239 95.2531Z" fill="#D1D3D4"/>
<path d="M103.88 67.9873C103.88 67.9873 109.763 72.4378 113.062 74.5864C116.362 76.7349 122.526 83.6324 122.526 83.6324C122.526 83.6324 125.544 80.3328 127.403 81.9272C128.357 82.804 129.539 83.3948 130.813 83.6324C130.813 83.6324 129.961 78.747 134.223 80.6142C138.486 82.4814 140.686 75.1661 144.847 87.0768C149.007 98.9875 146.134 103.864 143.994 105.442C141.854 107.019 136.815 105.297 130.932 106.874C125.05 108.451 121.034 109.321 116.157 107.727C111.28 106.132 103.812 104.563 103.812 104.563C103.812 104.563 107.034 72.4378 103.88 67.9873Z" fill="white"/>
<path d="M103.88 67.9875C103.88 67.9875 109.763 72.438 113.062 74.5865C116.362 76.7351 122.526 83.6325 122.526 83.6325C122.526 83.6325 124.487 81.484 126.226 81.484C126.658 81.4718 127.079 81.6242 127.403 81.9103C128.357 82.7871 129.539 83.3779 130.813 83.6155C130.813 83.6155 130.208 80.2051 132.518 80.2051C133.11 80.2306 133.69 80.3756 134.223 80.6314C134.707 80.8458 135.229 80.9562 135.758 80.9554C137.267 80.9554 138.529 80.1028 139.782 80.1028C141.317 80.1028 142.852 81.3902 144.847 87.1111C149.007 99.0474 146.134 103.899 143.994 105.476C143.142 106.098 141.837 106.209 140.217 106.209C139.365 106.209 138.41 106.209 137.387 106.209C135.213 106.164 133.042 106.407 130.932 106.934C127.241 107.931 124.282 108.639 121.392 108.639C119.613 108.636 117.845 108.348 116.157 107.786C111.272 106.209 103.812 104.623 103.812 104.623C103.812 104.623 106.966 72.4892 103.812 68.0386L103.88 67.9875ZM103.812 67.186C103.59 67.189 103.377 67.274 103.215 67.4248C103.068 67.5666 102.976 67.7565 102.958 67.9599C102.939 68.1634 102.994 68.3668 103.112 68.5331C104.315 70.2383 105.252 81.1941 102.967 104.538C102.946 104.746 103.002 104.955 103.124 105.125C103.247 105.295 103.428 105.414 103.632 105.459C103.709 105.459 111.11 107.053 115.893 108.605C117.669 109.178 119.525 109.466 121.392 109.458C124.461 109.458 127.633 108.673 131.154 107.752C133.191 107.241 135.287 107.006 137.387 107.053H138.913H140.217C142.101 107.053 143.474 106.9 144.48 106.201C146.373 104.811 150.278 100.139 145.64 86.8638C143.764 81.484 142.059 79.2843 139.774 79.2843C139.055 79.3219 138.347 79.4745 137.676 79.7362C137.06 79.9764 136.41 80.1174 135.75 80.154C135.339 80.1558 134.932 80.0716 134.556 79.9067C133.92 79.5978 133.225 79.4265 132.518 79.4037C132.154 79.3927 131.791 79.4635 131.458 79.6111C131.125 79.7586 130.828 79.9791 130.591 80.2563C130.107 80.9229 129.848 81.726 129.85 82.5497C129.132 82.2488 128.467 81.8343 127.88 81.322C127.405 80.9164 126.8 80.6955 126.175 80.6996C124.79 80.8589 123.5 81.4842 122.517 82.473C120.863 80.674 116.251 75.7546 113.471 73.9471C110.232 71.8327 104.391 67.4248 104.332 67.3736C104.184 67.2629 104.005 67.2031 103.82 67.2031L103.812 67.186Z" fill="#231F20"/>
<path d="M103.88 104.572C107.92 104.572 111.195 96.3842 111.195 86.2839C111.195 76.1837 107.92 67.9958 103.88 67.9958C99.8396 67.9958 96.5645 76.1837 96.5645 86.2839C96.5645 96.3842 99.8396 104.572 103.88 104.572Z" fill="white"/>
<path d="M103.879 67.9874C107.92 67.9874 111.194 76.1808 111.194 86.284C111.194 96.3872 107.92 104.572 103.879 104.572C99.8375 104.572 96.5635 96.3787 96.5635 86.284C96.5635 76.1893 99.8375 67.9874 103.879 67.9874ZM103.879 67.1348C99.3003 67.1348 95.7109 75.5413 95.7109 86.284C95.7109 97.0266 99.3003 105.425 103.879 105.425C108.457 105.425 112.047 97.0181 112.047 86.284C112.047 75.5498 108.457 67.1348 103.879 67.1348Z" fill="#231F20"/>
<path d="M121.802 99.1071H121.691C121.582 99.0753 121.49 99.0022 121.434 98.9035C121.378 98.8047 121.363 98.6881 121.392 98.5785C124.666 87.0855 122.245 83.948 122.245 83.9139C122.174 83.8266 122.141 83.715 122.152 83.6032C122.163 83.4915 122.218 83.3887 122.305 83.3171C122.394 83.248 122.507 83.2157 122.619 83.2267C122.732 83.2378 122.836 83.2915 122.91 83.3768C123.021 83.5132 125.647 86.898 122.254 98.8172C122.224 98.9109 122.163 98.9913 122.08 99.0443C121.998 99.0973 121.899 99.1196 121.802 99.1071V99.1071Z" fill="#D1D3D4"/>
<path d="M133.72 99.4734C133.664 99.4701 133.609 99.4559 133.559 99.4314C133.508 99.4069 133.463 99.3726 133.426 99.3307C133.389 99.2887 133.36 99.2398 133.342 99.1867C133.323 99.1337 133.316 99.0775 133.319 99.0215C133.942 87.5116 130.617 83.9648 130.582 83.9307C130.543 83.8909 130.511 83.8437 130.49 83.7918C130.468 83.7399 130.457 83.6842 130.457 83.628C130.457 83.5718 130.468 83.5161 130.49 83.4642C130.511 83.4123 130.543 83.3651 130.582 83.3253C130.622 83.2856 130.669 83.254 130.721 83.2325C130.773 83.211 130.829 83.2 130.885 83.2C130.941 83.2 130.997 83.211 131.049 83.2325C131.101 83.254 131.148 83.2856 131.188 83.3253C131.333 83.4788 134.82 87.1108 134.172 99.0642C134.165 99.178 134.114 99.2847 134.03 99.3612C133.945 99.4378 133.834 99.4781 133.72 99.4734V99.4734Z" fill="#D1D3D4"/>
<path d="M141.53 74.3901C141.53 74.3901 143.96 89.6856 146.134 93.2068C148.308 96.728 153.714 101.869 153.714 101.869C156.564 102.479 159.534 102.181 162.206 101.016C164.878 99.8502 167.117 97.8766 168.609 95.3724C168.609 95.3724 164.542 89.6856 164.542 86.9829C164.542 84.2802 165.897 74.3901 165.897 74.3901H141.53Z" fill="white"/>
<path d="M156.536 102.628C155.55 102.64 154.566 102.54 153.603 102.33C153.535 102.308 153.471 102.273 153.415 102.227C153.194 102.014 147.942 97.001 145.742 93.4713C143.542 89.9416 141.181 75.1236 141.078 74.5012C141.069 74.439 141.073 74.3753 141.09 74.3149C141.108 74.2545 141.139 74.1987 141.181 74.1516C141.221 74.1051 141.271 74.0681 141.327 74.043C141.383 74.018 141.443 74.0056 141.505 74.0067H165.872C165.933 74.0061 165.994 74.0188 166.05 74.0438C166.106 74.0688 166.155 74.1056 166.196 74.1516C166.235 74.197 166.264 74.25 166.282 74.3072C166.299 74.3644 166.305 74.4246 166.298 74.4841C166.298 74.5864 164.943 84.3742 164.943 87.0257C164.943 89.6773 168.89 95.1168 168.933 95.168C168.978 95.2393 169.002 95.3221 169.002 95.4067C169.002 95.4913 168.978 95.5741 168.933 95.6454C167.657 97.7913 165.841 99.5653 163.666 100.791C161.491 102.016 159.032 102.649 156.536 102.628ZM153.927 101.528C156.63 102.1 159.444 101.82 161.982 100.727C164.519 99.6334 166.656 97.7808 168.097 95.4238C167.304 94.2983 164.115 89.5409 164.115 87.0257C164.115 84.5106 165.139 76.8969 165.411 74.8593H142.033C142.468 77.5023 144.591 89.9672 146.492 93.028C148.462 96.1826 153.219 100.829 153.927 101.486V101.528Z" fill="#231F20"/>
<path d="M153.714 79.6679C160.443 79.6679 165.897 77.305 165.897 74.3903C165.897 71.4756 160.443 69.1128 153.714 69.1128C146.985 69.1128 141.53 71.4756 141.53 74.3903C141.53 77.305 146.985 79.6679 153.714 79.6679Z" fill="#231F20"/>
<path d="M153.714 80.0942C146.637 80.0942 141.104 77.5876 141.104 74.3903C141.104 71.1931 146.637 68.678 153.714 68.678C160.79 68.678 166.324 71.1846 166.324 74.3903C166.324 77.5961 160.782 80.0942 153.714 80.0942ZM153.714 69.5306C147.336 69.5306 141.957 71.7558 141.957 74.3903C141.957 77.0248 147.336 79.2416 153.714 79.2416C160.091 79.2416 165.471 77.0163 165.471 74.3903C165.471 71.7644 160.083 69.5306 153.714 69.5306V69.5306Z" fill="#231F20"/>
<path d="M150.704 93.5054H150.175C150.119 93.5032 150.064 93.49 150.013 93.4665C149.962 93.4431 149.917 93.4098 149.879 93.3686C149.841 93.3274 149.811 93.2791 149.792 93.2265C149.772 93.1739 149.764 93.1181 149.766 93.0621C149.775 92.9505 149.825 92.8463 149.907 92.7704C149.99 92.6945 150.097 92.6525 150.209 92.6528C157.226 92.9001 161.591 87.4605 161.634 87.4009C161.704 87.3115 161.807 87.2537 161.92 87.2401C162.032 87.2265 162.146 87.2583 162.235 87.3284C162.324 87.3985 162.382 87.5012 162.396 87.6139C162.409 87.7266 162.378 87.8401 162.308 87.9295C162.12 88.1341 157.831 93.5054 150.704 93.5054Z" fill="#D1D3D4"/>
<path d="M74.1745 78.2866L70.6363 61.968C70.6307 61.8277 70.5953 61.6902 70.5325 61.5647C70.4697 61.4392 70.3808 61.3284 70.2719 61.2399C70.163 61.1513 70.0365 61.087 69.9007 61.0511C69.765 61.0153 69.6232 61.0087 69.4848 61.0319C69.3463 61.0551 69.2144 61.1074 69.0978 61.1856C68.9811 61.2637 68.8824 61.3657 68.8083 61.4849C68.7341 61.6041 68.6862 61.7377 68.6677 61.8769C68.6492 62.016 68.6605 62.1575 68.7009 62.292L70.6107 72.3611L67.8654 72.8215L66.0323 62.7438C66.0267 62.6036 65.9913 62.4661 65.9285 62.3406C65.8657 62.215 65.7768 62.1043 65.6679 62.0158C65.559 61.9272 65.4325 61.8629 65.2967 61.827C65.161 61.7911 65.0192 61.7846 64.8808 61.8077C64.7423 61.8309 64.6104 61.8833 64.4937 61.9614C64.3771 62.0395 64.2784 62.1416 64.2043 62.2608C64.1301 62.38 64.0822 62.5136 64.0637 62.6527C64.0452 62.7919 64.0565 62.9334 64.0969 63.0678L65.6572 73.1881L62.9118 73.6485L61.4368 63.5112C61.426 63.3746 61.3869 63.2417 61.322 63.121C61.257 63.0004 61.1678 62.8945 61.0598 62.8101C60.9518 62.7258 60.8275 62.6648 60.6947 62.631C60.5619 62.5972 60.4235 62.5914 60.2883 62.6139C60.1532 62.6365 60.0242 62.6868 59.9095 62.7618C59.7948 62.8369 59.697 62.9349 59.6222 63.0497C59.5474 63.1645 59.4973 63.2936 59.475 63.4289C59.4528 63.5641 59.4589 63.7024 59.4929 63.8352L61.4794 80.4607C61.6871 81.6684 62.2357 82.7916 63.0604 83.6979C63.8852 84.6042 64.9518 85.2559 66.1346 85.5762L70.5169 118.333C70.5845 118.842 70.7541 119.333 71.0154 119.775C71.2767 120.218 71.6244 120.603 72.0379 120.909C72.4513 121.214 72.922 121.433 73.4219 121.552C73.9217 121.672 74.4405 121.689 74.9473 121.604C75.4541 121.519 75.9386 121.332 76.3718 121.056C76.8049 120.779 77.178 120.418 77.4687 119.994C77.7594 119.571 77.9618 119.093 78.0638 118.589C78.1658 118.085 78.1653 117.566 78.0624 117.062L71.4804 84.664C72.4911 83.9688 73.2819 82.999 73.7593 81.8689C74.2366 80.7389 74.3807 79.4959 74.1745 78.2866V78.2866Z" fill="white"/>
<path d="M74.2772 122.084C73.354 122.089 72.455 121.789 71.7194 121.232C71.2583 120.894 70.8697 120.467 70.5767 119.977C70.2838 119.486 70.0925 118.941 70.0142 118.375L65.7001 85.8575C64.4968 85.4806 63.4215 84.7774 62.5937 83.8262C61.7659 82.875 61.218 81.7129 61.0109 80.4691L59.0243 63.8691C58.9536 63.4932 59.0325 63.1044 59.2444 62.7858C59.4562 62.4673 59.7842 62.2441 60.1583 62.164C60.3496 62.1305 60.5459 62.1399 60.7332 62.1915C60.9204 62.2431 61.0939 62.3356 61.2411 62.4624C61.5439 62.7116 61.7442 63.0637 61.8038 63.4514L63.2191 73.1709L65.1204 72.8469L63.6965 63.1274C63.6301 62.7426 63.7026 62.3467 63.9012 62.0105C64.002 61.845 64.1371 61.7031 64.2974 61.5943C64.4577 61.4854 64.6395 61.4122 64.8305 61.3796C65.0205 61.3474 65.2152 61.3575 65.4009 61.4091C65.5865 61.4607 65.7585 61.5525 65.9047 61.678C66.2065 61.9294 66.409 62.2799 66.476 62.667L68.1812 72.3268L70.091 72.0114L68.2579 62.3771C68.184 61.9868 68.2569 61.583 68.4625 61.2432C68.5615 61.0771 68.6949 60.9341 68.8537 60.8238C69.0125 60.7135 69.1931 60.6385 69.3833 60.6037C69.7381 60.5516 70.0992 60.6403 70.3894 60.851C70.5603 60.9745 70.705 61.1308 70.8148 61.3109C70.9246 61.491 70.9973 61.6911 71.0288 61.8997L74.5671 78.2012C74.7692 79.4447 74.6265 80.7197 74.1545 81.8877C73.6825 83.0557 72.8992 84.0719 71.8899 84.8258L78.4208 116.96C78.5472 117.579 78.5343 118.219 78.383 118.833C78.2316 119.447 77.9457 120.019 77.5458 120.509C77.1459 120.999 76.6421 121.393 76.0708 121.664C75.4996 121.935 74.8753 122.076 74.2431 122.076L74.2772 122.084ZM60.4226 62.9824H60.3544C60.1941 63.0281 60.0585 63.1354 59.977 63.2807C59.8955 63.4261 59.8749 63.5978 59.9196 63.7583L61.8976 80.3583C62.0958 81.4842 62.6097 82.5306 63.3795 83.3759C64.1493 84.2211 65.1433 84.8304 66.2458 85.1328C66.3264 85.153 66.3989 85.1973 66.4537 85.2597C66.5086 85.3221 66.5431 85.3998 66.5527 85.4823L70.9095 118.264C70.954 118.731 71.0941 119.182 71.3209 119.592C71.5477 120.002 71.8564 120.36 72.2278 120.645C72.5993 120.93 73.0254 121.136 73.4797 121.249C73.934 121.362 74.4067 121.381 74.8685 121.303C75.3302 121.226 75.7711 121.054 76.1636 120.799C76.5561 120.544 76.8918 120.21 77.1499 119.82C77.4079 119.429 77.5828 118.989 77.6636 118.528C77.7443 118.067 77.7293 117.594 77.6194 117.139L71.0373 84.7406C71.0204 84.6594 71.0275 84.575 71.0578 84.4977C71.088 84.4205 71.1402 84.3538 71.2079 84.3058C72.1648 83.664 72.9155 82.759 73.3694 81.7C73.8233 80.6409 73.9609 79.4732 73.7656 78.3376L70.2274 62.0275C70.2151 61.9253 70.1823 61.8265 70.1311 61.7371C70.0798 61.6478 70.0111 61.5697 69.929 61.5075C69.8775 61.4677 69.8184 61.4388 69.7554 61.4227C69.6923 61.4066 69.6266 61.4035 69.5624 61.4137C69.4923 61.4283 69.426 61.457 69.3674 61.4981C69.3087 61.5391 69.2591 61.5916 69.2213 61.6524C69.1254 61.8139 69.092 62.005 69.1275 62.1895L71.0373 72.2416C71.0503 72.2973 71.0509 72.3552 71.0391 72.4111C71.0273 72.4671 71.0034 72.5198 70.9691 72.5656C70.9388 72.6129 70.8988 72.6533 70.8518 72.6841C70.8048 72.715 70.7518 72.7356 70.6963 72.7446L67.9424 73.205C67.833 73.2225 67.721 73.1967 67.6303 73.133C67.5396 73.0693 67.4772 72.9728 67.4565 72.864L65.6234 62.7863C65.5958 62.5981 65.5021 62.4259 65.3591 62.3004C65.3041 62.2544 65.2398 62.2207 65.1707 62.2016C65.1016 62.1825 65.0292 62.1784 64.9584 62.1895C64.8881 62.2003 64.8213 62.2276 64.7635 62.2691C64.7058 62.3106 64.6586 62.3651 64.6259 62.4283C64.5337 62.5912 64.4978 62.78 64.5235 62.9654L66.0838 73.0942C66.1011 73.2049 66.0741 73.3179 66.0087 73.4088C65.9432 73.4998 65.8447 73.5613 65.7342 73.5802L62.9889 74.0406C62.875 74.058 62.7588 74.0305 62.6649 73.9638C62.6192 73.9306 62.5807 73.8886 62.5514 73.8403C62.5221 73.792 62.5027 73.7383 62.4944 73.6825L61.0194 63.5452C60.9965 63.3601 60.9015 63.1916 60.7551 63.0762C60.6595 63.0053 60.5412 62.9719 60.4226 62.9824Z" fill="#231F20"/>
<path d="M64.6353 110.856C59.1532 116.389 39.1514 110.003 22.7305 93.7613C6.30954 77.5194 -1.29558 58.5833 4.18659 53.0415C9.66875 47.4996 26.1834 57.4409 42.5617 73.6998C58.94 89.9587 70.109 105.314 64.6353 110.856Z" fill="white"/>
<path d="M58.5809 113.209C49.7651 113.209 35.0835 106.541 22.4651 94.0594C6.70925 78.5167 -2.13213 58.8218 3.87864 52.7428C6.64104 49.9549 12.0294 50.6796 19.4725 54.8317C26.2933 58.6428 34.606 65.2333 42.8591 73.3926C68.9996 99.2176 67.9083 108.144 64.9327 111.154C63.5686 112.527 61.3604 113.209 58.5809 113.209ZM8.42295 51.9158C7.70412 51.8733 6.98416 51.9776 6.30695 52.2224C5.62974 52.4672 5.00948 52.8473 4.48398 53.3397C1.92621 55.8974 2.39513 61.8656 5.63498 69.2149C9.14766 77.2293 15.3204 85.8404 23.0278 93.4541C30.7353 101.068 39.4573 106.857 47.9406 110.071C55.6139 112.987 61.744 113.166 64.3274 110.549C68.9399 105.885 60.6868 92.2263 42.2623 73.9979C34.0604 65.8898 25.8158 59.3504 19.0548 55.5734C14.698 53.1777 11.1086 51.9158 8.42295 51.9158Z" fill="#231F20"/>
<path d="M53.8499 105.015C47.5578 105.015 35.8858 99.4651 26.3794 90.0695C13.5905 77.4512 7.77584 63.571 11.2629 60.0412C15.7732 55.4799 32.1003 70.656 38.9125 77.3915C44.335 82.7458 50.3798 88.8674 54.1312 93.6845C58.1896 98.8853 59.2468 102.108 57.5416 103.856C56.5103 104.711 55.1848 105.127 53.8499 105.015ZM13.5649 59.9986C13.2545 59.9781 12.9431 60.0212 12.6499 60.1253C12.3567 60.2294 12.0878 60.3923 11.8598 60.604C9.06325 63.4346 14.1788 76.8032 26.9677 89.4301C39.1427 101.46 53.8073 106.38 56.9363 103.216C58.2578 101.878 57.0897 98.8342 53.4492 94.179C49.8086 89.5239 43.704 83.2999 38.3071 77.9798C26.7375 66.555 17.6574 59.9986 13.5649 59.9986Z" fill="#D1D3D4"/>
<path d="M51.3437 65.1142C49.5277 58.4469 45.2306 55.9659 41.0614 57.0998C36.8923 58.2338 34.4368 62.5393 36.2443 69.2151C37.6085 74.2284 40.9932 79.1564 44.3695 80.8019L52.2986 114.275C52.3879 114.661 52.5544 115.026 52.7881 115.347C53.0218 115.668 53.3179 115.939 53.6587 116.142C53.9994 116.346 54.3777 116.479 54.7711 116.533C55.1644 116.587 55.5646 116.562 55.9477 116.457L57.6529 115.997C58.036 115.893 58.3943 115.713 58.7062 115.468C59.0182 115.223 59.2775 114.917 59.4685 114.569C59.6596 114.221 59.7785 113.838 59.8181 113.444C59.8577 113.049 59.8172 112.65 59.6991 112.271L49.7579 79.8725C52.1963 76.9396 52.8016 70.4855 51.3437 65.1142Z" fill="white"/>
<path d="M55.1714 116.977C54.5709 116.971 53.9826 116.806 53.4662 116.5C53.0756 116.267 52.7366 115.958 52.4698 115.59C52.203 115.222 52.014 114.803 51.9145 114.36L44.0365 81.1088C40.6262 79.3524 37.2158 74.45 35.8687 69.343C35.0161 66.0946 35.0161 63.1873 36.0563 60.9194C36.5154 59.8963 37.1958 58.9879 38.0484 58.2595C38.9011 57.5312 39.9047 57.0011 40.9869 56.7075C42.0692 56.4139 43.2031 56.3641 44.3069 56.5617C45.4107 56.7593 46.457 57.1993 47.3702 57.8501C49.3823 59.2995 50.9084 61.7805 51.7866 65.0204C53.2957 70.5793 52.6392 76.9567 50.2264 79.9578L60.1079 112.169C60.238 112.603 60.2804 113.058 60.2326 113.508C60.1848 113.959 60.0477 114.395 59.8295 114.792C59.6112 115.189 59.3161 115.538 58.9613 115.82C58.6066 116.101 58.1993 116.309 57.7633 116.432L56.0581 116.884C55.7683 116.956 55.4699 116.987 55.1714 116.977V116.977ZM43.0049 57.2533C42.3856 57.2532 41.769 57.3364 41.1718 57.5005C40.204 57.7458 39.3057 58.2111 38.5471 58.8603C37.7885 59.5095 37.1899 60.325 36.798 61.2434C35.8772 63.3237 35.8261 66.0435 36.6531 69.0958C38.0087 74.0749 41.3253 78.8324 44.5566 80.4097C44.6114 80.4381 44.6596 80.4779 44.6978 80.5264C44.736 80.575 44.7634 80.6311 44.7783 80.691L52.7074 114.164C52.7856 114.495 52.9292 114.808 53.1297 115.083C53.3303 115.358 53.5838 115.591 53.8754 115.767C54.1652 115.943 54.4878 116.058 54.8235 116.105C55.1592 116.151 55.501 116.129 55.8279 116.039L57.5331 115.579C58.1819 115.382 58.726 114.936 59.0457 114.338C59.3655 113.74 59.4347 113.039 59.2383 112.39L49.297 79.9919C49.2764 79.9233 49.2735 79.8507 49.2884 79.7806C49.3033 79.7106 49.3356 79.6454 49.3823 79.5912C51.6843 76.8885 52.3578 70.5878 50.917 65.2506C50.0644 62.1983 48.6661 59.8793 46.816 58.5492C45.7149 57.7246 44.3804 57.2709 43.0049 57.2533V57.2533Z" fill="#231F20"/>
<path d="M45.1367 77.9031H44.9406C42.7153 77.7582 41.0954 74.6803 41.0272 74.5525C40.9752 74.4518 40.9653 74.3347 40.9996 74.2267C41.034 74.1188 41.1099 74.029 41.2105 73.977C41.3111 73.9249 41.4283 73.915 41.5362 73.9494C41.6441 73.9838 41.734 74.0596 41.786 74.1603C41.786 74.1603 43.2524 76.9397 45.0002 77.0591C45.7676 77.1102 46.5264 76.6157 47.2511 75.5926C50.4654 71.0227 47.4983 63.051 47.4642 62.9743C47.4273 62.8678 47.4323 62.7512 47.4782 62.6482C47.5241 62.5453 47.6075 62.4637 47.7115 62.4201C47.7641 62.3995 47.8202 62.3897 47.8767 62.391C47.9331 62.3923 47.9887 62.4049 48.0403 62.4279C48.0918 62.4509 48.1383 62.4839 48.177 62.525C48.2157 62.5661 48.2458 62.6145 48.2657 62.6673C48.3936 63.0169 51.4203 71.1421 47.9417 76.0786C47.6592 76.5891 47.2557 77.0224 46.7666 77.3406C46.2775 77.6587 45.7178 77.8519 45.1367 77.9031V77.9031Z" fill="#D1D3D4"/>
<path d="M193.623 132.128C185.821 131.231 178.165 129.34 170.842 126.501C169.897 126.114 169.038 125.543 168.317 124.82C167.596 124.098 167.025 123.238 166.64 122.292C166.255 121.347 166.063 120.334 166.074 119.313C166.086 118.292 166.301 117.283 166.707 116.346C168.523 112.203 170.927 106.32 172.863 100.352C173.986 96.9614 174.897 93.5046 175.591 90.0012C176.921 82.6604 177.739 75.2684 179.001 69.1298C180.084 63.9545 181.508 59.6575 183.861 57.0144C186.928 53.5406 190.599 50.6518 194.697 48.4885L208.97 52.0353C211.592 55.8496 213.501 60.1074 214.605 64.6025C215.458 68.0129 214.699 72.4975 213.233 77.5789C211.528 83.6153 208.765 90.5298 206.506 97.6404C205.477 101.061 204.665 104.544 204.076 108.068C203.002 114.24 202.371 120.567 202.038 125.119C201.955 126.136 201.67 127.125 201.2 128.03C200.73 128.935 200.085 129.737 199.301 130.389C198.518 131.042 197.612 131.531 196.637 131.83C195.662 132.128 194.638 132.23 193.623 132.128Z" fill="white"/>
<path d="M194.723 48.48L208.996 52.0268C211.61 55.8456 213.51 60.1063 214.606 64.6026C215.458 68.0129 214.699 72.4976 213.233 77.579C211.528 83.6153 208.765 90.5299 206.506 97.6405C205.477 101.062 204.666 104.544 204.076 108.068C203.002 114.24 202.371 120.567 202.038 125.12C201.89 127.051 201.016 128.855 199.593 130.169C198.17 131.483 196.302 132.21 194.365 132.205C194.118 132.205 193.871 132.205 193.615 132.205C185.812 131.283 178.159 129.366 170.842 126.501C169.897 126.114 169.039 125.543 168.317 124.82C167.596 124.098 167.026 123.238 166.64 122.293C166.255 121.347 166.063 120.334 166.074 119.313C166.086 118.292 166.301 117.283 166.707 116.346C168.523 112.203 170.927 106.32 172.863 100.352C173.986 96.9615 174.897 93.5046 175.591 90.0013C176.921 82.6604 177.74 75.2685 179.001 69.1298C180.084 63.9546 181.508 59.6575 183.861 57.0145C186.928 53.5406 190.6 50.6519 194.698 48.4886L194.723 48.48ZM194.698 47.636C194.571 47.6367 194.445 47.6659 194.331 47.7212C190.139 49.9225 186.383 52.8695 183.247 56.4177C181.039 58.9072 179.479 62.7695 178.191 68.9252C177.475 72.3356 176.904 76.1466 176.307 80.1538C175.83 83.3084 175.344 86.5738 174.747 89.8222C174.068 93.2864 173.168 96.7038 172.053 100.053C170.058 106.209 167.619 112.109 165.931 115.971C165.475 117.006 165.232 118.122 165.216 119.253C165.2 120.383 165.411 121.506 165.837 122.553C166.263 123.611 166.897 124.572 167.701 125.381C168.505 126.189 169.463 126.828 170.518 127.26C177.913 130.148 185.651 132.068 193.538 132.972C193.811 132.972 194.084 132.972 194.391 132.972C196.543 132.978 198.617 132.171 200.199 130.711C201.78 129.252 202.751 127.248 202.917 125.102C203.232 120.891 203.837 114.539 204.954 108.17C205.533 104.683 206.336 101.237 207.359 97.8536C208.356 94.7076 209.447 91.5956 210.505 88.586C211.843 84.7663 213.114 81.1514 214.086 77.7751C215.791 71.7302 216.251 67.544 215.467 64.3553C214.352 59.747 212.404 55.3812 209.72 51.4726C209.599 51.319 209.432 51.2084 209.243 51.1572L194.97 47.6104C194.902 47.6022 194.834 47.6022 194.766 47.6104L194.698 47.636Z" fill="#231F20"/>
<path d="M210.515 43.849L196.58 40.3901L194.98 46.8362L208.915 50.2951L210.515 43.849Z" fill="white"/>
<path d="M196.574 40.389L210.513 43.8505L208.911 50.2961L194.971 46.8858L196.574 40.389ZM196.574 39.5364C196.379 39.5308 196.188 39.592 196.033 39.7099C195.878 39.8278 195.768 39.9952 195.721 40.1844L194.144 46.647C194.092 46.8654 194.129 47.0951 194.246 47.2865C194.361 47.4809 194.548 47.6219 194.766 47.6787L208.706 51.1402C208.774 51.1484 208.843 51.1484 208.911 51.1402C209.104 51.1463 209.294 51.0863 209.449 50.9701C209.604 50.8539 209.715 50.6883 209.763 50.5008L211.366 44.0466C211.417 43.8283 211.381 43.5986 211.264 43.4072C211.149 43.2128 210.962 43.0718 210.744 43.015L196.778 39.5364C196.71 39.5282 196.642 39.5282 196.574 39.5364V39.5364Z" fill="#231F20"/>
<path d="M204.068 108.068L172.829 100.318C173.952 96.9274 174.863 93.4705 175.557 89.9671C176.887 82.6263 177.706 75.2344 178.968 69.0957L213.165 77.6216C211.46 83.658 208.698 90.5725 206.438 97.6831C205.431 101.092 204.64 104.56 204.068 108.068V108.068Z" fill="#D1D3D4"/>
<path d="M221.852 93.6672H6.14667C2.98711 93.6672 0.425781 96.2286 0.425781 99.3881V99.8229C0.425781 102.983 2.98711 105.544 6.14667 105.544H221.852C225.012 105.544 227.573 102.983 227.573 99.8229V99.3881C227.573 96.2286 225.012 93.6672 221.852 93.6672Z" fill="#72F4C3"/>
<path d="M221.853 105.97H6.14718C4.51754 105.968 2.95529 105.32 1.80296 104.167C0.650624 103.015 0.00225556 101.453 0 99.8232V99.3884C0.00674686 97.7609 0.656828 96.2022 1.80843 95.0522C2.96004 93.9022 4.5197 93.2542 6.14718 93.2498H221.853C223.482 93.2543 225.043 93.9033 226.195 95.0552C227.346 96.207 227.995 97.768 228 99.3969V99.8318C227.995 101.46 227.346 103.02 226.194 104.17C225.042 105.321 223.481 105.968 221.853 105.97ZM6.14718 94.1023C4.74366 94.1046 3.39827 94.6632 2.40583 95.6556C1.41339 96.648 0.854846 97.9934 0.852591 99.3969V99.8318C0.854846 101.235 1.41339 102.581 2.40583 103.573C3.39827 104.566 4.74366 105.124 6.14718 105.126H221.853C223.256 105.124 224.602 104.566 225.594 103.573C226.587 102.581 227.145 101.235 227.147 99.8318V99.3969C227.145 97.9934 226.587 96.648 225.594 95.6556C224.602 94.6632 223.256 94.1046 221.853 94.1023H6.14718Z" fill="#231F20"/>
<path d="M219.039 105.544L218.144 110.609L207.547 195.808C207.249 198.192 206.091 200.386 204.291 201.976C202.49 203.567 200.17 204.445 197.767 204.445H30.3439C27.9188 204.445 25.5787 203.551 23.7713 201.934C21.9639 200.317 20.8162 198.09 20.5477 195.68L13.0789 128.863L8.96094 105.544H219.039Z" fill="#72F4C3"/>
<path d="M197.767 204.871H30.3435C27.8121 204.874 25.3686 203.943 23.4808 202.257C21.593 200.571 20.3936 198.247 20.1124 195.731L12.6437 128.905L8.5342 105.621C8.52198 105.559 8.52408 105.496 8.54034 105.435C8.55661 105.375 8.58659 105.319 8.62798 105.271C8.66721 105.223 8.71664 105.185 8.77267 105.158C8.82871 105.132 8.88996 105.118 8.95197 105.118H219.039C219.101 105.118 219.162 105.132 219.218 105.158C219.274 105.185 219.324 105.223 219.363 105.271C219.404 105.319 219.434 105.375 219.451 105.435C219.467 105.496 219.469 105.559 219.457 105.621L218.562 110.685L207.972 195.859C207.659 198.346 206.45 200.633 204.571 202.292C202.692 203.951 200.273 204.868 197.767 204.871ZM9.47205 105.971L13.4963 128.786L20.9735 195.638C21.2298 197.944 22.3286 200.076 24.0594 201.622C25.7901 203.169 28.0309 204.022 30.352 204.019H197.767C200.069 204.022 202.292 203.184 204.02 201.663C205.747 200.141 206.858 198.041 207.145 195.757L217.743 110.557L218.596 105.971H9.47205Z" fill="#231F20"/>
<path d="M108.569 120.831C111.664 121.453 113.36 123.9 115.296 125.947L107.495 138.872L97.6045 133.032C97.7239 132.818 97.8262 132.648 97.9285 132.477C99.9491 129.289 101.987 126.117 103.965 122.903C104.269 122.382 104.684 121.935 105.181 121.593C105.677 121.251 106.243 121.023 106.838 120.925C106.934 120.896 107.028 120.862 107.119 120.823L108.569 120.831Z" fill="white"/>
<path d="M123.659 166.462L123.89 171.211C123.745 171.015 123.651 170.904 123.574 170.784C121.488 167.448 119.399 164.12 117.308 160.8C117.233 160.699 117.192 160.577 117.192 160.451C117.192 160.325 117.233 160.203 117.308 160.101C119.246 156.799 121.175 153.497 123.097 150.194L123.361 149.811C123.421 151.013 123.463 152.087 123.506 153.17C123.506 153.613 123.506 154.065 123.566 154.508C123.566 154.645 123.753 154.858 123.872 154.866C127.9 155.374 131.985 155.195 135.954 154.338C136.806 154.116 137.659 153.758 138.511 153.434C138.462 153.571 138.405 153.704 138.341 153.835C136.525 157.322 134.717 160.8 132.884 164.279C132.612 164.805 132.205 165.248 131.704 165.565C131.204 165.881 130.628 166.058 130.037 166.078C128.238 166.223 126.422 166.3 124.614 166.402L123.659 166.462Z" fill="white"/>
<path d="M107.469 149.256L103.206 146.588C100.478 149.546 97.042 154.457 95.8825 159.735C95.7631 159.53 95.6608 159.377 95.5756 159.223C93.7624 155.813 91.9464 152.402 90.1275 148.992C89.8558 148.535 89.706 148.016 89.6926 147.484C89.6792 146.953 89.8025 146.427 90.0508 145.957C91.0398 144.166 92.1311 142.427 93.1798 140.662L93.5379 140.142L89.6074 137.721V137.627C89.7865 137.627 89.9655 137.627 90.1446 137.627L101.68 138.07C101.953 138.07 102.192 138.07 102.345 138.42C103.999 141.941 105.679 145.462 107.341 148.975L107.469 149.256Z" fill="white"/>
<path d="M115.876 136.391L120.284 133.833C118.417 129.093 116.081 124.668 112.116 121.147H112.739H124.325C124.934 121.141 125.533 121.302 126.057 121.612C126.581 121.921 127.011 122.368 127.301 122.903C128.281 124.54 129.245 126.194 130.217 127.839L130.532 128.36L134.667 125.947C134.531 126.211 134.463 126.347 134.386 126.475C132.416 129.826 130.43 133.177 128.46 136.536C128.408 136.67 128.312 136.782 128.189 136.854C128.065 136.927 127.92 136.956 127.778 136.937C123.925 136.743 120.068 136.559 116.209 136.382C116.098 136.391 115.987 136.394 115.876 136.391V136.391Z" fill="white"/>
<path d="M113.624 155.489L113.147 166.939L110.589 166.777C107.358 166.555 104.126 166.317 100.895 166.103C100.061 166.059 99.2722 165.71 98.6783 165.123C97.9373 164.475 97.3869 163.637 97.0865 162.7C96.786 161.762 96.7468 160.761 96.9731 159.803C97.3653 158.046 97.928 156.333 98.3884 154.687L113.624 155.489Z" fill="white"/>
<path d="M124.939 141.199L134.718 135.112C134.838 135.291 134.94 135.444 135.034 135.598L140.686 145.258C141.268 146.199 141.496 147.316 141.329 148.41C141.162 149.503 140.611 150.502 139.774 151.226C138.591 152.235 137.185 152.951 135.673 153.315C134.82 153.562 133.968 153.784 133.115 153.98C133.028 153.993 132.938 153.984 132.855 153.954C132.772 153.925 132.697 153.875 132.638 153.809C130.131 149.722 127.633 145.636 125.144 141.549L124.939 141.199Z" fill="white"/>
<path d="M196.701 105.971H8.96048C8.8481 105.968 8.74093 105.923 8.66145 105.843C8.58197 105.764 8.53636 105.657 8.53418 105.544C8.53418 105.431 8.57909 105.323 8.65904 105.243C8.73898 105.163 8.84741 105.118 8.96048 105.118H196.701C196.814 105.118 196.923 105.163 197.003 105.243C197.082 105.323 197.127 105.431 197.127 105.544C197.127 105.657 197.082 105.766 197.003 105.846C196.923 105.926 196.814 105.971 196.701 105.971Z" fill="#231F20"/>
<path d="M219.039 105.544L218.144 110.609C218.144 110.609 96.002 107.198 13.0789 128.863L8.96094 105.544H219.039Z" fill="#231F20"/>
<path d="M13.0788 129.289C12.9973 129.287 12.9178 129.264 12.8486 129.221C12.7994 129.189 12.7573 129.148 12.725 129.1C12.6927 129.051 12.6709 128.997 12.661 128.939L8.54298 105.621C8.53077 105.559 8.53287 105.496 8.54914 105.435C8.5654 105.375 8.59538 105.319 8.63677 105.271C8.676 105.223 8.72543 105.185 8.78147 105.158C8.83751 105.132 8.89875 105.118 8.96076 105.118H219.039C219.101 105.118 219.163 105.132 219.219 105.158C219.275 105.185 219.324 105.223 219.363 105.271C219.405 105.319 219.435 105.375 219.451 105.435C219.467 105.496 219.469 105.559 219.457 105.621L218.562 110.685C218.539 110.784 218.484 110.872 218.405 110.935C218.326 110.999 218.228 111.034 218.127 111.035C216.908 111.035 95.0981 107.863 13.1896 129.272L13.0788 129.289ZM9.47231 105.971L13.3942 128.334C93.1712 107.599 210.283 109.995 217.76 110.174L218.502 105.971H9.47231Z" fill="#231F20"/>
<path d="M74.2861 175.865H78.0119C78.5301 175.864 79.0472 175.916 79.5551 176.019C80.018 176.111 80.4601 176.288 80.8595 176.539C81.2357 176.789 81.5434 177.129 81.7547 177.528C81.9944 178.006 82.1116 178.537 82.0958 179.071C82.1235 179.662 81.9971 180.249 81.7292 180.776C81.4976 181.184 81.1584 181.52 80.7487 181.748C80.3109 181.994 79.8308 182.156 79.3334 182.226C78.7693 182.314 78.1991 182.356 77.6282 182.354H76.2214V186.932H74.252L74.2861 175.865ZM77.4492 180.666C77.7305 180.666 78.0204 180.666 78.3018 180.666C78.5943 180.65 78.8824 180.587 79.1544 180.478C79.4014 180.383 79.6169 180.22 79.7767 180.009C79.9264 179.75 80.0052 179.456 80.0052 179.156C80.0052 178.857 79.9264 178.563 79.7767 178.304C79.633 178.101 79.4391 177.94 79.214 177.835C78.9717 177.722 78.7125 177.65 78.4467 177.622C78.1653 177.622 77.8925 177.579 77.5941 177.579H76.1873V180.691L77.4492 180.666Z" fill="#231F20"/>
<path d="M86.9727 175.866H88.9421V185.15H93.6484V186.932H86.9727V175.866Z" fill="#231F20"/>
<path d="M101.799 175.866H103.505L108.279 186.949H106.02L104.988 184.392H100.188L99.1906 186.949H96.9482L101.799 175.866ZM104.306 182.686L102.601 178.185L100.896 182.686H104.306Z" fill="#231F20"/>
<path d="M118.067 178.236C117.855 177.934 117.559 177.703 117.214 177.571C116.864 177.434 116.491 177.365 116.115 177.366C115.891 177.366 115.667 177.391 115.45 177.443C115.243 177.49 115.047 177.574 114.87 177.69C114.695 177.804 114.552 177.959 114.452 178.142C114.345 178.341 114.292 178.564 114.299 178.79C114.291 178.953 114.322 179.116 114.39 179.264C114.458 179.413 114.562 179.543 114.691 179.643C114.986 179.859 115.31 180.031 115.654 180.154C116.046 180.299 116.464 180.444 116.925 180.581C117.369 180.71 117.793 180.899 118.186 181.143C118.58 181.382 118.913 181.709 119.158 182.098C119.443 182.573 119.579 183.122 119.551 183.675C119.562 184.211 119.451 184.741 119.227 185.227C119.026 185.654 118.735 186.032 118.374 186.336C117.989 186.632 117.553 186.855 117.087 186.992C116.582 187.137 116.06 187.209 115.535 187.205C114.858 187.208 114.186 187.093 113.548 186.864C112.906 186.632 112.337 186.232 111.903 185.705L113.395 184.272C113.633 184.632 113.959 184.925 114.341 185.125C114.726 185.322 115.153 185.425 115.586 185.423C115.817 185.425 116.046 185.394 116.268 185.329C116.492 185.271 116.706 185.176 116.899 185.048C117.085 184.926 117.24 184.763 117.351 184.571C117.467 184.369 117.526 184.139 117.521 183.906C117.532 183.73 117.502 183.554 117.434 183.391C117.366 183.229 117.262 183.084 117.129 182.968C116.836 182.734 116.508 182.547 116.157 182.414C115.774 182.26 115.347 182.124 114.895 181.987C114.45 181.857 114.023 181.671 113.625 181.433C113.24 181.191 112.909 180.872 112.653 180.495C112.375 180.018 112.242 179.47 112.269 178.918C112.254 178.401 112.374 177.89 112.619 177.434C112.843 177.022 113.158 176.667 113.54 176.394C113.933 176.11 114.375 175.899 114.844 175.772C115.334 175.643 115.838 175.577 116.345 175.576C116.924 175.572 117.5 175.661 118.05 175.84C118.6 176.015 119.106 176.306 119.534 176.693L118.067 178.236Z" fill="#231F20"/>
<path d="M127.011 177.656H123.601V175.866H132.365V177.656H128.955V186.941H126.977L127.011 177.656Z" fill="#231F20"/>
<path d="M136.807 175.866H138.776V186.949H136.807V175.866Z" fill="#231F20"/>
<path d="M151.932 178.458C151.603 178.091 151.199 177.8 150.747 177.605C150.38 177.463 149.989 177.391 149.596 177.392C149.063 177.385 148.536 177.487 148.044 177.69C147.588 177.887 147.178 178.178 146.842 178.543C146.506 178.906 146.245 179.332 146.074 179.796C145.887 180.292 145.794 180.818 145.802 181.348C145.792 181.906 145.884 182.46 146.074 182.985C146.241 183.467 146.502 183.91 146.842 184.289C147.181 184.652 147.59 184.942 148.044 185.142C148.534 185.352 149.063 185.457 149.596 185.449C150.052 185.449 150.502 185.341 150.909 185.134C151.371 184.882 151.772 184.533 152.085 184.11L153.714 185.261C153.253 185.921 152.618 186.441 151.881 186.762C151.157 187.077 150.376 187.237 149.587 187.231C148.781 187.24 147.981 187.102 147.225 186.822C146.538 186.558 145.912 186.158 145.384 185.645C144.858 185.131 144.445 184.512 144.173 183.829C143.869 183.079 143.719 182.276 143.73 181.467C143.717 180.639 143.868 179.816 144.173 179.046C144.443 178.351 144.855 177.721 145.384 177.196C145.912 176.681 146.538 176.278 147.225 176.011C147.981 175.731 148.781 175.592 149.587 175.602C150.3 175.593 151.007 175.727 151.667 175.994C152.363 176.298 152.976 176.762 153.458 177.349L151.932 178.458Z" fill="#231F20"/>
<path d="M201.11 196.712H26.8911C26.7781 196.712 26.6696 196.667 26.5897 196.587C26.5098 196.507 26.4648 196.398 26.4648 196.285C26.4648 196.172 26.5098 196.064 26.5897 195.984C26.6696 195.904 26.7781 195.859 26.8911 195.859H201.11C201.223 195.859 201.331 195.904 201.411 195.984C201.491 196.064 201.536 196.172 201.536 196.285C201.536 196.398 201.491 196.507 201.411 196.587C201.331 196.667 201.223 196.712 201.11 196.712Z" fill="#231F20"/>
</svg>
