<svg width="445" height="356" viewBox="0 0 445 356" fill="none" xmlns="http://www.w3.org/2000/svg">
<path d="M411.178 53.4826V287.258C411.173 291.599 409.446 295.761 406.374 298.83C403.303 301.897 399.139 303.621 394.797 303.621H50.1794C45.8379 303.621 41.674 301.897 38.6025 298.83C35.531 295.761 33.8033 291.599 33.7988 287.258V53.4826C33.7987 51.333 34.2226 49.2032 35.046 47.2171C35.8694 45.231 37.0763 43.4258 38.5975 41.9068C40.1189 40.3866 41.9248 39.1811 43.9121 38.3596C45.8994 37.5382 48.0292 37.1169 50.1794 37.1194H394.797C396.947 37.1169 399.077 37.5382 401.064 38.3596C403.051 39.1811 404.858 40.3866 406.379 41.9068C407.899 43.4258 409.106 45.231 409.93 47.2171C410.754 49.2032 411.178 51.333 411.178 53.4826Z" fill="white"/>
<path d="M394.814 304.397H50.1634C45.6224 304.388 41.2701 302.579 38.0606 299.367C34.8512 296.154 33.0465 291.8 33.042 287.259V53.4843C33.042 48.9422 34.8453 44.5859 38.0557 41.372C41.2661 38.1581 45.621 36.3504 50.1634 36.3467H394.814C399.357 36.3504 403.711 38.1581 406.923 41.372C410.133 44.5859 411.936 48.9422 411.936 53.4843V287.259C411.932 291.8 410.127 296.154 406.918 299.367C403.707 302.579 399.355 304.388 394.814 304.397ZM50.1634 37.8781C46.0286 37.888 42.066 39.5346 39.1439 42.4598C36.2217 45.385 34.5785 49.3498 34.574 53.4843V287.259C34.5785 291.393 36.2223 295.355 39.145 298.278C42.0675 301.2 46.0301 302.844 50.1634 302.848H394.814C398.947 302.844 402.911 301.2 405.832 298.278C408.755 295.355 410.399 291.393 410.404 287.259V53.4843C410.399 49.3498 408.756 45.385 405.834 42.4598C402.912 39.5346 398.948 37.888 394.814 37.8781H50.1634Z" fill="#231F20"/>
<path d="M411.178 53.4826V261.062H33.7988V53.4826C33.7987 51.333 34.2226 49.2032 35.046 47.2171C35.8694 45.231 37.0763 43.4258 38.5975 41.9068C40.1189 40.3866 41.9248 39.1811 43.9121 38.3596C45.8994 37.5382 48.0292 37.1169 50.1794 37.1194H394.797C396.947 37.1169 399.077 37.5382 401.064 38.3596C403.051 39.1811 404.858 40.3866 406.379 41.9068C407.899 43.4258 409.106 45.231 409.93 47.2171C410.754 49.2032 411.178 51.333 411.178 53.4826Z" fill="#231F20"/>
<path d="M391.2 56.5293H49.3096V245.623H391.2V56.5293Z" fill="white"/>
<path d="M391.199 246.4H49.3085C49.2068 246.4 49.1062 246.38 49.0122 246.34C48.9183 246.302 48.8329 246.245 48.761 246.173C48.6891 246.101 48.6321 246.016 48.5932 245.921C48.5541 245.827 48.5342 245.727 48.5342 245.625V56.5317C48.5342 56.326 48.6157 56.129 48.761 55.9841C48.9063 55.8391 49.1031 55.7573 49.3085 55.7573H391.199C391.401 55.761 391.594 55.8453 391.735 55.9902C391.876 56.1352 391.956 56.3297 391.956 56.5317V245.625C391.956 245.827 391.876 246.022 391.735 246.167C391.594 246.312 391.401 246.395 391.199 246.4ZM50.0662 244.851H390.424V57.2218H50.0662V244.851Z" fill="#231F20"/>
<path d="M222.497 291.013C220.777 291.013 219.097 290.504 217.669 289.549C216.24 288.594 215.126 287.236 214.47 285.647C213.813 284.059 213.641 282.311 213.978 280.626C214.315 278.94 215.144 277.392 216.36 276.178C217.577 274.964 219.126 274.137 220.812 273.804C222.498 273.471 224.245 273.645 225.832 274.306C227.419 274.966 228.775 276.082 229.728 277.512C230.68 278.943 231.187 280.625 231.184 282.343C231.18 284.645 230.262 286.849 228.634 288.475C227.004 290.1 224.798 291.013 222.497 291.013ZM222.497 275.34C221.112 275.34 219.758 275.75 218.605 276.52C217.454 277.29 216.556 278.383 216.026 279.663C215.497 280.943 215.358 282.352 215.628 283.71C215.898 285.069 216.565 286.316 217.545 287.295C218.524 288.275 219.772 288.942 221.13 289.212C222.49 289.482 223.897 289.343 225.177 288.814C226.457 288.284 227.551 287.386 228.32 286.235C229.09 285.082 229.5 283.728 229.5 282.343C229.496 280.487 228.756 278.709 227.444 277.396C226.132 276.084 224.353 275.344 222.497 275.34Z" fill="#D1D3D4"/>
<path d="M277.435 333.319C272.973 327.999 272.216 303.655 272.216 303.655H172.786C172.786 303.655 172.029 327.999 167.568 333.319C163.106 338.639 145.563 347.308 145.563 350.39C145.563 353.471 148.174 354.598 160.85 354.598H284.151C296.828 354.598 299.438 353.471 299.438 350.39C299.438 347.308 281.912 338.606 277.435 333.319Z" fill="white"/>
<path d="M284.147 355.323H160.844C148.235 355.323 144.783 354.263 144.783 350.357C144.783 348.405 148.605 345.829 155.373 341.418C160.07 338.37 164.935 335.206 166.972 332.799C171.216 327.747 172.023 303.841 172.023 303.606C172.027 303.404 172.111 303.21 172.256 303.069C172.4 302.928 172.595 302.849 172.798 302.849H272.226C272.429 302.849 272.624 302.928 272.768 303.069C272.913 303.21 272.997 303.404 273.001 303.606C273.001 303.841 273.792 327.731 278.052 332.799C280.089 335.206 284.954 338.37 289.651 341.418C296.385 345.829 300.241 348.405 300.241 350.357C300.206 354.263 296.756 355.323 284.147 355.323ZM173.521 304.397C173.353 308.622 172.343 328.792 168.152 333.775C165.98 336.367 161.013 339.599 156.215 342.714C152.275 345.273 146.333 349.144 146.333 350.357C146.333 352.377 147.359 353.724 160.844 353.724H284.147C297.614 353.724 298.657 352.31 298.657 350.357C298.657 349.144 292.715 345.306 288.775 342.714C283.978 339.599 279.011 336.367 276.839 333.775C272.648 328.724 271.638 308.622 271.469 304.397H173.521Z" fill="#231F20"/>
<path d="M109.394 84.8145C109.26 87.7608 116.128 144.479 58.1144 179.883C58.1144 179.883 91.7845 205.792 109.394 245.54H49.3096V79.8982L109.394 84.8145Z" fill="white"/>
<path d="M109.393 246.397H49.3087C49.207 246.397 49.1063 246.377 49.0123 246.339C48.9183 246.299 48.8329 246.242 48.7611 246.17C48.6891 246.099 48.6321 246.013 48.5932 245.919C48.5543 245.825 48.5342 245.724 48.5342 245.623V79.8964C48.5331 79.7886 48.5552 79.6821 48.5986 79.5829C48.6423 79.4851 48.7063 79.3958 48.7867 79.324C48.8642 79.2546 48.9546 79.2013 49.0529 79.1666C49.151 79.1319 49.2552 79.1171 49.3591 79.122L109.444 84.0383C109.643 84.0556 109.828 84.1486 109.961 84.2997C110.092 84.4509 110.16 84.6466 110.151 84.8461C110.151 85.032 110.151 85.4024 110.151 85.991C111.061 104.257 107.913 149.831 59.3929 179.965C64.7971 184.36 94.1574 209.309 110.034 245.319C110.096 245.431 110.128 245.555 110.128 245.682C110.128 245.809 110.096 245.934 110.034 246.044C109.963 246.149 109.868 246.237 109.756 246.299C109.646 246.36 109.521 246.395 109.393 246.397ZM50.0662 244.848H108.199C90.7911 206.279 57.9787 180.757 57.6927 180.504C57.5885 180.434 57.5032 180.338 57.4442 180.227C57.3854 180.115 57.3547 179.99 57.3547 179.865C57.3547 179.739 57.3854 179.615 57.4442 179.503C57.5032 179.392 57.5885 179.296 57.6927 179.224C106.397 149.545 109.546 104.19 108.636 86.0578C108.636 85.8559 108.636 85.6886 108.636 85.5201L50.0662 80.7885V244.848Z" fill="#231F20"/>
<path d="M79.396 235.81C79.1792 235.81 78.9698 235.725 78.8124 235.575C78.6563 235.424 78.5634 235.219 78.5547 235.002C77.7965 218.621 65.2547 194.16 57.8472 181.028C57.2075 179.917 57.2075 179.917 57.258 179.614C57.2704 179.504 57.3048 179.397 57.3594 179.301C57.4139 179.203 57.4874 179.119 57.5754 179.052C57.6635 178.984 57.7642 178.934 57.8716 178.907C57.9791 178.879 58.0911 178.873 58.2008 178.889C58.3463 178.912 58.4836 178.971 58.5987 179.063C58.7139 179.155 58.8031 179.275 58.8574 179.412L59.312 180.203C66.7867 193.47 79.5137 218.2 80.2385 234.935C80.2422 235.045 80.2249 235.155 80.1877 235.259C80.1493 235.363 80.0911 235.459 80.0155 235.539C79.9411 235.621 79.8507 235.687 79.7491 235.733C79.6487 235.78 79.541 235.806 79.4294 235.81H79.396Z" fill="#D1D3D4"/>
<path d="M55.6546 175.49C55.465 175.487 55.2815 175.423 55.1327 175.305C54.9567 175.168 54.8419 174.967 54.8135 174.746C54.7851 174.526 54.8455 174.303 54.9811 174.126C55.0991 173.992 65.7726 160.27 72.0352 130.355C72.0822 130.132 72.2158 129.936 72.4068 129.811C72.5979 129.686 72.8305 129.642 73.0538 129.689C73.2771 129.737 73.4726 129.87 73.5972 130.061C73.722 130.252 73.7657 130.485 73.7188 130.708C67.3551 161.011 56.7825 174.598 56.3449 175.153C56.263 175.258 56.1582 175.342 56.0386 175.4C55.919 175.46 55.7877 175.49 55.6546 175.49Z" fill="#D1D3D4"/>
<path d="M49.3096 174.646H61.8855C63.225 174.646 64.5095 175.178 65.4567 176.125C66.4039 177.072 66.9361 178.357 66.9361 179.696C66.9361 181.035 66.4039 182.32 65.4567 183.268C64.5095 184.215 63.225 184.747 61.8855 184.747H49.3096V174.646Z" fill="white"/>
<path d="M61.8845 185.573H49.3085C49.2077 185.575 49.1073 185.557 49.0135 185.52C48.9196 185.483 48.8341 185.428 48.762 185.357C48.6898 185.287 48.6326 185.203 48.5934 185.11C48.5543 185.017 48.5342 184.916 48.5342 184.815V174.715C48.5342 174.613 48.5541 174.511 48.5932 174.417C48.6321 174.324 48.6891 174.239 48.761 174.167C48.8329 174.095 48.9183 174.038 49.0122 173.998C49.1062 173.96 49.2068 173.94 49.3085 173.94H61.8845C63.4472 173.94 64.946 174.561 66.051 175.666C67.156 176.77 67.7768 178.269 67.7768 179.832C67.7768 181.395 67.156 182.893 66.051 183.998C64.946 185.103 63.4472 185.724 61.8845 185.724V185.573ZM50.0999 184.04H61.8845C63.0276 184.04 64.1238 183.587 64.932 182.779C65.7403 181.97 66.1943 180.874 66.1943 179.731C66.1943 178.588 65.7403 177.492 64.932 176.683C64.1238 175.876 63.0276 175.421 61.8845 175.421H50.0999V184.04Z" fill="#231F20"/>
<path d="M77.7103 151.919C77.5616 151.914 77.4167 151.87 77.2903 151.792C77.1639 151.714 77.0598 151.603 76.988 151.473C76.9174 151.342 76.8814 151.195 76.8839 151.046C76.8864 150.897 76.9273 150.751 77.0041 150.623C83.738 139.916 89.3605 121.146 89.4286 120.96C89.4943 120.749 89.6405 120.572 89.8362 120.468C90.032 120.364 90.26 120.341 90.4718 120.405C90.6837 120.47 90.8621 120.616 90.9687 120.811C91.0752 121.006 91.1025 121.233 91.0442 121.448C91.0442 121.634 85.2198 140.606 78.4351 151.515C78.3595 151.639 78.253 151.742 78.1266 151.813C77.999 151.883 77.8565 151.921 77.7103 151.919Z" fill="#D1D3D4"/>
<path d="M331.117 84.8145C331.234 87.7608 324.381 144.479 382.379 179.883C382.379 179.883 348.709 205.792 331.117 245.54H391.184V79.8982L331.117 84.8145Z" fill="white"/>
<path d="M391.201 246.4H331.115C330.986 246.403 330.858 246.374 330.745 246.314C330.629 246.255 330.533 246.167 330.462 246.059C330.39 245.95 330.348 245.826 330.339 245.697C330.329 245.568 330.354 245.439 330.409 245.323C346.284 209.312 375.644 184.362 381.048 179.968C332.53 149.833 329.382 104.209 330.29 85.9934C330.29 85.4049 330.29 85.0344 330.29 84.8486C330.281 84.6491 330.349 84.4533 330.481 84.3022C330.613 84.1523 330.798 84.0581 330.997 84.0408L391.133 79.1084C391.237 79.1022 391.342 79.1158 391.44 79.1505C391.538 79.1852 391.628 79.2397 391.705 79.3103C391.786 79.3822 391.85 79.4701 391.893 79.5693C391.937 79.6684 391.959 79.775 391.958 79.8827V245.609C391.96 245.711 391.943 245.811 391.906 245.906C391.869 246.001 391.813 246.087 391.743 246.162C391.673 246.235 391.588 246.294 391.496 246.335C391.403 246.376 391.302 246.398 391.201 246.4ZM332.277 244.851H390.409V80.7921L331.923 85.5226C331.923 85.6911 331.923 85.8596 331.923 86.0616C331.015 104.193 334.163 149.547 382.867 179.227C382.971 179.299 383.056 179.394 383.115 179.506C383.175 179.617 383.204 179.741 383.204 179.867C383.204 179.994 383.175 180.118 383.115 180.229C383.056 180.341 382.971 180.436 382.867 180.507C382.513 180.759 349.701 206.281 332.293 244.851H332.277Z" fill="#231F20"/>
<path d="M361.048 235.808C360.936 235.803 360.829 235.777 360.728 235.731C360.628 235.684 360.537 235.619 360.462 235.538C360.386 235.456 360.328 235.361 360.291 235.257C360.252 235.154 360.235 235.044 360.239 234.932C361.014 218.181 373.708 193.451 381.183 180.184L381.62 179.41C381.678 179.273 381.771 179.153 381.889 179.062C382.006 178.97 382.146 178.91 382.294 178.888C382.513 178.863 382.735 178.925 382.911 179.06C383.086 179.195 383.203 179.394 383.237 179.612C383.237 179.915 383.237 179.915 382.647 181.027C375.223 194.141 362.681 218.62 361.923 235C361.919 235.111 361.893 235.22 361.846 235.32C361.8 235.42 361.734 235.511 361.652 235.585C361.572 235.661 361.477 235.719 361.372 235.757C361.268 235.796 361.158 235.813 361.048 235.808Z" fill="#D1D3D4"/>
<path d="M384.841 175.489C384.716 175.486 384.592 175.457 384.478 175.401C384.365 175.346 384.265 175.267 384.185 175.169C383.747 174.614 373.175 161.062 366.811 130.725C366.789 130.617 366.788 130.504 366.809 130.396C366.83 130.287 366.872 130.184 366.934 130.091C366.995 130 367.073 129.92 367.165 129.858C367.256 129.797 367.359 129.753 367.468 129.731C367.575 129.706 367.686 129.704 367.795 129.722C367.903 129.742 368.007 129.782 368.099 129.841C368.192 129.902 368.271 129.979 368.334 130.07C368.396 130.161 368.44 130.264 368.461 130.371C374.724 160.271 385.397 173.991 385.515 174.142C385.653 174.317 385.716 174.539 385.691 174.759C385.665 174.981 385.554 175.182 385.38 175.32C385.223 175.431 385.034 175.49 384.841 175.489Z" fill="#D1D3D4"/>
<path d="M391.186 184.799H378.611C377.271 184.799 375.986 184.268 375.04 183.32C374.092 182.374 373.561 181.089 373.561 179.749C373.561 178.41 374.092 177.125 375.04 176.177C375.986 175.231 377.271 174.698 378.611 174.698H391.186V184.799Z" fill="white"/>
<path d="M391.201 185.572H378.608C377.046 185.572 375.547 184.951 374.442 183.846C373.337 182.741 372.716 181.243 372.716 179.679C372.716 178.117 373.337 176.618 374.442 175.514C375.547 174.409 377.046 173.788 378.608 173.788H391.201C391.403 173.792 391.597 173.876 391.738 174.02C391.879 174.164 391.958 174.359 391.958 174.562V184.662C391.982 184.774 391.978 184.889 391.951 184.999C391.924 185.11 391.872 185.212 391.799 185.299C391.726 185.387 391.634 185.457 391.531 185.504C391.427 185.551 391.314 185.574 391.201 185.572ZM378.608 175.47C377.465 175.47 376.37 175.925 375.561 176.733C374.753 177.542 374.298 178.637 374.298 179.781C374.298 180.923 374.753 182.02 375.561 182.829C376.37 183.637 377.465 184.09 378.608 184.09H390.394V175.47H378.608Z" fill="#231F20"/>
<path d="M362.779 151.918C362.635 151.922 362.494 151.886 362.369 151.814C362.245 151.743 362.142 151.639 362.071 151.514C355.337 140.605 349.513 121.631 349.462 121.446C349.425 121.243 349.463 121.034 349.571 120.858C349.679 120.681 349.847 120.551 350.044 120.49C350.241 120.43 350.454 120.444 350.642 120.531C350.83 120.616 350.979 120.769 351.062 120.958C351.062 121.143 356.819 139.915 363.486 150.622C363.562 150.75 363.603 150.896 363.606 151.044C363.609 151.193 363.573 151.341 363.501 151.471C363.43 151.602 363.325 151.712 363.199 151.79C363.072 151.868 362.927 151.913 362.779 151.918Z" fill="#D1D3D4"/>
<path d="M61.9497 1.54933H383.031C387.143 1.54933 391.087 3.18228 393.995 6.09017C396.903 8.99807 398.537 12.9417 398.537 17.0539V23.5524H46.4277V17.0539C46.4277 15.017 46.8293 12.9988 47.6096 11.1167C48.3898 9.23472 49.5335 7.52492 50.975 6.08522C52.4166 4.64428 54.1279 3.50317 56.011 2.72509C57.8941 1.94701 59.9122 1.54685 61.9497 1.54933Z" fill="#72F4C3"/>
<path d="M398.558 24.2574H46.4327C46.2503 24.2425 46.0792 24.1632 45.9497 24.0331C45.8204 23.9043 45.7409 23.7333 45.7256 23.5499V17.0527C45.73 12.7361 47.4467 8.59786 50.4988 5.54501C53.5509 2.4934 57.6891 0.777417 62.0053 0.772461H383.036C387.344 0.789807 391.47 2.51324 394.51 5.56361C397.552 8.61399 399.262 12.7448 399.265 17.0527V23.5499C399.251 23.7333 399.171 23.9043 399.041 24.0331C398.912 24.1632 398.741 24.2425 398.558 24.2574ZM47.2072 22.7086H397.784V17.0527C397.78 13.1425 396.225 9.39329 393.46 6.62912C390.695 3.86371 386.946 2.3088 383.036 2.30508H61.9548C58.0449 2.3088 54.2964 3.86371 51.5316 6.62912C48.7668 9.39329 47.2116 13.1425 47.2072 17.0527V22.7086Z" fill="#231F20"/>
<path d="M44.5975 23.4827L0.775391 72.2379H32.4424L70.0018 23.4827H44.5975Z" fill="white"/>
<path d="M32.4369 72.9954H0.769879C0.620705 72.9966 0.474753 72.9532 0.349244 72.8727C0.223859 72.7922 0.124372 72.6769 0.062794 72.5406C0.00592473 72.4044 -0.0115484 72.2557 0.0123639 72.1095C0.0361524 71.9633 0.100211 71.827 0.197471 71.7167L44.0364 22.9776C44.106 22.8934 44.1935 22.8265 44.2924 22.7794C44.3914 22.7323 44.4994 22.7087 44.6088 22.7087H70.0132C70.158 22.7087 70.3001 22.7496 70.4224 22.8264C70.5447 22.9045 70.6422 23.0148 70.7034 23.1461C70.7817 23.2663 70.8233 23.4075 70.8233 23.55C70.8233 23.6938 70.7817 23.835 70.7034 23.9552L33.1609 72.7773C33.0681 72.8715 32.9532 72.9396 32.8267 72.978C32.7003 73.0164 32.5663 73.0226 32.4369 72.9954ZM2.48711 71.464H32.0666L68.4306 24.3256H44.8613L2.48711 71.464Z" fill="#231F20"/>
<path d="M70.0008 23.4827L32.4414 72.2379H64.1253L95.4219 23.4827H70.0008Z" fill="#72F4C3"/>
<path d="M64.1273 72.9954H32.4434C32.3012 72.9941 32.1619 72.9533 32.0405 72.8802C31.919 72.8058 31.8197 72.7005 31.7531 72.5741C31.6839 72.4515 31.6475 72.3115 31.6475 72.1702C31.6475 72.029 31.6839 71.8902 31.7531 71.7663L69.3125 22.9442C69.3849 22.8525 69.4767 22.7769 69.5815 22.7249C69.6864 22.6716 69.8014 22.6431 69.9187 22.6406H95.3399C95.4786 22.6431 95.6137 22.6815 95.7314 22.7534C95.8503 22.8252 95.947 22.9281 96.0126 23.0495C96.0771 23.1722 96.1093 23.3097 96.1031 23.4472C96.0981 23.586 96.0548 23.7198 95.9792 23.8362L64.7671 72.6423C64.6989 72.75 64.6045 72.8393 64.4927 72.9012C64.3808 72.9632 64.2551 72.9954 64.1273 72.9954ZM33.9417 71.4627H63.6391L93.9423 24.3244H70.3732L33.9417 71.4627Z" fill="#231F20"/>
<path d="M95.4249 23.4827L64.1279 72.2379H95.7954L120.846 23.4827H95.4249Z" fill="white"/>
<path d="M95.7927 72.9954H64.1258C63.9894 72.9954 63.8553 72.9607 63.7371 72.8926C63.6188 72.8244 63.5207 72.7265 63.4524 72.6076C63.3813 72.4886 63.3438 72.3511 63.3438 72.2123C63.3438 72.0736 63.3813 71.9361 63.4524 71.8171L94.7495 22.995C94.8214 22.886 94.9192 22.7967 95.0332 22.736C95.1472 22.6741 95.2761 22.6419 95.4062 22.6406H120.826C120.956 22.6443 121.082 22.6803 121.194 22.7447C121.306 22.8091 121.399 22.9008 121.467 23.0111C121.533 23.1263 121.569 23.2577 121.569 23.3902C121.569 23.5228 121.533 23.6541 121.467 23.7694L96.4333 72.5915C96.3701 72.7079 96.2772 72.8058 96.1656 72.8765C96.0529 72.9471 95.9253 72.9879 95.7927 72.9954ZM65.4895 71.4627H95.2884L119.548 24.3244H95.8101L65.4895 71.4627Z" fill="#231F20"/>
<path d="M120.834 23.4827L95.7832 72.2379H127.468L146.24 23.4827H120.834Z" fill="#72F4C3"/>
<path d="M127.476 72.9954H95.7924C95.6623 72.9954 95.5347 72.9619 95.4195 72.9012C95.3055 72.8393 95.2076 72.7501 95.1358 72.6423C95.0689 72.527 95.0342 72.3957 95.0342 72.2631C95.0342 72.1306 95.0689 71.9992 95.1358 71.884L120.169 23.0619C120.235 22.9355 120.334 22.829 120.456 22.7546C120.577 22.6803 120.717 22.6406 120.86 22.6406H146.265C146.389 22.6419 146.511 22.6716 146.623 22.7298C146.733 22.7881 146.827 22.8723 146.899 22.9739C146.97 23.0768 147.014 23.1944 147.031 23.3183C147.047 23.4422 147.032 23.5674 146.988 23.6851L128.217 72.5072C128.166 72.6596 128.064 72.7897 127.93 72.8777C127.797 72.9669 127.637 73.0078 127.476 72.9954ZM97.055 71.4628H126.938L145.12 24.3244H121.298L97.055 71.4628Z" fill="#231F20"/>
<path d="M146.244 23.4827L127.474 72.2379H159.141L171.666 23.4827H146.244Z" fill="white"/>
<path d="M159.148 72.9954H127.481C127.356 72.9991 127.231 72.9718 127.118 72.9148C127.005 72.8578 126.909 72.7736 126.837 72.6707C126.765 72.5667 126.719 72.4465 126.706 72.3213C126.692 72.1962 126.71 72.0686 126.758 71.9522L145.529 23.2143C145.584 23.0656 145.683 22.938 145.812 22.8488C145.941 22.7583 146.096 22.7087 146.253 22.7087H171.674C171.791 22.7112 171.906 22.7397 172.011 22.7918C172.116 22.845 172.208 22.9194 172.28 23.0123C172.351 23.104 172.399 23.2118 172.423 23.3245C172.445 23.4385 172.443 23.5562 172.415 23.669L159.889 72.4911C159.836 72.6423 159.736 72.7736 159.602 72.864C159.469 72.9557 159.309 73.0015 159.148 72.9954ZM128.592 71.464H158.526L170.647 24.3256H146.741L128.592 71.464Z" fill="#231F20"/>
<path d="M171.673 23.4827L159.146 72.2379H190.831L197.077 23.4827H171.673Z" fill="#72F4C3"/>
<path d="M190.83 72.9954H159.147C159.031 72.9966 158.915 72.9706 158.811 72.921C158.706 72.8715 158.613 72.7996 158.54 72.7092C158.467 72.6162 158.416 72.506 158.393 72.3895C158.369 72.2718 158.374 72.1516 158.406 72.0364L170.931 23.2985C170.972 23.1312 171.067 22.9838 171.201 22.8773C171.335 22.7707 171.501 22.7112 171.672 22.7087H197.076C197.188 22.7112 197.298 22.736 197.4 22.7819C197.501 22.8277 197.592 22.8946 197.666 22.9776C197.801 23.1498 197.867 23.3666 197.85 23.5847L191.589 72.4068C191.549 72.5766 191.452 72.729 191.315 72.8368C191.176 72.9433 191.005 73.0003 190.83 72.9954ZM160.208 71.464H190.207L196.268 24.3256H172.262L160.208 71.464Z" fill="#231F20"/>
<path d="M197.078 23.4827L190.831 72.2379H222.498V23.4827H197.078Z" fill="white"/>
<path d="M222.491 72.9954H190.824C190.712 72.9991 190.602 72.9781 190.5 72.9347C190.399 72.8913 190.308 72.8257 190.234 72.7427C190.099 72.5704 190.033 72.3548 190.049 72.1368L196.311 23.3147C196.332 23.1288 196.421 22.9566 196.561 22.8327C196.701 22.7075 196.882 22.6394 197.069 22.6406H222.491C222.694 22.6456 222.889 22.7286 223.033 22.8723C223.177 23.0173 223.26 23.2118 223.265 23.415V72.2384C223.26 72.4403 223.177 72.6324 223.032 72.7749C222.887 72.9161 222.693 72.9954 222.491 72.9954ZM191.698 71.4628H221.715V24.3244H197.759L191.698 71.4628Z" fill="#231F20"/>
<path d="M222.493 23.4827V72.2379H254.16L247.915 23.4827H222.493Z" fill="#72F4C3"/>
<path d="M254.161 72.9966H222.494C222.292 72.9966 222.098 72.9173 221.953 72.7748C221.808 72.6336 221.725 72.4415 221.72 72.2383V23.5512C221.725 23.3468 221.808 23.1523 221.951 23.0085C222.096 22.8636 222.29 22.7806 222.494 22.7769H247.916C248.103 22.7756 248.284 22.8438 248.424 22.9677C248.564 23.0928 248.653 23.2638 248.673 23.4496L254.936 72.2718C254.952 72.4898 254.886 72.7066 254.751 72.8789C254.666 72.9371 254.57 72.978 254.469 72.9978C254.367 73.0189 254.263 73.0176 254.161 72.9966ZM223.268 71.4639H253.287L247.225 24.3256H223.268V71.4639Z" fill="#231F20"/>
<path d="M247.919 23.4827L254.165 72.2379H285.848L273.323 23.4827H247.919Z" fill="white"/>
<path d="M285.845 72.9954H254.162C253.978 72.9966 253.799 72.931 253.659 72.8108C253.519 72.6894 253.429 72.5221 253.404 72.3387L247.142 23.5166C247.126 23.2985 247.192 23.0817 247.327 22.9107C247.401 22.8277 247.491 22.7608 247.593 22.7138C247.695 22.6679 247.805 22.6431 247.916 22.6406H273.321C273.492 22.6431 273.658 22.7026 273.791 22.8091C273.925 22.9157 274.021 23.0644 274.061 23.2304L286.586 71.9683C286.619 72.0835 286.623 72.2037 286.6 72.3214C286.576 72.4378 286.526 72.5481 286.453 72.6423C286.386 72.7439 286.296 72.8294 286.191 72.8913C286.086 72.952 285.968 72.9879 285.845 72.9954ZM254.852 71.4627H284.785L272.664 24.3244H248.791L254.852 71.4627Z" fill="#231F20"/>
<path d="M273.323 23.4827L285.848 72.2379H317.515L298.743 23.4827H273.323Z" fill="#72F4C3"/>
<path d="M317.507 72.9954H285.84C285.67 72.9966 285.505 72.9409 285.372 72.8368C285.237 72.734 285.141 72.5877 285.1 72.423L272.574 23.6008C272.546 23.4881 272.543 23.3704 272.567 23.2577C272.59 23.1437 272.639 23.0371 272.709 22.9442C272.781 22.8525 272.873 22.7769 272.978 22.7249C273.083 22.6716 273.197 22.6431 273.315 22.6406H298.737C298.894 22.6419 299.048 22.6902 299.178 22.7806C299.306 22.8711 299.406 22.9987 299.46 23.1462L318.232 71.9683C318.279 72.0847 318.298 72.2123 318.283 72.3375C318.269 72.4626 318.225 72.5828 318.153 72.6869C318.081 72.7909 317.984 72.8739 317.871 72.9309C317.759 72.9879 317.634 73.0164 317.507 73.0127V72.9954ZM286.463 71.4627H316.43L298.248 24.3244H274.342L286.463 71.4627Z" fill="#231F20"/>
<path d="M298.742 23.4827L317.514 72.2379H349.197L324.146 23.4827H298.742Z" fill="white"/>
<path d="M349.197 72.9954H317.514C317.359 73.0003 317.208 72.9557 317.08 72.8678C316.952 72.7798 316.857 72.6534 316.806 72.5072L298.018 23.6851C297.975 23.5674 297.96 23.4422 297.976 23.3183C297.992 23.1944 298.037 23.0768 298.109 22.9739C298.179 22.8723 298.273 22.7881 298.385 22.7298C298.495 22.6716 298.618 22.6419 298.742 22.6406H324.147C324.29 22.6406 324.43 22.6803 324.551 22.7546C324.672 22.829 324.772 22.9355 324.837 23.0619L349.871 71.884C349.938 71.9992 349.972 72.1306 349.972 72.2631C349.972 72.3957 349.938 72.527 349.871 72.6423C349.798 72.7525 349.697 72.843 349.58 72.9049C349.462 72.9669 349.331 72.9979 349.197 72.9954ZM318.053 71.4628H347.934L323.692 24.3244H299.937L318.053 71.4628Z" fill="#231F20"/>
<path d="M324.145 23.4827L349.196 72.2379H380.863L349.566 23.4827H324.145Z" fill="#72F4C3"/>
<path d="M380.867 72.9954H349.201C349.06 72.9978 348.921 72.9607 348.8 72.89C348.677 72.8182 348.578 72.7154 348.51 72.5915L323.51 23.8362C323.444 23.7222 323.408 23.5909 323.408 23.4583C323.408 23.3245 323.444 23.1944 323.51 23.0792C323.578 22.9689 323.671 22.8773 323.782 22.8128C323.895 22.7484 324.02 22.7125 324.15 22.7087H349.571C349.701 22.7087 349.83 22.7422 349.943 22.8029C350.059 22.8649 350.155 22.9541 350.227 23.0619L381.524 71.884C381.596 72.0042 381.633 72.1405 381.633 72.2805C381.633 72.4192 381.596 72.5555 381.524 72.6757C381.45 72.7785 381.35 72.8628 381.236 72.9186C381.121 72.9743 380.995 73.0003 380.867 72.9954ZM349.672 71.464H379.471L349.167 24.3256H325.429L349.672 71.464Z" fill="#231F20"/>
<path d="M349.568 23.4827L380.865 72.2379H412.548L374.989 23.4827H349.568Z" fill="white"/>
<path d="M412.545 72.9954H380.86C380.733 72.9954 380.608 72.9632 380.495 72.9012C380.384 72.8393 380.289 72.75 380.221 72.6422L348.924 23.9044C348.849 23.7879 348.807 23.6541 348.801 23.5153C348.794 23.3766 348.827 23.2403 348.891 23.1176C348.957 22.9962 349.053 22.8934 349.172 22.8215C349.29 22.7496 349.425 22.7112 349.564 22.7087H374.985C375.103 22.7112 375.217 22.7397 375.322 22.7918C375.428 22.845 375.519 22.9194 375.591 23.0123L413.151 71.8345C413.233 71.9497 413.285 72.0859 413.3 72.2272C413.314 72.3684 413.292 72.5121 413.235 72.6422C413.16 72.755 413.057 72.8479 412.937 72.9099C412.815 72.9718 412.68 73.0016 412.545 72.9954ZM381.282 71.464H411.046L374.666 24.3256H351.096L381.282 71.464Z" fill="#231F20"/>
<path d="M374.988 23.4827L412.548 72.2379H444.215L400.394 23.4827H374.988Z" fill="#72F4C3"/>
<path d="M444.216 72.9948H412.549C412.43 72.9973 412.312 72.9726 412.204 72.923C412.097 72.8734 412.001 72.8003 411.926 72.7087L374.366 23.8865C374.292 23.7651 374.252 23.6251 374.252 23.4826C374.252 23.3401 374.292 23.2001 374.366 23.0787C374.425 22.9461 374.523 22.8334 374.646 22.7553C374.769 22.6785 374.911 22.6376 375.056 22.6413H400.461C400.57 22.6401 400.678 22.6649 400.777 22.7107C400.876 22.7578 400.963 22.826 401.034 22.9102L444.805 71.7323C444.902 71.8439 444.967 71.9801 444.99 72.1251C445.014 72.2713 444.997 72.4212 444.94 72.5575C444.874 72.6925 444.771 72.8065 444.642 72.8833C444.515 72.9614 444.366 72.9998 444.216 72.9948ZM412.919 71.4635H442.499L400.057 24.3239H376.487L412.919 71.4635Z" fill="#231F20"/>
<path d="M0.775391 72.2366H32.4424V98.9875C32.4424 103.091 30.8124 107.026 27.911 109.928C25.0094 112.829 21.0741 114.459 16.9709 114.459H16.2469C12.1437 114.459 8.20842 112.829 5.30697 109.928C2.4054 107.026 0.775391 103.091 0.775391 98.9875V72.2366Z" fill="white"/>
<path d="M16.97 115.236H16.246C11.9387 115.233 7.80906 113.519 4.76327 110.474C1.71748 107.428 0.00446034 103.298 0 98.9908V72.2399C0.00433644 72.0355 0.0872258 71.841 0.231567 71.6972C0.375909 71.5523 0.570427 71.4693 0.774487 71.4656H32.4415C32.647 71.4656 32.8438 71.5461 32.9892 71.6923C33.1344 71.8373 33.2159 72.0343 33.2159 72.2399V98.9908C33.2114 103.298 31.4984 107.428 28.4526 110.474C25.407 113.519 21.2773 115.233 16.97 115.236ZM1.54885 72.9969V98.9908C1.55331 102.887 3.10316 106.623 5.85841 109.378C8.61378 112.134 12.3494 113.684 16.246 113.688H16.97C20.8681 113.684 24.6055 112.134 27.3634 109.38C30.1214 106.624 31.675 102.889 31.6839 98.9908V72.9969H1.54885Z" fill="#231F20"/>
<path d="M32.4414 72.2366H64.1084V98.9875C64.1084 103.091 62.4784 107.026 59.577 109.928C56.6754 112.829 52.7402 114.459 48.6369 114.459H47.913C43.8097 114.459 39.8744 112.829 36.9729 109.928C34.0714 107.026 32.4414 103.091 32.4414 98.9875V72.2366Z" fill="#72F4C3"/>
<path d="M48.6397 115.236H47.9326C43.6252 115.233 39.4956 113.519 36.4498 110.474C33.404 107.428 31.691 103.298 31.6865 98.9908V72.2399C31.6865 72.0367 31.7658 71.8422 31.9074 71.6972C32.049 71.5535 32.2417 71.4693 32.4442 71.4656H64.1281C64.3305 71.4693 64.5232 71.5535 64.6648 71.6972C64.8064 71.8422 64.8857 72.0367 64.8856 72.2399V98.9908C64.8811 103.298 63.1681 107.428 60.1224 110.474C57.0766 113.519 52.947 115.233 48.6397 115.236ZM33.2185 72.9969V98.9908C33.2274 102.889 34.7811 106.624 37.539 109.38C40.297 112.134 44.0345 113.684 47.9326 113.688H48.6397C52.5377 113.684 56.2751 112.134 59.0331 109.38C61.7911 106.624 63.3448 102.889 63.3536 98.9908V72.9969H33.2185Z" fill="#231F20"/>
<path d="M64.1279 72.2366H95.7953V98.9875C95.7953 103.091 94.1648 107.026 91.2631 109.928C88.3614 112.829 84.4264 114.459 80.3229 114.459H79.5994C75.4962 114.459 71.561 112.829 68.6595 109.928C65.7579 107.026 64.1279 103.091 64.1279 98.9875V72.2366Z" fill="white"/>
<path d="M80.3162 115.236H79.5914C75.2844 115.233 71.1548 113.519 68.109 110.474C65.0632 107.428 63.3502 103.298 63.3457 98.9908V72.2399C63.35 72.0355 63.4329 71.841 63.5773 71.6972C63.7216 71.5523 63.9161 71.4693 64.1202 71.4656H95.7874C95.9918 71.4693 96.1863 71.5523 96.33 71.6972C96.4738 71.841 96.5568 72.0355 96.5617 72.2399V98.9908C96.5568 103.298 94.8445 107.428 91.7978 110.474C88.7524 113.519 84.6229 115.233 80.3162 115.236ZM64.8777 72.9969V98.9908C64.8866 102.889 66.4402 106.624 69.1982 109.38C71.9561 112.134 75.6937 113.684 79.5914 113.688H80.3162C84.214 113.684 87.9508 112.134 90.7088 109.38C93.4667 106.624 95.0204 102.889 95.0291 98.9908V72.9969H64.8777Z" fill="#231F20"/>
<path d="M95.7832 72.2366H127.45V98.9875C127.45 103.091 125.821 107.026 122.919 109.928C120.018 112.829 116.083 114.459 111.979 114.459H111.256C107.152 114.459 103.217 112.829 100.315 109.928C97.4137 107.026 95.7832 103.091 95.7832 98.9875V72.2366Z" fill="#72F4C3"/>
<path d="M111.987 115.236H111.28C106.973 115.233 102.843 113.519 99.7981 110.474C96.7514 107.428 95.0391 103.298 95.0342 98.9908V72.2399C95.0342 72.0367 95.1135 71.8422 95.2547 71.6972C95.3972 71.5535 95.5892 71.4693 95.7924 71.4656H127.476C127.679 71.4693 127.871 71.5535 128.012 71.6972C128.155 71.8422 128.234 72.0367 128.234 72.2399V98.9908C128.229 103.298 126.516 107.428 123.47 110.474C120.425 113.519 116.295 115.233 111.987 115.236ZM96.5668 72.9969V98.9908C96.5755 102.889 98.1292 106.624 100.887 109.38C103.645 112.134 107.382 113.684 111.28 113.688H111.987C115.885 113.684 119.623 112.134 122.381 109.38C125.139 106.624 126.693 102.889 126.701 98.9908V72.9969H96.5668Z" fill="#231F20"/>
<path d="M127.474 72.2366H159.141V98.9875C159.141 103.091 157.51 107.026 154.609 109.928C151.707 112.829 147.772 114.459 143.668 114.459H142.945C138.841 114.459 134.906 112.829 132.005 109.928C129.103 107.026 127.474 103.091 127.474 98.9875V72.2366Z" fill="white"/>
<path d="M143.674 115.236H142.951C138.643 115.233 134.513 113.519 131.468 110.474C128.422 107.428 126.709 103.298 126.705 98.9908V72.2399C126.705 72.0343 126.786 71.8373 126.932 71.6923C127.077 71.5461 127.274 71.4656 127.479 71.4656H159.147C159.35 71.4693 159.544 71.5523 159.689 71.6972C159.833 71.841 159.916 72.0355 159.921 72.2399V98.9908C159.916 103.298 158.202 107.428 155.157 110.474C152.112 113.519 147.982 115.233 143.674 115.236ZM128.22 72.9969V98.9908C128.229 102.889 129.783 106.624 132.541 109.38C135.299 112.134 139.035 113.684 142.933 113.688H143.658C147.555 113.684 151.29 112.134 154.046 109.378C156.8 106.623 158.35 102.887 158.355 98.9908V72.9969H128.22Z" fill="#231F20"/>
<path d="M159.146 72.2366H190.814V98.9875C190.814 103.087 189.186 107.021 186.289 109.921C183.391 112.822 179.46 114.455 175.359 114.459H174.635C170.531 114.459 166.596 112.829 163.695 109.928C160.793 107.026 159.164 103.091 159.164 98.9875V72.2366H159.146Z" fill="#72F4C3"/>
<path d="M175.349 115.236H174.642C170.331 115.236 166.198 113.525 163.148 110.48C160.099 107.433 158.384 103.301 158.379 98.9908V72.2399C158.383 72.0355 158.466 71.841 158.611 71.6972C158.754 71.5523 158.949 71.4693 159.153 71.4656H190.838C191.04 71.4693 191.233 71.5535 191.374 71.6972C191.516 71.8422 191.595 72.0367 191.595 72.2399V98.9908C191.59 103.298 189.878 107.428 186.832 110.474C183.785 113.519 179.656 115.233 175.349 115.236ZM159.928 72.9969V98.9908C159.936 102.889 161.49 106.624 164.248 109.38C167.006 112.134 170.744 113.684 174.642 113.688H175.349C179.247 113.684 182.984 112.134 185.742 109.38C188.5 106.624 190.054 102.889 190.063 98.9908V72.9969H159.928Z" fill="#231F20"/>
<path d="M190.831 72.2366H222.498V98.9875C222.498 103.091 220.869 107.026 217.967 109.928C215.066 112.829 211.131 114.459 207.027 114.459H206.303C202.2 114.459 198.265 112.829 195.363 109.928C192.462 107.026 190.831 103.091 190.831 98.9875V72.2366Z" fill="white"/>
<path d="M207.021 115.236H206.297C201.989 115.233 197.86 113.519 194.814 110.474C191.769 107.428 190.055 103.298 190.052 98.9908V72.2399C190.052 72.0343 190.132 71.8373 190.278 71.6923C190.423 71.5461 190.62 71.4656 190.826 71.4656H222.493C222.696 71.4693 222.891 71.5523 223.036 71.6972C223.18 71.841 223.263 72.0355 223.268 72.2399V98.9908C223.263 103.298 221.549 107.428 218.504 110.474C215.458 113.519 211.329 115.233 207.021 115.236ZM191.583 72.9969V98.9908C191.592 102.889 193.145 106.624 195.903 109.38C198.661 112.134 202.399 113.684 206.297 113.688H207.021C210.917 113.684 214.653 112.134 217.409 109.378C220.164 106.623 221.714 102.887 221.718 98.9908V72.9969H191.583Z" fill="#231F20"/>
<path d="M222.493 72.2366H254.16V98.9875C254.16 103.091 252.53 107.026 249.629 109.928C246.728 112.829 242.793 114.459 238.689 114.459H237.964C233.862 114.459 229.926 112.829 227.025 109.928C224.124 107.026 222.493 103.091 222.493 98.9875V72.2366Z" fill="#72F4C3"/>
<path d="M238.69 115.236H237.966C233.659 115.233 229.529 113.519 226.484 110.474C223.437 107.428 221.725 103.298 221.72 98.9908V72.2399C221.725 72.0355 221.808 71.841 221.951 71.6972C222.096 71.5523 222.29 71.4693 222.494 71.4656H254.161C254.367 71.4656 254.564 71.5461 254.709 71.6923C254.854 71.8373 254.936 72.0343 254.936 72.2399V98.9908C254.932 103.298 253.218 107.428 250.173 110.474C247.126 113.519 242.997 115.233 238.69 115.236ZM223.268 72.9969V98.9908C223.273 102.887 224.823 106.623 227.579 109.378C230.333 112.134 234.07 113.684 237.966 113.688H238.69C242.588 113.684 246.326 112.134 249.084 109.38C251.842 106.624 253.394 102.889 253.404 98.9908V72.9969H223.268Z" fill="#231F20"/>
<path d="M254.159 72.2366H285.826V98.9875C285.826 103.091 284.196 107.026 281.294 109.928C278.392 112.829 274.457 114.459 270.354 114.459H269.63C265.527 114.459 261.592 112.829 258.69 109.928C255.788 107.026 254.159 103.091 254.159 98.9875V72.2366Z" fill="white"/>
<path d="M270.362 115.236H269.638C265.33 115.233 261.201 113.519 258.155 110.474C255.11 107.428 253.396 103.298 253.393 98.9908V72.2399C253.393 72.0367 253.472 71.8422 253.613 71.6972C253.754 71.5535 253.948 71.4693 254.15 71.4656H285.834C286.037 71.4693 286.232 71.5523 286.377 71.6972C286.52 71.841 286.604 72.0355 286.608 72.2399V98.9908C286.604 103.298 284.89 107.428 281.845 110.474C278.799 113.519 274.67 115.233 270.362 115.236ZM254.941 72.9969V98.9908C254.95 102.889 256.504 106.624 259.262 109.38C262.02 112.134 265.756 113.684 269.655 113.688H270.362C274.26 113.684 277.998 112.134 280.756 109.38C283.514 106.624 285.067 102.889 285.076 98.9908V72.9969H254.941Z" fill="#231F20"/>
<path d="M285.839 72.2366H317.506V98.9875C317.506 103.091 315.876 107.026 312.974 109.928C310.073 112.829 306.137 114.459 302.035 114.459H301.31C297.208 114.459 293.272 112.829 290.37 109.928C287.469 107.026 285.839 103.091 285.839 98.9875V72.2366Z" fill="#72F4C3"/>
<path d="M302.041 115.236H301.316C297.009 115.233 292.88 113.519 289.834 110.474C286.788 107.428 285.075 103.298 285.07 98.9908V72.2399C285.074 72.0355 285.157 71.841 285.302 71.6972C285.446 71.5523 285.64 71.4693 285.845 71.4656H317.512C317.718 71.4656 317.915 71.5461 318.059 71.6923C318.204 71.8373 318.286 72.0343 318.286 72.2399V98.9908C318.281 103.298 316.569 107.428 313.524 110.474C310.477 113.519 306.347 115.233 302.041 115.236ZM286.619 72.9969V98.9908C286.624 102.887 288.174 106.623 290.928 109.378C293.684 112.134 297.419 113.684 301.316 113.688H302.041C305.941 113.688 309.683 112.14 312.444 109.385C315.206 106.63 316.762 102.892 316.771 98.9908V72.9969H286.619Z" fill="#231F20"/>
<path d="M317.514 72.2366H349.18V98.9875C349.18 103.091 347.55 107.026 344.649 109.928C341.747 112.829 337.812 114.459 333.708 114.459H332.985C328.881 114.459 324.946 112.829 322.045 109.928C319.143 107.026 317.514 103.091 317.514 98.9875V72.2366Z" fill="white"/>
<path d="M333.711 115.236H333.005C328.701 115.228 324.575 113.513 321.533 110.468C318.49 107.422 316.779 103.295 316.775 98.9908V72.2399C316.775 72.0367 316.855 71.8422 316.996 71.6972C317.137 71.5535 317.33 71.4693 317.532 71.4656H349.217C349.419 71.4693 349.612 71.5535 349.753 71.6972C349.895 71.8422 349.974 72.0367 349.974 72.2399V98.9908C349.97 103.301 348.254 107.433 345.205 110.48C342.156 113.525 338.021 115.236 333.711 115.236ZM318.291 72.9969V98.9908C318.299 102.889 319.853 106.624 322.611 109.38C325.369 112.134 329.106 113.684 333.005 113.688H333.711C337.61 113.684 341.347 112.134 344.105 109.38C346.863 106.624 348.417 102.889 348.425 98.9908V72.9969H318.291Z" fill="#231F20"/>
<path d="M349.2 72.2366H380.867V98.9875C380.867 103.091 379.237 107.026 376.335 109.928C373.433 112.829 369.498 114.459 365.395 114.459H364.671C360.568 114.459 356.633 112.829 353.731 109.928C350.829 107.026 349.2 103.091 349.2 98.9875V72.2366Z" fill="#72F4C3"/>
<path d="M365.394 115.236H364.67C360.364 115.233 356.234 113.519 353.187 110.474C350.142 107.428 348.429 103.298 348.425 98.9908V72.2399C348.429 72.0355 348.512 71.841 348.657 71.6972C348.8 71.5523 348.995 71.4693 349.199 71.4656H380.866C381.07 71.4693 381.264 71.5523 381.409 71.6972C381.553 71.841 381.636 72.0355 381.641 72.2399V98.9908C381.636 103.298 379.923 107.428 376.877 110.474C373.831 113.519 369.702 115.233 365.394 115.236ZM349.956 72.9969V98.9908C349.965 102.889 351.519 106.624 354.277 109.38C357.034 112.134 360.773 113.684 364.67 113.688H365.394C369.291 113.684 373.027 112.134 375.782 109.378C378.537 106.623 380.087 102.887 380.092 98.9908V72.9969H349.956Z" fill="#231F20"/>
<path d="M380.866 72.2366H412.533V98.9875C412.533 103.091 410.904 107.026 408.002 109.928C405.101 112.829 401.166 114.459 397.062 114.459H396.339C392.235 114.459 388.3 112.829 385.398 109.928C382.497 107.026 380.866 103.091 380.866 98.9875V72.2366Z" fill="white"/>
<path d="M397.057 115.236H396.35C392.041 115.236 387.906 113.525 384.857 110.48C381.808 107.433 380.092 103.301 380.087 98.9908V72.2399C380.092 72.0355 380.175 71.841 380.319 71.6972C380.464 71.5523 380.658 71.4693 380.862 71.4656H412.546C412.748 71.4693 412.941 71.5535 413.082 71.6972C413.225 71.8422 413.304 72.0367 413.303 72.2399V98.9908C413.299 103.298 411.586 107.428 408.54 110.474C405.495 113.519 401.365 115.233 397.057 115.236ZM381.637 72.9969V98.9908C381.646 102.889 383.199 106.624 385.957 109.38C388.715 112.134 392.452 113.684 396.35 113.688H397.057C400.955 113.684 404.693 112.134 407.451 109.38C410.209 106.624 411.763 102.889 411.771 98.9908V72.9969H381.637Z" fill="#231F20"/>
<path d="M412.546 72.2366H444.213V98.9875C444.213 103.091 442.583 107.026 439.681 109.928C436.779 112.829 432.844 114.459 428.741 114.459H428.017C423.914 114.459 419.979 112.829 417.077 109.928C414.175 107.026 412.546 103.091 412.546 98.9875V72.2366Z" fill="#72F4C3"/>
<path d="M428.741 115.236H428.017C423.71 115.233 419.58 113.519 416.534 110.474C413.489 107.428 411.775 103.298 411.771 98.9908V72.2399C411.771 72.0343 411.853 71.8373 411.998 71.6923C412.143 71.5461 412.34 71.4656 412.546 71.4656H444.213C444.416 71.4693 444.611 71.5523 444.756 71.6972C444.899 71.841 444.982 72.0355 444.987 72.2399V98.9908C444.982 103.298 443.269 107.428 440.224 110.474C437.178 113.519 433.049 115.233 428.741 115.236ZM413.303 72.9969V98.9908C413.312 102.889 414.865 106.624 417.623 109.38C420.381 112.134 424.119 113.684 428.017 113.688H428.741C432.637 113.684 436.373 112.134 439.128 109.378C441.884 106.623 443.434 102.887 443.439 98.9908V72.9969H413.303Z" fill="#231F20"/>
<path d="M324.15 195.271H120.847C120.624 195.271 120.41 195.181 120.251 195.024C120.094 194.866 120.005 194.652 120.005 194.428V130.556C120.005 130.333 120.094 130.119 120.251 129.96C120.41 129.803 120.624 129.714 120.847 129.714H324.15C324.373 129.714 324.587 129.803 324.744 129.96C324.903 130.119 324.991 130.333 324.991 130.556V194.428C324.991 194.652 324.903 194.866 324.744 195.024C324.587 195.181 324.373 195.271 324.15 195.271ZM121.689 193.587H323.308V131.397H121.689V193.587Z" fill="#D1D3D4"/>
<path d="M324.15 244.331C323.927 244.331 323.712 244.242 323.555 244.084C323.396 243.926 323.308 243.713 323.308 243.488V203.438H121.689V243.488C121.689 243.713 121.601 243.926 121.442 244.084C121.285 244.242 121.07 244.331 120.847 244.331C120.624 244.331 120.41 244.242 120.251 244.084C120.094 243.926 120.005 243.713 120.005 243.488V202.596C120.005 202.373 120.094 202.158 120.251 202.001C120.41 201.842 120.624 201.754 120.847 201.754H324.15C324.373 201.754 324.587 201.842 324.744 202.001C324.903 202.158 324.991 202.373 324.991 202.596V243.488C324.991 243.713 324.903 243.926 324.744 244.084C324.587 244.242 324.373 244.331 324.15 244.331Z" fill="#D1D3D4"/>
<path d="M314.517 147.794H208.776C208.552 147.794 208.339 147.706 208.18 147.548C208.023 147.39 207.934 147.176 207.934 146.953C207.939 146.731 208.028 146.519 208.185 146.363C208.342 146.206 208.553 146.115 208.776 146.112H314.517C314.74 146.115 314.951 146.206 315.108 146.363C315.265 146.519 315.355 146.731 315.36 146.953C315.36 147.176 315.27 147.39 315.113 147.548C314.954 147.706 314.741 147.794 314.517 147.794Z" fill="#D1D3D4"/>
<path d="M314.517 159.477H208.776C208.552 159.477 208.339 159.389 208.18 159.23C208.023 159.073 207.934 158.859 207.934 158.636C207.939 158.414 208.028 158.202 208.185 158.045C208.342 157.889 208.553 157.798 208.776 157.793H314.517C314.74 157.798 314.951 157.889 315.108 158.045C315.265 158.202 315.355 158.414 315.36 158.636C315.36 158.859 315.27 159.073 315.113 159.23C314.954 159.389 314.741 159.477 314.517 159.477Z" fill="#D1D3D4"/>
<path d="M309.108 167.745H279.075C276.091 167.745 273.671 170.164 273.671 173.149V173.166C273.671 176.151 276.091 178.57 279.075 178.57H309.108C312.093 178.57 314.513 176.151 314.513 173.166V173.149C314.513 170.164 312.093 167.745 309.108 167.745Z" fill="#72F4C3"/>
<path d="M314.517 221.752H208.776C208.552 221.752 208.339 221.663 208.18 221.505C208.023 221.347 207.934 221.134 207.934 220.909C207.939 220.688 208.028 220.477 208.185 220.32C208.342 220.162 208.553 220.073 208.776 220.068H314.517C314.74 220.073 314.951 220.162 315.108 220.32C315.265 220.477 315.355 220.688 315.36 220.909C315.36 221.134 315.27 221.347 315.113 221.505C314.954 221.663 314.741 221.752 314.517 221.752Z" fill="#D1D3D4"/>
<path d="M294.096 233.435H208.776C208.552 233.435 208.339 233.346 208.18 233.189C208.023 233.03 207.934 232.816 207.934 232.593C207.939 232.371 208.028 232.159 208.185 232.003C208.342 231.846 208.553 231.755 208.776 231.751H294.096C294.318 231.755 294.53 231.846 294.687 232.003C294.843 232.159 294.934 232.371 294.939 232.593C294.939 232.816 294.849 233.03 294.692 233.189C294.534 233.346 294.319 233.435 294.096 233.435Z" fill="#D1D3D4"/>
<path d="M159.601 143.267C161.977 143.744 163.291 145.585 164.781 147.13L158.775 156.884L151.152 152.48C151.25 152.319 151.323 152.184 151.409 152.055C152.958 149.648 154.527 147.253 156.056 144.826C156.289 144.432 156.609 144.092 156.99 143.835C157.373 143.576 157.811 143.405 158.269 143.332C158.343 143.312 158.415 143.286 158.486 143.255L159.601 143.267Z" fill="#72F4C3"/>
<path d="M171.294 179.059L171.474 182.903C171.356 182.744 171.287 182.654 171.225 182.557C169.522 179.861 167.821 177.162 166.12 174.461C166.057 174.381 166.023 174.283 166.023 174.181C166.023 174.08 166.057 173.982 166.12 173.901C167.694 171.226 169.255 168.544 170.829 165.862C170.87 165.785 170.934 165.715 171.044 165.557C171.086 166.525 171.128 167.403 171.162 168.274C171.162 168.633 171.161 168.965 171.211 169.359C171.211 169.47 171.363 169.643 171.454 169.649C174.732 170.061 178.058 169.916 181.289 169.221C181.982 169.048 182.675 168.751 183.369 168.495C183.331 168.604 183.287 168.71 183.238 168.813C181.762 171.638 180.28 174.461 178.791 177.283C178.572 177.709 178.242 178.071 177.836 178.327C177.431 178.585 176.962 178.73 176.482 178.747C175.011 178.859 173.542 178.921 172.071 179.004L171.294 179.059Z" fill="#72F4C3"/>
<path d="M158.589 164.789L155.338 162.693C153.257 165.009 150.643 168.853 149.759 172.991C149.661 172.824 149.59 172.711 149.524 172.583C148.142 169.915 146.756 167.245 145.37 164.575C145.162 164.218 145.045 163.811 145.034 163.396C145.023 162.98 145.116 162.567 145.304 162.199C146.065 160.791 146.892 159.429 147.691 158.055C147.769 157.914 147.853 157.781 147.957 157.614L144.96 155.726V155.645H145.37L154.167 155.992C154.381 155.992 154.563 155.992 154.681 156.26C155.942 159.023 157.212 161.778 158.491 164.529C158.517 164.588 158.531 164.642 158.589 164.789Z" fill="#72F4C3"/>
<path d="M165.19 155.22L168.588 153.214C167.152 149.488 165.354 146.017 162.305 143.255H162.777H171.689C172.157 143.25 172.619 143.375 173.022 143.618C173.426 143.861 173.757 144.212 173.978 144.633C174.739 145.916 175.48 147.215 176.227 148.505L176.464 148.92L179.65 147.028C179.539 147.235 179.493 147.335 179.434 147.435C177.912 150.071 176.393 152.703 174.877 155.334C174.833 155.435 174.759 155.521 174.664 155.577C174.569 155.631 174.46 155.655 174.351 155.641C171.381 155.488 168.45 155.354 165.446 155.214L165.19 155.22Z" fill="#72F4C3"/>
<path d="M163.542 169.904L163.19 179.187C162.561 179.147 161.933 179.112 161.303 179.064C158.919 178.877 156.536 178.684 154.146 178.511C153.532 178.474 152.954 178.191 152.518 177.718C151.97 177.194 151.565 176.516 151.343 175.758C151.121 175 151.093 174.189 151.259 173.414C151.549 172 151.964 170.606 152.309 169.276L163.542 169.904Z" fill="#72F4C3"/>
<path d="M172.217 159.194L180.323 154.406C180.415 154.548 180.507 154.662 180.577 154.788C182.147 157.323 183.711 159.862 185.271 162.405C185.751 163.146 185.94 164.025 185.801 164.883C185.662 165.743 185.206 166.529 184.515 167.099C183.531 167.894 182.364 168.457 181.108 168.742C180.402 168.942 179.694 169.111 178.988 169.272C178.915 169.279 178.84 169.271 178.771 169.247C178.703 169.222 178.641 169.183 178.591 169.131C176.514 165.925 174.443 162.711 172.379 159.489C172.337 159.395 172.295 159.314 172.217 159.194Z" fill="#72F4C3"/>
</svg>
