<svg width="253" height="239" viewBox="0 0 253 239" fill="none" xmlns="http://www.w3.org/2000/svg">
<path d="M233.835 59.8321L180.151 60.16L180.666 144.382L234.349 144.054L233.835 59.8321Z" fill="#E6E7E8"/>
<path d="M180.676 145.099C180.482 145.091 180.299 145.011 180.162 144.874C180.025 144.737 179.944 144.553 179.936 144.36L179.358 60.152C179.355 60.0543 179.373 59.9571 179.409 59.8664C179.446 59.7758 179.5 59.6934 179.569 59.6243C179.638 59.5552 179.721 59.5008 179.811 59.4644C179.902 59.428 179.999 59.4104 180.097 59.4126L233.765 59.0751C233.864 59.068 233.963 59.0831 234.054 59.1192C234.146 59.1554 234.229 59.2117 234.296 59.284C234.429 59.4285 234.504 59.6178 234.505 59.8145L235.019 144.022C235.021 144.118 235.004 144.214 234.969 144.304C234.933 144.393 234.88 144.475 234.813 144.544C234.746 144.613 234.665 144.667 234.576 144.705C234.488 144.742 234.392 144.761 234.296 144.761L180.611 145.099H180.676ZM180.901 60.8753L181.399 143.62L233.621 143.299L233.106 60.5538L180.901 60.8753Z" fill="#231F20"/>
<path d="M168.389 76.9979L93.3311 88.0413L102.814 152.492L177.871 141.449L168.389 76.9979Z" fill="#72F4C3"/>
<path d="M102.833 153.184C102.657 153.185 102.486 153.123 102.353 153.007C102.22 152.892 102.134 152.732 102.11 152.557L92.6269 88.1033C92.6112 88.0108 92.6145 87.9161 92.6367 87.8249C92.6588 87.7337 92.6992 87.648 92.7555 87.5729C92.8104 87.4929 92.8818 87.4256 92.9651 87.3757C93.0483 87.3257 93.1413 87.2944 93.2377 87.2836L168.284 76.2252C168.477 76.1977 168.674 76.2482 168.831 76.3658C168.988 76.4833 169.091 76.6582 169.119 76.8521L178.619 141.306C178.635 141.499 178.584 141.692 178.474 141.852C178.354 142.005 178.183 142.108 177.992 142.141L102.946 153.184H102.833ZM94.17 88.6338L103.444 151.641L177.027 140.807L167.769 77.8004L94.17 88.6338Z" fill="#231F20"/>
<path d="M144.907 34.6169L86.6875 46.8325L94.982 86.3637L153.201 74.148L144.907 34.6169Z" fill="#E6E7E8"/>
<path d="M94.9738 87.123C94.804 87.1196 94.6402 87.0591 94.5089 86.9512C94.3777 86.8433 94.2867 86.6943 94.2506 86.5283L85.9568 47.0042C85.9384 46.9102 85.9389 46.8135 85.9582 46.7197C85.9775 46.6259 86.0153 46.5368 86.0693 46.4577C86.1189 46.3767 86.1843 46.3064 86.2616 46.2512C86.3389 46.196 86.4266 46.1569 86.5193 46.1363L144.736 33.9207C144.931 33.8861 145.132 33.9263 145.299 34.0332C145.38 34.0846 145.449 34.1529 145.502 34.2332C145.555 34.3136 145.59 34.4043 145.604 34.4993L153.898 74.0233C153.919 74.1173 153.922 74.2146 153.905 74.3094C153.888 74.4043 153.852 74.4948 153.8 74.5757C153.747 74.6565 153.679 74.7261 153.599 74.7803C153.52 74.8345 153.43 74.8722 153.336 74.8913L95.1185 87.1069L94.9738 87.123ZM87.548 47.4221L95.5846 85.5156L152.355 73.6054L144.319 35.5119L87.548 47.4221Z" fill="#231F20"/>
<path d="M196.65 19.3898L152.788 26.0311L157.625 57.9742L201.487 51.3328L196.65 19.3898Z" fill="#231F20"/>
<path d="M157.626 58.6893C157.469 58.6931 157.315 58.6419 157.192 58.5447C157.112 58.4886 157.043 58.417 156.991 58.3343C156.938 58.2515 156.903 58.1591 156.887 58.0625L152.065 26.125C152.049 26.0299 152.052 25.9325 152.074 25.8387C152.096 25.7448 152.137 25.6563 152.194 25.5784C152.251 25.5006 152.323 25.4349 152.406 25.3852C152.488 25.3355 152.58 25.3029 152.675 25.2892L196.523 18.651C196.618 18.635 196.716 18.6382 196.81 18.6604C196.903 18.6826 196.992 18.7234 197.07 18.7803C197.148 18.8372 197.213 18.9091 197.263 18.9918C197.313 19.0745 197.345 19.1663 197.359 19.2618L202.181 51.1992C202.197 51.2943 202.194 51.3916 202.172 51.4855C202.15 51.5793 202.109 51.6678 202.052 51.7457C201.998 51.8258 201.926 51.8931 201.843 51.943C201.76 51.9929 201.667 52.0243 201.57 52.035L157.706 58.6893H157.626ZM153.64 26.6394L158.253 57.1785L200.654 50.7492L196.041 20.2101L153.64 26.6394Z" fill="#231F20"/>
<path d="M150.458 0.684175L110.445 20.573L119.603 38.9963L159.616 19.1075L150.458 0.684175Z" fill="#72F4C3"/>
<path d="M119.598 39.7551C119.461 39.7554 119.328 39.718 119.211 39.6471C119.095 39.5762 119.001 39.4745 118.939 39.3533L109.793 20.9174C109.721 20.7422 109.721 20.546 109.793 20.3709C109.86 20.1866 109.991 20.0327 110.163 19.9369L150.185 0.054319C150.365 -0.0181063 150.567 -0.0181063 150.747 0.054319C150.838 0.0852002 150.922 0.133782 150.993 0.197243C151.065 0.260704 151.124 0.337787 151.165 0.424008L160.327 18.8439C160.399 19.0244 160.399 19.2259 160.327 19.4065C160.296 19.4971 160.248 19.5808 160.184 19.6525C160.121 19.7242 160.044 19.7827 159.957 19.8244L119.887 39.6748C119.796 39.7182 119.698 39.7454 119.598 39.7551V39.7551ZM111.432 20.9334L119.887 38.0353L158.575 18.7475L150.072 1.6295L111.432 20.9334Z" fill="#231F20"/>
<path d="M225.972 24.8685L205.327 32.5298L214.107 56.1882L234.751 48.5269L225.972 24.8685Z" fill="white"/>
<path d="M214.109 56.9375C214.008 56.9614 213.904 56.9614 213.803 56.9375C213.715 56.8993 213.636 56.8441 213.57 56.7752C213.504 56.7062 213.452 56.6248 213.417 56.5356L204.641 32.8759C204.574 32.6925 204.581 32.4899 204.663 32.3122C204.744 32.1345 204.892 31.9962 205.075 31.9276L225.713 24.2767C225.897 24.209 226.099 24.2167 226.277 24.298C226.455 24.3793 226.593 24.5277 226.662 24.7107L235.438 48.3544C235.473 48.445 235.491 48.5418 235.488 48.6392C235.485 48.7365 235.463 48.8324 235.423 48.9209C235.382 49.0095 235.324 49.089 235.252 49.1546C235.18 49.2202 235.096 49.2705 235.004 49.3027L214.366 56.9696L214.109 56.9375ZM206.265 32.9884L214.543 55.2659L233.83 48.1133L225.569 25.8358L206.265 32.9884Z" fill="#231F20"/>
<path d="M169.515 51.9241L145.924 54.9797L148.979 78.571L172.571 75.5154L169.515 51.9241Z" fill="#E6E7E8"/>
<path d="M148.979 79.2953C148.801 79.293 148.63 79.2267 148.498 79.1086C148.365 78.9905 148.279 78.8286 148.256 78.6524L145.202 55.073C145.176 54.8788 145.228 54.6823 145.347 54.5265C145.401 54.4479 145.473 54.3825 145.557 54.3352C145.64 54.2879 145.733 54.2599 145.829 54.2532L169.424 51.1832C169.618 51.1605 169.813 51.2154 169.967 51.3358C170.12 51.4563 170.22 51.6325 170.244 51.8262L173.298 75.4217C173.311 75.5168 173.306 75.6136 173.282 75.7066C173.257 75.7995 173.215 75.8867 173.156 75.963C173.098 76.0393 173.025 76.1032 172.942 76.151C172.858 76.1988 172.766 76.2295 172.671 76.2414L149.076 79.2953H148.979ZM146.745 55.6034L149.622 77.7362L171.755 74.8752L168.878 52.7424L146.745 55.6034Z" fill="#231F20"/>
<path d="M105.951 237.391C112.725 237.391 118.215 231.901 118.215 225.128C118.215 218.354 112.725 212.864 105.951 212.864C99.1782 212.864 93.6875 218.354 93.6875 225.128C93.6875 231.901 99.1782 237.391 105.951 237.391Z" fill="#676767"/>
<path d="M105.951 238.195C103.367 238.195 100.84 237.429 98.6914 235.993C96.5424 234.557 94.8676 232.516 93.8785 230.128C92.8895 227.741 92.6307 225.113 93.1349 222.578C93.6391 220.043 94.8837 217.715 96.7112 215.887C98.5387 214.06 100.867 212.815 103.402 212.311C105.937 211.807 108.564 212.066 110.952 213.055C113.34 214.044 115.381 215.719 116.817 217.868C118.252 220.017 119.019 222.543 119.019 225.128C119.015 228.592 117.636 231.913 115.187 234.363C112.737 236.813 109.416 238.191 105.951 238.195V238.195ZM105.951 213.667C103.685 213.667 101.469 214.34 99.5844 215.599C97.6998 216.858 96.2309 218.648 95.3635 220.742C94.4961 222.836 94.2691 225.14 94.7113 227.363C95.1535 229.586 96.245 231.628 97.8477 233.231C99.4505 234.834 101.492 235.925 103.716 236.368C105.939 236.81 108.243 236.583 110.337 235.715C112.431 234.848 114.221 233.379 115.48 231.495C116.739 229.61 117.412 227.394 117.412 225.128C117.407 222.089 116.198 219.177 114.05 217.029C111.902 214.88 108.989 213.672 105.951 213.667V213.667Z" fill="#9A9A9A"/>
<path d="M103.236 207.109V222.942C103.236 227.04 107.93 227.281 110.067 222.942C112.205 218.602 116.77 206.563 116.77 206.563L103.236 207.109Z" fill="#E6E7E8"/>
<path d="M105.886 226.863C105.63 226.897 105.371 226.897 105.115 226.863C104.302 226.637 103.595 226.13 103.118 225.434C102.642 224.737 102.427 223.894 102.511 223.054V207.222C102.511 207.034 102.582 206.853 102.71 206.716C102.839 206.578 103.014 206.495 103.202 206.483L116.752 205.952C116.872 205.946 116.992 205.969 117.101 206.019C117.21 206.07 117.306 206.146 117.379 206.242C117.451 206.34 117.496 206.455 117.51 206.577C117.524 206.698 117.506 206.82 117.459 206.933C117.282 207.431 112.846 219.068 110.724 223.392C110.317 224.361 109.65 225.198 108.796 225.811C107.942 226.424 106.935 226.788 105.886 226.863V226.863ZM103.974 207.849V222.974C103.974 224.276 104.504 225.128 105.452 225.353C106.401 225.578 108.297 224.886 109.406 222.652C111.126 219.148 114.534 210.388 115.691 207.383L103.974 207.849Z" fill="#757575"/>
<path d="M208.964 237.391C215.737 237.391 221.228 231.901 221.228 225.128C221.228 218.354 215.737 212.864 208.964 212.864C202.191 212.864 196.7 218.354 196.7 225.128C196.7 231.901 202.191 237.391 208.964 237.391Z" fill="#616161"/>
<path d="M208.965 238.195C206.381 238.192 203.856 237.423 201.709 235.985C199.562 234.547 197.89 232.505 196.903 230.117C195.917 227.729 195.66 225.102 196.166 222.568C196.672 220.035 197.918 217.708 199.746 215.882C201.574 214.056 203.903 212.813 206.437 212.31C208.972 211.807 211.598 212.067 213.985 213.056C216.372 214.046 218.412 215.721 219.847 217.869C221.282 220.018 222.048 222.544 222.048 225.128C222.044 228.595 220.664 231.918 218.21 234.369C215.757 236.819 212.432 238.195 208.965 238.195V238.195ZM208.965 213.667C206.699 213.671 204.485 214.345 202.602 215.607C200.719 216.868 199.253 218.659 198.388 220.753C197.523 222.847 197.299 225.151 197.743 227.373C198.187 229.595 199.279 231.636 200.883 233.237C202.486 234.838 204.528 235.928 206.751 236.369C208.973 236.81 211.277 236.582 213.37 235.714C215.463 234.846 217.252 233.377 218.511 231.493C219.769 229.609 220.441 227.393 220.441 225.128C220.437 222.087 219.226 219.172 217.074 217.023C214.922 214.874 212.005 213.667 208.965 213.667Z" fill="#9A9A9A"/>
<path d="M206.265 207.109V222.942C206.265 227.04 210.958 227.281 213.08 222.942C215.201 218.602 219.798 206.563 219.798 206.563L206.265 207.109Z" fill="#E6E7E8"/>
<path d="M208.901 226.863C208.65 226.896 208.396 226.896 208.145 226.863C207.329 226.64 206.618 226.135 206.139 225.438C205.659 224.74 205.442 223.896 205.525 223.054V207.222C205.529 207.032 205.604 206.851 205.735 206.714C205.866 206.577 206.043 206.495 206.232 206.483L219.766 205.952C219.886 205.944 220.007 205.967 220.116 206.017C220.226 206.068 220.321 206.145 220.393 206.241C220.463 206.34 220.509 206.455 220.526 206.575C220.543 206.695 220.53 206.818 220.489 206.933C220.296 207.431 215.86 219.068 213.739 223.392C213.335 224.363 212.668 225.202 211.813 225.815C210.959 226.429 209.95 226.792 208.901 226.863ZM207.004 207.849V222.974C207.004 224.276 207.534 225.127 208.467 225.352C209.399 225.577 211.328 224.886 212.421 222.652C214.157 219.148 217.548 210.388 218.721 207.383L207.004 207.849Z" fill="#676767"/>
<path d="M249.919 77.3826L60.0622 67.3529C59.8476 67.3404 59.6465 67.2441 59.5022 67.0848C59.3579 66.9255 59.2819 66.7158 59.2907 66.501C59.2969 66.3954 59.3238 66.292 59.37 66.1969C59.4161 66.1017 59.4807 66.0166 59.5598 65.9464C59.6389 65.8762 59.7312 65.8223 59.8312 65.7879C59.9312 65.7534 60.037 65.739 60.1426 65.7455L249.951 75.7752C250.166 75.7877 250.367 75.884 250.511 76.0433C250.655 76.2027 250.731 76.4123 250.723 76.6271C250.71 76.8318 250.62 77.024 250.471 77.1645C250.321 77.3049 250.124 77.3829 249.919 77.3826V77.3826Z" fill="#9A9A9A"/>
<path d="M73.0498 100.785C72.945 100.787 72.8408 100.768 72.7434 100.73C72.646 100.691 72.5573 100.634 72.4824 100.56C72.4076 100.487 72.3481 100.399 72.3076 100.303C72.267 100.206 72.2461 100.102 72.2461 99.9976C72.2459 99.7856 72.3279 99.5818 72.4747 99.429C72.6216 99.2762 72.8219 99.1861 73.0337 99.1778L248.376 97.458C248.589 97.458 248.794 97.5427 248.945 97.6934C249.095 97.8441 249.18 98.0485 249.18 98.2617C249.18 98.4748 249.095 98.6792 248.945 98.8299C248.794 98.9806 248.589 99.0653 248.376 99.0653L73.0337 100.785H73.0498Z" fill="#9A9A9A"/>
<path d="M90.8437 138.461C90.6306 138.461 90.4262 138.376 90.2754 138.225C90.1247 138.075 90.04 137.87 90.04 137.657C90.04 137.444 90.1247 137.24 90.2754 137.089C90.4262 136.938 90.6306 136.853 90.8437 136.853L245.227 125.602C245.44 125.587 245.65 125.658 245.812 125.798C245.973 125.938 246.072 126.136 246.087 126.35C246.102 126.563 246.031 126.773 245.891 126.934C245.751 127.096 245.553 127.195 245.339 127.21L91.0366 138.461H90.8437Z" fill="#9A9A9A"/>
<path d="M103.815 163.23C101.232 163.227 98.7097 162.447 96.5767 160.99C94.4437 159.534 92.7988 157.469 91.8561 155.064C68.1963 94.131 52.2195 54.2533 49.9532 50.5886C48.0566 49.1903 36.7571 46.3131 27.1775 44.4326C26.8548 44.3846 26.5453 44.2717 26.2676 44.1006C25.9899 43.9295 25.7497 43.7038 25.5617 43.4373C25.3738 43.1707 25.2418 42.8688 25.1739 42.5497C25.106 42.2307 25.1035 41.9012 25.1667 41.5812C25.2298 41.2612 25.3572 40.9573 25.5412 40.6879C25.7252 40.4186 25.9619 40.1894 26.2371 40.0142C26.5122 39.839 26.82 39.7214 27.1419 39.6686C27.4638 39.6158 27.793 39.6289 28.1097 39.7071C34.764 41.009 50.6122 44.3683 53.4572 47.2615C54.1483 47.9526 56.2539 50.0421 96.3566 153.345C96.9816 154.936 98.098 156.287 99.5433 157.2C100.989 158.113 102.688 158.542 104.393 158.424L232.979 147.494C234.723 147.341 236.361 146.593 237.62 145.376C238.878 144.158 239.68 142.546 239.89 140.808L247.525 76.3379C247.598 75.7028 247.92 75.1225 248.42 74.7247C248.92 74.3268 249.558 74.1439 250.193 74.2162C250.828 74.2968 251.406 74.623 251.802 75.1249C252.199 75.6269 252.383 76.2643 252.315 76.9005L244.68 141.37C244.336 144.203 243.032 146.833 240.985 148.822C238.937 150.81 236.271 152.038 233.429 152.3L104.843 163.214L103.815 163.23Z" fill="#9A9A9A"/>
<path d="M32.401 37.1996L29.331 48.0972L4.24073 41.2982C3.64894 41.1334 3.09571 40.8529 2.61308 40.4728C2.13045 40.0927 1.72799 39.6207 1.42902 39.084C1.13005 38.5474 0.940497 37.9568 0.871331 37.3464C0.802166 36.736 0.854772 36.1179 1.02609 35.528V35.528C1.35606 34.4242 2.08575 33.4831 3.07257 32.8886C4.05938 32.2942 5.23238 32.089 6.36238 32.3133L32.401 37.1996Z" fill="white"/>
<path d="M29.3306 48.9491H29.1216L4.03131 42.1501C3.3323 41.9622 2.67789 41.6364 2.10653 41.192C1.53517 40.7476 1.05839 40.1935 0.704168 39.5623C0.345702 38.9344 0.118151 38.2404 0.0352762 37.5222C-0.0475988 36.8039 0.0159157 36.0763 0.221966 35.3833C0.591977 34.0752 1.4403 32.9541 2.59856 32.2424C3.75683 31.5308 5.14034 31.2807 6.47444 31.5418L32.5452 36.4763C32.6547 36.4968 32.7586 36.5404 32.8501 36.6042C32.9415 36.6679 33.0184 36.7503 33.0756 36.8459C33.1867 37.0407 33.2211 37.27 33.172 37.4889L30.1021 48.4508C30.0417 48.6041 29.9348 48.7346 29.7964 48.824C29.658 48.9134 29.4951 48.9571 29.3306 48.9491V48.9491ZM5.44576 33.0044C4.51835 33.0162 3.62623 33.3617 2.9328 33.9776C2.23937 34.5936 1.79106 35.4387 1.67002 36.3583C1.54897 37.2778 1.76329 38.2102 2.27369 38.9846C2.7841 39.759 3.55643 40.3236 4.4492 40.5749L28.768 47.1649L31.3879 37.8746L6.16905 33.0527C5.93011 33.0129 5.68786 32.9968 5.44576 33.0044V33.0044Z" fill="#231F20"/>
<path d="M116.368 159.211C116.198 159.211 116.033 159.157 115.897 159.055C115.761 158.954 115.661 158.811 115.612 158.649L86.311 68.3332C86.245 68.1307 86.2622 67.9103 86.3586 67.7205C86.4551 67.5306 86.6229 67.3868 86.8253 67.3206C86.9254 67.2857 87.0316 67.2714 87.1375 67.2785C87.2433 67.2857 87.3466 67.3141 87.4411 67.3621C87.5357 67.4102 87.6196 67.4768 87.6878 67.558C87.7559 67.6393 87.807 67.7335 87.8379 67.8349L117.139 158.15C117.205 158.353 117.188 158.573 117.092 158.763C116.995 158.953 116.827 159.097 116.625 159.163C116.543 159.194 116.456 159.211 116.368 159.211V159.211Z" fill="#231F20"/>
<path d="M129.337 158.504C129.161 158.503 128.991 158.444 128.851 158.337C128.712 158.23 128.612 158.079 128.566 157.909L103.813 69.121C103.784 69.0186 103.775 68.9114 103.788 68.8057C103.8 68.7 103.834 68.5978 103.886 68.5051C103.938 68.4123 104.009 68.331 104.093 68.2656C104.177 68.2003 104.273 68.1523 104.376 68.1244C104.582 68.0698 104.802 68.098 104.988 68.2031C105.175 68.3081 105.312 68.4818 105.372 68.687L130.189 157.475C130.219 157.578 130.227 157.685 130.215 157.791C130.202 157.896 130.169 157.999 130.116 158.091C130.064 158.184 129.994 158.265 129.91 158.331C129.826 158.396 129.73 158.444 129.627 158.472L129.337 158.504Z" fill="#231F20"/>
<path d="M141.875 157.411C141.694 157.413 141.518 157.353 141.375 157.243C141.232 157.132 141.131 156.976 141.087 156.8L119.598 70.0049C119.569 69.9036 119.561 69.7974 119.575 69.6929C119.589 69.5884 119.624 69.4879 119.678 69.3976C119.733 69.3072 119.805 69.2289 119.89 69.1675C119.976 69.1061 120.073 69.0629 120.176 69.0405C120.279 69.014 120.385 69.0079 120.49 69.0226C120.595 69.0373 120.696 69.0726 120.787 69.1263C120.878 69.1801 120.957 69.2513 121.021 69.3359C121.084 69.4204 121.13 69.5167 121.157 69.6192L142.647 156.415C142.673 156.516 142.679 156.621 142.664 156.725C142.649 156.829 142.614 156.928 142.56 157.018C142.506 157.108 142.435 157.186 142.35 157.248C142.266 157.31 142.17 157.355 142.068 157.379L141.875 157.411Z" fill="#231F20"/>
<path d="M153.496 156.238C153.307 156.24 153.124 156.175 152.98 156.054C152.835 155.933 152.739 155.765 152.708 155.579L136.233 70.7764C136.213 70.6709 136.214 70.5624 136.236 70.4572C136.258 70.352 136.3 70.2522 136.361 70.1634C136.421 70.0746 136.498 69.9986 136.588 69.9397C136.678 69.8807 136.779 69.8401 136.884 69.82C136.99 69.8 137.098 69.8009 137.203 69.8228C137.308 69.8446 137.408 69.887 137.497 69.9475C137.586 70.0079 137.662 70.0852 137.721 70.1751C137.78 70.2649 137.82 70.3655 137.84 70.471L154.299 155.273C154.337 155.484 154.291 155.701 154.171 155.878C154.051 156.056 153.866 156.179 153.657 156.222L153.496 156.238Z" fill="#231F20"/>
<path d="M166.162 154.839C165.972 154.838 165.789 154.769 165.644 154.646C165.5 154.522 165.404 154.352 165.374 154.164L151.278 71.789C151.259 71.6845 151.262 71.5773 151.285 71.4738C151.308 71.3702 151.352 71.2722 151.413 71.1856C151.474 71.0989 151.552 71.0252 151.642 70.9688C151.732 70.9123 151.832 70.8743 151.937 70.8568C152.042 70.8361 152.149 70.8368 152.254 70.8591C152.358 70.8813 152.457 70.9246 152.544 70.9863C152.632 71.0479 152.705 71.1266 152.761 71.2177C152.817 71.3087 152.854 71.4101 152.869 71.5158L166.949 153.891C166.982 154.102 166.932 154.317 166.809 154.491C166.686 154.665 166.5 154.784 166.29 154.823L166.162 154.839Z" fill="#231F20"/>
<path d="M178.923 153.313C178.728 153.314 178.539 153.245 178.391 153.118C178.243 152.991 178.147 152.814 178.119 152.621L167.238 72.3678C167.222 72.2633 167.227 72.1567 167.252 72.0541C167.277 71.9514 167.322 71.8548 167.385 71.7697C167.448 71.6846 167.527 71.6127 167.617 71.5581C167.708 71.5035 167.808 71.4673 167.913 71.4516C168.126 71.424 168.341 71.4809 168.512 71.6102C168.683 71.7394 168.797 71.9306 168.829 72.1428L179.711 152.396C179.726 152.502 179.721 152.61 179.695 152.713C179.668 152.817 179.622 152.914 179.557 153C179.493 153.085 179.412 153.156 179.32 153.21C179.228 153.264 179.125 153.299 179.019 153.313H178.923Z" fill="#231F20"/>
<path d="M191.236 151.753C191.035 151.747 190.844 151.669 190.697 151.533C190.549 151.397 190.455 151.213 190.432 151.014L183.456 73.1875C183.447 73.0819 183.458 72.9756 183.49 72.8744C183.521 72.7733 183.573 72.6794 183.641 72.598C183.709 72.5167 183.792 72.4495 183.886 72.4003C183.98 72.3512 184.082 72.321 184.188 72.3115C184.293 72.302 184.4 72.3134 184.501 72.345C184.602 72.3766 184.696 72.4278 184.777 72.4957C184.859 72.5636 184.926 72.6469 184.975 72.7408C185.024 72.8346 185.054 72.9373 185.064 73.0428L192.04 150.869C192.058 151.082 191.992 151.293 191.857 151.458C191.722 151.623 191.528 151.729 191.316 151.753H191.236Z" fill="#231F20"/>
<path d="M204.399 149.985C204.196 149.982 204 149.903 203.852 149.763C203.703 149.623 203.612 149.433 203.596 149.23L198.645 73.975C198.637 73.8681 198.649 73.7606 198.683 73.6587C198.716 73.5568 198.77 73.4627 198.84 73.3818C198.91 73.3009 198.996 73.2349 199.093 73.1878C199.189 73.1406 199.294 73.1131 199.401 73.107C199.612 73.102 199.817 73.1771 199.975 73.3173C200.133 73.4574 200.232 73.6522 200.253 73.8625L205.187 149.117C205.196 149.222 205.184 149.327 205.151 149.427C205.118 149.527 205.066 149.62 204.997 149.699C204.928 149.779 204.844 149.843 204.75 149.89C204.655 149.936 204.553 149.963 204.448 149.969L204.399 149.985Z" fill="#231F20"/>
<path d="M216.921 151.753C216.71 151.753 216.508 151.671 216.358 151.524C216.208 151.376 216.121 151.176 216.117 150.966L214.301 74.7626C214.299 74.6571 214.318 74.5521 214.356 74.4538C214.394 74.3555 214.452 74.2657 214.525 74.1896C214.598 74.1135 214.685 74.0525 214.782 74.0101C214.879 73.9678 214.983 73.945 215.089 73.9429C215.301 73.9427 215.504 74.0247 215.657 74.1715C215.81 74.3183 215.9 74.5187 215.908 74.7305L217.725 150.934C217.721 151.144 217.638 151.346 217.492 151.498C217.346 151.65 217.147 151.741 216.937 151.753H216.921Z" fill="#231F20"/>
<path d="M230.696 149.535C230.483 149.535 230.279 149.45 230.128 149.3C229.977 149.149 229.893 148.945 229.893 148.731V75.5662C229.893 75.3531 229.977 75.1487 230.128 74.998C230.279 74.8473 230.483 74.7626 230.696 74.7626C230.909 74.7626 231.114 74.8473 231.265 74.998C231.415 75.1487 231.5 75.3531 231.5 75.5662V148.731C231.5 148.945 231.415 149.149 231.265 149.3C231.114 149.45 230.909 149.535 230.696 149.535Z" fill="#231F20"/>
<path d="M224.46 210.147H92.6596C91.5316 210.15 90.4216 209.864 89.435 209.317C88.4483 208.77 87.6178 207.98 87.0221 207.022C86.4264 206.064 86.0852 204.97 86.0311 203.843C85.9769 202.716 86.2115 201.594 86.7126 200.584L106.531 160.513C106.671 160.229 106.866 159.976 107.104 159.767C107.343 159.559 107.62 159.399 107.92 159.297C108.22 159.196 108.537 159.155 108.853 159.176C109.169 159.197 109.478 159.28 109.762 159.42C110.045 159.56 110.299 159.755 110.507 159.994C110.716 160.232 110.876 160.509 110.977 160.809C111.079 161.109 111.12 161.426 111.099 161.742C111.078 162.058 110.995 162.367 110.855 162.651L91.0523 202.753C90.9155 203.028 90.851 203.332 90.8648 203.638C90.8786 203.944 90.9704 204.242 91.1313 204.503C91.2923 204.763 91.5171 204.979 91.7846 205.128C92.052 205.278 92.3532 205.357 92.6596 205.357H224.46C225.099 205.357 225.713 205.611 226.165 206.063C226.617 206.516 226.871 207.129 226.871 207.768C226.871 208.408 226.617 209.021 226.165 209.473C225.713 209.925 225.099 210.179 224.46 210.179V210.147Z" fill="#9A9A9A"/>
</svg>
