<svg width="88" height="92" viewBox="0 0 88 92" fill="none" xmlns="http://www.w3.org/2000/svg">
<path d="M43.2517 91.2155C66.9292 91.2155 86.1235 72.0211 86.1235 48.3437C86.1235 24.6662 66.9292 5.47192 43.2517 5.47192C19.5743 5.47192 0.379883 24.6662 0.379883 48.3437C0.379883 72.0211 19.5743 91.2155 43.2517 91.2155Z" fill="white"/>
<path d="M43.2513 5.48022C51.7355 5.47613 60.0303 7.98826 67.0866 12.6989C74.1429 17.4095 79.6438 24.107 82.8934 31.9441C86.1429 39.7813 86.9952 48.4061 85.3426 56.7278C83.6899 65.0495 79.6064 72.6941 73.6087 78.6949C67.6108 84.6954 59.9682 88.7826 51.6473 90.4393C43.3265 92.096 34.7011 91.2478 26.8624 88.002C19.0236 84.7561 12.3235 79.2585 7.60963 72.2044C2.89557 65.1504 0.379455 56.8568 0.379455 48.3726C0.379455 36.9968 4.89849 26.087 12.9424 18.0432C20.9862 9.99922 31.896 5.48022 43.2719 5.48022H43.2513ZM43.2719 5.10491C34.7161 5.10082 26.3514 7.63431 19.2359 12.3849C12.1203 17.1355 6.57348 23.8897 3.29713 31.7931C0.0206182 39.6966 -0.838002 48.3943 0.82942 56.786C2.497 65.1775 6.61589 72.886 12.665 78.9364C18.7143 84.9868 26.422 89.1071 34.8134 90.7762C43.2046 92.4454 51.9024 91.5884 59.8066 88.3134C67.7106 85.0385 74.4659 79.4931 79.2178 72.3783C83.9699 65.2637 86.5049 56.8995 86.5024 48.3437C86.4882 36.8772 81.9269 25.8843 73.8187 17.7762C65.7107 9.66809 54.7178 5.10672 43.2513 5.09253L43.2719 5.10491Z" fill="#231F20"/>
<path d="M75.4003 19.9771C75.0858 20.0978 74.7418 20.1194 74.4146 20.039L74.9879 19.5028C74.2125 18.6491 73.396 17.8283 72.5546 17.0282C72.5774 17.3446 72.6777 17.6505 72.8467 17.9186C73.0157 18.187 73.2483 18.4096 73.5239 18.5666C72.6165 18.6202 71.9111 18.0799 71.1194 17.8407C70.1745 17.6095 69.2175 17.4304 68.2529 17.3045L69.6758 18.3232C69.4062 18.4258 69.1308 18.5127 68.8509 18.583C68.587 18.0098 68.2406 18.4758 67.9313 18.4594C67.2302 18.4181 66.463 19.2389 65.9311 18.3892C65.6805 18.4205 65.4335 18.4742 65.1927 18.5501C64.5342 18.758 63.9061 19.0519 63.3245 19.4245C62.681 19.9441 62.4791 20.0018 61.9799 19.2389L62.6358 19.012V18.744L61.3036 18.4594C61.2507 18.7739 61.2314 19.0934 61.2459 19.412C61.3026 19.6143 61.3933 19.8054 61.5139 19.9771C61.1215 20.0113 60.7317 20.0705 60.3467 20.1544C59.9798 20.284 59.6204 20.4341 59.2704 20.6039L59.592 21.268L57.8145 20.9793L57.7939 21.1526L58.4784 21.598C57.4557 21.9032 56.8288 21.3711 56.8288 20.3277L55.9585 19.8616C56.2696 19.8341 56.5829 19.8721 56.8783 19.973C57.8393 20.1874 58.8125 20.4267 59.7653 19.9441C60.252 19.6966 60.2272 19.3461 59.7653 19.1192C59.1952 18.8067 58.5956 18.5512 57.9753 18.3563C56.8906 18.047 55.7812 17.8325 54.676 17.5768C54.7296 17.4942 54.7914 17.3911 54.8574 17.2922C54.3474 17.1464 53.8277 17.0362 53.3026 16.9623C52.9835 17.0066 52.6749 17.1072 52.391 17.2591C52.4818 17.0695 52.5354 16.9457 52.6633 16.6736C52.1436 16.9169 51.7271 17.2963 51.4259 17.2262C50.7373 17.0695 50.1888 17.6057 49.5 17.4654C49.0875 17.387 48.5597 17.9893 48.2626 18.1789C47.936 18.2183 47.6142 18.2901 47.3017 18.3933C47.0088 18.5791 46.7327 18.7902 46.4768 19.0243L47.5656 18.7604C47.0748 19.3708 46.547 20.0885 45.9531 20.7442C45.5406 21.1978 45.1034 21.7835 44.5715 21.9278C43.8451 22.1463 43.1781 22.5271 42.6207 23.0414C42.5146 23.1571 42.4336 23.2931 42.3825 23.4415C42.3314 23.5899 42.3114 23.747 42.3237 23.9034C42.3953 24.3596 42.5212 24.8053 42.6991 25.2314C42.797 25.4629 42.9796 25.6483 43.2093 25.7501C43.439 25.852 43.699 25.8627 43.9363 25.7799C44.3487 25.5696 44.9015 25.0541 45.1736 25.1737C45.5572 25.3511 45.7427 25.9696 45.9985 26.4109C46.0521 26.5017 46.0975 26.5966 46.1427 26.6873C46.3862 27.1946 46.3573 28.3865 47.3058 27.1574C48.073 27.3225 48.0771 26.6955 48.1307 26.2666C48.1326 26.0569 48.1876 25.8512 48.2909 25.6688C48.394 25.4862 48.5419 25.3328 48.7205 25.2232C48.831 25.1849 48.9278 25.1148 48.9986 25.0217C49.0695 24.9287 49.1113 24.8168 49.1187 24.6999C49.1263 24.5833 49.099 24.4669 49.0407 24.3655C48.9824 24.2642 48.8953 24.1823 48.7906 24.1302C48.2008 23.7179 48.1348 23.3054 48.6421 22.7733C48.9142 22.4847 49.3226 22.3279 49.6196 22.0557C49.9165 21.7835 50.0773 21.4206 50.3743 21.1855C50.7121 20.8935 51.1046 20.672 51.5291 20.5339C51.7725 20.4679 52.0941 20.6947 52.4488 20.8101C51.7477 21.3629 51.2115 21.7711 50.7042 22.1878C50.4155 22.4186 50.0732 23.8374 50.3371 23.9818C50.8226 24.2746 51.3686 24.4524 51.9333 24.5015C52.4282 24.5303 52.9354 24.2539 53.4427 24.1839C53.6953 24.1926 53.9447 24.2427 54.1811 24.3323V24.6457C53.7355 24.687 53.2942 24.7241 52.8529 24.7695C52.5028 24.7876 52.1542 24.8289 51.8095 24.8932C51.3353 24.9963 51.2733 25.3057 51.6033 25.615C52.0158 26.0274 51.9003 26.2955 51.5456 26.6089C50.6506 25.8789 50.4527 25.9532 50.2424 27.0831C50.2176 27.3452 50.2176 27.6089 50.2424 27.871C49.8794 28.0277 49.4175 28.3906 49.2072 28.2834C48.271 27.8338 47.6482 28.6669 46.8192 28.7288C46.5676 28.0772 46.0975 28.4772 45.6685 28.4854C45.3796 28.4499 45.1104 28.3211 44.9015 28.1183C44.7859 28.0193 44.7075 27.6648 44.7818 27.5864C44.9617 27.3983 45.0807 27.1604 45.1234 26.9036C45.166 26.6469 45.1304 26.3831 45.021 26.147C43.891 26.7656 43.8992 26.7656 44.1631 27.9205C44.2048 28.1573 44.22 28.3979 44.2085 28.638L42.534 29.3062C41.998 29.8383 41.6144 30.2217 41.2267 30.5971C41.0906 30.7332 40.8844 30.8199 40.8143 30.9766C40.7504 31.1314 40.6556 31.2716 40.536 31.3887C40.4162 31.5059 40.274 31.5975 40.1177 31.658C39.9616 31.7185 39.7948 31.7468 39.6274 31.7409C39.4599 31.7351 39.2955 31.6954 39.1438 31.6241C39.1728 31.8549 39.2017 32.0777 39.2305 32.3252L37.7457 32.2592C38.1723 32.8001 38.6368 33.31 39.1356 33.7852C39.7295 34.4656 39.2428 35.1915 39.1356 35.8844C37.8983 35.9834 36.6364 35.4059 35.4238 36.136C36.1084 37.5299 34.9619 38.9776 35.7868 40.3427L36.6116 40.2437C36.8179 40.516 36.9993 40.7552 37.0983 40.8912C38.3355 40.5985 39.5728 40.4211 39.9317 39.3405C39.9317 38.9281 39.8368 38.6146 39.9317 38.4579C40.2203 38.0455 40.608 37.7361 40.9297 37.365C41.1483 37.1134 41.5072 36.8247 41.4947 36.569C41.4536 35.7647 41.936 35.8102 42.3773 35.9875C42.5648 36.0891 42.7811 36.1241 42.9908 36.0865C43.2006 36.049 43.3915 35.9415 43.5322 35.7813C43.8114 35.5595 44.1064 35.3583 44.4148 35.1792C44.6251 35.4472 44.8272 35.7359 45.0664 36.0041C45.4298 36.4924 45.8446 36.9404 46.3037 37.3403C47.1284 37.9301 48.0771 38.3632 47.7307 39.6787L48.308 38.8869L48.04 37.9465L48.9679 38.3589C48.939 38.2063 48.9679 38.0991 48.9101 38.0743C48.3616 37.7114 48.0317 37.0598 47.3182 36.9031C47.1054 36.8096 46.9268 36.6525 46.8068 36.4536C46.5965 36.1772 46.4604 35.8431 46.2417 35.5751C45.6932 34.911 45.7922 34.5564 46.5429 34.3378C46.6078 34.5072 46.6937 34.6681 46.7986 34.8163C46.881 34.9069 47.1368 34.8987 47.1574 34.9771C47.3553 35.7236 47.9822 35.9462 48.5679 36.2928C48.9226 36.5113 49.3927 36.9319 49.3927 37.2619C49.3927 38.7713 50.4732 39.6952 51.0012 40.8912C51.2341 40.5528 51.4382 40.1955 51.6115 39.8231C51.6713 39.5839 51.6449 39.3314 51.5374 39.1095C51.358 38.7702 51.1554 38.4436 50.931 38.1322C51.2733 38.1527 51.5868 38.2641 51.7064 38.161C52.2921 37.633 52.2756 37.6166 52.7829 37.9094C52.7416 38.462 52.7046 38.9281 52.6756 39.3405C52.9024 39.6787 53.088 40.1942 53.4014 40.3468C53.8139 40.5324 54.148 41.2419 54.8491 40.6232C55.0678 40.4293 55.8059 40.8211 56.3049 40.9408C56.3312 40.9412 56.3569 40.934 56.3792 40.9201L57.6494 40.3386C57.3855 41.5017 57.1793 42.4254 56.969 43.3493C56.8329 43.9433 56.6061 44.3886 55.8595 44.4093C55.5708 44.4093 55.2904 44.7268 55.1461 44.8217L56.3092 46.0589L55.7317 46.4879C55.7564 46.5663 55.7812 46.6405 55.81 46.7148L56.9277 46.3766C57.0803 46.6487 57.2949 46.9869 57.4721 47.3457C57.7732 47.9519 58.0578 48.5831 58.3301 49.1893C58.5486 49.6883 58.7424 50.1956 58.9445 50.7071C59.0848 51.0782 59.1425 51.4824 59.3158 51.8329C59.5374 52.2326 59.7854 52.617 60.058 52.9837C60.8252 54.0971 60.8046 55.4128 61.0273 56.6666C61.1057 57.1079 61.2954 57.2729 61.7037 57.0791C62.4392 56.7384 63.1553 56.357 63.8482 55.9365C64.5783 55.4582 65.1927 54.8066 65.9434 54.3653C66.6399 54.014 67.2531 53.5175 67.7416 52.9094C67.8695 52.728 67.9684 52.5258 68.088 52.3362C68.1889 52.1317 68.3105 51.9382 68.451 51.7587C69.3129 50.8102 69.1355 49.9728 67.9849 49.4079C67.7522 49.2637 67.5783 49.0415 67.4941 48.7809C67.4224 48.4475 67.3852 48.1075 67.3828 47.7664C67.0572 48.1115 66.7659 48.4872 66.5125 48.8883C66.1827 49.544 65.6547 49.1439 65.2175 49.2306C65.1722 48.9583 65.1309 48.6821 65.0773 48.4057C65.0444 48.2283 65.0031 48.0509 64.9123 47.6592L64.6113 48.3727L63.2915 45.5517C63.9967 44.7639 64.1452 44.7804 64.6401 45.7373C64.7105 45.8708 64.7724 46.0085 64.8257 46.1497C64.9159 46.4155 65.0625 46.6588 65.2555 46.8627C65.4486 47.0665 65.6834 47.2262 65.9438 47.3308C66.2044 47.4354 66.4845 47.4824 66.7649 47.4687C67.0453 47.4548 67.3194 47.3806 67.5684 47.2508C67.9354 48.1624 68.0097 48.2778 69.0531 48.3439C70.0965 48.4098 71.1895 48.3439 72.1421 48.3439L73.8909 50.3317L73.3919 50.5379L74.5425 51.536L75.1364 50.8143C75.4044 52.2619 75.6313 53.9404 76.0479 55.5778C76.4094 57.2374 76.9356 58.8566 77.6193 60.4114C78.6155 59.2468 79.1159 57.7381 79.0133 56.2088C78.9532 55.8318 79.0018 55.4456 79.1535 55.0952C79.5246 54.5467 80.131 54.159 80.4855 53.6064C81.034 52.7485 82.1353 52.3114 82.325 51.1895C82.3497 51.0452 82.659 50.9049 82.8612 50.8554C83.4179 50.7112 83.9913 50.6122 84.5768 50.4925C84.6478 50.9243 84.787 51.342 84.9893 51.7298C85.3355 52.1867 85.625 52.6838 85.8512 53.2104C86.531 47.2481 85.952 41.2096 84.1518 35.4849C82.3516 29.7604 79.3702 24.4773 75.4003 19.9771Z" fill="#72F4C3"/>
<path d="M15.9778 81.4204C16.1085 81.1492 16.192 80.8577 16.2253 80.5585C16.2789 79.8326 16.5181 79.3459 17.1202 79.0695C17.8254 78.7479 18.576 78.5335 19.3019 78.2448C19.4714 78.1995 19.6226 78.103 19.735 77.9684C20.1074 77.3775 20.4025 76.7413 20.6135 76.0754C20.779 75.1482 20.8864 74.2115 20.9351 73.2709C20.9329 73.1672 20.954 73.0642 20.9971 72.9698C21.3682 72.4873 21.7972 72.0418 22.127 71.5305C22.457 71.019 23.0096 70.3509 23.0427 69.7363C23.0645 69.557 23.049 69.3752 22.9978 69.2021C22.9464 69.029 22.86 68.8684 22.7441 68.7299C22.6281 68.5915 22.4849 68.4785 22.3235 68.3976C22.162 68.3167 21.9857 68.2699 21.8054 68.2598C21.6805 68.2239 21.5733 68.1431 21.5042 68.0331C20.6795 66.903 19.4422 67.1546 18.2832 67.1339C18.3863 66.6472 18.139 66.4905 17.6316 66.3751C16.452 66.1028 15.5076 65.5502 15.1571 64.2182C14.7983 62.8117 14.1054 62.4199 12.6371 62.3374C12.1967 62.2471 11.7857 62.0487 11.4411 61.7601C11.1603 61.5307 10.9033 61.2737 10.674 60.9929C10.5619 60.8428 10.4349 60.7045 10.2946 60.5804C9.88212 60.3 9.59754 59.6979 9.05723 59.8134C8.51693 59.9288 7.91072 60.0815 7.33747 59.8134C6.76421 59.5452 6.30227 59.3267 5.6877 59.034L5.11445 60.6011C4.70201 59.9865 5.11445 59.3844 5.21346 58.7451C4.07105 59.4505 2.73881 59.8505 2.48735 61.4094L2.41309 61.364C4.91469 69.2135 9.62387 76.1764 15.9778 81.4204Z" fill="#72F4C3"/>
<path d="M7.3738 34.3951C8.81309 34.7251 9.8855 33.9827 11.0361 33.4425C11.1435 33.3903 11.237 33.3135 11.3087 33.218C11.3804 33.1226 11.4284 33.0116 11.4486 32.8938C11.4307 32.7546 11.3852 32.6205 11.3142 32.4992C11.2434 32.3781 11.1488 32.2725 11.0361 32.1886C10.7134 32.0567 10.3728 31.9733 10.0257 31.9413C10.1989 31.8298 10.3968 31.6978 10.4752 31.6526C9.89323 31.3631 9.34062 31.0178 8.82555 30.6215C8.57392 30.3946 8.65638 29.842 8.46261 29.5079C8.10835 28.9381 7.72428 28.3874 7.31184 27.8582C6.92415 28.3985 6.82105 29.376 5.88076 29.1409C5.59034 29.0813 5.33541 28.9093 5.17144 28.6624C2.52605 33.7758 0.944865 39.3724 0.523438 45.1141C0.671166 44.9555 0.838916 44.817 1.02243 44.7017C2.1937 44.0294 2.25976 43.8191 1.96272 42.4664C1.91842 42.0262 1.91842 41.5827 1.96272 41.1425C2.08649 41.6002 2.17304 41.9343 2.25976 42.2725C2.54008 41.7817 2.94022 41.3776 2.97727 40.9445C3.04743 40.1732 3.43102 40.0001 4.08263 39.9876C4.34057 39.9588 4.59487 39.9036 4.84146 39.8227L4.62294 39.7237C4.66409 39.3401 4.56507 38.7546 4.77129 38.6184C5.58956 38.1279 6.43651 37.6871 7.30774 37.2986L6.75514 38.4905L6.94891 38.5359L9.63797 37.1007C9.59682 37.0306 9.55962 36.9604 9.51847 36.8945L9.18438 37.0842L9.36995 36.4532C9.31098 36.4548 9.25344 36.4715 9.20283 36.5018C9.15222 36.5322 9.11028 36.5751 9.08127 36.6263C8.59457 37.3481 8.33475 37.4059 7.60888 36.8861C7.06857 36.4986 6.87055 36.0614 7.44806 35.5046C7.50167 35.455 7.36135 35.0633 7.29135 35.0551C6.98848 35.0226 6.6823 35.0464 6.38811 35.1252C5.99569 35.2608 5.61147 35.4193 5.23734 35.5995C5.82715 35.0221 6.44991 34.1848 7.3738 34.3951Z" fill="#72F4C3"/>
<path d="M44.4467 63.5415C44.6488 63.8751 44.7209 64.2716 44.6488 64.6549C44.3147 65.7932 44.3064 66.7459 45.2344 67.6987C45.6258 68.1166 45.9259 68.6117 46.1154 69.152C46.305 69.6925 46.3799 70.2664 46.3356 70.8372C46.3252 70.9936 46.3642 71.1494 46.4469 71.2826C46.8264 71.79 46.5954 72.157 46.3438 72.6726C45.7912 73.8109 45.2591 74.9781 46.0427 76.3142C46.5046 77.1021 47.012 77.8856 47.049 78.929C47.0255 79.9253 47.3774 80.894 48.0347 81.6428C48.4472 82.0882 48.8596 82.8141 48.8019 83.3667C48.7543 83.6486 48.7997 83.9384 48.9314 84.1922C49.0632 84.4459 49.2739 84.6499 49.5319 84.7732C49.7679 84.6679 50.0139 84.5864 50.266 84.5298C50.9732 84.5105 51.6778 84.436 52.3736 84.3072C54.1181 83.8039 54.9759 82.3068 55.8626 80.8963C56.0277 80.6365 55.9203 80.2075 55.9493 79.7085C56.0524 79.6508 56.2916 79.5023 56.5431 79.3828C56.6958 79.3338 56.8366 79.2533 56.9565 79.1466C57.0764 79.04 57.1726 78.9095 57.239 78.7635C57.3054 78.6175 57.3405 78.4592 57.3421 78.2987C57.3438 78.1384 57.3118 77.9793 57.2484 77.832C57.1701 77.5598 57.0381 77.2999 56.9721 77.0071C56.935 76.8545 56.9144 76.5947 56.9968 76.5329C57.5783 76.0008 58.2341 75.5266 58.7867 74.9862C59.1579 74.6315 59.6487 74.2397 59.7436 73.7943C59.8342 73.1065 59.7992 72.4077 59.6405 71.7323C59.5662 71.2744 59.261 70.8538 59.1785 70.3919C59.0961 69.9299 59.422 69.3071 58.8858 68.8618C58.8197 68.8081 58.8528 68.5318 58.9312 68.4246C59.8013 67.2244 60.5024 65.8057 61.616 64.9024C63.0925 63.7064 63.8308 62.135 64.6432 60.5596C64.8097 60.0837 64.9084 59.5866 64.936 59.0832C63.8101 59.3677 62.812 59.644 61.8015 59.8667C61.6934 59.8705 61.586 59.8481 61.4883 59.8015C61.3907 59.7548 61.3057 59.6851 61.2407 59.5985C61.0716 59.314 61.0963 58.8974 60.8942 58.6542C60.5272 58.2047 60.0364 57.854 59.628 57.4168C59.3925 57.1977 59.2069 56.9304 59.0838 56.6333C58.7497 55.6105 57.9866 54.7979 57.8671 53.6391C57.7928 52.9255 57.137 52.2862 56.8112 51.5769C56.3985 50.7006 56.0363 49.8015 55.7265 48.8837C55.4997 48.2115 55.1203 48.2692 54.5841 48.4136C54.186 48.5484 53.7604 48.5796 53.3468 48.5043C52.5462 48.2722 51.7587 47.9967 50.9877 47.6795C50.2948 47.4155 49.7504 47.7166 49.6763 48.4177C49.6309 48.9251 49.4122 49.2013 48.9257 48.8301C48.439 48.459 47.4862 48.6652 47.313 47.7579C47.313 47.7248 47.1274 47.7579 47.0449 47.7125C46.3109 47.395 45.3127 47.799 44.9003 47.0196C45.1024 46.4298 45.2675 45.9349 45.4489 45.3946C45.1137 45.3203 44.773 45.2733 44.4301 45.2544C43.5393 45.2873 42.6484 45.3162 41.7701 45.4359C41.1386 45.5191 40.5205 45.6826 39.9306 45.9226C38.9945 46.3062 38.0912 46.6484 37.2498 45.9721C36.8373 46.4257 36.5075 46.9537 36.0415 47.2092C35.7755 47.3415 35.5522 47.5458 35.3969 47.7989C35.2415 48.0519 35.1605 48.3434 35.163 48.6405C35.163 49.5849 34.6681 49.9149 33.9257 50.1458C33.7354 50.2001 33.5684 50.3161 33.4514 50.4758C33.0101 51.1933 32.5688 51.9151 32.1893 52.6698C31.9254 53.1978 31.4387 53.6473 31.9254 54.4227C32.21 54.8681 32.1605 55.6599 31.979 56.2249C31.7491 57.0232 31.6914 57.861 31.8098 58.683C31.8633 58.87 31.9675 59.0384 32.111 59.1697C32.2223 59.3017 32.3956 59.3882 32.4905 59.5244C32.8966 60.2025 33.3456 60.8542 33.8348 61.4752C34.3996 62.0093 34.9944 62.5105 35.6166 62.9764C35.7801 63.1169 35.9804 63.2076 36.1939 63.2375C36.4074 63.2675 36.625 63.2356 36.8209 63.1454C37.4614 63.0236 38.1116 62.96 38.7635 62.9558C39.0156 62.9458 39.2658 62.9085 39.5098 62.8445C40.0049 62.6387 40.5101 62.4584 41.0236 62.3042C41.5391 62.1929 42.2609 61.867 42.4876 62.6423C42.7063 63.3435 43.1022 63.3187 43.6631 63.2651C43.806 63.2514 43.9501 63.2689 44.0853 63.3167C44.2208 63.3644 44.344 63.4411 44.4467 63.5415Z" fill="#72F4C3"/>
<path d="M12.0133 18.9911C12.1579 18.9413 12.2963 18.8749 12.4256 18.7932L13.6629 19.6715L12.0544 19.4407L12.0174 19.6799L13.5557 20.2572V21.0161L11.7451 21.977L12.5907 22.6452C12.5482 22.8687 12.5482 23.0981 12.5907 23.3215C13.1721 24.5176 13.766 25.7095 14.3971 26.8766C14.5754 27.1754 14.8285 27.4228 15.1312 27.5943C15.5673 27.8209 16.0163 28.0219 16.4757 28.1964C16.8221 28.349 17.1437 28.5223 17.2469 27.9202C17.35 27.3179 17.5026 26.786 17.6388 26.2209C17.6635 26.1178 17.7006 25.9736 17.779 25.9364C18.414 25.6064 18.5296 25.0703 18.5255 24.4104C18.5255 24.1959 18.8966 23.7794 19.0658 23.7959C20.303 23.9114 21.099 23.2761 21.7712 22.3442C21.9568 22.0844 22.2702 21.7667 22.5425 21.746C24.1921 21.6472 25.5573 20.9213 27.0132 20.0964L25.0542 19.8902L25.5821 19.255L27.1369 19.9068C27.2523 19.0819 26.9637 18.719 26.3656 18.4839C25.6975 18.2241 25.6316 17.8652 25.978 17.3992H27.7721L27.273 16.7805L28.4238 16.6156L27.9164 16.0876C28.8114 15.4772 27.6359 15.172 27.7061 14.7101L28.8237 14.64C28.6175 14.3307 28.5062 13.9595 28.2752 13.8564C27.9107 13.7705 27.5349 13.7426 27.1617 13.7739C28.1969 12.2273 29.9539 11.7118 31.5664 10.9611C31.1338 10.728 30.6559 10.591 30.1654 10.5597C29.6749 10.5284 29.1835 10.6034 28.7247 10.7797C27.8923 11.0082 27.0447 11.1777 26.1883 11.287L26.6007 10.6559C26.2709 10.6931 25.9409 10.7343 25.6068 10.7632C25.4254 10.7632 25.2398 10.7632 25.0542 10.7632L25.0295 10.4456L27.0461 10.1074C26.3615 9.92183 25.7058 9.66201 25.0459 9.53003C20.1453 11.8358 15.7237 15.0457 12.0133 18.9911Z" fill="#72F4C3"/>
<path d="M6.55284 26.1633C6.47038 26.2994 6.39203 26.4397 6.30957 26.5758C6.47448 26.6294 6.6394 26.6871 6.80447 26.7531L6.55284 26.1633Z" fill="#72F4C3"/>
<path d="M8.89608 22.7402H8.87133C8.74346 22.9094 8.61986 23.0784 8.49609 23.2517C8.63216 23.0743 8.76412 22.9053 8.89608 22.7402Z" fill="#72F4C3"/>
<path d="M7.3047 25.9319C7.36382 25.6383 7.34679 25.3344 7.25519 25.0493C7.07782 25.3255 6.90456 25.5978 6.73145 25.8742L7.3047 25.9319Z" fill="#72F4C3"/>
<path d="M61.2363 77.3168C60.964 77.9024 61.0424 79.0284 61.5125 79.4284C61.6188 79.5241 61.747 79.592 61.8857 79.6262C62.0245 79.6605 62.1695 79.6597 62.308 79.6242C62.4464 79.5886 62.5739 79.5194 62.6791 79.4227C62.7842 79.3259 62.8639 79.2047 62.9107 79.0695C63.3562 77.5931 63.7356 76.1043 64.148 74.6196C64.181 74.5081 64.148 74.3638 64.2264 74.2773C64.4061 74.0058 64.481 73.6783 64.437 73.3558C64.393 73.0332 64.2332 72.7377 63.9872 72.5244C63.1253 73.1678 63.0345 74.5865 61.4837 74.5165C61.4837 75.0196 61.5168 75.4856 61.4837 75.9475C61.4783 76.4145 61.3948 76.8774 61.2363 77.3168Z" fill="#72F4C3"/>
<path d="M40.5413 30.0564C40.6114 29.8668 40.7929 29.5945 40.7268 29.512C40.6121 29.408 40.4681 29.3418 40.3144 29.3224C39.7123 28.4975 39.1926 27.7757 38.6359 27.0087C39.0895 26.1838 39.0689 25.9033 38.4627 25.5115C38.0873 25.264 37.2253 25.6065 36.8501 26.155C36.6727 26.4064 36.9326 26.8849 37.6007 27.52L37.5058 28.0026C37.6378 28.0026 37.7327 28.0026 37.7863 28.0396C38.0255 28.2211 38.3802 28.378 38.4502 28.6171C38.5204 28.8563 38.3019 29.1491 37.9058 28.9842C37.8131 29.0564 37.7452 29.1559 37.712 29.2688C37.6832 29.5533 37.712 29.8379 37.712 30.1927L38.3555 30.3864L37.2171 31.2567L40.2896 30.7659C40.4216 30.3864 40.4711 30.2256 40.5413 30.0564Z" fill="#72F4C3"/>
<path d="M66.7525 14.5947C66.1739 15.2199 65.5538 15.8055 64.8965 16.3475C65.7214 17.1434 66.7607 17.2506 68.0393 17.2013C67.6887 16.9538 67.3959 16.8424 67.2639 16.6279C67.132 16.4135 67.0246 15.9969 67.1361 15.8526C67.709 15.169 68.4221 14.6162 69.227 14.2317C68.9548 14.0255 68.6826 13.8193 68.4022 13.6213C67.7618 13.7598 67.1834 14.1011 66.7525 14.5947Z" fill="#72F4C3"/>
<path d="M28.0244 25.9403C28.3265 26.0145 28.6421 26.0145 28.9442 25.9403C29.4225 25.8171 29.8731 25.6045 30.2722 25.3134C30.5692 25.0659 31.2497 24.8639 30.9238 24.303C30.6063 23.8951 30.2328 23.5341 29.8143 23.2307L29.7525 23.4864L27.4059 24.039L26.8367 23.276L26.9233 23.5317L25.9004 24.1215L26.0078 24.2535H27.1089L26.1109 24.7772L27.2161 25.0949L26.6594 25.5072C27.1213 25.6886 27.5667 25.8413 28.0244 25.9403Z" fill="#72F4C3"/>
<path d="M48.1337 12.9942C48.6369 12.5818 49.0494 12.2354 49.4948 11.9302C49.5759 11.8895 49.6657 11.8683 49.7566 11.8683C49.8474 11.8683 49.9371 11.8895 50.0185 11.9302C50.1464 12.0168 50.1752 12.2519 50.2659 12.4663H51.7671C51.7671 12.3715 51.7671 12.2766 51.796 12.1859L47.5811 10.5032C47.7584 10.9156 47.8243 11.0434 47.8368 11.0764L45.3292 10.8579L45.2715 11.1177C45.5873 11.4218 45.9545 11.6676 46.3562 11.8436C46.7232 11.9384 47.1809 11.7487 47.5934 11.6827L47.6181 11.8766L46.6655 12.2189L46.6985 12.3508L47.4491 12.421L46.9417 12.6808L48.1337 12.9942Z" fill="#72F4C3"/>
<path d="M36.9868 28.6463C37.3457 28.4319 37.3993 28.1226 37.0445 27.9494C36.6898 27.7762 36.2815 27.4586 35.8733 27.9494C35.6505 28.2009 35.3866 28.4112 35.0814 28.6958V29.9331L34.834 30.0528C34.97 30.1641 35.135 30.3869 35.2464 30.3621C35.8074 30.2283 36.3513 30.0303 36.8672 29.7723C36.995 29.6981 36.9001 29.2238 36.9167 28.9474C36.9085 28.8114 36.929 28.6835 36.9868 28.6463Z" fill="#72F4C3"/>
<path d="M0.961821 53.1197C0.856503 53.0689 0.745825 53.0303 0.631836 53.0042L0.693795 53.5445C1.00376 53.6502 1.30552 53.7784 1.59688 53.928C1.90211 54.0807 2.09178 54.4642 2.42176 54.8313L3.83645 54.6705C2.7929 54.1095 1.89391 53.5858 0.961821 53.1197Z" fill="#72F4C3"/>
<path d="M6.54143 55.7221C6.60339 55.0291 5.36607 54.5919 4.24431 54.8972L4.83806 55.5776L3.6709 55.4745C4.59069 56.1139 5.58459 55.6437 6.54143 55.7221Z" fill="#72F4C3"/>
<path d="M53.0306 10.5532H49.0713C49.5879 10.8232 50.1453 11.0071 50.7211 11.0976C51.4911 11.1112 52.2611 11.0754 53.0265 10.9904C53.0306 10.8419 53.0306 10.6976 53.0306 10.5532Z" fill="#72F4C3"/>
<path d="M79.3915 62.3294C79.6142 62.2427 79.9152 61.8179 79.8575 61.6612C79.6387 61.1692 79.3749 60.6984 79.0698 60.2549L78.8389 60.3621C78.8389 60.8363 78.8389 61.3106 78.8389 61.7807C78.8389 62.251 78.9626 62.4984 79.3915 62.3294Z" fill="#72F4C3"/>
<path d="M44.5632 37.488L44.0518 37.6984V39.0222C44.9302 38.977 44.5303 38.2675 44.7076 37.8882C44.7488 37.8015 44.6209 37.6489 44.5632 37.488Z" fill="#72F4C3"/>
<path d="M47.409 39.6455H46.0109L45.9697 39.8104L47.2482 40.5858C47.3059 40.2353 47.3636 39.9219 47.409 39.6455Z" fill="#72F4C3"/>
<path d="M42.4255 55.5071L40.9654 52.5582C39.4147 49.4237 37.8846 46.2811 36.3092 43.1591C35.7045 42.0427 35.383 40.7951 35.373 39.5255C35.3987 37.8156 36.0444 36.1731 37.1898 34.9032C38.335 33.6332 39.9025 32.8222 41.6007 32.6205C43.299 32.4189 45.0126 32.8406 46.4235 33.8071C47.8343 34.7737 48.8464 36.2195 49.2718 37.8759C49.7025 39.5176 49.5132 41.2605 48.7397 42.7714C47.4392 45.3944 46.1386 48.016 44.8382 50.6363C44.0737 52.1733 43.3122 53.7116 42.5534 55.2514L42.4255 55.5071ZM42.4255 43.1343C43.1243 43.1367 43.8081 42.9317 44.3902 42.5453C44.9724 42.1589 45.4268 41.6083 45.6959 40.9635C45.965 40.3187 46.0368 39.6084 45.9018 38.9227C45.767 38.2371 45.4318 37.6069 44.9385 37.112C44.4453 36.6169 43.8163 36.2795 43.1311 36.1422C42.446 36.0051 41.7355 36.0743 41.0897 36.341C40.4439 36.6079 39.8918 37.0604 39.5033 37.6413C39.1148 38.2221 38.9075 38.9051 38.9075 39.6038C38.9042 40.5395 39.2715 41.4385 39.9293 42.1039C40.5871 42.7693 41.4816 43.1473 42.4172 43.1548L42.4255 43.1343Z" fill="#231F20"/>
<path d="M81.7149 41.7941C81.2736 40.8949 80.8446 40.0371 80.4198 39.1752C79.0465 36.3954 77.6854 33.6115 76.2956 30.844C75.7619 29.8523 75.4787 28.7451 75.4707 27.6189C75.4937 26.1016 76.0673 24.6442 77.0844 23.518C78.1016 22.3918 79.4933 21.6734 81.0003 21.4963C82.5076 21.3194 84.0277 21.6959 85.2782 22.5558C86.5286 23.4157 87.4241 24.7006 87.798 26.1713C88.1826 27.626 88.0151 29.1716 87.3279 30.5101C86.1732 32.8361 85.0197 35.1608 83.8677 37.4842L81.8385 41.5754C81.7973 41.6373 81.7644 41.6991 81.7149 41.7941ZM81.7149 30.8399C82.3343 30.8417 82.9404 30.6594 83.4562 30.3165C83.9721 29.9734 84.3746 29.4852 84.6127 28.9133C84.8509 28.3415 84.9141 27.7118 84.7943 27.104C84.6743 26.4962 84.377 25.9378 83.9395 25.4992C83.5019 25.0606 82.9443 24.7616 82.3368 24.6401C81.7294 24.5187 81.0995 24.5802 80.527 24.8168C79.9546 25.0535 79.4652 25.4547 79.1209 25.9696C78.7765 26.4847 78.5927 27.0901 78.5927 27.7097C78.5949 28.5378 78.9243 29.3314 79.509 29.9178C80.0938 30.5041 80.8867 30.8357 81.7149 30.8399Z" fill="#231F20"/>
<path d="M19.4823 17.6301C19.1112 16.8795 18.7524 16.1578 18.3978 15.436C17.2429 13.1058 16.1046 10.7715 14.9333 8.44952C14.4846 7.6192 14.2453 6.6919 14.2363 5.74812C14.2582 4.47735 14.7402 3.25763 15.5932 2.31529C16.4459 1.37297 17.6117 0.772001 18.8741 0.623909C20.1363 0.475817 21.4094 0.790654 22.4572 1.51C23.5051 2.22935 24.2565 3.30438 24.5718 4.53559C24.8887 5.75743 24.7417 7.05332 24.1593 8.1732L21.2724 14.0173L19.5773 17.4404L19.4823 17.6301ZM19.4823 8.44952C20.0025 8.45116 20.5114 8.29835 20.9446 8.0105C21.3779 7.72262 21.7159 7.31266 21.9158 6.8325C22.1159 6.35236 22.1689 5.82366 22.068 5.31339C21.9672 4.8031 21.7173 4.33424 21.3498 3.96616C20.9823 3.59809 20.5138 3.34737 20.0037 3.24579C19.4935 3.14423 18.9647 3.19635 18.4843 3.39559C18.004 3.59482 17.5934 3.93219 17.3049 4.36493C17.0164 4.7977 16.8626 5.30636 16.8634 5.82648C16.8667 6.51973 17.143 7.1838 17.6325 7.67477C18.1219 8.16574 18.785 8.44411 19.4782 8.44952H19.4823Z" fill="#231F20"/>
<path d="M14.2343 67.2735C13.8591 66.5228 13.5043 65.8011 13.1455 65.0794C11.9949 62.7492 10.8566 60.4149 9.6853 58.097C9.23502 57.2658 8.99569 56.3368 8.98828 55.3915C9.0102 54.1207 9.49217 52.9009 10.3451 51.9586C11.1979 51.0162 12.3636 50.4154 13.6259 50.2672C14.8883 50.1192 16.1614 50.434 17.2092 51.1534C18.257 51.8727 19.0083 52.9478 19.3237 54.1789C19.6362 55.4011 19.4894 56.6953 18.9113 57.8165L16.0242 63.6647C15.4579 64.8057 14.8914 65.9482 14.3251 67.092C14.3004 67.1456 14.2715 67.1992 14.2343 67.2735ZM14.2343 58.0929C14.7547 58.0954 15.264 57.9432 15.6977 57.6558C16.1314 57.3684 16.4701 56.9588 16.6708 56.4787C16.8713 55.9986 16.9249 55.4698 16.8247 54.9593C16.7242 54.4487 16.4747 53.9795 16.1073 53.611C15.74 53.2424 15.2715 52.9914 14.7614 52.8894C14.251 52.7876 13.7221 52.8394 13.2413 53.0386C12.7606 53.2377 12.3499 53.5751 12.0613 54.0079C11.7724 54.4406 11.6187 54.9496 11.6196 55.4699C11.6206 56.1623 11.8951 56.8264 12.3832 57.3176C12.8713 57.8088 13.5336 58.0875 14.2261 58.0929H14.2343Z" fill="#231F20"/>
<path d="M47.384 52.6329H47.3427C47.3162 52.6276 47.291 52.617 47.2686 52.6019C47.246 52.5867 47.2268 52.5672 47.2118 52.5446C47.197 52.5221 47.1866 52.4967 47.1814 52.4701C47.1764 52.4436 47.1765 52.4161 47.1819 52.3897C47.2066 52.2741 49.7472 40.6231 62.5819 34.9358C66.8217 33.0592 70.5501 32.7952 73.6598 34.1521C78.0107 36.0494 79.5987 40.5365 79.6151 40.5818C79.6324 40.6338 79.6287 40.6904 79.6048 40.7398C79.5809 40.7891 79.5388 40.8271 79.4872 40.8459C79.4354 40.8631 79.3786 40.8593 79.3294 40.8355C79.2801 40.8117 79.2421 40.7694 79.2233 40.718C79.2233 40.6726 77.6767 36.3503 73.4906 34.5316C70.4881 33.2283 66.8917 33.4923 62.7675 35.3192C50.1308 40.9159 47.6273 52.3608 47.6025 52.4762C47.5916 52.5246 47.5634 52.5673 47.5231 52.5962C47.4829 52.6252 47.4333 52.6383 47.384 52.6329Z" fill="#231F20"/>
<path d="M16.4559 66.8779C16.4233 66.8776 16.391 66.8705 16.361 66.8574C16.3369 66.8448 16.3153 66.8275 16.2978 66.8065C16.2803 66.7855 16.2672 66.7613 16.2592 66.7352C16.2511 66.7092 16.2483 66.6818 16.251 66.6545C16.2535 66.6274 16.2615 66.6009 16.2745 66.5769C25.0303 49.7004 39.7828 55.2599 39.9107 55.3176C39.9378 55.3259 39.9629 55.3397 39.9845 55.3581C40.0061 55.3766 40.0236 55.3991 40.036 55.4246C40.0485 55.4502 40.0556 55.4779 40.0567 55.5063C40.0579 55.5347 40.0532 55.5629 40.043 55.5894C40.0327 55.6159 40.0171 55.6399 39.9972 55.66C39.9772 55.6802 39.9533 55.696 39.9269 55.7065C39.9006 55.7171 39.8724 55.722 39.844 55.721C39.8156 55.7201 39.7877 55.7133 39.7622 55.7012C39.6178 55.6435 25.22 50.2283 16.6374 66.7666C16.6201 66.7999 16.5941 66.8279 16.5622 66.8475C16.5302 66.8672 16.4935 66.8776 16.4559 66.8779Z" fill="#231F20"/>
<path d="M39.0981 31.8304C39.0558 31.8304 39.0144 31.8173 38.9797 31.7929C38.945 31.7686 38.9187 31.7341 38.9043 31.6944C38.8589 31.5706 34.1614 19.3214 22.5062 17.8367C22.4514 17.8301 22.4016 17.8022 22.3676 17.7589C22.3337 17.7155 22.3182 17.6605 22.3247 17.6058C22.3313 17.5511 22.3594 17.5012 22.4026 17.4672C22.4459 17.4331 22.5009 17.4178 22.5557 17.4243C34.4625 18.9462 39.2466 31.4221 39.292 31.5458C39.3019 31.5712 39.3067 31.5985 39.306 31.6258C39.3054 31.653 39.2994 31.6798 39.2882 31.7049C39.277 31.7298 39.2611 31.7522 39.2412 31.771C39.2214 31.7897 39.1979 31.8042 39.1723 31.8139C39.1487 31.8233 39.1236 31.829 39.0981 31.8304Z" fill="#231F20"/>
</svg>
