<svg xmlns="http://www.w3.org/2000/svg" viewBox="0 0 400 300"><g id="_336_ecology_flatline" data-name="#336_ecology_flatline"><path d="M301.74,83.15c0,20.85-13.31,30.5-29.73,30.5s-29.74-9.65-29.74-30.5,13.31-45,29.74-45S301.74,62.29,301.74,83.15Z" fill="#72f4c3"/><path d="M272,114.1c-8.66,0-16-2.61-21.34-7.55-5.79-5.4-8.86-13.5-8.86-23.4a60.38,60.38,0,0,1,8.78-30.57c6-9.61,13.59-14.9,21.42-14.9s15.43,5.29,21.41,14.9a60.28,60.28,0,0,1,8.78,30.57c0,9.9-3.07,18-8.86,23.4C288,111.49,280.67,114.1,272,114.1Zm0-75.51c-16.22,0-29.28,24.38-29.28,44.56,0,14.52,7.69,30,29.28,30s29.27-15.52,29.27-30C301.28,63,288.22,38.59,272,38.59Z" fill="#231f20"/><polygon points="273.04 57.01 276.16 138.78 267.86 138.78 273.04 57.01" fill="#fff"/><path d="M276.16,139.24h-8.31a.47.47,0,0,1-.33-.14.5.5,0,0,1-.12-.35L272.59,57a.45.45,0,0,1,.45-.43h0a.46.46,0,0,1,.45.44l3.11,81.78a.45.45,0,0,1-.12.33A.47.47,0,0,1,276.16,139.24Zm-7.82-.91h7.34L272.93,66Z" fill="#231f20"/><path d="M246.45,82.39a21.63,21.63,0,0,1-.52,5.94,22,22,0,0,1-4.29,9.79c-2.33,2.79-4.86,3.46-8.12,4.47-3,.91-5.81,2.36-8.89,3.12a47.24,47.24,0,0,1-21.06.26c-6.12-1.34-12-4.76-15.19-10.15s-3.14-12.85,1-17.56c1.78-2,4.45-5.43,7.28-5.47-.27-1.85-1-3.68-.68-5.62a4.81,4.81,0,0,1,3.21-4.07c.7-.18,1.63-.29,1.78-1a1.86,1.86,0,0,0-.11-.84c-.82-3,1.08-6,3.06-8.46a17.14,17.14,0,0,1,4.3-4c4.49-2.68,13-2.9,17.17.21a12.28,12.28,0,0,1,4.89,8.92c-.12-1.75,7.19,2.44,7.82,3.83a16.79,16.79,0,0,1,.16,11.85c3.22-.26,6.19,2.21,7.39,5.21A12.12,12.12,0,0,1,246.45,82.39Z" fill="#72f4c3"/><path d="M213.57,107.48a47.26,47.26,0,0,1-10.1-1.07c-6.82-1.48-12.46-5.26-15.48-10.36-3.46-5.85-3-13.46,1-18.09l.51-.58c1.71-2,4-4.64,6.59-5-.07-.39-.16-.78-.24-1.17a11.65,11.65,0,0,1-.37-4.1,5.28,5.28,0,0,1,3.56-4.44l.29-.07c.63-.15,1.09-.28,1.15-.59a1.29,1.29,0,0,0-.07-.52l0-.1c-.92-3.39,1.36-6.69,3.15-8.87A17.82,17.82,0,0,1,208,48.37c4.44-2.64,13.13-3.12,17.68.24a12.76,12.76,0,0,1,5,8.42c1.78-.06,7.26,3.18,7.86,4.51a17.24,17.24,0,0,1,.4,11.57c3.3.09,6.06,2.75,7.16,5.51a12.63,12.63,0,0,1,.83,3.74,21.92,21.92,0,0,1-.52,6.06,22.33,22.33,0,0,1-4.39,10c-2.3,2.74-4.74,3.5-7.84,4.45l-.5.15c-1.23.38-2.48.87-3.69,1.35a41.1,41.1,0,0,1-5.22,1.78A46.53,46.53,0,0,1,213.57,107.48ZM217,47.17a17.52,17.52,0,0,0-8.53,2,17,17,0,0,0-4.19,3.93c-1.66,2-3.78,5.07-3,8a2.25,2.25,0,0,1,.12,1c-.19.9-1.15,1.13-1.84,1.29l-.28.07a4.33,4.33,0,0,0-2.87,3.68,10.61,10.61,0,0,0,.35,3.78c.12.57.25,1.14.33,1.71a.46.46,0,0,1-.11.37.48.48,0,0,1-.34.16c-2.37,0-4.72,2.75-6.43,4.73l-.51.58c-3.81,4.34-4.21,11.5-.94,17,2.88,4.89,8.31,8.51,14.89,9.94a47,47,0,0,0,20.85-.25,42.58,42.58,0,0,0,5.1-1.75c1.23-.48,2.49-1,3.76-1.37l.5-.15c3-.91,5.29-1.63,7.41-4.17a21.43,21.43,0,0,0,4.2-9.59,21.33,21.33,0,0,0,.5-5.81h0a11.45,11.45,0,0,0-.77-3.47c-1.05-2.64-3.77-5.18-6.93-4.93a.46.46,0,0,1-.4-.18.47.47,0,0,1-.06-.43,16.29,16.29,0,0,0-.15-11.5c-.5-1.11-5.9-4.2-7-4a.46.46,0,0,1-.91,0,11.76,11.76,0,0,0-4.7-8.58A14,14,0,0,0,217,47.17Z" fill="#231f20"/><polygon points="233.38 72.66 219.64 81.76 218.94 58.88 217.61 63.87 217.31 89.11 202.2 75.74 202.02 77.19 217.16 91.82 215.29 126.67 221.02 126.67 219.77 85.91 232.11 75.74 233.38 72.66" fill="#fff"/><path d="M221,127.13h-5.73A.44.44,0,0,1,215,127a.48.48,0,0,1-.13-.34L216.7,92l-15-14.48a.47.47,0,0,1-.13-.39l.18-1.45a.45.45,0,0,1,.29-.37.45.45,0,0,1,.47.09l14.35,12.7.29-24.24a.36.36,0,0,1,0-.11l1.32-5a.46.46,0,0,1,.5-.33.44.44,0,0,1,.4.44l.68,22.06,13.06-8.65a.47.47,0,0,1,.54,0,.45.45,0,0,1,.13.53l-1.27,3.08a.38.38,0,0,1-.13.18l-12.17,10,1.25,40.54a.46.46,0,0,1-.13.33A.47.47,0,0,1,221,127.13Zm-5.25-.91h4.78l-1.24-40.29a.48.48,0,0,1,.17-.37l12.25-10.1.66-1.6-12.5,8.28a.47.47,0,0,1-.46,0,.48.48,0,0,1-.25-.4L218.58,62l-.51,1.92-.3,25.18a.49.49,0,0,1-.28.42.45.45,0,0,1-.48-.08l-14.46-12.8-.05.37,15,14.47a.43.43,0,0,1,.14.35Z" fill="#231f20"/><path d="M169.84,148.14s2-14.89,42.33-22.73,83.08,9.41,98,23.52,18,27.43,18,27.43-57.61,45.85-84.26,36.84S169.84,148.14,169.84,148.14Z" fill="#231f20"/><path d="M251.82,214.82a24.84,24.84,0,0,1-8-1.21C217.31,204.67,170,149,169.51,148.43a.43.43,0,0,1-.1-.34c.08-.63,2.46-15.3,42.67-23.11,39.76-7.72,82.67,8.76,98.36,23.63,14.82,14,18.12,27.51,18.15,27.65a.43.43,0,0,1-.15.44C326.3,178.41,280.19,214.82,251.82,214.82ZM170.32,148c2.86,3.36,48.21,56.13,73.73,64.76,25.28,8.55,79.64-33.48,83.62-36.59-.55-1.95-4.37-14.19-17.83-26.94-15.56-14.74-58.12-31.07-97.59-23.4C175.18,133.05,170.74,146.32,170.32,148Z" fill="#231f20"/><path d="M123.21,253.56S155,214.37,159.26,213.2,202,235.93,249,227.7s97.58-39.58,97.19-47.81-8-14.9-15.1-14.9S258,186.94,258,186.94s-49.65-47.16-107.77-45.85c-34.88.78-86.61,78.38-87.39,79.16S123.21,253.56,123.21,253.56Z" fill="#fff"/><path d="M123.21,254A.46.46,0,0,1,123,254c-27.54-14.65-60.41-32.38-60.59-33.62a.49.49,0,0,1,.14-.41l1-1.39c16.31-23.2,57.42-77.25,86.72-77.91,55.79-1.27,104.36,42.53,107.89,45.79,5.14-1.71,66.07-21.89,73-21.89s15.14,6.56,15.56,15.34c.43,9-51.39,40.2-97.57,48.28-35.54,6.21-66.21-5.87-81-11.68-4.37-1.72-7.83-3.08-8.75-2.83-3.42.93-27,29.34-35.82,40.21A.46.46,0,0,1,123.21,254ZM63.45,220.23c3.17,2.43,36.85,20.62,59.64,32.75,3.15-3.87,31.8-39.06,36-40.22,1.16-.32,3.7.65,9.33,2.86,14.66,5.78,45.16,17.8,80.46,11.63,47.17-8.26,97.17-39.8,96.81-47.34-.4-8.28-8.06-14.46-14.65-14.46-6.9,0-72.27,21.7-72.93,21.92a.44.44,0,0,1-.46-.1c-.49-.47-50.18-47-107.44-45.72-28.88.65-69.76,54.43-86,77.52Z" fill="#231f20"/><path d="M179.25,159.51s19.59,9.8,33.31,10.19,44.67.39,53.69,4.31,13.71,17.24,9.4,21.55-69.75,8.23-102.28,3.14" fill="#fff"/><path d="M214,201.58c-14.9,0-29.66-.7-40.69-2.43a.45.45,0,0,1-.38-.52.45.45,0,0,1,.52-.38c33.55,5.25,98.07.81,101.89-3,1.36-1.36,1.81-3.9,1.23-7-.92-4.88-4.6-11.3-10.49-13.86-7.62-3.31-31-3.8-46.54-4.12-2.61-.05-5-.1-7-.16-13.66-.39-33.31-10.14-33.51-10.23a.47.47,0,0,1-.2-.62.46.46,0,0,1,.61-.2c.2.1,19.67,9.76,33.12,10.14,2,.06,4.37.11,7,.16,15.57.32,39.1.81,46.88,4.19,6.2,2.69,10.06,9.42,11,14.53.65,3.4.12,6.16-1.48,7.76C273,198.87,243.23,201.58,214,201.58Z" fill="#231f20"/><path d="M272.79,109.8c0,18.4-11.05,26.91-24.69,26.91s-24.69-8.51-24.69-26.91,11.06-39.71,24.69-39.71S272.79,91.41,272.79,109.8Z" fill="#72f4c3"/><path d="M248.1,137.17C229.56,137.17,223,123,223,109.8a55.69,55.69,0,0,1,7.29-27c5-8.5,11.32-13.19,17.85-13.19S261,74.32,266,82.82a55.7,55.7,0,0,1,7.3,27C273.25,123,266.64,137.17,248.1,137.17Zm0-66.62c-13.42,0-24.23,21.47-24.23,39.25,0,16.32,9.28,26.45,24.23,26.45s24.23-10.13,24.23-26.45C272.33,92,261.52,70.55,248.1,70.55Z" fill="#231f20"/><polygon points="188.59 115.96 175.97 130 217.96 130 205.35 115.96 214.23 115.96 203.63 101.12 210.67 101.12 196.97 76.95 183.27 101.12 190.31 101.12 179.7 115.96 188.59 115.96" fill="#72f4c3"/><path d="M218,130.45H176a.43.43,0,0,1-.41-.27.44.44,0,0,1,.07-.49l11.94-13.27H179.7a.46.46,0,0,1-.4-.25.46.46,0,0,1,0-.48l10.09-14.12h-6.15a.45.45,0,0,1-.4-.22.47.47,0,0,1,0-.46l13.7-24.16a.48.48,0,0,1,.8,0l13.7,24.16a.46.46,0,0,1-.4.68h-6.15l10.09,14.12a.47.47,0,0,1-.38.73h-7.86l11.93,13.27a.46.46,0,0,1,.08.49A.45.45,0,0,1,218,130.45Zm-41-.91h39.94L205,116.27a.48.48,0,0,1-.08-.5.46.46,0,0,1,.42-.27h8l-10.09-14.12a.45.45,0,0,1,0-.47.47.47,0,0,1,.41-.25h6.26L197,77.88l-12.92,22.78h6.26a.45.45,0,0,1,.37.72L180.59,115.5h8a.46.46,0,0,1,.34.77Z" fill="#231f20"/><polygon points="198.23 144.67 194.3 144.67 196.97 86.21 198.23 144.67" fill="#fff"/><path d="M198.23,145.12H194.3A.44.44,0,0,1,194,145a.46.46,0,0,1-.13-.33l2.67-58.46a.46.46,0,0,1,.46-.43h0a.46.46,0,0,1,.46.44l1.26,58.46a.46.46,0,0,1-.13.33A.49.49,0,0,1,198.23,145.12Zm-3.45-.91h3l-1-44.42Z" fill="#231f20"/><path d="M318.48,117.2a10.09,10.09,0,0,1,.13,8.15c-2.09,4.81-7.5,8.68-11.46,11.87-7.79,6.26-19,6.54-27.67,1.89a38.29,38.29,0,0,1-9-7.13,20,20,0,0,1-4-5.19,11.7,11.7,0,0,1,1.76-12.47c.53-.6,2.08-1.32,2.39-1.95.6-1.2-.18-1-.23-2.29-.09-2.21-.43-3.79.5-6a8.46,8.46,0,0,1,3-4c1.36-.84,3.88.2,4.67-.38.95-.69.83-4.17,2.14-5.45a6.35,6.35,0,0,1,5.82-1.58c-1.4-3.37,1.7-7.34,5.3-7.91s7.18,1.34,9.89,3.79c3.11,2.82,5.6,7.11,4.29,11.1.47-1.43,7.32,3.52,7.83,4.11,2.71,3.12,2.21,6.26.81,10A6.48,6.48,0,0,1,318.48,117.2Z" fill="#72f4c3"/><path d="M292.15,142.76a27.31,27.31,0,0,1-12.89-3.25,39.67,39.67,0,0,1-9.08-7.21,20.8,20.8,0,0,1-4.1-5.31,12.17,12.17,0,0,1,1.83-13,6.87,6.87,0,0,1,1.15-.89,4.28,4.28,0,0,0,1.17-1c.25-.5.2-.59.06-.86a2.66,2.66,0,0,1-.34-1.21c0-.4,0-.78-.06-1.14a9.87,9.87,0,0,1,.6-5,8.64,8.64,0,0,1,3.23-4.2,5,5,0,0,1,3.1-.34,3.41,3.41,0,0,0,1.54,0,4.82,4.82,0,0,0,.71-2,5.69,5.69,0,0,1,6.86-5.22,5.57,5.57,0,0,1,.66-4.05,7.53,7.53,0,0,1,5.23-3.73c4.41-.7,8.32,2.14,10.26,3.9,2.87,2.6,5.48,6.7,4.65,10.75,2.14.28,7.19,4.13,7.51,4.5,2.7,3.1,2.42,6.26,1.06,10a7,7,0,0,1,3.59,3.52h0a10.63,10.63,0,0,1,.14,8.53c-1.9,4.37-6.5,8-10.19,10.93l-1.41,1.12A24.32,24.32,0,0,1,292.15,142.76Zm-16.63-42.54a2.6,2.6,0,0,0-1.32.28,7.9,7.9,0,0,0-2.87,3.78,9.06,9.06,0,0,0-.53,4.62c0,.37.05.76.07,1.16a1.68,1.68,0,0,0,.23.83,1.53,1.53,0,0,1-.05,1.69,4.42,4.42,0,0,1-1.48,1.3,6.17,6.17,0,0,0-1,.74,11.2,11.2,0,0,0-1.69,12,20.15,20.15,0,0,0,3.93,5.07,38.67,38.67,0,0,0,8.87,7.05c8.93,4.78,19.85,4,27.16-1.85l1.41-1.12c3.81-3,8.11-6.42,9.92-10.57a9.68,9.68,0,0,0-.12-7.77,5.94,5.94,0,0,0-3.5-3.21.46.46,0,0,1-.27-.24.5.5,0,0,1,0-.36c1.42-3.72,1.79-6.61-.73-9.5-1.57-1.8-6.75-4.31-7.1-4.2a.41.41,0,0,1-.55.26.48.48,0,0,1-.26-.61h0c1.27-3.89-1.32-8-4.17-10.62-1.82-1.65-5.47-4.31-9.51-3.68a6.69,6.69,0,0,0-4.58,3.28,4.55,4.55,0,0,0-.37,4,.47.47,0,0,1-.07.48.48.48,0,0,1-.46.14,5.9,5.9,0,0,0-5.39,1.47A6.5,6.5,0,0,0,280,97.54c-.26,1.15-.48,2.14-1.06,2.56a3.31,3.31,0,0,1-2.17.2A12.09,12.09,0,0,0,275.52,100.22Z" fill="#231f20"/><polygon points="305.26 112.03 292.54 120.45 291.89 99.28 290.67 103.89 290.39 127.25 276.41 114.88 276.24 116.22 290.25 129.76 288.52 162.02 293.82 162.02 292.66 124.3 304.09 114.88 305.26 112.03" fill="#fff"/><path d="M293.82,162.47h-5.3a.44.44,0,0,1-.33-.14.43.43,0,0,1-.13-.34l1.73-32-13.87-13.4a.45.45,0,0,1-.13-.38l.17-1.35a.45.45,0,0,1,.75-.28l13.23,11.71.27-22.36a.36.36,0,0,1,0-.11l1.22-4.62a.46.46,0,0,1,.9.11l.63,20.35,12-8a.45.45,0,0,1,.54,0,.43.43,0,0,1,.13.52l-1.17,2.85a.46.46,0,0,1-.13.18l-11.25,9.28L294.28,162a.43.43,0,0,1-.13.33A.45.45,0,0,1,293.82,162.47Zm-4.82-.91h4.35l-1.14-37.25a.44.44,0,0,1,.16-.37l11.34-9.34.56-1.37-11.47,7.6a.44.44,0,0,1-.47,0,.46.46,0,0,1-.24-.39l-.56-18.06-.41,1.55-.27,23.3a.46.46,0,0,1-.28.41.45.45,0,0,1-.48-.08L276.75,115.8l0,.25,13.85,13.38a.46.46,0,0,1,.14.36Z" fill="#231f20"/><polygon points="248.6 81.54 250.12 152.37 246.09 152.37 248.6 81.54" fill="#fff"/><path d="M250.11,152.83h-4a.45.45,0,0,1-.33-.14.47.47,0,0,1-.13-.34l2.52-70.83a.46.46,0,0,1,.45-.44h0a.45.45,0,0,1,.45.45l1.51,70.83a.46.46,0,0,1-.13.33A.44.44,0,0,1,250.11,152.83Zm-3.55-.92h3.09l-1.16-54.29Z" fill="#231f20"/><polygon points="147.91 232.17 85.01 185.37 53.8 224.12 118.72 261.86 147.91 232.17" fill="#231f20"/><path d="M118.72,262.3a.44.44,0,0,1-.22-.05L53.58,224.5a.44.44,0,0,1-.21-.3.47.47,0,0,1,.09-.36l31.2-38.74a.44.44,0,0,1,.61-.08l62.9,46.8a.44.44,0,0,1,.06.66L119,262.17A.44.44,0,0,1,118.72,262.3ZM54.47,224l64.18,37.31,28.59-29.09L85.08,186Z" fill="#231f20"/><circle cx="128.29" cy="85.88" r="27.18" fill="#d1d3d4"/><path d="M128.29,113.56A27.68,27.68,0,1,1,156,85.88,27.71,27.71,0,0,1,128.29,113.56Zm0-54.35A26.68,26.68,0,1,0,155,85.88,26.7,26.7,0,0,0,128.29,59.21Z" fill="#e6e7e8"/></g></svg>