<svg width="431" height="388" viewBox="0 0 431 388" fill="none" xmlns="http://www.w3.org/2000/svg">
<path opacity="0.5" fill-rule="evenodd" clip-rule="evenodd" d="M426.124 388H0.288122C-5.10351 315.237 66.4833 269.387 105.376 244.476C110.429 241.24 114.929 238.357 118.638 235.815C134.893 224.671 146.947 200.336 159.767 174.454C183.385 126.772 209.603 73.8413 269.483 88.4805C322.129 101.384 401.252 156.29 431 238.43V374.854C429.524 379.202 427.901 383.585 426.124 388Z" fill="url(#paint0_linear)"/>
<g clip-path="url(#clip0)">
<path d="M184.82 239.08L153.07 320.9L275.44 262.13L304.06 183.11L184.82 239.08Z" fill="#6633CC"/>
<path d="M184.82 239.12C184.2 237.26 163.7 185.7 163.7 185.7L282.96 135.39L297.87 186.32L184.82 239.12Z" fill="#6633CC"/>
<path d="M184.82 239.12C184.2 237.26 163.7 185.7 163.7 185.7L282.96 135.39L297.87 186.32L184.82 239.12Z" fill="url(#paint1_linear)"/>
<path d="M199.91 138.14L163.7 185.66L282.97 135.35L315.15 87.8301L199.91 138.14Z" fill="#6633CC"/>
<path d="M195.86 68.28L192.45 36.87L314 0L314.59 46.82L315.15 87.83L199.91 138.14L195.86 68.28Z" fill="#6633CC"/>
<path d="M195.86 68.28L192.45 36.87L314 0L314.59 46.82L315.15 87.83L199.91 138.14L195.86 68.28Z" fill="url(#paint2_linear)"/>
<path d="M201.26 43.0399L207.74 133.12C207.74 133.12 174.6 178.83 173.94 180.82C173.28 182.81 192.49 231.82 192.49 231.82C192.49 231.82 165.98 307.37 166.65 305.38C167.32 303.39 274.65 253.69 274.65 253.69L283.29 190.12L266.06 145.72L307.81 88.0599L307.12 10.3999L201.26 43.0399Z" fill="url(#paint3_linear)"/>
<path opacity="0.44" d="M221.6 146.31C212.6 133.42 200.19 119.31 204.49 104.18C221.954 118.027 241.654 128.792 262.74 136.01C270.87 125.89 253 110.65 258.88 99.09C259.917 97.0596 261.608 95.438 263.68 94.487C265.753 93.536 268.085 93.311 270.3 93.8485C272.516 94.3859 274.486 95.6544 275.892 97.4491C277.298 99.2438 278.058 101.46 278.05 103.74C282.325 103.512 286.495 102.336 290.258 100.297C294.022 98.2576 297.285 95.4064 299.81 91.95C300.34 109.44 286.75 123.64 275.2 136.79C273.69 138.51 272.13 140.4 271.91 142.67C271.73 144.55 272.5 146.38 273.21 148.14C287.51 183.43 282.03 223.23 276.32 260.88C276.32 265.48 248.53 274.37 243.91 266.65C238.82 258.13 245.25 236.45 245.13 226.65C244.8 198.34 238.01 169.71 221.6 146.31Z" fill="url(#paint4_linear)"/>
<path d="M210.32 82.2501C207.569 83.0762 205.016 84.458 202.82 86.3101C201.731 87.2475 200.882 88.432 200.344 89.7647C199.807 91.0973 199.596 92.5393 199.73 93.9701C200.195 95.9363 201.086 97.7763 202.34 99.3601C215.23 118.28 228.85 137.89 248.88 148.98C255.98 152.9 263.7 155.64 270.67 159.78C277.64 163.92 284.08 169.83 286.37 177.61C289.37 187.67 285 199.34 289.95 208.61C290.592 209.951 291.579 211.096 292.81 211.93C294.34 212.714 296.031 213.131 297.75 213.15C309.64 214.15 322.11 214.91 333.02 210.07C334.642 209.469 336.084 208.464 337.21 207.15C338.129 205.742 338.732 204.153 338.98 202.49C343.698 180.759 344.622 158.376 341.71 136.33C338.06 108.86 335.71 77.9301 321.58 54.1001C317.24 61.5201 319.43 70.8301 320.92 79.3001C322.03 85.6601 322.67 92.0901 323.31 98.5201C323.85 103.89 324.31 109.66 321.67 114.37C319.83 117.64 316.67 119.99 313.42 121.82C304.79 126.64 294.82 128.45 285.01 129.68C275.4 130.89 265.18 131.52 256.44 127.33C250.37 124.41 245.59 119.43 240.95 114.55C230.6 103.69 220.6 93.1201 210.32 82.2501Z" fill="white"/>
<path d="M291.02 96.43C290.512 97.7773 290.12 99.1657 289.85 100.58C289.488 103.097 289.875 105.664 290.964 107.962C292.052 110.26 293.793 112.186 295.97 113.5C297.016 114.007 298.02 114.599 298.97 115.27C299.727 115.966 300.336 116.808 300.762 117.744C301.188 118.68 301.422 119.692 301.45 120.72C301.496 122.774 301.27 124.825 300.78 126.82C300.68 127.32 300.66 127.99 301.13 128.2C301.274 128.25 301.427 128.27 301.58 128.26C305.941 128.241 310.21 127.009 313.91 124.7C315.085 124.035 316.091 123.107 316.85 121.99C318.02 119.99 317.85 117.59 317.74 115.31C317.56 109.31 318.59 103.31 318.21 97.31C317.83 91.31 315.68 84.99 310.7 81.63C308.551 80.2275 306.072 79.4106 303.51 79.26C301.78 79.13 298.2 78.94 296.79 80.17C296.02 80.85 295.79 82.62 295.46 83.55C294.94 85.05 294.423 86.55 293.91 88.05L291.02 96.43Z" fill="url(#paint5_linear)"/>
<path d="M306.17 67.0099C311.46 67.4899 316.99 67.2099 321.84 69.3899C328.99 72.6099 333 80.6699 333.46 88.4899C333.911 94.2617 332.372 100.014 329.1 104.79C327.445 107.145 325.264 109.082 322.729 110.446C320.195 111.811 317.377 112.565 314.5 112.65C311.64 112.65 308.35 111.44 307.57 108.65C307.244 106.917 307.603 105.125 308.57 103.65C309.28 102.36 310.2 100.98 309.91 99.5399C309.713 98.8657 309.325 98.2632 308.792 97.8052C308.26 97.3473 307.606 97.0536 306.91 96.9599C305.528 96.7821 304.124 96.8806 302.78 97.2499C303.52 93.8199 304.2 90.0099 302.43 86.9799C299.92 82.6999 293.62 81.8799 291.07 77.6199C290.07 75.8699 290.16 73.0399 292.07 72.4299C292.441 72.3652 292.797 72.233 293.12 72.0399C293.7 71.5199 293.35 70.5899 293.03 69.8799C292.35 68.3699 291.52 65.5599 292.18 63.8799C293.18 61.3699 293.48 62.5099 295.39 63.5799C298.688 65.5006 302.368 66.6716 306.17 67.0099V67.0099Z" fill="#3E3E54"/>
<path d="M203.29 72.5801C203.068 71.8633 202.73 71.1877 202.29 70.5801C202.056 70.2859 201.746 70.0608 201.394 69.9287C201.041 69.7967 200.66 69.7626 200.29 69.8301C200.112 69.8816 199.948 69.972 199.809 70.0948C199.67 70.2175 199.561 70.3696 199.488 70.5399C199.415 70.7103 199.381 70.8946 199.389 71.0797C199.396 71.2648 199.444 71.4459 199.53 71.6101C198.964 70.9903 198.456 70.3209 198.01 69.6101C197.788 69.2457 197.483 68.9389 197.119 68.7147C196.756 68.4905 196.345 68.3553 195.92 68.3201C195.439 68.3707 194.987 68.572 194.628 68.8953C194.268 69.2187 194.021 69.6474 193.92 70.1201C193.715 71.0658 193.715 72.0444 193.92 72.9901C194.385 75.2722 194.553 77.6049 194.42 79.9301C194.22 81.9301 193.57 84.0201 194.07 85.9901C194.67 88.4401 197.58 90.2901 199.84 89.1701C200.694 88.6382 201.449 87.9614 202.07 87.1701C204.07 85.0901 206.42 83.9901 208.95 82.7401C208.43 81.1501 206.83 79.5201 205.95 78.0101C204.934 76.2665 204.045 74.4517 203.29 72.5801V72.5801Z" fill="url(#paint6_linear)"/>
<path d="M319.12 49.1199C318.447 46.8862 317.005 44.9627 315.05 43.6899L314.6 46.8199C314.582 47.1089 314.489 47.3881 314.33 47.6299C314.193 47.8005 314.014 47.9317 313.81 48.0099C312.812 48.3412 311.76 48.4836 310.71 48.4299C310.187 48.4112 309.666 48.5153 309.19 48.7342C308.714 48.953 308.296 49.2803 307.97 49.6899C307.748 50.1589 307.655 50.6785 307.701 51.1952C307.747 51.7119 307.929 52.2072 308.23 52.6299C308.645 53.3246 309.208 53.9189 309.88 54.3699C310.861 54.8601 311.801 55.4286 312.69 56.0699C314.1 57.3699 314.24 59.4899 314.62 61.3599C315 63.2299 316.13 65.3599 318.04 65.4399C319.13 64.4399 319.3 62.8299 319.41 61.3599C319.56 59.2699 320.41 57.2699 320.54 55.2199C320.67 53.1699 319.75 50.9299 319.12 49.1199Z" fill="url(#paint7_linear)"/>
<path d="M352.49 317.59C354.19 320.75 353.67 324.79 352.83 328.29C351.99 331.79 349.24 335.1 345.66 335.34C340.4 335.69 338.84 328.77 335.14 325.02C321.8 311.48 314.7 300.42 312.76 286.76C311.54 278.09 311.62 269.18 309.14 260.76C307.21 254.23 303.78 248.24 301.79 241.76C299.06 232.88 299.11 223.43 299.17 214.14C305.57 213.473 311.943 212.583 318.29 211.47C322.02 210.83 333.39 206.47 336.72 207.79C342.51 210.17 340.49 235.42 339.83 241.9C336.89 270.58 336.89 288.6 352.49 317.59Z" fill="#3E3E54"/>
<path d="M352.49 317.59C354.19 320.75 353.67 324.79 352.83 328.29C351.99 331.79 349.24 335.1 345.66 335.34C340.4 335.69 338.84 328.77 335.14 325.02C321.8 311.48 314.7 300.42 312.76 286.76C311.54 278.09 311.62 269.18 309.14 260.76C307.21 254.23 303.78 248.24 301.79 241.76C299.06 232.88 299.11 223.43 299.17 214.14C305.57 213.473 311.943 212.583 318.29 211.47C322.02 210.83 333.39 206.47 336.72 207.79C342.51 210.17 340.49 235.42 339.83 241.9C336.89 270.58 336.89 288.6 352.49 317.59Z" fill="url(#paint8_linear)"/>
<path d="M281.11 346.19C281.55 334.19 285.82 333.99 287.39 322.04C288.13 316.38 287.91 310.57 289.28 305.04C290.414 301.045 291.987 297.188 293.97 293.54C305.62 270.35 323.68 252.44 328.87 227.01C329.55 223.67 331.19 209.47 331.41 208.38C331.41 208.38 313.78 211.75 310.41 211.66L294.7 211.24C293.286 211.091 291.857 211.28 290.53 211.79C289.019 212.684 287.839 214.046 287.17 215.67C282.59 224.77 282.5 235.35 280.98 245.42C278.26 263.51 270.75 280.57 267.46 298.57C266.17 305.69 265.54 312.91 264.91 320.11C264.13 329.11 264.91 327.11 264.11 336.11C263.896 337.299 264.028 338.524 264.49 339.64C265.089 340.551 265.916 341.289 266.89 341.78C271.39 344.63 276.15 348.12 281.11 346.19Z" fill="#3E3E54"/>
<path d="M247.47 348.12C247.37 350.54 250.03 352.02 252.32 352.81C259.342 355.253 266.636 356.828 274.04 357.5C274.571 357.575 275.109 357.575 275.64 357.5C277.93 357.03 278.71 354.2 279.04 351.88L279.58 348.03C279.643 347.805 279.655 347.569 279.615 347.339C279.575 347.109 279.485 346.891 279.35 346.7C279 346.34 278.41 346.42 277.9 346.48C271.9 347.18 268.22 340.95 262.38 341.3C258.91 341.46 247.68 343.57 247.47 348.12Z" fill="#3E3E54"/>
<path d="M329.92 334.12C328.92 334.42 327.82 334.9 327.56 335.9C327.465 336.608 327.648 337.324 328.07 337.9C329.877 340.528 332.641 342.345 335.77 342.96C338.874 343.545 342.041 343.717 345.19 343.47L349.4 343.34C350.095 343.375 350.787 343.219 351.4 342.89C351.788 342.542 352.096 342.115 352.303 341.636C352.511 341.158 352.612 340.641 352.6 340.12C352.801 337.668 352.758 335.203 352.47 332.76C352.42 332.38 352.32 331.94 351.97 331.76C351.62 331.58 351.09 331.99 350.74 332.31C347.85 334.92 343.87 332.75 340.63 332.37C337.18 332.03 333.15 333.12 329.92 334.12Z" fill="#3E3E54"/>
<path d="M232.6 81.02C232.6 81.02 233.13 82.17 233.93 84.2" stroke="white" stroke-width="0.58" stroke-miterlimit="10"/>
<path d="M236.22 90.55C240.82 104.73 246.5 131.55 231.32 148.55C209.9 172.55 196.91 169.97 202.11 191.39C205.69 206.16 211.11 222.79 214.11 231.69" stroke="white" stroke-width="0.58" stroke-miterlimit="10" stroke-dasharray="6.74 6.74"/>
<path d="M215.24 234.87C215.96 236.94 216.39 238.13 216.39 238.13C216.39 238.13 215.53 239.13 214.24 240.83" stroke="white" stroke-width="0.58" stroke-miterlimit="10"/>
<path d="M210.18 246.43C203.73 255.95 196.45 270.16 211.18 269.29C233.25 267.99 265.06 244.62 259.87 231.64C254.68 218.66 239.09 211.51 233.87 200.47C228.65 189.43 244.87 193.98 253.99 180.35C263.11 166.72 256.59 161.52 253.34 147.24C250.09 132.96 263.08 145.24 269.58 111.53C276.08 77.8199 265.03 70.6299 256.58 66.7399C250.41 63.8899 265.77 50.6199 274.47 43.6899" stroke="white" stroke-width="0.58" stroke-miterlimit="10" stroke-dasharray="6.92 6.92"/>
<path d="M277.26 41.55C278.95 40.25 280.01 39.47 280.01 39.47" stroke="white" stroke-width="0.58" stroke-miterlimit="10"/>
<path d="M279.77 31.03L281.96 46.61" stroke="white" stroke-width="2.31" stroke-miterlimit="10"/>
<path d="M272.06 38.01H287" stroke="white" stroke-width="2.31" stroke-miterlimit="10"/>
<path d="M256.97 195.28C258.583 195.28 259.89 193.973 259.89 192.36C259.89 190.747 258.583 189.44 256.97 189.44C255.357 189.44 254.05 190.747 254.05 192.36C254.05 193.973 255.357 195.28 256.97 195.28Z" fill="white"/>
<path d="M226.94 151.94C228.553 151.94 229.86 150.633 229.86 149.02C229.86 147.407 228.553 146.1 226.94 146.1C225.327 146.1 224.02 147.407 224.02 149.02C224.02 150.633 225.327 151.94 226.94 151.94Z" fill="white"/>
</g>
<defs>
<linearGradient id="paint0_linear" x1="181.189" y1="138.65" x2="426.6" y2="383.548" gradientUnits="userSpaceOnUse">
<stop stop-color="white"/>
<stop offset="1" stop-color="white" stop-opacity="0"/>
</linearGradient>
<linearGradient id="paint1_linear" x1="226.07" y1="126.3" x2="239.71" y2="298.99" gradientUnits="userSpaceOnUse">
<stop stop-opacity="0"/>
<stop offset="0.99"/>
</linearGradient>
<linearGradient id="paint2_linear" x1="17109.1" y1="4653.94" x2="25551.2" y2="33855.6" gradientUnits="userSpaceOnUse">
<stop stop-opacity="0"/>
<stop offset="0.99"/>
</linearGradient>
<linearGradient id="paint3_linear" x1="475.14" y1="-136.51" x2="36.2699" y2="390.65" gradientUnits="userSpaceOnUse">
<stop offset="0.02" stop-color="white" stop-opacity="0"/>
<stop offset="0.58" stop-color="white" stop-opacity="0.39"/>
<stop offset="0.68" stop-color="white" stop-opacity="0.68"/>
<stop offset="1" stop-color="white"/>
</linearGradient>
<linearGradient id="paint4_linear" x1="-6140.72" y1="15663.5" x2="61470.3" y2="29723.4" gradientUnits="userSpaceOnUse">
<stop stop-opacity="0"/>
<stop offset="0.99"/>
</linearGradient>
<linearGradient id="paint5_linear" x1="289.7" y1="103.72" x2="318.29" y2="103.72" gradientUnits="userSpaceOnUse">
<stop stop-color="#E5C5D5"/>
<stop offset="0.42" stop-color="#EAD4D1"/>
<stop offset="1" stop-color="#F0E9CB"/>
</linearGradient>
<linearGradient id="paint6_linear" x1="2002.59" y1="1927.28" x2="2233.68" y2="1927.28" gradientUnits="userSpaceOnUse">
<stop stop-color="#E5C5D5"/>
<stop offset="0.42" stop-color="#EAD4D1"/>
<stop offset="1" stop-color="#F0E9CB"/>
</linearGradient>
<linearGradient id="paint7_linear" x1="3305.44" y1="1423.73" x2="3471.11" y2="1423.73" gradientUnits="userSpaceOnUse">
<stop stop-color="#E5C5D5"/>
<stop offset="0.42" stop-color="#EAD4D1"/>
<stop offset="1" stop-color="#F0E9CB"/>
</linearGradient>
<linearGradient id="paint8_linear" x1="16581.8" y1="37220.1" x2="14046.3" y2="36920.1" gradientUnits="userSpaceOnUse">
<stop stop-opacity="0"/>
<stop offset="0.99"/>
</linearGradient>
<clipPath id="clip0">
<rect width="297.63" height="357.51" fill="white" transform="translate(110)"/>
</clipPath>
</defs>
</svg>
