<svg width="431" height="388" viewBox="0 0 431 388" fill="none" xmlns="http://www.w3.org/2000/svg">
<g clip-path="url(#clip0)">
<path opacity="0.5" fill-rule="evenodd" clip-rule="evenodd" d="M426.124 388H0.288122C-5.10351 315.237 66.4833 269.387 105.376 244.476C110.429 241.24 114.929 238.357 118.638 235.815C134.893 224.671 146.947 200.336 159.767 174.454C183.385 126.772 209.603 73.8413 269.483 88.4805C322.129 101.384 401.252 156.29 431 238.43V374.854C429.524 379.202 427.901 383.585 426.124 388Z" fill="url(#paint0_linear)"/>
<path d="M184.82 239.079L153.07 320.899L275.44 262.129L304.06 183.109L184.82 239.079Z" fill="#6633CC"/>
<path d="M184.819 239.121C184.199 237.261 163.699 185.701 163.699 185.701L282.959 135.391L297.869 186.321L184.819 239.121Z" fill="#6633CC"/>
<path d="M184.819 239.121C184.199 237.261 163.699 185.701 163.699 185.701L282.959 135.391L297.869 186.321L184.819 239.121Z" fill="url(#paint1_linear)"/>
<path d="M199.909 138.14L163.699 185.66L282.969 135.35L315.149 87.8301L199.909 138.14Z" fill="#6633CC"/>
<path d="M195.859 68.28L192.449 36.87L313.999 0L314.589 46.82L315.149 87.83L199.909 138.14L195.859 68.28Z" fill="#6633CC"/>
<path d="M195.859 68.28L192.449 36.87L313.999 0L314.589 46.82L315.149 87.83L199.909 138.14L195.859 68.28Z" fill="url(#paint2_linear)"/>
<path d="M201.259 43.0404L207.739 133.12C207.739 133.12 174.599 178.83 173.939 180.82C173.279 182.81 192.489 231.82 192.489 231.82C192.489 231.82 165.979 307.37 166.649 305.38C167.319 303.39 274.649 253.69 274.649 253.69L283.289 190.12L266.059 145.72L307.809 88.0604L307.119 10.4004L201.259 43.0404Z" fill="url(#paint3_linear)"/>
<path opacity="0.44" d="M221.602 146.309C212.602 133.419 200.192 119.309 204.492 104.179C221.956 118.026 241.656 128.791 262.742 136.009C270.872 125.889 253.002 110.649 258.882 99.0892C259.919 97.0588 261.61 95.4372 263.682 94.4862C265.755 93.5352 268.087 93.3102 270.302 93.8477C272.518 94.3851 274.488 95.6536 275.894 97.4483C277.3 99.243 278.06 101.459 278.052 103.739C282.327 103.511 286.497 102.335 290.26 100.296C294.024 98.2568 297.287 95.4056 299.812 91.9492C300.342 109.439 286.752 123.639 275.202 136.789C273.692 138.509 272.132 140.399 271.912 142.669C271.732 144.549 272.502 146.379 273.212 148.139C287.512 183.429 282.032 223.229 276.322 260.879C276.322 265.479 248.532 274.369 243.912 266.649C238.822 258.129 245.252 236.449 245.132 226.649C244.802 198.339 238.012 169.709 221.602 146.309Z" fill="url(#paint4_linear)"/>
<path d="M210.321 82.2496C207.57 83.0757 205.017 84.4575 202.821 86.3096C201.732 87.247 200.883 88.4315 200.345 89.7642C199.808 91.0968 199.597 92.5388 199.731 93.9696C200.196 95.9358 201.087 97.7758 202.341 99.3596C215.231 118.28 228.851 137.89 248.881 148.98C255.981 152.9 263.701 155.64 270.671 159.78C277.641 163.92 284.081 169.83 286.371 177.61C289.371 187.67 285.001 199.34 289.951 208.61C290.593 209.951 291.58 211.096 292.811 211.93C294.341 212.714 296.032 213.131 297.751 213.15C309.641 214.15 322.111 214.91 333.021 210.07C334.643 209.469 336.085 208.464 337.211 207.15C338.13 205.742 338.733 204.153 338.981 202.49C343.699 180.759 344.623 158.376 341.711 136.33C338.061 108.86 335.711 77.9296 321.581 54.0996C317.241 61.5196 319.431 70.8296 320.921 79.2996C322.031 85.6596 322.671 92.0896 323.311 98.5196C323.851 103.89 324.311 109.66 321.671 114.37C319.831 117.64 316.671 119.99 313.421 121.82C304.791 126.64 294.821 128.45 285.011 129.68C275.401 130.89 265.181 131.52 256.441 127.33C250.371 124.41 245.591 119.43 240.951 114.55C230.601 103.69 220.601 93.1196 210.321 82.2496Z" fill="white"/>
<path d="M291.021 96.4293C290.513 97.7766 290.121 99.165 289.851 100.579C289.489 103.096 289.876 105.663 290.965 107.961C292.053 110.259 293.794 112.185 295.971 113.499C297.017 114.006 298.021 114.598 298.971 115.269C299.728 115.965 300.337 116.807 300.763 117.743C301.189 118.679 301.423 119.691 301.451 120.719C301.497 122.773 301.271 124.824 300.781 126.819C300.681 127.319 300.661 127.989 301.131 128.199C301.275 128.249 301.428 128.269 301.581 128.259C305.942 128.24 310.211 127.008 313.911 124.699C315.086 124.034 316.092 123.106 316.851 121.989C318.021 119.989 317.851 117.589 317.741 115.309C317.561 109.309 318.591 103.309 318.211 97.3093C317.831 91.3093 315.681 84.9893 310.701 81.6293C308.552 80.2268 306.073 79.4099 303.511 79.2593C301.781 79.1293 298.201 78.9393 296.791 80.1693C296.021 80.8493 295.791 82.6193 295.461 83.5493C294.941 85.0493 294.424 86.5493 293.911 88.0493L291.021 96.4293Z" fill="url(#paint5_linear)"/>
<path d="M306.172 67.0094C311.462 67.4894 316.992 67.2094 321.842 69.3894C328.992 72.6094 333.002 80.6694 333.462 88.4894C333.913 94.2612 332.374 100.014 329.102 104.79C327.447 107.145 325.266 109.082 322.731 110.446C320.197 111.811 317.379 112.565 314.502 112.65C311.642 112.65 308.352 111.44 307.572 108.65C307.246 106.917 307.605 105.125 308.572 103.65C309.282 102.36 310.202 100.98 309.912 99.5394C309.715 98.8652 309.327 98.2627 308.794 97.8047C308.262 97.3468 307.608 97.0531 306.912 96.9594C305.53 96.7816 304.126 96.8801 302.782 97.2494C303.522 93.8194 304.202 90.0094 302.432 86.9794C299.922 82.6994 293.622 81.8794 291.072 77.6194C290.072 75.8694 290.162 73.0394 292.072 72.4294C292.443 72.3647 292.799 72.2325 293.122 72.0394C293.702 71.5194 293.352 70.5894 293.032 69.8794C292.352 68.3694 291.522 65.5594 292.182 63.8794C293.182 61.3694 293.482 62.5094 295.392 63.5794C298.69 65.5001 302.37 66.6711 306.172 67.0094Z" fill="#3E3E54"/>
<path d="M203.289 72.5803C203.067 71.8635 202.729 71.1879 202.289 70.5803C202.055 70.2861 201.745 70.061 201.393 69.9289C201.04 69.7969 200.659 69.7628 200.289 69.8303C200.111 69.8818 199.947 69.9722 199.808 70.095C199.669 70.2177 199.56 70.3698 199.487 70.5401C199.414 70.7105 199.38 70.8948 199.388 71.0799C199.395 71.265 199.443 71.4461 199.529 71.6103C198.963 70.9905 198.455 70.3211 198.009 69.6103C197.787 69.2459 197.482 68.9391 197.118 68.7149C196.755 68.4907 196.344 68.3555 195.919 68.3203C195.438 68.3709 194.986 68.5722 194.627 68.8955C194.267 69.2189 194.02 69.6476 193.919 70.1203C193.714 71.066 193.714 72.0446 193.919 72.9903C194.384 75.2724 194.552 77.6051 194.419 79.9303C194.219 81.9303 193.569 84.0203 194.069 85.9903C194.669 88.4403 197.579 90.2903 199.839 89.1703C200.693 88.6384 201.448 87.9616 202.069 87.1703C204.069 85.0903 206.419 83.9903 208.949 82.7403C208.429 81.1503 206.829 79.5203 205.949 78.0103C204.933 76.2667 204.044 74.4519 203.289 72.5803Z" fill="url(#paint6_linear)"/>
<path d="M319.122 49.1195C318.449 46.8858 317.007 44.9623 315.052 43.6895L314.602 46.8195C314.584 47.1085 314.491 47.3877 314.332 47.6295C314.195 47.8001 314.016 47.9313 313.812 48.0095C312.814 48.3408 311.762 48.4832 310.712 48.4295C310.189 48.4108 309.668 48.5149 309.192 48.7338C308.716 48.9526 308.298 49.2799 307.972 49.6895C307.75 50.1585 307.657 50.6781 307.703 51.1948C307.749 51.7115 307.931 52.2068 308.232 52.6295C308.647 53.3242 309.21 53.9185 309.882 54.3695C310.863 54.8597 311.803 55.4282 312.692 56.0695C314.102 57.3695 314.242 59.4895 314.622 61.3595C315.002 63.2295 316.132 65.3595 318.042 65.4395C319.132 64.4395 319.302 62.8295 319.412 61.3595C319.562 59.2695 320.412 57.2695 320.542 55.2195C320.672 53.1695 319.752 50.9295 319.122 49.1195Z" fill="url(#paint7_linear)"/>
<path d="M352.489 317.59C354.189 320.75 353.669 324.79 352.829 328.29C351.989 331.79 349.239 335.1 345.659 335.34C340.399 335.69 338.839 328.77 335.139 325.02C321.799 311.48 314.699 300.42 312.759 286.76C311.539 278.09 311.619 269.18 309.139 260.76C307.209 254.23 303.779 248.24 301.789 241.76C299.059 232.88 299.109 223.43 299.169 214.14C305.569 213.473 311.942 212.583 318.289 211.47C322.019 210.83 333.389 206.47 336.719 207.79C342.509 210.17 340.489 235.42 339.829 241.9C336.889 270.58 336.889 288.6 352.489 317.59Z" fill="#3E3E54"/>
<path d="M352.489 317.59C354.189 320.75 353.669 324.79 352.829 328.29C351.989 331.79 349.239 335.1 345.659 335.34C340.399 335.69 338.839 328.77 335.139 325.02C321.799 311.48 314.699 300.42 312.759 286.76C311.539 278.09 311.619 269.18 309.139 260.76C307.209 254.23 303.779 248.24 301.789 241.76C299.059 232.88 299.109 223.43 299.169 214.14C305.569 213.473 311.942 212.583 318.289 211.47C322.019 210.83 333.389 206.47 336.719 207.79C342.509 210.17 340.489 235.42 339.829 241.9C336.889 270.58 336.889 288.6 352.489 317.59Z" fill="url(#paint8_linear)"/>
<path d="M281.111 346.191C281.551 334.191 285.821 333.991 287.391 322.041C288.131 316.381 287.911 310.571 289.281 305.041C290.415 301.046 291.988 297.189 293.971 293.541C305.621 270.351 323.681 252.441 328.871 227.011C329.551 223.671 331.191 209.471 331.411 208.381C331.411 208.381 313.781 211.751 310.411 211.661L294.701 211.241C293.287 211.092 291.858 211.281 290.531 211.791C289.02 212.685 287.84 214.047 287.171 215.671C282.591 224.771 282.501 235.351 280.981 245.421C278.261 263.511 270.751 280.571 267.461 298.571C266.171 305.691 265.541 312.911 264.911 320.111C264.131 329.111 264.911 327.111 264.111 336.111C263.897 337.3 264.029 338.525 264.491 339.641C265.09 340.552 265.917 341.29 266.891 341.781C271.391 344.631 276.151 348.121 281.111 346.191Z" fill="#3E3E54"/>
<path d="M247.471 348.119C247.371 350.539 250.031 352.019 252.321 352.809C259.343 355.252 266.637 356.827 274.041 357.499C274.572 357.574 275.111 357.574 275.642 357.499C277.932 357.029 278.711 354.199 279.041 351.879L279.581 348.029C279.644 347.804 279.656 347.568 279.616 347.338C279.576 347.108 279.486 346.89 279.351 346.699C279.001 346.339 278.411 346.419 277.901 346.479C271.901 347.179 268.221 340.949 262.381 341.299C258.911 341.459 247.681 343.569 247.471 348.119Z" fill="#3E3E54"/>
<path d="M329.92 334.121C328.92 334.421 327.82 334.901 327.56 335.901C327.465 336.609 327.648 337.325 328.07 337.901C329.877 340.529 332.641 342.346 335.77 342.961C338.874 343.546 342.041 343.718 345.19 343.471L349.4 343.341C350.095 343.376 350.787 343.22 351.4 342.891C351.788 342.543 352.096 342.116 352.303 341.637C352.511 341.159 352.612 340.642 352.6 340.121C352.801 337.669 352.758 335.204 352.47 332.761C352.42 332.381 352.32 331.941 351.97 331.761C351.62 331.581 351.09 331.991 350.74 332.311C347.85 334.921 343.87 332.751 340.63 332.371C337.18 332.031 333.15 333.121 329.92 334.121Z" fill="#3E3E54"/>
<path d="M232.602 81.0195C232.602 81.0195 233.132 82.1695 233.932 84.1995" stroke="white" stroke-width="0.58" stroke-miterlimit="10"/>
<path d="M236.22 90.5508C240.82 104.731 246.5 131.551 231.32 148.551C209.9 172.551 196.91 169.971 202.11 191.391C205.69 206.161 211.11 222.791 214.11 231.691" stroke="white" stroke-width="0.58" stroke-miterlimit="10" stroke-dasharray="6.74 6.74"/>
<path d="M215.242 234.869C215.962 236.939 216.392 238.129 216.392 238.129C216.392 238.129 215.532 239.129 214.242 240.829" stroke="white" stroke-width="0.58" stroke-miterlimit="10"/>
<path d="M210.179 246.43C203.729 255.95 196.449 270.16 211.179 269.29C233.249 267.99 265.059 244.62 259.869 231.64C254.679 218.66 239.089 211.51 233.869 200.47C228.649 189.43 244.869 193.98 253.989 180.35C263.109 166.72 256.589 161.52 253.339 147.24C250.089 132.96 263.079 145.24 269.579 111.53C276.079 77.8195 265.029 70.6295 256.579 66.7395C250.409 63.8895 265.769 50.6195 274.469 43.6895" stroke="white" stroke-width="0.58" stroke-miterlimit="10" stroke-dasharray="6.92 6.92"/>
<path d="M277.262 41.5507C278.952 40.2507 280.012 39.4707 280.012 39.4707" stroke="white" stroke-width="0.58" stroke-miterlimit="10"/>
<path d="M279.77 31.0293L281.96 46.6093" stroke="white" stroke-width="2.31" stroke-miterlimit="10"/>
<path d="M272.059 38.0098H286.999" stroke="white" stroke-width="2.31" stroke-miterlimit="10"/>
<path d="M256.971 195.279C258.584 195.279 259.891 193.972 259.891 192.359C259.891 190.746 258.584 189.439 256.971 189.439C255.358 189.439 254.051 190.746 254.051 192.359C254.051 193.972 255.358 195.279 256.971 195.279Z" fill="white"/>
<path d="M226.94 151.94C228.553 151.94 229.86 150.633 229.86 149.02C229.86 147.407 228.553 146.1 226.94 146.1C225.327 146.1 224.02 147.407 224.02 149.02C224.02 150.633 225.327 151.94 226.94 151.94Z" fill="white"/>
<path d="M184.75 239.079L153 320.899L275.37 262.129L303.99 183.109L184.75 239.079Z" fill="#72F4C3"/>
<path d="M184.749 239.121C184.129 237.261 163.629 185.701 163.629 185.701L282.889 135.391L297.799 186.321L184.749 239.121Z" fill="#72F4C3"/>
<path d="M184.749 239.121C184.129 237.261 163.629 185.701 163.629 185.701L282.889 135.391L297.799 186.321L184.749 239.121Z" fill="url(#paint9_linear)"/>
<path d="M199.839 138.14L163.629 185.66L282.899 135.35L315.079 87.8301L199.839 138.14Z" fill="#72F4C3"/>
<path d="M195.789 68.28L192.379 36.87L313.929 0L314.519 46.82L315.079 87.83L199.839 138.14L195.789 68.28Z" fill="#72F4C3"/>
<path d="M195.789 68.28L192.379 36.87L313.929 0L314.519 46.82L315.079 87.83L199.839 138.14L195.789 68.28Z" fill="url(#paint10_linear)"/>
<path d="M201.189 43.0404L207.669 133.12C207.669 133.12 174.529 178.83 173.869 180.82C173.209 182.81 192.419 231.82 192.419 231.82C192.419 231.82 165.909 307.37 166.579 305.38C167.249 303.39 274.579 253.69 274.579 253.69L283.219 190.12L265.989 145.72L307.739 88.0604L307.049 10.4004L201.189 43.0404Z" fill="url(#paint11_linear)"/>
<path opacity="0.44" d="M221.528 146.309C212.528 133.419 200.118 119.309 204.418 104.179C221.882 118.026 241.581 128.791 262.668 136.009C270.798 125.889 252.928 110.649 258.808 99.0892C259.845 97.0588 261.536 95.4373 263.608 94.4862C265.68 93.5352 268.012 93.3103 270.228 93.8477C272.444 94.3852 274.414 95.6537 275.82 97.4484C277.226 99.2431 277.986 101.459 277.978 103.739C282.252 103.511 286.423 102.335 290.186 100.296C293.95 98.2568 297.213 95.4056 299.738 91.9492C300.268 109.439 286.678 123.639 275.128 136.789C273.618 138.509 272.058 140.399 271.838 142.669C271.658 144.549 272.428 146.379 273.138 148.139C287.438 183.429 281.958 223.229 276.248 260.879C276.248 265.479 248.458 274.369 243.838 266.649C238.748 258.129 245.178 236.449 245.058 226.649C244.728 198.339 237.938 169.709 221.528 146.309Z" fill="url(#paint12_linear)"/>
<path d="M210.25 82.2496C207.499 83.0757 204.946 84.4575 202.75 86.3096C201.661 87.247 200.812 88.4315 200.275 89.7642C199.737 91.0969 199.526 92.5389 199.66 93.9696C200.125 95.9358 201.016 97.7758 202.27 99.3596C215.16 118.28 228.78 137.89 248.81 148.98C255.91 152.9 263.63 155.64 270.6 159.78C277.57 163.92 284.01 169.83 286.3 177.61C289.3 187.67 284.93 199.34 289.88 208.61C290.523 209.95 291.51 211.096 292.74 211.93C294.27 212.713 295.961 213.131 297.68 213.15C309.57 214.15 322.04 214.91 332.95 210.07C334.573 209.469 336.015 208.463 337.14 207.15C338.059 205.742 338.663 204.152 338.91 202.49C343.629 180.759 344.552 158.375 341.64 136.33C337.99 108.86 335.64 77.9296 321.51 54.0996C317.17 61.5196 319.36 70.8296 320.85 79.2996C321.96 85.6596 322.6 92.0896 323.24 98.5196C323.78 103.89 324.24 109.66 321.6 114.37C319.76 117.64 316.6 119.99 313.35 121.82C304.72 126.64 294.75 128.45 284.94 129.68C275.33 130.89 265.11 131.52 256.37 127.33C250.3 124.41 245.52 119.43 240.88 114.55C230.53 103.69 220.53 93.1196 210.25 82.2496Z" fill="white"/>
<path d="M290.95 96.4293C290.442 97.7765 290.051 99.165 289.78 100.579C289.418 103.096 289.806 105.663 290.894 107.961C291.983 110.259 293.724 112.185 295.9 113.499C296.947 114.007 297.95 114.599 298.9 115.269C299.657 115.966 300.267 116.807 300.693 117.743C301.118 118.679 301.352 119.691 301.38 120.719C301.426 122.773 301.201 124.824 300.71 126.819C300.61 127.319 300.59 127.989 301.06 128.199C301.205 128.249 301.358 128.27 301.51 128.259C305.871 128.241 310.141 127.008 313.84 124.699C315.015 124.034 316.021 123.106 316.78 121.989C317.95 119.989 317.78 117.589 317.67 115.309C317.49 109.309 318.52 103.309 318.14 97.3093C317.76 91.3093 315.61 84.9893 310.63 81.6293C308.481 80.2268 306.002 79.4099 303.44 79.2593C301.71 79.1293 298.13 78.9393 296.72 80.1693C295.95 80.8493 295.72 82.6193 295.39 83.5493C294.87 85.0493 294.354 86.5493 293.84 88.0493L290.95 96.4293Z" fill="url(#paint13_linear)"/>
<path d="M306.101 67.0094C311.391 67.4894 316.921 67.2094 321.771 69.3894C328.921 72.6094 332.931 80.6694 333.391 88.4894C333.842 94.2612 332.303 100.013 329.031 104.789C327.376 107.145 325.195 109.081 322.661 110.446C320.126 111.81 317.308 112.565 314.431 112.649C311.571 112.649 308.281 111.439 307.501 108.649C307.176 106.916 307.534 105.124 308.501 103.649C309.211 102.359 310.131 100.979 309.841 99.5394C309.644 98.8653 309.256 98.2627 308.724 97.8047C308.191 97.3468 307.537 97.0532 306.841 96.9594C305.459 96.7816 304.055 96.8801 302.711 97.2494C303.451 93.8194 304.131 90.0094 302.361 86.9794C299.851 82.6994 293.551 81.8794 291.001 77.6194C290.001 75.8694 290.091 73.0394 292.001 72.4294C292.372 72.3647 292.728 72.2325 293.051 72.0394C293.631 71.5194 293.281 70.5894 292.961 69.8794C292.281 68.3694 291.451 65.5594 292.111 63.8794C293.111 61.3694 293.411 62.5094 295.321 63.5794C298.619 65.5001 302.3 66.6712 306.101 67.0094V67.0094Z" fill="#3E3E54"/>
<path d="M203.219 72.5803C202.997 71.8635 202.659 71.1879 202.219 70.5803C201.985 70.2861 201.675 70.061 201.323 69.929C200.97 69.7969 200.589 69.7628 200.219 69.8303C200.041 69.8818 199.877 69.9722 199.738 70.095C199.599 70.2178 199.49 70.3698 199.417 70.5402C199.344 70.7105 199.31 70.8949 199.318 71.08C199.325 71.265 199.373 71.4462 199.459 71.6103C198.893 70.9905 198.385 70.3212 197.939 69.6103C197.717 69.2459 197.412 68.9391 197.048 68.715C196.685 68.4908 196.274 68.3556 195.849 68.3203C195.368 68.3709 194.916 68.5723 194.557 68.8956C194.197 69.2189 193.95 69.6476 193.849 70.1203C193.644 71.066 193.644 72.0446 193.849 72.9903C194.314 75.2724 194.482 77.6051 194.349 79.9303C194.149 81.9303 193.499 84.0203 193.999 85.9903C194.599 88.4403 197.509 90.2903 199.769 89.1703C200.623 88.6384 201.378 87.9616 201.999 87.1703C203.999 85.0903 206.349 83.9903 208.879 82.7403C208.359 81.1503 206.759 79.5203 205.879 78.0103C204.863 76.2667 203.974 74.452 203.219 72.5803V72.5803Z" fill="url(#paint14_linear)"/>
<path d="M319.051 49.1195C318.378 46.8857 316.936 44.9622 314.981 43.6895L314.531 46.8195C314.513 47.1084 314.42 47.3876 314.261 47.6295C314.125 47.8001 313.945 47.9312 313.741 48.0095C312.743 48.3407 311.692 48.4832 310.641 48.4295C310.118 48.4107 309.597 48.5149 309.121 48.7337C308.646 48.9525 308.228 49.2799 307.901 49.6895C307.68 50.1584 307.587 50.678 307.632 51.1947C307.678 51.7114 307.861 52.2067 308.161 52.6295C308.576 53.3241 309.14 53.9184 309.811 54.3695C310.792 54.8596 311.732 55.4281 312.621 56.0695C314.031 57.3695 314.171 59.4895 314.551 61.3595C314.931 63.2295 316.061 65.3595 317.971 65.4395C319.061 64.4395 319.231 62.8295 319.341 61.3595C319.491 59.2695 320.341 57.2695 320.471 55.2195C320.601 53.1695 319.681 50.9295 319.051 49.1195Z" fill="url(#paint15_linear)"/>
<path d="M352.419 317.59C354.119 320.75 353.599 324.79 352.759 328.29C351.919 331.79 349.169 335.1 345.589 335.34C340.329 335.69 338.769 328.77 335.069 325.02C321.729 311.48 314.629 300.42 312.689 286.76C311.469 278.09 311.549 269.18 309.069 260.76C307.139 254.23 303.709 248.24 301.719 241.76C298.989 232.88 299.039 223.43 299.099 214.14C305.499 213.474 311.872 212.584 318.219 211.47C321.949 210.83 333.319 206.47 336.649 207.79C342.439 210.17 340.419 235.42 339.759 241.9C336.819 270.58 336.819 288.6 352.419 317.59Z" fill="#3E3E54"/>
<path d="M352.419 317.59C354.119 320.75 353.599 324.79 352.759 328.29C351.919 331.79 349.169 335.1 345.589 335.34C340.329 335.69 338.769 328.77 335.069 325.02C321.729 311.48 314.629 300.42 312.689 286.76C311.469 278.09 311.549 269.18 309.069 260.76C307.139 254.23 303.709 248.24 301.719 241.76C298.989 232.88 299.039 223.43 299.099 214.14C305.499 213.474 311.872 212.584 318.219 211.47C321.949 210.83 333.319 206.47 336.649 207.79C342.439 210.17 340.419 235.42 339.759 241.9C336.819 270.58 336.819 288.6 352.419 317.59Z" fill="url(#paint16_linear)"/>
<path d="M281.041 346.191C281.481 334.191 285.751 333.991 287.321 322.041C288.061 316.381 287.841 310.571 289.211 305.041C290.345 301.046 291.918 297.189 293.901 293.541C305.551 270.351 323.611 252.441 328.801 227.011C329.481 223.671 331.121 209.471 331.341 208.381C331.341 208.381 313.711 211.751 310.341 211.661L294.631 211.241C293.217 211.092 291.788 211.281 290.461 211.791C288.95 212.685 287.771 214.047 287.101 215.671C282.521 224.771 282.431 235.351 280.911 245.421C278.191 263.511 270.681 280.571 267.391 298.571C266.101 305.691 265.471 312.911 264.841 320.111C264.061 329.111 264.841 327.111 264.041 336.111C263.827 337.3 263.959 338.525 264.421 339.641C265.02 340.552 265.848 341.29 266.821 341.781C271.321 344.631 276.081 348.121 281.041 346.191Z" fill="#3E3E54"/>
<path d="M247.401 348.119C247.301 350.539 249.961 352.019 252.251 352.809C259.273 355.253 266.567 356.828 273.971 357.499C274.502 357.574 275.04 357.574 275.571 357.499C277.861 357.029 278.641 354.199 278.971 351.879L279.511 348.029C279.574 347.805 279.586 347.568 279.546 347.338C279.507 347.108 279.416 346.89 279.281 346.699C278.931 346.339 278.341 346.419 277.831 346.479C271.831 347.179 268.151 340.949 262.311 341.299C258.841 341.459 247.611 343.569 247.401 348.119Z" fill="#3E3E54"/>
<path d="M329.849 334.121C328.849 334.421 327.749 334.901 327.489 335.901C327.394 336.608 327.577 337.325 327.999 337.901C329.806 340.529 332.57 342.345 335.699 342.961C338.803 343.546 341.971 343.718 345.119 343.471L349.329 343.341C350.025 343.376 350.716 343.22 351.329 342.891C351.718 342.543 352.026 342.115 352.233 341.637C352.44 341.159 352.541 340.642 352.529 340.121C352.731 337.669 352.687 335.204 352.399 332.761C352.349 332.381 352.249 331.941 351.899 331.761C351.549 331.581 351.019 331.991 350.669 332.311C347.779 334.921 343.799 332.751 340.559 332.371C337.109 332.031 333.079 333.121 329.849 334.121Z" fill="#3E3E54"/>
<path d="M232.531 81.0195C232.531 81.0195 233.061 82.1695 233.861 84.1995" stroke="white" stroke-width="0.58" stroke-miterlimit="10"/>
<path d="M236.15 90.5508C240.75 104.731 246.43 131.551 231.25 148.551C209.83 172.551 196.84 169.971 202.04 191.391C205.62 206.161 211.04 222.791 214.04 231.691" stroke="white" stroke-width="0.58" stroke-miterlimit="10" stroke-dasharray="6.74 6.74"/>
<path d="M215.168 234.869C215.888 236.939 216.318 238.129 216.318 238.129C216.318 238.129 215.458 239.129 214.168 240.829" stroke="white" stroke-width="0.58" stroke-miterlimit="10"/>
<path d="M210.109 246.429C203.659 255.949 196.379 270.159 211.109 269.289C233.179 267.989 264.989 244.619 259.799 231.639C254.609 218.659 239.019 211.509 233.799 200.469C228.579 189.429 244.799 193.979 253.919 180.349C263.039 166.719 256.519 161.519 253.269 147.239C250.019 132.959 263.009 145.239 269.509 111.529C276.009 77.8195 264.959 70.6295 256.509 66.7395C250.339 63.8895 265.699 50.6195 274.399 43.6895" stroke="white" stroke-width="0.58" stroke-miterlimit="10" stroke-dasharray="6.92 6.92"/>
<path d="M277.191 41.5507C278.881 40.2507 279.941 39.4707 279.941 39.4707" stroke="white" stroke-width="0.58" stroke-miterlimit="10"/>
<path d="M279.699 31.0293L281.889 46.6093" stroke="white" stroke-width="2.31" stroke-miterlimit="10"/>
<path d="M271.988 38.0098H286.928" stroke="white" stroke-width="2.31" stroke-miterlimit="10"/>
<path d="M256.9 195.279C258.513 195.279 259.82 193.972 259.82 192.359C259.82 190.747 258.513 189.439 256.9 189.439C255.288 189.439 253.98 190.747 253.98 192.359C253.98 193.972 255.288 195.279 256.9 195.279Z" fill="white"/>
<path d="M226.869 151.94C228.482 151.94 229.789 150.632 229.789 149.02C229.789 147.407 228.482 146.1 226.869 146.1C225.257 146.1 223.949 147.407 223.949 149.02C223.949 150.632 225.257 151.94 226.869 151.94Z" fill="white"/>
</g>
<defs>
<linearGradient id="paint0_linear" x1="107.5" y1="15" x2="426.858" y2="383.393" gradientUnits="userSpaceOnUse">
<stop stop-color="#72F4C3" stop-opacity="0"/>
<stop offset="1" stop-color="#72F4C3" stop-opacity="0.54"/>
</linearGradient>
<linearGradient id="paint1_linear" x1="226.069" y1="126.301" x2="239.709" y2="298.991" gradientUnits="userSpaceOnUse">
<stop stop-opacity="0"/>
<stop offset="0.99"/>
</linearGradient>
<linearGradient id="paint2_linear" x1="17109.1" y1="4653.94" x2="25551.2" y2="33855.6" gradientUnits="userSpaceOnUse">
<stop stop-opacity="0"/>
<stop offset="0.99"/>
</linearGradient>
<linearGradient id="paint3_linear" x1="475.139" y1="-136.51" x2="36.2691" y2="390.65" gradientUnits="userSpaceOnUse">
<stop offset="0.02" stop-color="white" stop-opacity="0"/>
<stop offset="0.58" stop-color="white" stop-opacity="0.39"/>
<stop offset="0.68" stop-color="white" stop-opacity="0.68"/>
<stop offset="1" stop-color="white"/>
</linearGradient>
<linearGradient id="paint4_linear" x1="-6140.72" y1="15663.5" x2="61470.3" y2="29723.4" gradientUnits="userSpaceOnUse">
<stop stop-opacity="0"/>
<stop offset="0.99"/>
</linearGradient>
<linearGradient id="paint5_linear" x1="289.701" y1="103.719" x2="318.291" y2="103.719" gradientUnits="userSpaceOnUse">
<stop stop-color="#E5C5D5"/>
<stop offset="0.42" stop-color="#EAD4D1"/>
<stop offset="1" stop-color="#F0E9CB"/>
</linearGradient>
<linearGradient id="paint6_linear" x1="2002.59" y1="1927.28" x2="2233.68" y2="1927.28" gradientUnits="userSpaceOnUse">
<stop stop-color="#E5C5D5"/>
<stop offset="0.42" stop-color="#EAD4D1"/>
<stop offset="1" stop-color="#F0E9CB"/>
</linearGradient>
<linearGradient id="paint7_linear" x1="3305.45" y1="1423.73" x2="3471.12" y2="1423.73" gradientUnits="userSpaceOnUse">
<stop stop-color="#E5C5D5"/>
<stop offset="0.42" stop-color="#EAD4D1"/>
<stop offset="1" stop-color="#F0E9CB"/>
</linearGradient>
<linearGradient id="paint8_linear" x1="16581.8" y1="37220.1" x2="14046.3" y2="36920.1" gradientUnits="userSpaceOnUse">
<stop stop-opacity="0"/>
<stop offset="0.99"/>
</linearGradient>
<linearGradient id="paint9_linear" x1="225.999" y1="126.301" x2="239.639" y2="298.991" gradientUnits="userSpaceOnUse">
<stop stop-opacity="0"/>
<stop offset="0.99"/>
</linearGradient>
<linearGradient id="paint10_linear" x1="17109" y1="4653.94" x2="25551.1" y2="33855.6" gradientUnits="userSpaceOnUse">
<stop stop-opacity="0"/>
<stop offset="0.99"/>
</linearGradient>
<linearGradient id="paint11_linear" x1="475.069" y1="-136.51" x2="36.1989" y2="390.65" gradientUnits="userSpaceOnUse">
<stop offset="0.02" stop-color="white" stop-opacity="0"/>
<stop offset="0.58" stop-color="white" stop-opacity="0.39"/>
<stop offset="0.68" stop-color="white" stop-opacity="0.68"/>
<stop offset="1" stop-color="white"/>
</linearGradient>
<linearGradient id="paint12_linear" x1="-6140.79" y1="15663.5" x2="61470.2" y2="29723.4" gradientUnits="userSpaceOnUse">
<stop stop-opacity="0"/>
<stop offset="0.99"/>
</linearGradient>
<linearGradient id="paint13_linear" x1="289.63" y1="103.719" x2="318.22" y2="103.719" gradientUnits="userSpaceOnUse">
<stop stop-color="#E5C5D5"/>
<stop offset="0.42" stop-color="#EAD4D1"/>
<stop offset="1" stop-color="#F0E9CB"/>
</linearGradient>
<linearGradient id="paint14_linear" x1="2002.52" y1="1927.28" x2="2233.61" y2="1927.28" gradientUnits="userSpaceOnUse">
<stop stop-color="#E5C5D5"/>
<stop offset="0.42" stop-color="#EAD4D1"/>
<stop offset="1" stop-color="#F0E9CB"/>
</linearGradient>
<linearGradient id="paint15_linear" x1="3305.37" y1="1423.73" x2="3471.04" y2="1423.73" gradientUnits="userSpaceOnUse">
<stop stop-color="#E5C5D5"/>
<stop offset="0.42" stop-color="#EAD4D1"/>
<stop offset="1" stop-color="#F0E9CB"/>
</linearGradient>
<linearGradient id="paint16_linear" x1="16581.7" y1="37220.1" x2="14046.2" y2="36920.1" gradientUnits="userSpaceOnUse">
<stop stop-opacity="0"/>
<stop offset="0.99"/>
</linearGradient>
<clipPath id="clip0">
<rect width="431" height="388" fill="white"/>
</clipPath>
</defs>
</svg>
