<svg width="200" height="200" viewBox="0 0 200 200" fill="none" xmlns="http://www.w3.org/2000/svg">
<g clip-path="url(#clip0)">
<path d="M198.596 122.251C197.673 124.607 196.219 126.717 194.346 128.418L194.096 128.668C190.869 131.693 186.603 133.364 182.179 133.335H158.347C156.93 133.332 155.611 132.611 154.847 131.418L150.847 125.001L134.014 98.085C133.36 97.1346 133.176 95.9378 133.514 94.8351C133.77 93.7019 134.497 92.7316 135.514 92.1683L173.013 71.3355C175.042 70.2687 177.551 71.0066 178.68 73.0022L198.013 107.502C200.427 112.077 200.642 117.499 198.596 122.251Z" fill="#0A8B94"/>
<path d="M108.847 34.0865L105.347 39.0032L86.7646 64.9195C85.9841 66.0308 84.7056 66.6855 83.3478 66.6695C82.6514 66.6621 81.9662 66.4906 81.3479 66.1695L35.5155 41.1699C34.4495 40.6051 33.6874 39.5989 33.4323 38.42C33.169 37.2263 33.4432 35.9771 34.1823 35.0033L52.0152 11.2537C52.7265 10.2826 53.5066 9.36387 54.3483 8.50372C59.3686 3.20811 66.3024 0.14645 73.598 0.00387395C73.9886 -0.00979769 74.38 0.0179362 74.7648 0.0870756C83.6787 0.355821 91.9356 4.84012 97.0144 12.1701L108.847 29.3366C109.838 30.7651 109.838 32.6584 108.847 34.0865Z" fill="#0A8B94"/>
<path d="M82.0142 115.585C80.7459 116.75 78.8916 117.015 77.3475 116.251L64.3477 109.752L56.7647 125.001L53.7647 131.001C53.046 132.416 51.6015 133.314 50.0148 133.334H17.8489C13.3807 133.388 9.07019 131.682 5.84916 128.584L5.68236 128.418C3.76325 126.656 2.25508 124.494 1.26564 122.085C-0.0132429 118.824 -0.303082 115.259 0.432452 111.835C0.756666 110.362 1.26017 108.935 1.93243 107.585L15.7654 80.0021L1.26564 65.4188C0.0301157 64.2688 -0.338237 62.4606 0.34886 60.9189C0.987912 59.363 2.49999 58.3439 4.182 58.3357H58.3478C60.0299 58.3439 61.5419 59.363 62.181 60.9189L83.0138 110.918C83.6611 112.532 83.2658 114.377 82.0142 115.585Z" fill="#0A8B94"/>
<path d="M83.3478 129.168V179.167C83.3478 181.468 81.4822 183.333 79.181 183.333H58.9314C49.3679 183.356 40.4134 178.644 35.015 170.75C33.8482 169.084 32.8483 167.584 31.9319 166.251L31.5987 165.917C31.6819 165.917 30.0155 163.584 28.4319 161.251C27.6819 160.251 27.0987 159.251 26.5152 158.501C24.3484 155.334 23.182 153.751 23.682 154.418C23.2652 153.751 22.8488 153.251 22.682 152.918L22.5988 152.834C22.2656 152.334 22.157 152.168 22.1406 152.126L22.0156 152.001L21.9324 151.834C16.0993 143.418 10.6826 135.585 5.84951 128.585L5.68272 128.418C4.09954 126.251 2.68277 124.085 1.266 122.085C-0.0128853 118.824 -0.302724 115.259 0.43281 111.835L11.6826 122.585C13.3298 124.186 15.5525 125.057 17.8493 125.002H79.1814C81.4822 125.001 83.3478 126.866 83.3478 129.168Z" fill="#0A8B94"/>
<path d="M174.679 22.4195L153.847 72.4186C153.208 73.9745 151.696 74.9936 150.014 75.0018C149.761 75.0155 149.507 74.9873 149.264 74.9186L103.431 66.5855C101.683 66.2281 100.33 64.8414 100.014 63.0856C99.7648 61.2872 100.709 59.5341 102.348 58.7525L114.681 52.5858L105.347 39.0028L90.181 16.8364C86.515 11.6279 80.5503 8.52133 74.1812 8.50336H54.3484C58.469 4.14132 63.9201 1.26911 69.8481 0.336704L73.5981 0.0867085H74.7648L128.597 0.00350682C135.587 -0.0300863 142.127 3.44368 146.014 9.25334L155.597 23.7531L169.013 17.0864C170.557 16.3228 172.412 16.5876 173.68 17.7532C174.933 18.9594 175.329 20.8059 174.679 22.4195Z" fill="#0A8B94"/>
<path d="M198.596 122.251L194.679 127.918L194.346 128.418L194.096 128.668L165.096 170.751C159.664 178.649 150.683 183.357 141.097 183.334H133.347V195.833C133.334 197.559 132.28 199.105 130.68 199.75C130.197 199.914 129.69 199.998 129.18 200C127.993 200.009 126.863 199.49 126.097 198.583L92.7643 161.084C91.4421 159.649 91.337 157.473 92.5143 155.917L125.847 110.085C126.869 108.618 128.721 107.978 130.43 108.502C132.175 109.05 133.358 110.673 133.347 112.502V125.001H182.179C184.476 125.057 186.698 124.186 188.346 122.585L199.596 111.835C200.364 115.326 200.014 118.97 198.596 122.251Z" fill="#0A8B94"/>
</g>
<defs>
<clipPath id="clip0">
<rect width="200" height="200" fill="white"/>
</clipPath>
</defs>
</svg>
