<svg xmlns="http://www.w3.org/2000/svg" viewBox="0 0 400 300"><g id="_74_recycling" data-name="#74_recycling"><path d="M367.58,210.28H32.42a.5.5,0,0,1-.5-.5.5.5,0,0,1,.5-.5H367.58a.5.5,0,0,1,.5.5A.5.5,0,0,1,367.58,210.28Z" fill="#d1d3d4"/><path d="M326.21,86.84a42.33,42.33,0,0,0,1.12-5.53,8.27,8.27,0,0,0-1.16-5.41,3.38,3.38,0,0,0-1.72-1.4,1.88,1.88,0,0,0-2,.59,5.05,5.05,0,0,0-2.06-1.58c-3.33-1.6-7.93-1.76-10.43,1.4a9.19,9.19,0,0,0-1.57,7.28c.76,4.24,3,5.15,7,6a12.89,12.89,0,0,0,4.37.32,5.56,5.56,0,0,0,3.75-2.07" fill="#fff"/><path d="M318.51,89.08a16.1,16.1,0,0,1-3.29-.4c-3.78-.79-6.52-1.72-7.37-6.4a9.66,9.66,0,0,1,1.68-7.69c2.7-3.41,7.62-3.19,11.05-1.54a5.88,5.88,0,0,1,1.88,1.28A2.46,2.46,0,0,1,324.6,74a3.87,3.87,0,0,1,2,1.6,8.84,8.84,0,0,1,1.24,5.74,26.83,26.83,0,0,1-.79,4.16c-.11.48-.23,1-.34,1.44a.5.5,0,0,1-.61.39.51.51,0,0,1-.39-.61c.11-.49.22-1,.34-1.46a27.41,27.41,0,0,0,.77-4,8,8,0,0,0-1.07-5.08A3,3,0,0,0,324.3,75a1.35,1.35,0,0,0-1.46.39.53.53,0,0,1-.43.22.5.5,0,0,1-.42-.23,4.56,4.56,0,0,0-1.85-1.4c-3.08-1.48-7.46-1.71-9.8,1.25a8.7,8.7,0,0,0-1.47,6.87c.71,3.93,2.63,4.74,6.57,5.57a12.79,12.79,0,0,0,4.18.31A5,5,0,0,0,323,86.12a.51.51,0,0,1,.72-.11.52.52,0,0,1,.12.72,6.09,6.09,0,0,1-4.1,2.27A8.88,8.88,0,0,1,318.51,89.08Z" fill="#231f20"/><path d="M303.79,99.19s-4.62,18.42-5.54,18.55-20.76-8.83-20.76-8.83l-.89,13.75S300,137.33,303.79,134,303.79,99.19,303.79,99.19Z" fill="#72f4c3"/><path d="M295.31,154.9l33.88,10.4c10.73-19.18,13.47-55.66,10.44-61.28s-14.47-7.67-14.47-7.67-16.9-3.86-21.37,2.84C301.13,103.18,295.31,154.9,295.31,154.9Z" fill="#72f4c3"/><path d="M308.79,156.18h-.07a.52.52,0,0,1-.44-.59l7.17-48.33a.51.51,0,0,1,.59-.44.52.52,0,0,1,.43.59l-7.17,48.33A.52.52,0,0,1,308.79,156.18Z" fill="#231f20"/><path d="M312.93,95.18l-.54,6.7s2,4.16,6.32,3.15a8.85,8.85,0,0,0,5.91-4.78l.06-12.2s-3.19-1.74-2.18-8.69a21.38,21.38,0,0,1-11.25,1.46s-2,7.53-1.54,10.88S312.93,95.18,312.93,95.18Z" fill="#fff"/><path d="M317.39,105.71c-3.7,0-5.45-3.56-5.47-3.6a.65.65,0,0,1-.05-.27l.51-6.23a4.26,4.26,0,0,1-3.18-3.83c-.5-3.42,1.47-10.78,1.55-11.09a.51.51,0,0,1,.57-.38,21.15,21.15,0,0,0,10.95-1.41.49.49,0,0,1,.53,0,.5.5,0,0,1,.21.49c-.94,6.44,1.89,8.14,1.92,8.16a.53.53,0,0,1,.27.45l-.07,12.2a.48.48,0,0,1,0,.2,9.34,9.34,0,0,1-6.27,5.09A6.7,6.7,0,0,1,317.39,105.71Zm-4.48-3.93a5.16,5.16,0,0,0,5.68,2.75,8.4,8.4,0,0,0,5.51-4.4l.06-11.81c-.76-.59-2.83-2.7-2.28-8.14a22.5,22.5,0,0,1-10.24,1.21c-.42,1.64-1.82,7.48-1.42,10.24s2.65,3,2.74,3a.5.5,0,0,1,.36.18.52.52,0,0,1,.13.38Z" fill="#231f20"/><path d="M312.82,98.52a5.65,5.65,0,0,0,4.44-1.4c1.92-1.82,1.76-2.89,1.76-2.89a10,10,0,0,1-5.91,1.06Z" fill="#231f20"/><path d="M313.48,99.06a6.17,6.17,0,0,1-.75,0,.51.51,0,0,1-.41-.54l.29-3.22a.51.51,0,0,1,.2-.36.57.57,0,0,1,.4-.09,9.65,9.65,0,0,0,5.58-1,.5.5,0,0,1,.46,0,.48.48,0,0,1,.26.37c0,.13.14,1.38-1.91,3.32A6,6,0,0,1,313.48,99.06Zm-.12-1a5.13,5.13,0,0,0,3.56-1.31,6.82,6.82,0,0,0,1.32-1.63,10.09,10.09,0,0,1-4.69.75Z" fill="#231f20"/><path d="M287.34,122.5a26.51,26.51,0,0,0-1.27-6.29,7.11,7.11,0,0,1-.4-2.37,6.1,6.1,0,0,1,.79-2.92,7.51,7.51,0,0,0,.73-4.69,6.29,6.29,0,0,0-3.78-5.48c-.64-.28-.89-.58-.64-1.29.71.06.8-.41.78-1s0-1.41,0-2.12A1.2,1.2,0,0,0,282.24,95c-1.44,0-2.88,0-4.31,0a1.2,1.2,0,0,0-1.33,1.31c0,.73,0,1.46,0,2.19,0,.58.14,1,.79.94.23.74,0,1-.64,1.27a5.59,5.59,0,0,0-3.24,3.37,8.11,8.11,0,0,0,.23,6.86,6.55,6.55,0,0,1,.76,2.87,6.41,6.41,0,0,1-.35,2.15,28.45,28.45,0,0,0-1.34,6.51,44.53,44.53,0,0,0-.06,6.33,2.37,2.37,0,0,0,2.62,2.48h9.42a2.34,2.34,0,0,0,2.61-2.48A44.53,44.53,0,0,0,287.34,122.5Z" fill="#fff"/><path d="M280.07,131.81h-4.71a2.88,2.88,0,0,1-3.12-3,44.88,44.88,0,0,1,.06-6.39,28.87,28.87,0,0,1,1.37-6.63,6,6,0,0,0,.32-2,5.8,5.8,0,0,0-.7-2.65,8.57,8.57,0,0,1-.26-7.26,6,6,0,0,1,3.53-3.66c.3-.12.41-.19.41-.35a1.18,1.18,0,0,1-.54-.29,1.45,1.45,0,0,1-.34-1.13c0-.35,0-.71,0-1.07s0-.74,0-1.11a1.69,1.69,0,0,1,1.82-1.8q2.16,0,4.32,0a1.71,1.71,0,0,1,1.81,1.81v1c0,.37,0,.74,0,1.11a1.55,1.55,0,0,1-.36,1.22,1.11,1.11,0,0,1-.52.26c0,.13.12.21.44.35,2.34,1,3.71,3,4.08,5.87a7.88,7.88,0,0,1-.8,5,5.61,5.61,0,0,0-.72,2.69,6.51,6.51,0,0,0,.37,2.2,26.77,26.77,0,0,1,1.3,6.41h0a46.36,46.36,0,0,1,.05,6.4,2.83,2.83,0,0,1-3.11,2.95ZM277.38,99a.5.5,0,0,1,.48.35,1.36,1.36,0,0,1-.94,1.89,5.1,5.1,0,0,0-3,3.08,7.65,7.65,0,0,0,.22,6.45,7.08,7.08,0,0,1,.81,3.09,6.76,6.76,0,0,1-.38,2.32,28.06,28.06,0,0,0-1.31,6.39,43.07,43.07,0,0,0-.06,6.26,1.88,1.88,0,0,0,2.12,2h9.42a1.85,1.85,0,0,0,2.11-2,44.48,44.48,0,0,0-.05-6.27,26,26,0,0,0-1.24-6.17,7.49,7.49,0,0,1-.43-2.54,6.7,6.7,0,0,1,.85-3.15,7,7,0,0,0,.68-4.39c-.33-2.56-1.47-4.22-3.48-5.08a1.37,1.37,0,0,1-.92-1.92.5.5,0,0,1,.51-.33.45.45,0,0,0,.19,0s.06-.09.05-.47,0-.75,0-1.14v-1c0-.59-.25-.82-.82-.83-1.43,0-2.86,0-4.3,0-.59,0-.81.23-.83.83,0,.35,0,.71,0,1.07s0,.74,0,1.11.05.39.05.39.07,0,.23,0Z" fill="#231f20"/><path d="M282.77,100h-5.39a.5.5,0,0,1,0-1h5.39a.5.5,0,0,1,0,1Z" fill="#231f20"/><path d="M287.34,122.5H272.8a28.45,28.45,0,0,1,1.34-6.51,6.41,6.41,0,0,0,.35-2.15h11.18a7.11,7.11,0,0,0,.4,2.37A26.51,26.51,0,0,1,287.34,122.5Z" fill="#231f20"/><path d="M284.92,110.36h-.11a.51.51,0,0,1-.38-.6,9,9,0,0,0,0-3.92,5.45,5.45,0,0,0-2.44-2.57.51.51,0,0,1-.21-.68.5.5,0,0,1,.67-.21,6.38,6.38,0,0,1,2.94,3.16,10.17,10.17,0,0,1,0,4.44A.51.51,0,0,1,284.92,110.36Z" fill="#231f20"/><path d="M297.46,122.89l-1.88-.7a8.25,8.25,0,0,1-3-1.46,34.9,34.9,0,0,1-3-3.54,1.78,1.78,0,0,0-.67-.58.65.65,0,0,0-.8.17.91.91,0,0,0,.1.91c.5,1,1.18,2,1,3-2.71-1.17-5.4-2.32-8-3.75a2.32,2.32,0,0,0-1.72-.42.73.73,0,0,0-.3.19.88.88,0,0,0,.06.92c.79,1.56,2.53,2.28,3.92,3.28-.6-.44-1.35-.55-2-1a20.9,20.9,0,0,0-2.28-1.45,1.49,1.49,0,0,0-.53-.2c-1.33-.1.19,1.71.52,2,1.27.93,2.9,1.47,4,2.53-.55-.26-1.17-.33-1.72-.59l-2.76-1.39c-.25-.12-.58-.23-.77,0s-.08.5.06.73c1,1.72,2.94,2.67,4.75,3.54l-4-1.22a.8.8,0,0,0-.66,0c-1.23.86,1.46,2.21,2.08,2.49a19.79,19.79,0,0,0,6,1.62c2.11.22,4.08,0,6.12.74.31.11,3.35,1.32,3.28,1.53Z" fill="#fff"/><path d="M295.28,130.71h-.07a.57.57,0,0,1-.36-.24,29.8,29.8,0,0,0-3-1.33,13.33,13.33,0,0,0-4-.58c-.65,0-1.32-.05-2-.12a20,20,0,0,1-6.15-1.67c-.78-.35-2.6-1.29-2.7-2.35a1.11,1.11,0,0,1,.53-1,1.24,1.24,0,0,1,1.11-.08l.06,0a6.7,6.7,0,0,1-1.36-1.59,1.1,1.1,0,0,1,0-1.35.93.93,0,0,1,.78-.26c-.43-.51-.93-1.28-.72-1.84.08-.22.32-.59,1-.53a1.14,1.14,0,0,1,.33.07,1.25,1.25,0,0,1,0-1.45,1.18,1.18,0,0,1,.53-.35,2.78,2.78,0,0,1,2.13.46c2.33,1.29,4.8,2.37,7.21,3.42a5.81,5.81,0,0,0-.67-1.54l-.24-.44a1.46,1.46,0,0,1-.08-1.43,1.18,1.18,0,0,1,1.45-.37,2.42,2.42,0,0,1,.86.73c.32.38.63.79.95,1.21a16.86,16.86,0,0,0,2,2.28,5.66,5.66,0,0,0,2.17,1.11l.7.24,1.88.71a.51.51,0,0,1,.32.63s-2.09,7-2.18,7.29h0A.53.53,0,0,1,295.28,130.71Zm-.49-.66a.51.51,0,0,0,0,.13.87.87,0,0,1,0-.13Zm-16.7-5.8h0a.17.17,0,0,0-.06.08c0,.22.81.92,2.09,1.5a19.31,19.31,0,0,0,5.84,1.58c.65.07,1.29.09,1.92.12a13.7,13.7,0,0,1,4.31.64,20.31,20.31,0,0,1,2.83,1.19c.25-.84.76-2.57,1.83-6.16l-1.43-.53-.67-.24a6.46,6.46,0,0,1-2.54-1.32,17.83,17.83,0,0,1-2.08-2.41c-.31-.41-.61-.81-.92-1.18a1.62,1.62,0,0,0-.48-.44.29.29,0,0,0-.18,0,1.34,1.34,0,0,0,.14.38l.23.43a4.34,4.34,0,0,1,.78,2.92.5.5,0,0,1-.27.35.52.52,0,0,1-.44,0l-.4-.17c-2.53-1.1-5.14-2.24-7.62-3.6a1.87,1.87,0,0,0-1.31-.38c-.06,0-.06.15.06.37a6.49,6.49,0,0,0,2.61,2.34c.39.25.78.49,1.15.76h0a.52.52,0,0,1-.6.84h0a4.17,4.17,0,0,0-.87-.44,5.14,5.14,0,0,1-1.1-.55,21.15,21.15,0,0,0-2.22-1.42l-.23-.11a4.14,4.14,0,0,0,.78,1,13,13,0,0,0,1.72,1,11.07,11.07,0,0,1,2.37,1.54.51.51,0,0,1-.57.84A4.23,4.23,0,0,0,282,123a5.34,5.34,0,0,1-1-.34l-1.87-.94-.89-.45h0c1,1.64,2.95,2.57,4.52,3.32a.52.52,0,0,1-.37,1l-4.05-1.21Z" fill="#231f20"/><path d="M316,85s-2.06,3.77-1.44,4.34,2.17,0,2.17,0" fill="#fff"/><path d="M315.38,90.11a1.77,1.77,0,0,1-1.2-.39c-.61-.55-.16-2.22,1.33-5a.5.5,0,1,1,.88.48c-.9,1.65-1.6,3.43-1.49,3.8a2.7,2.7,0,0,0,1.62-.16.51.51,0,0,1,.64.3.51.51,0,0,1-.31.64A4.49,4.49,0,0,1,315.38,90.11Z" fill="#231f20"/><path d="M316,92.62a6.1,6.1,0,0,1-3.66-1.46.49.49,0,0,1,0-.7.5.5,0,0,1,.71,0,5,5,0,0,0,3.2,1.2,3.71,3.71,0,0,0,2.56-1.41.52.52,0,0,1,.71-.06.51.51,0,0,1,.05.71,4.66,4.66,0,0,1-3.26,1.76Z" fill="#231f20"/><ellipse cx="318.6" cy="84.37" rx="0.42" ry="0.97" transform="translate(-4.87 21.19) rotate(-3.78)" fill="#231f20"/><ellipse cx="312.82" cy="84.37" rx="0.42" ry="0.97" transform="translate(-4.88 20.81) rotate(-3.78)" fill="#231f20"/><path d="M321.9,86.26a5.88,5.88,0,0,1,1.49-1.69,2.07,2.07,0,0,1,1.11-.49,1.88,1.88,0,0,1,.95.28,3.52,3.52,0,0,1,1.67,2.34,2.72,2.72,0,0,1-.05,1.36,3.06,3.06,0,0,1-1.35,1.62,9.31,9.31,0,0,1-2,.85" fill="#fff"/><path d="M323.75,91.05a.52.52,0,0,1-.49-.35.53.53,0,0,1,.32-.66,8.37,8.37,0,0,0,1.87-.8,2.6,2.6,0,0,0,1.13-1.34,2.36,2.36,0,0,0,0-1.1,3,3,0,0,0-1.43-2,1.23,1.23,0,0,0-.67-.21,1.49,1.49,0,0,0-.81.38,5.26,5.26,0,0,0-1.36,1.54.52.52,0,1,1-.89-.52,6.47,6.47,0,0,1,1.62-1.84,2.54,2.54,0,0,1,1.4-.59,2.3,2.3,0,0,1,1.23.35,4.06,4.06,0,0,1,1.92,2.68,3.22,3.22,0,0,1-.07,1.61A3.65,3.65,0,0,1,326,90.12a9.92,9.92,0,0,1-2.08.9Z" fill="#231f20"/><path d="M294.13,119.74l-3.73,11.8s18.66,12.67,30.81,14.83,18.37-21.35,19.86-29.84-1.61-14.21-4.1-13.6-17.66,27.64-17.66,27.64Z" fill="#72f4c3"/><path d="M323.14,147.86c-7.52,0-29.17-13.56-30.14-14.17a.51.51,0,0,1,.55-.87c8.49,5.34,25.77,15.11,30.41,13.92,5.77-1.49,14.12-21.33,14.21-21.53a.52.52,0,0,1,.95.4c-.35.84-8.64,20.52-14.9,22.13A4.46,4.46,0,0,1,323.14,147.86Z" fill="#231f20"/><path d="M319.31,131.09a.79.79,0,0,1-.2,0l-24-10.15a.52.52,0,0,1-.27-.68.5.5,0,0,1,.67-.27l23.59,10,12.69-21.28a.53.53,0,0,1,.71-.18.52.52,0,0,1,.17.71l-12.91,21.66A.52.52,0,0,1,319.31,131.09Z" fill="#231f20"/><path d="M302.71,122.3h-.07a.52.52,0,0,1-.44-.58c.4-3.07,3.34-16.72,3.47-17.3a.51.51,0,0,1,.61-.4.5.5,0,0,1,.39.61c0,.15-3.05,14.19-3.45,17.22A.52.52,0,0,1,302.71,122.3Z" fill="#231f20"/><path d="M317.92,87.77a3.23,3.23,0,0,1-1.39-.28c-.24-.12-.48-.27-.71-.41a4.48,4.48,0,0,0-.47-.28.73.73,0,0,0-.23-.1.41.41,0,0,0-.2,0,5.27,5.27,0,0,0-.87.35,4,4,0,0,1-4.27-.15,4.48,4.48,0,0,1-2.18-4.15.51.51,0,0,1,.51-.47H323a.52.52,0,0,1,.44.24.53.53,0,0,1,0,.49,11.81,11.81,0,0,1-2.7,3.86A5.18,5.18,0,0,1,317.92,87.77Zm-2.83-2.1h.19a1.56,1.56,0,0,1,.56.21l.53.31a6.34,6.34,0,0,0,.62.37,3.9,3.9,0,0,0,3.2-.49,9,9,0,0,0,2-2.74H308.63A3.35,3.35,0,0,0,310.29,86a3.94,3.94,0,0,0,2,.54,4,4,0,0,0,1.27-.43,7.73,7.73,0,0,1,1-.4A1.86,1.86,0,0,1,315.09,85.67ZM323,83.34h0Z" fill="#231f20"/><path d="M274.11,102.44a9.44,9.44,0,0,1,1.79-1.67c1.13-.73,2.44-.79,1.77.83a11.92,11.92,0,0,1-2.41,3.19,4.3,4.3,0,0,1,2.56-1.44c.32,0,.74,0,.82.31a.71.71,0,0,1-.13.52,11.29,11.29,0,0,1-3.06,3.43,3.39,3.39,0,0,1,1.38-.83.61.61,0,0,1,.4,0c.37.13.23.69,0,1a6.38,6.38,0,0,1-1.6,1.55,2.85,2.85,0,0,0-1,.88c-.45.8.11,1.84-.17,2.72a.32.32,0,0,1-.14.2c-.1.07-.24,0-.35,0-2.93-1.28-3.63-5.82-3.42-8.69.18-2.46,2.33-4.33,4.46-5.33a1.8,1.8,0,0,1,.87-.21.67.67,0,0,1,.63.55,1,1,0,0,1-.33.67Z" fill="#fff"/><path d="M274.17,113.67a1,1,0,0,1-.44-.11c-3.35-1.46-3.92-6.47-3.73-9.2.17-2.28,1.95-4.44,4.76-5.75a2.34,2.34,0,0,1,1.14-.27,1.17,1.17,0,0,1,1.09,1,1.1,1.1,0,0,1-.05.41A1.27,1.27,0,0,1,278,100c.3.25.57.76.15,1.79a6.08,6.08,0,0,1-.58,1.07l.16,0a1.15,1.15,0,0,1,1.41.68,1.2,1.2,0,0,1-.18.92,12.27,12.27,0,0,1-1.38,1.92.8.8,0,0,1,.35.47,1.55,1.55,0,0,1-.28,1.24,6.55,6.55,0,0,1-1.73,1.67l-.18.12a2.08,2.08,0,0,0-.69.6,2,2,0,0,0-.08,1.14,3.5,3.5,0,0,1-.05,1.47.89.89,0,0,1-.36.49A.72.72,0,0,1,274.17,113.67Zm1.59-14.3a1.54,1.54,0,0,0-.56.17c-.92.43-4,2.07-4.17,4.9-.16,2.24.26,6.76,3,8.1a3.84,3.84,0,0,0,0-.82,2.28,2.28,0,0,1,1.23-2.72l.17-.11a5.84,5.84,0,0,0,1.46-1.43.65.65,0,0,0,.09-.16,2.5,2.5,0,0,0-.55.26c-.19.16-.39.31-.59.46a.51.51,0,0,1-.7-.08.52.52,0,0,1,0-.7,4,4,0,0,1,.65-.52,10.53,10.53,0,0,0,2.32-2.79l0-.08h-.2a3.83,3.83,0,0,0-2.25,1.26h0a.51.51,0,1,1-.78-.67h0c.21-.25.43-.49.65-.73a7.79,7.79,0,0,0,1.67-2.3c.19-.47.13-.62.13-.62a2,2,0,0,0-1.15.41,9.39,9.39,0,0,0-1.69,1.59.53.53,0,0,1-.73,0,.52.52,0,0,1,0-.73l2-2.36c.17-.19.2-.27.2-.3a.34.34,0,0,0-.16-.07Z" fill="#231f20"/><rect x="60.29" y="168.3" width="55.41" height="52.63" fill="#fff"/><path d="M115.7,221.43H60.29a.5.5,0,0,1-.5-.5V168.3a.5.5,0,0,1,.5-.5H115.7a.5.5,0,0,1,.5.5v52.63A.5.5,0,0,1,115.7,221.43Zm-54.91-1H115.2V168.8H60.79Z" fill="#231f20"/><path d="M50.63,155.9v3.42a9,9,0,0,0,9,9H178.81V146.9H59.62A9,9,0,0,0,50.63,155.9Z" fill="#fff"/><path d="M178.81,168.81H59.62a9.5,9.5,0,0,1-9.49-9.49V155.9a9.51,9.51,0,0,1,9.49-9.5H178.81a.51.51,0,0,1,.5.5v21.41A.51.51,0,0,1,178.81,168.81ZM59.62,147.4a8.5,8.5,0,0,0-8.49,8.5v3.42a8.5,8.5,0,0,0,8.49,8.49H178.31V147.4Z" fill="#231f20"/><rect x="185.14" y="74.8" width="74.09" height="146.13" fill="#fff"/><path d="M259.23,221.43H185.14a.5.5,0,0,1-.5-.5V74.8a.5.5,0,0,1,.5-.5h74.09a.51.51,0,0,1,.5.5V220.93A.51.51,0,0,1,259.23,221.43Zm-73.59-1h73.09V75.3H185.64Z" fill="#231f20"/><rect x="190.39" y="81.93" width="63.59" height="86.37" fill="#fff"/><path d="M254,168.8H190.39a.5.5,0,0,1-.5-.5V81.93a.5.5,0,0,1,.5-.5H254a.51.51,0,0,1,.5.5V168.3A.5.5,0,0,1,254,168.8Zm-63.09-1h62.59V82.43H190.89Z" fill="#231f20"/><rect x="111.05" y="74.8" width="74.09" height="146.13" fill="#fff"/><path d="M185.14,221.43H111.05a.51.51,0,0,1-.5-.5V74.8a.51.51,0,0,1,.5-.5h74.09a.5.5,0,0,1,.5.5V220.93A.5.5,0,0,1,185.14,221.43Zm-73.59-1h73.09V75.3H111.55Z" fill="#231f20"/><path d="M359.85,155.9v3.42a9,9,0,0,1-9,9h-161V146.9h161A9,9,0,0,1,359.85,155.9Z" fill="#fff"/><path d="M350.86,168.81h-161a.51.51,0,0,1-.5-.5V146.9a.51.51,0,0,1,.5-.5h161a9.5,9.5,0,0,1,9.49,9.5v3.42A9.5,9.5,0,0,1,350.86,168.81Zm-160.48-1H350.86a8.5,8.5,0,0,0,8.49-8.49V155.9a8.5,8.5,0,0,0-8.49-8.5H190.38Z" fill="#231f20"/><path d="M318.06,155.9v3.42a9,9,0,0,1-9,9H189.88V146.9H309.07A9,9,0,0,1,318.06,155.9Z" fill="#fff"/><path d="M309.07,168.81H189.88a.51.51,0,0,1-.5-.5V146.9a.51.51,0,0,1,.5-.5H309.07a9.51,9.51,0,0,1,9.49,9.5v3.42A9.5,9.5,0,0,1,309.07,168.81Zm-118.69-1H309.07a8.5,8.5,0,0,0,8.49-8.49V155.9a8.5,8.5,0,0,0-8.49-8.5H190.38Z" fill="#231f20"/><path d="M306,162.86a5.26,5.26,0,1,1,5.26-5.25A5.26,5.26,0,0,1,306,162.86Zm0-9.51a4.26,4.26,0,1,0,4.26,4.26A4.26,4.26,0,0,0,306,153.35Z" fill="#d1d3d4"/><path d="M283,162.86a5.26,5.26,0,1,1,5.25-5.25A5.26,5.26,0,0,1,283,162.86Zm0-9.51a4.26,4.26,0,1,0,4.25,4.26A4.26,4.26,0,0,0,283,153.35Z" fill="#d1d3d4"/><path d="M260,162.86a5.26,5.26,0,1,1,5.25-5.25A5.26,5.26,0,0,1,260,162.86Zm0-9.51a4.26,4.26,0,1,0,4.25,4.26A4.26,4.26,0,0,0,260,153.35Z" fill="#d1d3d4"/><path d="M237,162.86a5.26,5.26,0,1,1,5.25-5.25A5.26,5.26,0,0,1,237,162.86Zm0-9.51a4.26,4.26,0,1,0,4.25,4.26A4.25,4.25,0,0,0,237,153.35Z" fill="#d1d3d4"/><path d="M214.06,162.86a5.26,5.26,0,1,1,5.26-5.25A5.26,5.26,0,0,1,214.06,162.86Zm0-9.51a4.26,4.26,0,1,0,4.26,4.26A4.25,4.25,0,0,0,214.06,153.35Z" fill="#d1d3d4"/><path d="M94,162.86a5.26,5.26,0,1,1,5.26-5.25A5.26,5.26,0,0,1,94,162.86Zm0-9.51a4.26,4.26,0,1,0,4.26,4.26A4.26,4.26,0,0,0,94,153.35Z" fill="#d1d3d4"/><path d="M71,162.86a5.26,5.26,0,1,1,5.26-5.25A5.26,5.26,0,0,1,71,162.86Zm0-9.51a4.26,4.26,0,1,0,4.26,4.26A4.26,4.26,0,0,0,71,153.35Z" fill="#d1d3d4"/><rect x="189.88" y="168.3" width="118.81" height="52.63" fill="#fff"/><path d="M308.69,221.43H189.88a.51.51,0,0,1-.5-.5V168.3a.51.51,0,0,1,.5-.5H308.69a.5.5,0,0,1,.5.5v52.63A.5.5,0,0,1,308.69,221.43Zm-118.31-1H308.19V168.8H190.38Z" fill="#231f20"/><rect x="308.69" y="168.3" width="43.44" height="52.63" fill="#fff"/><path d="M352.13,221.43H308.69a.51.51,0,0,1-.5-.5V168.3a.51.51,0,0,1,.5-.5h43.44a.5.5,0,0,1,.5.5v52.63A.5.5,0,0,1,352.13,221.43Zm-42.94-1h42.44V168.8H309.19Z" fill="#231f20"/><path d="M170.64,177.57H127.73a.5.5,0,0,1-.5-.5V109.42a.5.5,0,0,1,.5-.5h42.91a.5.5,0,0,1,.5.5v67.65A.5.5,0,0,1,170.64,177.57Zm-42.41-1h41.91V109.92H128.23Z" fill="#d1d3d4"/><path d="M145,128.94c1.9.38,2.94,1.88,4.12,3.14L144.3,140l-6.07-3.57.2-.34c1.24-2,2.49-3.9,3.7-5.87a2.5,2.5,0,0,1,1.76-1.21,1.27,1.27,0,0,0,.18-.06Z" fill="#72f4c3"/><path d="M154.2,156.89l.14,2.91a3.1,3.1,0,0,1-.19-.26l-3.84-6.12a.35.35,0,0,1,0-.43l3.54-6.07.17-.23c0,.74.06,1.4.08,2.06,0,.27,0,.55,0,.82a.33.33,0,0,0,.19.22,22.17,22.17,0,0,0,7.4-.33,16.75,16.75,0,0,0,1.59-.55l-.1.25-3.35,6.39a2,2,0,0,1-1.74,1.11c-1.11.08-2.21.13-3.32.19Z" fill="#72f4c3"/><path d="M144.28,146.35l-2.62-1.63a18.62,18.62,0,0,0-4.49,8.05l-.19-.31c-1.11-2.09-2.23-4.18-3.33-6.27a1.88,1.88,0,0,1-.05-1.85c.6-1.1,1.27-2.17,1.91-3.25l.22-.34-2.41-1.48v-.06h.34l7.06.27c.17,0,.32,0,.41.22,1,2.16,2,4.31,3.06,6.46Z" fill="#72f4c3"/><path d="M149.43,138.47l2.7-1.55a19.65,19.65,0,0,0-5-7.77h.37c2.37,0,4.74,0,7.1,0a2,2,0,0,1,1.83,1.07c.6,1,1.19,2,1.78,3l.2.32,2.53-1.48c-.09.16-.12.24-.17.32l-3.63,6.17a.4.4,0,0,1-.42.24l-7.09-.34Z" fill="#72f4c3"/><path d="M148.05,150.15l-.29,7-1.57-.09-5.94-.42a2.15,2.15,0,0,1-1.36-.6,3.32,3.32,0,0,1-1-3.26c.24-1.07.58-2.13.87-3.14Z" fill="#72f4c3"/><path d="M155,141.42l6-3.73c.07.11.14.2.19.3,1.16,2,2.31,3.95,3.47,5.93a2.87,2.87,0,0,1-.56,3.65,6.16,6.16,0,0,1-2.52,1.28c-.51.15-1,.28-1.56.41a.34.34,0,0,1-.29-.11c-1.54-2.5-3.06-5-4.59-7.51C155.07,141.58,155,141.51,155,141.42Z" fill="#72f4c3"/><path d="M154,117.12h-19a.5.5,0,0,1-.5-.5.5.5,0,0,1,.5-.5h19a.5.5,0,0,1,.5.5A.5.5,0,0,1,154,117.12Z" fill="#d1d3d4"/><path d="M165.05,117.12h-5.62a.5.5,0,0,1-.5-.5.5.5,0,0,1,.5-.5h5.62a.5.5,0,0,1,.5.5A.5.5,0,0,1,165.05,117.12Z" fill="#d1d3d4"/><path d="M139.11,172.54a2.44,2.44,0,1,1,2.43-2.44A2.44,2.44,0,0,1,139.11,172.54Zm0-3.87a1.44,1.44,0,1,0,1.43,1.43A1.43,1.43,0,0,0,139.11,168.67Z" fill="#d1d3d4"/><path d="M149.65,172.54a2.44,2.44,0,1,1,2.43-2.44A2.44,2.44,0,0,1,149.65,172.54Zm0-3.87a1.44,1.44,0,1,0,1.43,1.43A1.43,1.43,0,0,0,149.65,168.67Z" fill="#d1d3d4"/><path d="M160.2,172.54a2.44,2.44,0,1,1,2.43-2.44A2.45,2.45,0,0,1,160.2,172.54Zm0-3.87a1.44,1.44,0,1,0,1.43,1.43A1.44,1.44,0,0,0,160.2,168.67Z" fill="#d1d3d4"/><polygon points="253.97 81.93 222.18 146.91 189.88 146.91 189.88 81.93 253.97 81.93" fill="#231f20"/><path d="M222.18,147.35h-32.3a.45.45,0,0,1-.44-.45v-65a.44.44,0,0,1,.44-.44H254a.44.44,0,0,1,.39.64l-31.79,65A.46.46,0,0,1,222.18,147.35Zm-31.86-.89h31.59l31.36-64.08h-63Z" fill="#231f20"/><path d="M106.09,141.82a14.27,14.27,0,0,0-1-12.65,30.91,30.91,0,0,0-6.16-7.2,15.58,15.58,0,0,1-3.67-4.14c-1.09-2.13-.15-2.92,1.71-4.13a7.51,7.51,0,0,0,3.07-2.94c.57-1.32-.07-3.24-1.5-3.37a7.36,7.36,0,0,0-2.14.48,3.15,3.15,0,0,1-3.22-1.37c-.55-.86-.69-2-1.51-2.62-1-.74-2.45-.21-3.55.4s-2.39,1.29-3.54.8a4.9,4.9,0,0,1-1.49-1.27,9.43,9.43,0,0,0-3-2.11,2.42,2.42,0,0,0-1.64-.23c-1.22.39-1.27,2.09-1,3.34a26.42,26.42,0,0,0,1.94,5.52,3,3,0,0,1,.41,1.43,2.7,2.7,0,0,1-.66,1.33c-4.74,6.25-8.5,12.83-9.88,20.69a10.35,10.35,0,0,0,1.45,7.81c2.66,3.68,7.27,4.1,11.38,4.49a112.81,112.81,0,0,0,16.44.44C102.14,146.34,104.62,145.33,106.09,141.82Z" fill="#231f20"/><path d="M93.36,147.08c-3.69,0-7.49-.18-11.36-.56h-.11c-4.14-.4-8.83-.85-11.58-4.66a10.77,10.77,0,0,1-1.54-8.15c1.23-7,4.3-13.41,10-20.87a1.64,1.64,0,0,0,.22-2.27,26.77,26.77,0,0,1-2-5.65c-.34-1.49-.21-3.39,1.28-3.86a2.75,2.75,0,0,1,1.94.25,9.9,9.9,0,0,1,3.19,2.2l.24.25a3.39,3.39,0,0,0,1.11.92c1,.42,2.19-.24,3.16-.78,1.71-.94,3.06-1.07,4-.37a3.86,3.86,0,0,1,1.17,1.79,5.58,5.58,0,0,0,.45,1,2.72,2.72,0,0,0,2.76,1.18,6.36,6.36,0,0,0,.71-.21,3.7,3.7,0,0,1,1.56-.28,2.15,2.15,0,0,1,1.67,1.12,3.26,3.26,0,0,1,.2,2.87A7.71,7.71,0,0,1,97.29,114l-.1.06c-1.88,1.23-2.45,1.82-1.56,3.57a13.88,13.88,0,0,0,3.24,3.71l.34.3a31.26,31.26,0,0,1,6.24,7.31,14.7,14.7,0,0,1,1,13c-1.72,4.1-4.86,4.81-8,5C96.82,147,95.1,147.08,93.36,147.08ZM78.84,101.84a1.26,1.26,0,0,0-.33,0c-1,.31-.89,1.92-.68,2.82a26.11,26.11,0,0,0,1.9,5.43,2.46,2.46,0,0,1-.29,3.22c-5.58,7.35-8.6,13.67-9.8,20.5A9.91,9.91,0,0,0,71,141.33c2.52,3.49,7,3.92,11,4.3h.11a112.13,112.13,0,0,0,16.37.44c3.29-.17,5.78-1,7.22-4.43h0a13.8,13.8,0,0,0-1-12.26,30.29,30.29,0,0,0-6.08-7.09l-.34-.31a14.61,14.61,0,0,1-3.43-4c-1.23-2.43-.06-3.44,1.86-4.7l.11-.07a7,7,0,0,0,2.81-2.67,2.4,2.4,0,0,0-.15-2.07,1.28,1.28,0,0,0-1-.69,2.8,2.8,0,0,0-1.2.24,5.87,5.87,0,0,1-.82.23,3.59,3.59,0,0,1-3.67-1.56,7.28,7.28,0,0,1-.53-1.09,3.15,3.15,0,0,0-.87-1.42c-.66-.48-1.69-.33-3.07.43-1.08.6-2.56,1.41-3.94.83A4.38,4.38,0,0,1,83,104.35l-.22-.24a9.07,9.07,0,0,0-2.9-2A2.71,2.71,0,0,0,78.84,101.84Z" fill="#231f20"/><path d="M88.49,116.08a19.34,19.34,0,0,1-2.51-.16,10.32,10.32,0,0,1-6-2.78.49.49,0,0,1,0-.7.5.5,0,0,1,.71,0,9.36,9.36,0,0,0,5.43,2.49,28.45,28.45,0,0,0,6.27-.08.5.5,0,0,1,.55.45.5.5,0,0,1-.46.54C91.23,116,89.87,116.08,88.49,116.08Z" fill="#fff"/><path d="M85.49,121.2a.54.54,0,0,1-.21,0,.5.5,0,0,1-.24-.67c.63-1.33,1.23-2.7,1.78-4a.51.51,0,0,1,.38-.3.45.45,0,0,1,.45.15L91,119.87a.51.51,0,0,1,0,.71.49.49,0,0,1-.7,0l-2.83-3c-.48,1.13-1,2.26-1.5,3.38A.52.52,0,0,1,85.49,121.2Z" fill="#fff"/><path d="M89.1,220.66a14.3,14.3,0,0,1,1-12.65,31,31,0,0,1,6.17-7.2,15.6,15.6,0,0,0,3.67-4.14c1.09-2.13.14-2.92-1.71-4.13a7.49,7.49,0,0,1-3.07-2.93c-.58-1.32.07-3.25,1.5-3.38a7.45,7.45,0,0,1,2.14.49,3.19,3.19,0,0,0,3.22-1.38c.54-.86.68-2,1.51-2.62,1-.74,2.44-.21,3.54.4s2.39,1.3,3.55.8a5,5,0,0,0,1.49-1.27,9.64,9.64,0,0,1,3-2.11,2.42,2.42,0,0,1,1.64-.23c1.22.39,1.26,2.09,1,3.34a26.51,26.51,0,0,1-1.94,5.53,2.06,2.06,0,0,0,.25,2.76c4.74,6.24,8.5,12.82,9.88,20.68a10.31,10.31,0,0,1-1.46,7.81c-2.66,3.68-7.27,4.1-11.38,4.5a112.77,112.77,0,0,1-16.44.43C93.05,225.18,90.57,224.17,89.1,220.66Z" fill="#231f20"/><path d="M101.82,225.93c-1.74,0-3.45,0-5.14-.13-3.13-.15-6.27-.86-8-5h0a14.66,14.66,0,0,1,1-13,31.27,31.27,0,0,1,6.25-7.3l.34-.31a14.06,14.06,0,0,0,3.24-3.71c.89-1.75.31-2.33-1.56-3.56l-.1-.07a7.65,7.65,0,0,1-3.14-3.06,3.23,3.23,0,0,1,.2-2.87,2.13,2.13,0,0,1,1.67-1.12,3.86,3.86,0,0,1,1.56.28,5.79,5.79,0,0,0,.71.21,2.71,2.71,0,0,0,2.75-1.17,5.7,5.7,0,0,0,.46-1,3.91,3.91,0,0,1,1.17-1.79c1-.69,2.31-.57,4,.37,1,.54,2.18,1.21,3.16.79a3.53,3.53,0,0,0,1.11-.93l.23-.24a9.78,9.78,0,0,1,3.19-2.21,2.84,2.84,0,0,1,2-.25c1.49.48,1.62,2.38,1.28,3.86a27.16,27.16,0,0,1-2,5.62,2.33,2.33,0,0,0-.37,1.2,2.24,2.24,0,0,0,.57,1.1c5.67,7.46,8.74,13.9,10,20.88a10.79,10.79,0,0,1-1.53,8.14c-2.76,3.81-7.45,4.26-11.59,4.66h-.11C109.32,225.74,105.51,225.93,101.82,225.93Zm-5-39.27h-.12a1.32,1.32,0,0,0-1,.69,2.36,2.36,0,0,0-.14,2.07,6.91,6.91,0,0,0,2.81,2.67l.1.07c1.93,1.26,3.1,2.27,1.86,4.7a14.44,14.44,0,0,1-3.43,4l-.33.31a30.23,30.23,0,0,0-6.08,7.09,13.81,13.81,0,0,0-1,12.26h0c1.45,3.45,3.94,4.27,7.23,4.43a113.51,113.51,0,0,0,16.37-.43h.11c4-.39,8.43-.82,11-4.31a9.91,9.91,0,0,0,1.37-7.47c-1.19-6.83-4.21-13.15-9.79-20.5a3,3,0,0,1-.75-1.56,3.23,3.23,0,0,1,.43-1.62,25.26,25.26,0,0,0,1.93-5.47c.21-.9.29-2.5-.69-2.82a2.08,2.08,0,0,0-1.33.22,8.94,8.94,0,0,0-2.9,2l-.22.23a4.29,4.29,0,0,1-1.42,1.14c-1.37.59-2.85-.23-3.93-.83-1.38-.76-2.42-.9-3.07-.42a3.16,3.16,0,0,0-.88,1.41,7.22,7.22,0,0,1-.52,1.09,3.59,3.59,0,0,1-3.68,1.57,8.28,8.28,0,0,1-.81-.24A3.43,3.43,0,0,0,96.83,186.66Z" fill="#231f20"/><path d="M106.7,194.92c-1.39,0-2.74-.12-4-.23a.51.51,0,0,1-.45-.55.49.49,0,0,1,.54-.45,28.54,28.54,0,0,0,6.28.08,9.38,9.38,0,0,0,5.42-2.48.5.5,0,0,1,.72.7,10.36,10.36,0,0,1-6,2.77A17.72,17.72,0,0,1,106.7,194.92Z" fill="#fff"/><path d="M109.69,200a.51.51,0,0,1-.45-.29c-.52-1.1-1-2.24-1.5-3.38l-2.83,3a.49.49,0,0,1-.7,0,.48.48,0,0,1,0-.7l3.36-3.6A.5.5,0,0,1,108,195a.48.48,0,0,1,.37.3c.57,1.37,1.17,2.73,1.79,4.06a.5.5,0,0,1-.24.66A.54.54,0,0,1,109.69,200Z" fill="#fff"/><path d="M74.46,227.31A20.43,20.43,0,0,0,82,225.38c5.37-2.84,7.87-9.64,6.83-15.63s-5-11.13-9.85-14.85a53.74,53.74,0,0,0-4.91-3.6l.67-9.35a2.43,2.43,0,0,0-.09-1.11c-.31-.75-1.39-.58-2-.57a7,7,0,0,0-4.26,1.55,3.45,3.45,0,0,1-1.14.76c-1.47.45-2.68-1.53-4.22-1.5-1.16,0-2,1.15-2.53,2.16s-1.34,2.16-2.5,2.22A4.65,4.65,0,0,1,56.2,185a7.36,7.36,0,0,0-2.75-.42,10.27,10.27,0,0,0,1.65,3.51l3.29,5.2c-3.37,4.47-7.33,8.07-9.68,13.25-1.83,4-3.5,9.64-.94,13.74C52.44,227.78,66.9,228.09,74.46,227.31Z" fill="#231f20"/><path d="M68.54,228.06c-8.53,0-17.64-1.92-21.14-7.53-2.12-3.39-1.82-8.15.9-14.15A41,41,0,0,1,54.8,197c1-1.2,2.07-2.44,3.06-3.73l-3.14-4.94A11.07,11.07,0,0,1,53,184.68a.45.45,0,0,1,.09-.35.47.47,0,0,1,.33-.17,7.86,7.86,0,0,1,2.92.44l.33.12a3,3,0,0,0,1.22.3c.91-.05,1.57-1,2.15-2s1.52-2.36,2.91-2.38a4.08,4.08,0,0,1,2.22.87c.69.45,1.28.83,1.87.65a2.4,2.4,0,0,0,.81-.53l.19-.15a7.32,7.32,0,0,1,4.53-1.65h.28c.71,0,1.79-.08,2.18.85a2.88,2.88,0,0,1,.12,1.31l-.66,9.08a44.13,44.13,0,0,1,3.76,2.73l1,.76c5.5,4.25,9.06,9.62,10,15.12,1.13,6.56-1.83,13.34-7.06,16.1a21.1,21.1,0,0,1-7.69,2C72.61,227.94,70.59,228.06,68.54,228.06Zm5.92-.75h0ZM54,185a11.66,11.66,0,0,0,1.46,2.83l3.3,5.2a.44.44,0,0,1,0,.5c-1.06,1.41-2.18,2.73-3.27,4-2.46,2.9-4.78,5.64-6.37,9.15-1.78,3.93-3.4,9.43-1,13.33,4.12,6.6,16.73,7.79,26.26,6.8h0A20,20,0,0,0,81.77,225c4.91-2.59,7.68-9,6.61-15.17-.92-5.28-4.36-10.45-9.69-14.57l-1-.76a40.28,40.28,0,0,0-3.9-2.82.42.42,0,0,1-.21-.41l.67-9.34a2.15,2.15,0,0,0-.06-.92c-.14-.33-.68-.33-1.32-.3h-.31a6.51,6.51,0,0,0-4,1.45l-.17.15a3.16,3.16,0,0,1-1.12.69,3.08,3.08,0,0,1-2.61-.75,3.18,3.18,0,0,0-1.73-.73c-.94,0-1.65,1-2.16,1.94-.7,1.23-1.53,2.37-2.86,2.44a3.7,3.7,0,0,1-1.59-.35l-.3-.12A7.16,7.16,0,0,0,54,185Z" fill="#231f20"/><path d="M62.94,195.44a16.66,16.66,0,0,1-4.5-.6.5.5,0,1,1,.27-1,16.85,16.85,0,0,0,15.36-3.59.5.5,0,1,1,.67.75A17.93,17.93,0,0,1,62.94,195.44Z" fill="#fff"/><path d="M64.33,201.2h-.12a.5.5,0,0,1-.36-.61l1.6-6.26a.51.51,0,0,1,.81-.26,44.45,44.45,0,0,1,5.15,5.3.49.49,0,0,1,.4-.09.52.52,0,0,1,.36.63.91.91,0,0,1-.67.7.49.49,0,0,1-.51-.17,42.43,42.43,0,0,0-4.78-5.07l-1.39,5.46A.5.5,0,0,1,64.33,201.2Z" fill="#fff"/><path d="M233.6,137.43a26.75,26.75,0,0,0-1.28-6.33,6.93,6.93,0,0,1-.4-2.39,6.18,6.18,0,0,1,.79-2.94,7.54,7.54,0,0,0,.74-4.72c-.32-2.49-1.4-4.49-3.81-5.51-.64-.28-.9-.59-.64-1.3.71.06.8-.42.79-1s0-1.42,0-2.13a1.21,1.21,0,0,0-1.32-1.33c-1.44,0-2.89,0-4.34,0a1.2,1.2,0,0,0-1.33,1.32c0,.73,0,1.47,0,2.2,0,.58.14,1,.8,1,.23.74,0,1-.65,1.28a5.65,5.65,0,0,0-3.27,3.39,8.19,8.19,0,0,0,.24,6.91,6.26,6.26,0,0,1,.76,2.88,6.09,6.09,0,0,1-.35,2.17,28.8,28.8,0,0,0-1.35,6.55,45.08,45.08,0,0,0-.06,6.37,2.38,2.38,0,0,0,2.64,2.49q4.74,0,9.48,0a2.35,2.35,0,0,0,2.63-2.49A45.11,45.11,0,0,0,233.6,137.43Z" fill="#fff"/><path d="M226.28,146.8h-4.74a2.89,2.89,0,0,1-3.14-3,44.09,44.09,0,0,1,.07-6.44,28.1,28.1,0,0,1,1.37-6.66,5.69,5.69,0,0,0,.32-2,5.84,5.84,0,0,0-.7-2.66,8.67,8.67,0,0,1-.26-7.32,6,6,0,0,1,3.55-3.67c.31-.13.42-.19.42-.36a1.1,1.1,0,0,1-.55-.3,1.44,1.44,0,0,1-.34-1.13c0-.36,0-.72,0-1.09s0-.74,0-1.11a1.68,1.68,0,0,1,1.83-1.8q2.17,0,4.35,0a1.71,1.71,0,0,1,1.81,1.82c0,.33,0,.67,0,1s0,.75,0,1.13a1.58,1.58,0,0,1-.37,1.23,1.1,1.1,0,0,1-.53.26c0,.13.13.22.45.36,2.35,1,3.74,3,4.11,5.91a8,8,0,0,1-.8,5,5.62,5.62,0,0,0-.73,2.71,6.57,6.57,0,0,0,.37,2.21,27.41,27.41,0,0,1,1.31,6.45h0a47,47,0,0,1,.05,6.44,2.84,2.84,0,0,1-3.13,3Zm-2.7-33.05a.48.48,0,0,1,.47.35,1.37,1.37,0,0,1-.94,1.9,5.11,5.11,0,0,0-3,3.1,7.73,7.73,0,0,0,.21,6.5,6.85,6.85,0,0,1,.82,3.11,6.61,6.61,0,0,1-.38,2.33,28.3,28.3,0,0,0-1.32,6.43,43.62,43.62,0,0,0-.06,6.3,1.9,1.9,0,0,0,2.14,2q4.74,0,9.48,0a1.86,1.86,0,0,0,2.13-2,45.07,45.07,0,0,0-.05-6.31,26.69,26.69,0,0,0-1.25-6.21,7.4,7.4,0,0,1-.43-2.56,6.66,6.66,0,0,1,.85-3.17,7,7,0,0,0,.68-4.42c-.32-2.58-1.47-4.25-3.5-5.11a1.38,1.38,0,0,1-.93-1.93.5.5,0,0,1,.52-.33.38.38,0,0,0,.2,0s.06-.08,0-.47,0-.77,0-1.16,0-.65,0-1c0-.6-.24-.83-.82-.84-1.45,0-2.89,0-4.33,0-.6,0-.82.23-.84.83,0,.36,0,.72,0,1.07s0,.76,0,1.13.05.4.05.4a.36.36,0,0,0,.24,0Z" fill="#231f20"/><path d="M229,114.75h-5.42a.5.5,0,0,1-.5-.5.5.5,0,0,1,.5-.5H229a.5.5,0,0,1,.5.5A.5.5,0,0,1,229,114.75Z" fill="#231f20"/><path d="M233.6,137.43H219a28.8,28.8,0,0,1,1.35-6.55,6.09,6.09,0,0,0,.35-2.17h11.26a6.93,6.93,0,0,0,.4,2.39A26.75,26.75,0,0,1,233.6,137.43Z" fill="#231f20"/><path d="M231.16,125.2h-.11a.5.5,0,0,1-.38-.6,9.08,9.08,0,0,0,0-3.94,5.48,5.48,0,0,0-2.45-2.59.5.5,0,0,1,.46-.89,6.46,6.46,0,0,1,2.95,3.18,10.15,10.15,0,0,1,0,4.47A.49.49,0,0,1,231.16,125.2Z" fill="#231f20"/><path d="M260.58,137.43a26.26,26.26,0,0,0-1.28-6.33,7.18,7.18,0,0,1-.4-2.39,6.18,6.18,0,0,1,.79-2.94,7.54,7.54,0,0,0,.74-4.72,6.32,6.32,0,0,0-3.8-5.51c-.65-.28-.9-.59-.65-1.3.71.06.8-.42.79-1s0-1.42,0-2.13a1.2,1.2,0,0,0-1.31-1.33c-1.45,0-2.9,0-4.34,0a1.21,1.21,0,0,0-1.34,1.32c0,.73,0,1.47,0,2.2,0,.58.15,1,.8,1,.23.74,0,1-.65,1.28a5.61,5.61,0,0,0-3.26,3.39,8.19,8.19,0,0,0,.23,6.91,6.4,6.4,0,0,1,.77,2.88,6.33,6.33,0,0,1-.36,2.17,28.78,28.78,0,0,0-1.34,6.55,43.62,43.62,0,0,0-.07,6.37,2.39,2.39,0,0,0,2.64,2.49q4.74,0,9.48,0a2.35,2.35,0,0,0,2.63-2.49A45.11,45.11,0,0,0,260.58,137.43Z" fill="#fff"/><path d="M253.26,146.8h-4.74a2.89,2.89,0,0,1-3.14-3,44.07,44.07,0,0,1,.07-6.44,29.13,29.13,0,0,1,1.37-6.66,5.68,5.68,0,0,0-.38-4.66,8.67,8.67,0,0,1-.26-7.32,6,6,0,0,1,3.55-3.67c.31-.13.42-.19.42-.36a1.1,1.1,0,0,1-.55-.3,1.48,1.48,0,0,1-.34-1.13c0-.36,0-.72,0-1.08s0-.74,0-1.12a1.69,1.69,0,0,1,1.83-1.8q2.18,0,4.35,0a1.69,1.69,0,0,1,1.81,1.82q0,.5,0,1c0,.38,0,.76,0,1.14a1.54,1.54,0,0,1-.37,1.23,1.07,1.07,0,0,1-.52.26c0,.13.12.22.45.36,2.35,1,3.73,3,4.1,5.91a7.94,7.94,0,0,1-.8,5,5.62,5.62,0,0,0-.73,2.71,6.35,6.35,0,0,0,.38,2.21,27.41,27.41,0,0,1,1.3,6.45h0a45.42,45.42,0,0,1,.05,6.44,2.84,2.84,0,0,1-3.13,3Zm-2.7-33.05a.5.5,0,0,1,.48.35,1.37,1.37,0,0,1-.95,1.9,5.14,5.14,0,0,0-3,3.1,7.69,7.69,0,0,0,.22,6.5,6.7,6.7,0,0,1,.44,5.44,27.66,27.66,0,0,0-1.32,6.43,42.16,42.16,0,0,0-.07,6.3,1.9,1.9,0,0,0,2.14,2q4.74,0,9.48,0a1.88,1.88,0,0,0,2.14-2,46.65,46.65,0,0,0-.05-6.31,26.18,26.18,0,0,0-1.26-6.21,7.4,7.4,0,0,1-.43-2.56,6.78,6.78,0,0,1,.85-3.17,7,7,0,0,0,.69-4.42c-.33-2.58-1.48-4.25-3.51-5.11a1.37,1.37,0,0,1-.92-1.93.49.49,0,0,1,.51-.33c.15,0,.2,0,.2,0s.06-.08,0-.47,0-.77,0-1.16,0-.65,0-1c0-.6-.24-.83-.82-.84-1.44,0-2.88,0-4.33,0-.6,0-.82.23-.84.83,0,.36,0,.72,0,1.08s0,.75,0,1.12.05.4.06.4.06,0,.23,0Z" fill="#231f20"/><path d="M256,114.75h-5.42a.5.5,0,0,1-.5-.5.5.5,0,0,1,.5-.5H256a.5.5,0,0,1,.5.5A.5.5,0,0,1,256,114.75Z" fill="#231f20"/><path d="M260.58,137.43H246a28.78,28.78,0,0,1,1.34-6.55,6.33,6.33,0,0,0,.36-2.17H258.9a7.18,7.18,0,0,0,.4,2.39A26.26,26.26,0,0,1,260.58,137.43Z" fill="#231f20"/><path d="M258.14,125.2H258a.49.49,0,0,1-.37-.6,9.25,9.25,0,0,0,0-3.94,5.53,5.53,0,0,0-2.46-2.59.51.51,0,0,1-.21-.68.5.5,0,0,1,.67-.21,6.42,6.42,0,0,1,3,3.18,10,10,0,0,1,0,4.47A.49.49,0,0,1,258.14,125.2Z" fill="#231f20"/><path d="M295.11,200.56H209a.5.5,0,0,1-.5-.5V189.17a.5.5,0,0,1,.5-.5h86.15a.5.5,0,0,1,.5.5v10.89A.5.5,0,0,1,295.11,200.56Zm-85.65-1h85.15v-9.89H209.46Z" fill="#d1d3d4"/></g></svg>