<svg xmlns="http://www.w3.org/2000/svg" viewBox="0 0 400 300"><g id="_243_recycling_flatline" data-name="#243_recycling_flatline"><ellipse cx="268.59" cy="271.83" rx="40.46" ry="5.28" fill="#d1d3d4"/><path d="M197.6,237.44a.54.54,0,0,1-.25-.06.52.52,0,0,1-.19-.69,13.41,13.41,0,0,1,16-5.63c2.08-9.54,11.44-17.12,21.22-17.12h.24a.5.5,0,0,1,0,1h-.24c-9.52,0-18.62,7.54-20.35,16.91a.5.5,0,0,1-.7.37,12.32,12.32,0,0,0-15.31,5A.5.5,0,0,1,197.6,237.44Z" fill="#d1d3d4"/><path d="M337.7,236.45a.47.47,0,0,1-.28-.09.51.51,0,0,1-.14-.7c3.43-5,4.37-9.16,2.78-12.24-3.08-6-14.65-6.28-14.76-6.29a.49.49,0,0,1-.4-.21.52.52,0,0,1-.07-.45c1.66-4.84,1.63-8.28-.1-10.23-2.35-2.65-7.15-1.65-7.2-1.64a.5.5,0,0,1-.56-.28c-4.25-8.78-12.08-6.19-12.41-6.07a.5.5,0,1,1-.33-.95c.09,0,8.78-2.94,13.48,6.25,1.28-.2,5.43-.61,7.77,2,1.9,2.14,2.07,5.7.51,10.58,2.63.16,12,1.12,15,6.8,1.76,3.43.81,7.9-2.84,13.27A.5.5,0,0,1,337.7,236.45Z" fill="#d1d3d4"/><path d="M347.83,240.2H52.17a.5.5,0,0,1,0-1H347.83a.5.5,0,0,1,0,1Z" fill="#d1d3d4"/><rect x="208.25" y="124.54" width="114.72" height="10.95" rx="4.95" fill="#fff"/><path d="M318,136H213.2a5.46,5.46,0,0,1-5.45-5.45v-1A5.46,5.46,0,0,1,213.2,124H318a5.45,5.45,0,0,1,5.45,5.45v1A5.46,5.46,0,0,1,318,136ZM213.2,125a4.46,4.46,0,0,0-4.45,4.45v1A4.46,4.46,0,0,0,213.2,135H318a4.46,4.46,0,0,0,4.45-4.45v-1A4.46,4.46,0,0,0,318,125Z" fill="#231f20"/><path d="M314.85,135.49l-.58,6.5-11,122.22a9.34,9.34,0,0,1-9.31,8.51H237.23a9.34,9.34,0,0,1-9.31-8.51l-9.29-103.62-2.25-25.1Z" fill="#fff"/><path d="M294,273.22H237.23a9.79,9.79,0,0,1-9.81-9L215.88,135.53a.55.55,0,0,1,.13-.38.52.52,0,0,1,.37-.16h98.47a.52.52,0,0,1,.37.16.55.55,0,0,1,.13.38l-.58,6.5-11,122.22A9.79,9.79,0,0,1,294,273.22ZM216.93,136l11.49,128.18a8.8,8.8,0,0,0,8.81,8.05H294a8.8,8.8,0,0,0,8.81-8.05L314.3,136Z" fill="#231f20"/><path d="M259.21,174.94c2.87.58,4.44,2.85,6.24,4.76l-7.23,12-9.17-5.41c.12-.2.2-.36.3-.52,1.87-3,3.76-5.89,5.6-8.87a3.77,3.77,0,0,1,2.66-1.83,1.39,1.39,0,0,0,.26-.1Z" fill="#72f4c3"/><path d="M273.2,217.23l.21,4.4c-.14-.18-.22-.29-.29-.4L267.31,212a.54.54,0,0,1,0-.65c1.79-3.05,3.58-6.12,5.36-9.18.05-.09.12-.17.25-.35.05,1.11.09,2.11.13,3.11,0,.41,0,.83.06,1.24a.43.43,0,0,0,.28.33,33.2,33.2,0,0,0,11.2-.49c.79-.2,1.56-.54,2.4-.83-.06.15-.1.27-.15.37q-2.52,4.83-5.06,9.67a3.09,3.09,0,0,1-2.64,1.67c-1.67.14-3.34.21-5,.3Z" fill="#72f4c3"/><path d="M258.19,201.29l-4-2.48c-2.52,2.74-5.7,7.29-6.78,12.19-.11-.2-.2-.34-.28-.48q-2.53-4.74-5-9.47a2.87,2.87,0,0,1-.07-2.81c.91-1.66,1.92-3.28,2.89-4.91.1-.16.2-.32.33-.51l-3.64-2.24,0-.09c.17,0,.33,0,.5,0l10.69.41c.25,0,.47,0,.62.32,1.53,3.27,3.08,6.52,4.63,9.78Z" fill="#72f4c3"/><path d="M266,189.37l4.09-2.34c-1.73-4.4-3.9-8.5-7.57-11.76h.57l10.74,0a3.12,3.12,0,0,1,2.76,1.63c.91,1.52,1.8,3.05,2.7,4.57l.29.49,3.84-2.24c-.13.25-.19.37-.26.49-1.83,3.11-3.67,6.21-5.49,9.33a.61.61,0,0,1-.64.36c-3.57-.18-7.15-.34-10.72-.51Z" fill="#72f4c3"/><path d="M263.9,207l-.44,10.64c-.83,0-1.6-.09-2.37-.15-3-.21-6-.43-9-.63a3.13,3.13,0,0,1-2-.91,5,5,0,0,1-1.55-4.92c.36-1.63.88-3.22,1.31-4.75Z" fill="#72f4c3"/><path d="M274.38,193.82l9.06-5.64c.11.17.21.31.29.45l5.24,9a4.31,4.31,0,0,1-.84,5.51,9.21,9.21,0,0,1-3.81,1.94c-.78.23-1.56.44-2.36.62a.5.5,0,0,1-.44-.16q-3.48-5.67-6.94-11.36Z" fill="#72f4c3"/><path d="M304.39,136h-88a.5.5,0,0,1-.5-.5.5.5,0,0,1,.5-.5h88a.5.5,0,0,1,.5.5A.5.5,0,0,1,304.39,136Z" fill="#231f20"/><path d="M298.68,260.47H234.63a.5.5,0,0,1-.5-.5.5.5,0,0,1,.5-.5h64.05a.5.5,0,0,1,.5.5A.5.5,0,0,1,298.68,260.47Z" fill="#d1d3d4"/><path d="M158.57,87.67l14.62,17.9s17.6-6.69,20.75-8.68,10.66-11,12.84-8.37,6,8.07,1.85,14.53S170,121.43,165.91,121.9s-24.27-31.38-24.27-31.38Z" fill="#fff"/><path d="M165.85,122.41c-4.41,0-21.27-26.31-24.64-31.63a.49.49,0,0,1,0-.47.52.52,0,0,1,.37-.29l16.94-2.85a.49.49,0,0,1,.47.18L173.35,105c2.45-.94,17.49-6.72,20.33-8.5a35,35,0,0,0,3.81-3.26c3.08-2.86,6.24-5.82,8.38-5.68a1.79,1.79,0,0,1,1.3.67c1.6,2,6.48,7.92,1.88,15.12C204.76,110,169.9,122,166,122.4ZM142.46,90.88c7.78,12.24,20.7,30.85,23.4,30.53,3.83-.44,38.31-12.31,42.35-18.63,4.2-6.59-.33-12.13-1.82-14a.78.78,0,0,0-.59-.3c-1.68-.1-5,3-7.63,5.41a32.89,32.89,0,0,1-4,3.37c-3.16,2-20.12,8.45-20.84,8.72a.48.48,0,0,1-.56-.15L158.37,88.21Z" fill="#231f20"/><path d="M126.27,181.27s6.92,12,7.28,16.75-12.37,54-12.37,54h17.11s13.1-47.08,13.83-54.73-5.82-24-5.82-24Z" fill="#fff"/><path d="M138.29,252.52H121.18a.51.51,0,0,1-.4-.19.54.54,0,0,1-.09-.44c.13-.49,12.72-49.24,12.37-53.83s-7.15-16.42-7.22-16.54a.49.49,0,0,1,0-.41.48.48,0,0,1,.29-.3l20-8a.5.5,0,0,1,.65.28c.27.67,6.59,16.58,5.86,24.26s-13.32,52.89-13.85,54.81A.5.5,0,0,1,138.29,252.52Zm-16.47-1h16.09c1.22-4.42,13-47.12,13.71-54.28.64-6.72-4.56-20.61-5.61-23.33l-19,7.61c1.33,2.36,6.73,12.17,7.06,16.46C134.4,202.5,123.37,245.53,121.82,251.52Z" fill="#231f20"/><path d="M94.22,179.09l3.4,18.81s-11.29,46.35-14,54.85l16.39,2.18s18.2-50.24,18.69-54.36-3.16-23.18-3.16-23.18Z" fill="#fff"/><path d="M100.05,255.43H100L83.6,253.24a.51.51,0,0,1-.36-.22.48.48,0,0,1,0-.42c2.57-8.19,13.32-52.27,13.92-54.72l-3.38-18.7a.52.52,0,0,1,.1-.4.48.48,0,0,1,.35-.19l21.36-1.7a.51.51,0,0,1,.53.4c.15.79,3.65,19.18,3.16,23.33s-18,52.43-18.71,54.48A.5.5,0,0,1,100.05,255.43Zm-15.73-3.1,15.4,2c1.67-4.64,18.07-50,18.52-53.87.43-3.66-2.53-19.71-3.07-22.59l-20.36,1.62,3.3,18.27a.5.5,0,0,1,0,.21C98,198.47,87.24,242.61,84.32,252.33Z" fill="#231f20"/><path d="M120.47,51.75c-.68-.63-1.07-4.69-1.42-5.81a16.41,16.41,0,0,1,.12-10,12,12,0,0,1,6.48-6.48,6.9,6.9,0,0,1,5-.51,4.49,4.49,0,0,0,1.48.44A3.28,3.28,0,0,0,133.4,29c5.7-2.57,10.9-2.22,16.34.76a12,12,0,0,1,3.74,2.88,9.33,9.33,0,0,1,1.38,8.18c-.53,2-1.86,5.34-3.68,6.54-1,.64-2.11.31-3.06.68-2,.74-3.86,2.59-5.76,3.57C135.66,55.1,126.7,57.44,120.47,51.75Z" fill="#fff"/><path d="M129.74,55.69a13.8,13.8,0,0,1-9.61-3.57h0c-.53-.49-.82-2-1.19-4.15-.13-.78-.26-1.52-.37-1.88a16.86,16.86,0,0,1,.14-10.32A12.46,12.46,0,0,1,125.45,29a7.24,7.24,0,0,1,5.36-.52l.38.15a2.74,2.74,0,0,0,.92.26h0a2.68,2.68,0,0,0,1-.32c5.81-2.62,11.15-2.37,16.85.75a12.69,12.69,0,0,1,3.9,3A9.83,9.83,0,0,1,155.35,41c-.64,2.38-2,5.6-3.9,6.83a4,4,0,0,1-2,.54,4.24,4.24,0,0,0-1.12.18,15.75,15.75,0,0,0-3.2,1.93,21,21,0,0,1-2.51,1.63C139.42,53.71,134.6,55.69,129.74,55.69Zm-8.94-4.31c6.61,6,16.2,2.46,21.33-.21a21.84,21.84,0,0,0,2.39-1.55,16,16,0,0,1,3.42-2,5,5,0,0,1,1.41-.25A3.2,3.2,0,0,0,150.9,47c1.74-1.15,3-4.48,3.48-6.26A8.76,8.76,0,0,0,153.09,33a11.8,11.8,0,0,0-3.59-2.75c-5.4-3-10.45-3.2-15.9-.74a3.78,3.78,0,0,1-1.48.43,3.83,3.83,0,0,1-1.3-.33l-.34-.13a6.29,6.29,0,0,0-4.63.49,11.43,11.43,0,0,0-6.21,6.2,15.76,15.76,0,0,0-.11,9.67c.13.42.25,1.15.4,2A13.74,13.74,0,0,0,120.8,51.38Z" fill="#231f20"/><path d="M138.15,140.5l17.91,50.13-28.29,4.76-8-26.37,3,26.67-31.19,1.86S82.82,158,86.21,142Z" fill="#231f20"/><path d="M91.52,198.05a.49.49,0,0,1-.48-.39c-.36-1.62-8.7-39.87-5.31-55.81a.49.49,0,0,1,.47-.4L138.14,140a.48.48,0,0,1,.48.33l17.91,50.13a.5.5,0,0,1,0,.43.53.53,0,0,1-.34.24l-28.3,4.76a.52.52,0,0,1-.56-.35l-6.46-21.21,2.37,21.3a.48.48,0,0,1-.11.38.49.49,0,0,1-.36.17l-31.18,1.87Zm-4.9-55.61c-2.94,15.08,4.4,50.34,5.3,54.58l30.23-1.8-2.91-26.14a.5.5,0,0,1,1-.2l7.9,26,27.27-4.59L137.8,141Z" fill="#231f20"/><path d="M124.29,66.31S97,62.07,90.43,76c-7.18,15.28-6.84,69.41-6.84,69.41l59.34-2.2-1.84-33.52,8.91,6.66L164.33,90S152.7,78.89,144.77,73.19,124.29,66.31,124.29,66.31Z" fill="#72f4c3"/><path d="M136.84,67.49,135.2,78s-2.11,4.6-8.9,1.87-7.13-7.74-7.13-7.74l3.75-19.53s11.9-4.26,12-15.82a22.71,22.71,0,0,0,16.64,8s-1,11.91-2.67,17.24S136.84,67.49,136.84,67.49Z" fill="#fff"/><path d="M130.24,81.26a11.07,11.07,0,0,1-4.13-.9c-7-2.82-7.42-8-7.44-8.17a.49.49,0,0,1,0-.12l3.75-19.54a.52.52,0,0,1,.32-.38c.12,0,11.58-4.27,11.7-15.35a.51.51,0,0,1,.34-.47.48.48,0,0,1,.55.17,22.39,22.39,0,0,0,16.26,7.83.48.48,0,0,1,.36.16.49.49,0,0,1,.13.38c0,.49-1.05,12-2.69,17.35-1.56,5-10.09,5.68-12.13,5.76L135.7,78.1a.74.74,0,0,1,0,.14A6,6,0,0,1,130.24,81.26Zm-10.57-9.07c.07.57.73,4.8,6.81,7.24,5.92,2.38,8-1,8.24-1.56l1.62-10.45a.52.52,0,0,1,.49-.43c.1,0,10.1-.14,11.62-5.06,1.41-4.59,2.38-14.26,2.6-16.62a23.09,23.09,0,0,1-15.66-7.23c-.86,9.89-10.3,14.2-12,14.91ZM135.21,78Z" fill="#231f20"/><path d="M126.34,52.55a5.52,5.52,0,0,0-5.12-4.66c-3.13,0-3.62,3.48-3,5.86a5.64,5.64,0,0,0,7,4" fill="#fff"/><path d="M123.69,58.44a6.13,6.13,0,0,1-5.94-4.56,6.34,6.34,0,0,1,.67-5.18,3.41,3.41,0,0,1,2.8-1.31h0a6.08,6.08,0,0,1,5.6,5.11.5.5,0,0,1-1,.1,5.07,5.07,0,0,0-4.6-4.21h0a2.36,2.36,0,0,0-2,.92,5.37,5.37,0,0,0-.51,4.31,5.14,5.14,0,0,0,6.35,3.64.5.5,0,1,1,.27,1A6.11,6.11,0,0,1,123.69,58.44Z" fill="#231f20"/><path d="M141.23,50.39s3.1,6,2.11,6.81-3.38,0-3.38,0" fill="#fff"/><path d="M142.06,58.08a7.38,7.38,0,0,1-2.28-.45.5.5,0,0,1-.29-.65.5.5,0,0,1,.64-.29c.82.31,2.33.62,2.88.14.29-.47-.75-3.37-2.22-6.21A.49.49,0,0,1,141,50a.5.5,0,0,1,.67.21c1.23,2.35,3.12,6.44,2,7.42A2.44,2.44,0,0,1,142.06,58.08Z" fill="#231f20"/><ellipse cx="138.52" cy="47.08" rx="2.01" ry="0.87" transform="translate(61.29 171.35) rotate(-76.91)" fill="#231f20"/><ellipse cx="146.94" cy="49.04" rx="2.01" ry="0.87" transform="translate(65.9 181.06) rotate(-76.91)" fill="#231f20"/><path d="M136.84,67.49s-4.12.13-8.42-3.71c0,0,.65,7.68,7.53,9.41Z" fill="#231f20"/><path d="M136,73.69h-.12c-7.14-1.8-7.9-9.78-7.9-9.86a.49.49,0,0,1,.27-.49.5.5,0,0,1,.56.07A12.83,12.83,0,0,0,136.82,67a.49.49,0,0,1,.39.17.52.52,0,0,1,.12.41l-.88,5.7a.49.49,0,0,1-.22.34A.46.46,0,0,1,136,73.69ZM129.14,65c.48,2.1,2,6.15,6.41,7.54l.71-4.59A13.86,13.86,0,0,1,129.14,65Z" fill="#231f20"/><path d="M140.58,62.57a6.16,6.16,0,0,1-4.4-1.56c-2.82-2.67-2.1-7.72-2.07-7.93a.51.51,0,0,1,.57-.42.5.5,0,0,1,.42.57c0,.05-.67,4.75,1.77,7.05,1.31,1.24,3.31,1.59,5.95,1a.51.51,0,0,1,.59.39.49.49,0,0,1-.39.59A12.13,12.13,0,0,1,140.58,62.57Z" fill="#231f20"/><path d="M169.66,105.45c.67,1.11,1.32,2.14,1.86,3a3.82,3.82,0,0,1-1.22,5.2L163,118.36a3.83,3.83,0,0,1-5.24-1.09l-2-3c-3.39-5.11-7.72-11.78-8.08-13a4.92,4.92,0,0,1-.2-1.6c0-1.67.49-3.51-.08-4.92-.76-1.88-4.08-1.06-5.77-4.29a5.82,5.82,0,0,1,.21-5.9l6.78-4.33a5.86,5.86,0,0,1,5.44,2.3c2.21,2.9.06,5.57,1.45,7,1,1.12,2.91,1.46,4.42,2.15a5.65,5.65,0,0,1,1.38.86C162.25,93.48,166.46,100.22,169.66,105.45Z" fill="#fff"/><path d="M160.9,119.47a4.29,4.29,0,0,1-3.58-1.92L156.26,116l-.91-1.38c-2.86-4.31-7.73-11.75-8.14-13.1a5.54,5.54,0,0,1-.22-1.76c0-.53,0-1.08.1-1.61a6.75,6.75,0,0,0-.15-3.11c-.23-.59-.85-.85-1.83-1.21a6.24,6.24,0,0,1-3.67-9.46.47.47,0,0,1,.14-.14l6.78-4.32a.48.48,0,0,1,.18-.07,6.25,6.25,0,0,1,7,7.32c-.09,1-.12,1.71.31,2.18a6.86,6.86,0,0,0,2.77,1.45c.5.18,1,.36,1.5.59a5.93,5.93,0,0,1,1.5.93c1,1,5.74,8.5,8.44,12.92h0l.82,1.35c.37.6.72,1.17,1,1.69a4.31,4.31,0,0,1-1.37,5.89l-7.33,4.67A4.38,4.38,0,0,1,160.9,119.47ZM142.2,85a5.26,5.26,0,0,0,3.25,7.87c1,.38,2,.74,2.42,1.77a7.67,7.67,0,0,1,.22,3.58c-.05.52-.1,1-.1,1.53a4.84,4.84,0,0,0,.17,1.46c.27.88,3.27,5.68,8,12.84l.92,1.37,1.05,1.59a3.31,3.31,0,0,0,4.55,1l7.33-4.67a3.32,3.32,0,0,0,1.06-4.53l-1-1.67-.83-1.36C164.75,98.38,161.67,93.64,161,93a4.71,4.71,0,0,0-1.25-.77c-.45-.21-.94-.39-1.42-.56A7.81,7.81,0,0,1,155.15,90c-.76-.81-.67-1.84-.58-2.94a5.4,5.4,0,0,0-.9-4.14,5.31,5.31,0,0,0-4.86-2.13Z" fill="#231f20"/><rect x="140.61" y="78.39" width="7.46" height="4.25" transform="translate(-20.65 90.19) rotate(-32.51)" fill="#fff"/><path d="M142.34,84.81a.49.49,0,0,1-.42-.24L139.63,81a.48.48,0,0,1-.06-.37.52.52,0,0,1,.22-.32l6.29-4a.48.48,0,0,1,.37-.06.49.49,0,0,1,.32.22L149.05,80a.5.5,0,0,1-.15.69l-6.29,4A.56.56,0,0,1,142.34,84.81Zm-1.59-3.93,1.74,2.73,5.45-3.47-1.75-2.73Z" fill="#231f20"/><path d="M169.66,105.45l-13.89,8.86c-3.39-5.11-7.72-11.78-8.08-13a4.92,4.92,0,0,1-.2-1.6l12.45-7.94a5.65,5.65,0,0,1,1.38.86C162.25,93.48,166.46,100.22,169.66,105.45Z" fill="#231f20"/><path d="M155.77,114.81a.51.51,0,0,1-.42-.23c-2.86-4.31-7.73-11.75-8.14-13.1a5.54,5.54,0,0,1-.22-1.76.52.52,0,0,1,.23-.42l12.45-7.93a.51.51,0,0,1,.48,0,5.93,5.93,0,0,1,1.5.93c1,1,5.74,8.5,8.44,12.92a.5.5,0,0,1-.16.68L156,114.73A.56.56,0,0,1,155.77,114.81ZM148,100a4.61,4.61,0,0,0,.17,1.19c.27.87,3.16,5.5,7.75,12.43L169,105.29c-4.34-7.09-7.32-11.66-8-12.27a4.69,4.69,0,0,0-1-.66Z" fill="#231f20"/><path d="M93.83,107.33c0,.72,3.88,34.22,9.22,34.46s41.72-21.6,41.72-21.6c6.38-1.83,22.3-5,16.69-15.39a4.39,4.39,0,0,0-1.75-1.87,5.23,5.23,0,0,0-3.7-.09,16.38,16.38,0,0,0-3.65,1.43,1.88,1.88,0,0,1-1.33.35,1.81,1.81,0,0,1-.73-.53l-2-2.07c-1.18,2.32-2.31,5.45-4.43,6.85a17.44,17.44,0,0,1-3.44,1.26L129,114.33l-17.25,6.34-2.91-18" fill="#fff"/><path d="M103.13,142.29H103c-6.07-.28-9.7-34.62-9.7-35a.5.5,0,0,1,1,0c.08,2.74,4.21,33.76,8.74,34,4.07.17,28.9-14,41.44-21.53l.12-.05,1.88-.52c4.94-1.33,13.21-3.55,15.18-8.13.77-1.78.55-3.75-.67-6a3.82,3.82,0,0,0-1.54-1.65,4.65,4.65,0,0,0-3.34-.06,16.16,16.16,0,0,0-3.55,1.39,2.23,2.23,0,0,1-1.69.39,2.14,2.14,0,0,1-1-.67l-1.51-1.55-.35.74c-1,2.09-2.1,4.46-3.93,5.67a9.42,9.42,0,0,1-2.46,1c-.38.11-.75.22-1.08.34L112,121.14a.48.48,0,0,1-.42,0,.5.5,0,0,1-.24-.36l-2.92-18a.5.5,0,0,1,.42-.57.49.49,0,0,1,.57.41L112.19,120l28.07-10.34c.35-.12.74-.24,1.15-.36a8.77,8.77,0,0,0,2.19-.85c1.59-1,2.65-3.28,3.58-5.25.22-.49.45-1,.67-1.41a.54.54,0,0,1,.38-.27.5.5,0,0,1,.43.15l2,2.07a1.37,1.37,0,0,0,.51.39c.25.08.61-.11,1-.3a17,17,0,0,1,3.77-1.48,5.75,5.75,0,0,1,4.05.14,4.81,4.81,0,0,1,2,2.07c1.36,2.52,1.6,4.85.71,6.9-2.16,5-10.4,7.23-15.84,8.7l-1.8.49C142.83,121.94,108.81,142.29,103.13,142.29Zm-8.8-35h0Z" fill="#231f20"/><path d="M110.33,75.05c0,1.21,2.92,33,2.92,33L91.4,112.18S89.7,86.7,90.19,85.72" fill="#72f4c3"/><path d="M91.4,112.68a.48.48,0,0,1-.3-.11.47.47,0,0,1-.2-.36c-.51-7.7-1.65-25.72-1.16-26.71a.49.49,0,0,1,.67-.22.5.5,0,0,1,.23.67c-.28,1,.57,15.69,1.22,25.63l20.85-3.93c-.37-4-2.88-31.45-2.88-32.6a.5.5,0,0,1,.5-.5.5.5,0,0,1,.5.5c0,.94,1.91,22,2.91,33a.49.49,0,0,1-.4.53L91.5,112.67Z" fill="#231f20"/><path d="M95.17,193.68a.49.49,0,0,1-.49-.41,387.46,387.46,0,0,1-4.93-40.73.52.52,0,0,1,.47-.53.5.5,0,0,1,.53.47,382.19,382.19,0,0,0,4.91,40.61.5.5,0,0,1-.4.58Z" fill="#fff"/><path d="M83.66,252.75s-6.74,13.83-5.53,14.8,34.71,7,34.22,2.67-12.06-10.19-12.3-15.29Z" fill="#231f20"/><path d="M107.1,272.25c-9.57,0-28.33-3.55-29.28-4.31-1.26-1,2.24-8.94,5.4-15.41a.5.5,0,0,1,.51-.28l16.38,2.19a.5.5,0,0,1,.44.47c.12,2.47,3.29,5.28,6.37,8,2.92,2.57,5.68,5,5.93,7.27a1.39,1.39,0,0,1-.85,1.4A11.86,11.86,0,0,1,107.1,272.25Zm-28.61-5.07c1.92.89,29.2,5.95,33.11,3.46.28-.17.26-.3.25-.36-.2-1.88-2.94-4.29-5.59-6.63-3.08-2.71-6.25-5.51-6.67-8.27L84,253.29C81,259.36,78.23,266.06,78.49,267.18Z" fill="#231f20"/><path d="M121.18,252s-3.26,3.54-5.3,13.83c0,0,37.28,3.34,37.7,1.52s-9.65-4.91-12.74-8.55-2.55-6.8-2.55-6.8Z" fill="#231f20"/><path d="M148.84,268.41c-2.86,0-7.32-.17-14.3-.62-9.27-.6-18.61-1.43-18.7-1.44a.5.5,0,0,1-.45-.59c2-10.31,5.28-13.93,5.42-14.08a.51.51,0,0,1,.37-.16h17.11a.46.46,0,0,1,.38.18.46.46,0,0,1,.11.4s-.45,3,2.44,6.39c1.48,1.75,4.71,3.4,7.56,4.86,3.66,1.87,5.56,2.9,5.29,4.13C154,267.9,153.85,268.41,148.84,268.41Zm-32.36-3c13.34,1.18,34.29,2.63,36.59,1.74-.28-.63-3-2-4.75-2.91-2.93-1.5-6.25-3.2-7.86-5.1a10.07,10.07,0,0,1-2.71-6.62H121.41C120.8,253.3,118.23,257,116.48,265.41Z" fill="#231f20"/><path d="M205.65,94.16s3,5.77,8.56,20.15,14.8,45.44,12.38,66.55-15.42,43.93-31.44,46.6-29-3.67-32.51-11.3-1.1-46.92-1.82-58a177.34,177.34,0,0,0-2.25-19.12S204.68,113.7,205.65,94.16Z" fill="#fff"/><path d="M188.22,228.52c-10.93,0-22.27-4-26-12.15-2.4-5.2-2.09-24.5-1.85-40,.12-7.77.23-14.48,0-18.13a177.68,177.68,0,0,0-2.24-19.06.5.5,0,0,1,.25-.53c.46-.25,45.88-25.46,46.83-44.5a.5.5,0,0,1,.94-.2c0,.06,3.05,6,8.58,20.19,5.75,14.83,14.84,45.58,12.4,66.8-2.35,20.46-15.19,44.26-31.85,47A43.54,43.54,0,0,1,188.22,228.52Zm-29.09-89.19a182.24,182.24,0,0,1,2.18,18.82c.25,3.7.14,10.43,0,18.22-.24,15.41-.54,34.59,1.76,39.58,3.44,7.46,16.34,13.63,32,11,16.19-2.7,28.71-26.06,31-46.16,2.42-21-6.62-51.58-12.35-66.32-3.92-10.11-6.57-16-7.78-18.56-1.38,7.93-9.41,17.47-23.91,28.41A223.67,223.67,0,0,1,159.13,139.33Z" fill="#231f20"/><path d="M206.58,103.45a50.28,50.28,0,0,1-6.61,19c-.71,1.24-1.49,2.5-2.33,3.75a42.84,42.84,0,0,1-7.21,8.15,53.45,53.45,0,0,1-5.32,4.12,52.57,52.57,0,0,1-5.9,3.49,39,39,0,0,1-7.48,2.94,17.71,17.71,0,0,1-3.18.55,7.11,7.11,0,0,1-1.67,0c-3.9-.48-7.21-2.15-8.16-5.69-.53-2-.32-4.46.88-7.65,3.4-9,15.84-17.85,23.85-23.73S204,93.61,204,93.61C205.93,92.94,207.33,97,206.58,103.45Z" fill="#231f20"/><path d="M167.72,146a8.27,8.27,0,0,1-.9,0c-4.71-.58-7.68-2.67-8.58-6.06-.58-2.15-.28-4.83.9-8,3.31-8.77,15.18-17.48,23-23.24l1-.71c7.93-5.82,20.45-14.67,20.58-14.76l.12-.06a1.64,1.64,0,0,1,1.65.29c1.52,1.22,2.14,5.17,1.57,10.07a51.28,51.28,0,0,1-6.67,19.19c-.73,1.28-1.52,2.55-2.34,3.78a43.36,43.36,0,0,1-7.3,8.24,55.17,55.17,0,0,1-5.36,4.17,56.55,56.55,0,0,1-6,3.52,39.27,39.27,0,0,1-7.57,3,18.32,18.32,0,0,1-3.27.57C168.28,146,168,146,167.72,146Zm36.52-51.92c-1,.69-12.87,9.1-20.5,14.7l-1,.72c-7.76,5.69-19.49,14.29-22.7,22.78-1.1,2.93-1.39,5.4-.86,7.35,1,3.74,4.75,5,7.73,5.32a7.31,7.31,0,0,0,1.57,0,18.9,18.9,0,0,0,3.1-.55,38.74,38.74,0,0,0,7.37-2.89,54.4,54.4,0,0,0,5.85-3.46A50.7,50.7,0,0,0,190.1,134a42.35,42.35,0,0,0,7.13-8.05c.81-1.21,1.59-2.46,2.31-3.72a50.4,50.4,0,0,0,6.54-18.8h0c.6-5.17-.21-8.38-1.2-9.18A.7.7,0,0,0,204.24,94.06Z" fill="#231f20"/><path d="M187,132.5a31.42,31.42,0,0,1-2.06,3.38,21.9,21.9,0,0,1-13.17,9,17.86,17.86,0,0,1-3.18.55,7.11,7.11,0,0,1-1.67,0c-2.79-.37-5.81-1.35-7.38-3.88s.41-6.27,3.22-7.22a5.18,5.18,0,0,1,1.87-4.36c1.65-1.35,5.6-2,7.64-1.59a10.62,10.62,0,0,1,1.18-5.75,5.53,5.53,0,0,1,4.86-2.91,6.82,6.82,0,0,1,4.31-5.6c2.43-.91,4.64-.15,6.71,1.17s2,2.94,1.58,5.34A41.09,41.09,0,0,1,187,132.5Z" fill="#fff"/><path d="M167.72,146a8.27,8.27,0,0,1-.9,0c-3.75-.5-6.36-1.88-7.74-4.11a4.67,4.67,0,0,1-.34-4.14,6.35,6.35,0,0,1,3.47-3.69,5.66,5.66,0,0,1,2.06-4.41c1.65-1.34,5.19-2,7.45-1.78a10.47,10.47,0,0,1,1.26-5.43,6.11,6.11,0,0,1,4.85-3.15,7.34,7.34,0,0,1,4.58-5.57c3-1.11,5.5.17,7.15,1.22,2.37,1.51,2.23,3.46,1.81,5.85a41.84,41.84,0,0,1-4,12h0a31,31,0,0,1-2.09,3.43,22.45,22.45,0,0,1-13.46,9.2,18.08,18.08,0,0,1-3.26.57C168.28,146,168,146,167.72,146Zm3.08-17.22c-2,0-4.67.59-5.9,1.59a4.68,4.68,0,0,0-1.68,3.94.49.49,0,0,1-.34.51,5.42,5.42,0,0,0-3.2,3.22,3.68,3.68,0,0,0,.25,3.27c1.22,2,3.58,3.19,7,3.65a8,8,0,0,0,1.56,0,19.08,19.08,0,0,0,3.1-.55,21.49,21.49,0,0,0,12.88-8.8,31.4,31.4,0,0,0,2-3.33h0a40.34,40.34,0,0,0,3.86-11.73c.45-2.5.36-3.73-1.36-4.83-2.37-1.51-4.3-1.86-6.27-1.12a6.32,6.32,0,0,0-4,5.18.5.5,0,0,1-.52.45,5.08,5.08,0,0,0-4.4,2.66,9.93,9.93,0,0,0-1.11,5.48.5.5,0,0,1-.18.4.49.49,0,0,1-.42.11A6.68,6.68,0,0,0,170.8,128.76Z" fill="#231f20"/><path d="M203,91.61c1.16-.65,2.52-1.09,2.49.51-.06,2.77-1.73,8.67-3.39,9.15-3.3,1-1.58-6.38-1.58-6.38" fill="#fff"/><path d="M201.58,101.86a1.61,1.61,0,0,1-1.15-.45c-1.52-1.44-.48-6.11-.36-6.64a.5.5,0,0,1,.6-.37.49.49,0,0,1,.37.6c-.41,1.78-.76,4.89.08,5.69.13.12.35.26.88.1,1.24-.36,3-5.77,3-8.68,0-.29-.05-.5-.14-.56s-.39-.19-1.6.49a.49.49,0,0,1-.68-.19.5.5,0,0,1,.19-.68c1.18-.66,2-.82,2.61-.47a1.5,1.5,0,0,1,.62,1.43c-.05,2.47-1.6,9-3.75,9.62A2.35,2.35,0,0,1,201.58,101.86Z" fill="#231f20"/><path d="M140.93,154.91a.46.46,0,0,1-.23-.06c-2.8-1.49-6.25-7.22-6.39-7.47a.49.49,0,0,1,.17-.68.5.5,0,0,1,.69.17c0,.06,3.45,5.74,6,7.1a.5.5,0,0,1-.24.94Z" fill="#fff"/><path d="M98.8,157.09a.51.51,0,0,1-.49-.41.5.5,0,0,1,.4-.58c.26,0,6.17-1.21,5.06-7.43a.51.51,0,0,1,.41-.58.5.5,0,0,1,.58.41c1.28,7.2-5.79,8.57-5.87,8.59Z" fill="#fff"/><path d="M206.58,103.45a50.28,50.28,0,0,1-6.61,19c-.71,1.24-1.49,2.5-2.33,3.75a46.67,46.67,0,0,1-12.53,12.27c.33-.22-.39-6.79-.35-7.71s.33-1.93.35-2.83c0-1.3-.78-2.5-1-3.79a6.08,6.08,0,0,1,1.76-5.49,2.06,2.06,0,0,1-1.29-2.35,4.37,4.37,0,0,1,1.55-2.42,21.25,21.25,0,0,1,7.12-4.4,1.86,1.86,0,0,1,1.24-.14c.44.17.67.65,1.08.88.89.52,1.94-.35,2.75-1s2.37-.91,2.61.09a5.6,5.6,0,0,1,5.68-5.85Z" fill="#fff"/><path d="M185.11,139a.5.5,0,0,1-.43-.75,45.6,45.6,0,0,0-.25-4.79c-.11-1.44-.18-2.35-.17-2.69a11.88,11.88,0,0,1,.18-1.46,9.9,9.9,0,0,0,.17-1.36,5.59,5.59,0,0,0-.52-2.07,10.75,10.75,0,0,1-.5-1.61,6.62,6.62,0,0,1,1.43-5.44,2.75,2.75,0,0,1-1-2.58,4.72,4.72,0,0,1,1.71-2.71,21.67,21.67,0,0,1,7.28-4.5,2.28,2.28,0,0,1,1.6-.13,2.15,2.15,0,0,1,.78.59,1.73,1.73,0,0,0,.36.32c.57.33,1.43-.35,2.12-.9a3,3,0,0,1,2.54-.67,6.24,6.24,0,0,1,5.23-5.21,6.51,6.51,0,0,1,.9,0,.48.48,0,0,1,.49.55,51.28,51.28,0,0,1-6.67,19.19c-.73,1.28-1.52,2.55-2.34,3.78a46.94,46.94,0,0,1-12.66,12.4h0A.6.6,0,0,1,185.11,139Zm9-29.19a2.44,2.44,0,0,0-.71.17,20.83,20.83,0,0,0-6.95,4.3,3.88,3.88,0,0,0-1.4,2.14,1.58,1.58,0,0,0,.93,1.78.49.49,0,0,1,.35.36.5.5,0,0,1-.14.49,5.6,5.6,0,0,0-1.61,5,8.55,8.55,0,0,0,.46,1.44,6.62,6.62,0,0,1,.58,2.46,11.15,11.15,0,0,1-.18,1.5,10.76,10.76,0,0,0-.17,1.33c0,.3.08,1.41.17,2.57.16,2.07.25,3.33.27,4.11a45.76,45.76,0,0,0,11.53-11.54c.81-1.21,1.59-2.46,2.31-3.72A50.92,50.92,0,0,0,206,104l-.2,0a5.25,5.25,0,0,0-4.41,5.29.5.5,0,0,1-1,.14.34.34,0,0,0-.24-.25,2,2,0,0,0-1.58.43c-.95.76-2.15,1.72-3.32,1a2.56,2.56,0,0,1-.57-.49,1.41,1.41,0,0,0-.43-.35A.48.48,0,0,0,194.1,109.77Z" fill="#231f20"/><path d="M200,122.44c-.71,1.24-1.49,2.5-2.33,3.75-4.73,7.06-11.94,12.49-18.43,15.76a39,39,0,0,1-7.48,2.94c-1.32-1.85-1.69-4.41-.57-7.39,1.77-4.71,8.21-5.45,12.57-5.4-.18-1.69-.7-3.39-.25-5.12s2-3.26,3.74-3c.48,0,1,.22,1.41-.05a1.92,1.92,0,0,0,.53-1,4.88,4.88,0,0,1,3.12-3A7.15,7.15,0,0,1,200,122.44Z" fill="#fff"/><path d="M171.73,145.39a.52.52,0,0,1-.41-.21,8.21,8.21,0,0,1-.63-7.85c1.75-4.66,7.63-5.71,12.47-5.73,0-.24-.07-.48-.11-.72a9.75,9.75,0,0,1-.05-4c.48-1.87,2.22-3.66,4.28-3.42l.32,0a1.22,1.22,0,0,0,.75,0c.14-.09.21-.36.29-.64l0-.13a5.41,5.41,0,0,1,3.43-3.36,7.59,7.59,0,0,1,8.25,2.8.48.48,0,0,1,0,.56c-.73,1.28-1.52,2.55-2.34,3.78a49.93,49.93,0,0,1-18.63,15.93,39.27,39.27,0,0,1-7.57,3Zm11.58-12.79c-4.55,0-10.11.91-11.68,5.08a7.33,7.33,0,0,0,.32,6.63,39.76,39.76,0,0,0,7-2.8,48.92,48.92,0,0,0,18.25-15.6c.75-1.11,1.46-2.26,2.13-3.42a6.61,6.61,0,0,0-6.92-2.21,4.36,4.36,0,0,0-2.8,2.7l0,.12a2,2,0,0,1-.68,1.18,1.9,1.9,0,0,1-1.47.18l-.28,0c-1.51-.18-2.83,1.25-3.2,2.67a8.68,8.68,0,0,0,.07,3.62c.07.44.14.88.19,1.33a.52.52,0,0,1-.13.39.53.53,0,0,1-.38.16Z" fill="#231f20"/><path d="M178.78,141.18a2.8,2.8,0,0,0,.43.77,30.77,30.77,0,0,1-10.66,3.49,5.8,5.8,0,0,0,.78-2.54c0-2-3.39-2.52-3.74-6.16a5.83,5.83,0,0,1,2.43-5.38l.57-.1,7.33-1.35a5.83,5.83,0,0,1,4.18,4.19C181.05,137.62,178.05,139.28,178.78,141.18Z" fill="#fff"/><path d="M168.55,145.94a.48.48,0,0,1-.41-.22.5.5,0,0,1,0-.5,5.42,5.42,0,0,0,.73-2.32c0-.63-.48-1.1-1.25-1.81a6.23,6.23,0,0,1,.17-10.15.67.67,0,0,1,.18-.07l7.9-1.45H176a6.25,6.25,0,0,1,3.76,9.44c-.48.94-.76,1.54-.53,2.14h0a2.37,2.37,0,0,0,.36.66.49.49,0,0,1,.08.41.51.51,0,0,1-.26.33,31.33,31.33,0,0,1-10.84,3.54Zm-.34-14.1a5.29,5.29,0,0,0-2.12,4.85,5.42,5.42,0,0,0,2.16,3.67,3.52,3.52,0,0,1,1.58,2.54,5.1,5.1,0,0,1-.45,1.95,32.35,32.35,0,0,0,9.11-3.1,2.87,2.87,0,0,1-.18-.4h0c-.4-1,.08-2,.57-2.94a5.34,5.34,0,0,0,.73-4.17,5.27,5.27,0,0,0-3.7-3.81Z" fill="#231f20"/><rect x="168.15" y="126.38" width="7.46" height="4.25" transform="translate(-20.3 32.98) rotate(-10.35)" fill="#fff"/><path d="M168.59,131.76a.52.52,0,0,1-.29-.09.49.49,0,0,1-.2-.32l-.77-4.18a.5.5,0,0,1,.41-.58l7.33-1.34a.51.51,0,0,1,.38.08.48.48,0,0,1,.2.32l.77,4.18a.5.5,0,0,1-.4.58l-7.34,1.34Zm-.18-4.28.58,3.2,6.35-1.16-.58-3.2Z" fill="#231f20"/><path d="M192.78,114.81a.51.51,0,0,1-.37-.85,7,7,0,0,1,7.77-2.12.5.5,0,0,1-.41.92c-.14-.07-3.48-1.49-6.62,1.89A.54.54,0,0,1,192.78,114.81Z" fill="#d1d3d4"/><path d="M187.18,134.56a.5.5,0,0,1-.5-.44,12.56,12.56,0,0,1,.59-6.44,6.43,6.43,0,0,1,5.06-4.09.48.48,0,0,1,.54.45.49.49,0,0,1-.45.54,5.42,5.42,0,0,0-4.22,3.48,11.53,11.53,0,0,0-.53,5.94.5.5,0,0,1-.43.56Z" fill="#d1d3d4"/><path d="M177.67,124.52h0a.5.5,0,0,1-.48-.52,5,5,0,0,1,1.21-2.92,9.8,9.8,0,0,1,2.34-1.95.5.5,0,0,1,.54.84,8.73,8.73,0,0,0-2.11,1.75,4,4,0,0,0-1,2.33A.51.51,0,0,1,177.67,124.52Z" fill="#d1d3d4"/><path d="M187,184.06a.49.49,0,0,1-.41-.21.51.51,0,0,1,.12-.7c16.65-11.73,23.17-55.89,23.23-56.33a.5.5,0,1,1,1,.14,191.33,191.33,0,0,1-5.35,23.91c-5,16.92-11.14,28.06-18.29,33.1A.52.52,0,0,1,187,184.06Z" fill="#d1d3d4"/><path d="M179.38,206.81a21.64,21.64,0,0,1-10-2.5.5.5,0,0,1,.52-.86c.61.36,15.08,8.69,26-7.61a.5.5,0,0,1,.69-.14.51.51,0,0,1,.14.7C191.23,204.66,184.68,206.81,179.38,206.81Z" fill="#d1d3d4"/><path d="M327.56,226.68a.5.5,0,0,1-.5-.5c0-4-1.12-7-3.33-8.91-3.54-3.13-8.77-2.54-8.82-2.53a.5.5,0,0,1-.13-1c.24,0,5.72-.67,9.61,2.77,2.44,2.15,3.67,5.4,3.67,9.66A.5.5,0,0,1,327.56,226.68Z" fill="#d1d3d4"/><path d="M63.62,237.85c-5.44,0-11.61-9.1-11.87-9.49a.52.52,0,0,1,0-.56.53.53,0,0,1,.52-.21c3.85.8,8.46,3.27,11.66,5.22a40.4,40.4,0,0,1-8.5-17.91.49.49,0,0,1,.15-.44.52.52,0,0,1,.46-.12c6.68,1.67,10.84,8.4,13.18,13.86A103.85,103.85,0,0,1,68,203.61a.5.5,0,0,1,.88-.28c11.55,13.53,9.62,32.29,9.6,32.48a.48.48,0,0,1-.55.44.5.5,0,0,1-.44-.55c0-.18,1.8-17.67-8.59-30.77a110,110,0,0,0,2.76,30.49c0,.12,0,.19,0,.23a.5.5,0,0,1-1,.22v-.07c-.29-1.2-4.23-17.05-14.15-20.27.61,2.85,3.25,12.83,11.3,19.85a.5.5,0,0,1,.06.69.49.49,0,0,1-.68.09c-.08,0-7.74-5.48-13.88-7.26,1.81,2.41,6.39,7.95,10.25,7.95a.51.51,0,0,1,.5.5A.5.5,0,0,1,63.62,237.85Z" fill="#d1d3d4"/></g></svg>