<svg width="950" height="662" viewBox="0 0 950 662" fill="none" xmlns="http://www.w3.org/2000/svg">
<g clip-path="url(#clip0)">
<path opacity="0.1" d="M89.45 160.67C108.97 204.76 84.07 255.53 54.76 293.76C44.95 306.58 34.12 320.02 32.76 336.1C31.12 355.77 44.44 373.85 60.24 385.67C89.06 407.21 128.42 413.87 162.72 403C192.36 393.61 217.28 372.4 247.18 363.85C297.18 349.53 350.18 373.27 393 402.85C423.31 423.76 455.77 449.24 492.31 444.76C518.02 441.61 539.84 423.56 554.65 402.31C561.8 392.05 568.02 380.55 578.43 373.63C584.62 369.51 591.89 367.33 599.16 365.77C665.55 351.58 736.01 386.21 801.52 368.4C845.77 356.4 881.05 321.4 902.99 281.13C924.93 240.86 935.17 195.39 943.7 150.34C949.76 118.34 954.79 83.77 940.86 54.34C926.12 23.18 892 4.29002 857.71 0.750017C823.42 -2.78998 789.03 6.98002 757.44 20.76C717.97 38.02 679.28 62.18 636.2 62.26C606.86 62.32 578.88 51.06 550.83 42.47C503.93 28.12 455.16 20.99 406.56 14.41C360.03 8.11001 313.04 2.25002 266.23 5.97002C233.11 8.60002 203.86 21.26 171.72 27.12C150.77 30.94 129.72 28.12 109.16 34.52C83.84 42.44 57.8 60.79 56.4 89.69C55.08 117.2 79.1 137.28 89.45 160.67Z" fill="#6633CC"/>
<path d="M601.9 199.93C597.63 188.8 586.62 162.64 579.37 167.83C570.21 174.39 588.53 203.37 588.53 203.37C589.05 208.69 578.75 219.76 573.23 225.28C573.23 224.84 573.23 224.59 573.23 224.59C573.177 224.8 573.097 225.002 572.99 225.19L572.53 224.94C572.407 225.381 572.185 225.788 571.88 226.13C571.88 225.38 571.83 224.94 571.83 224.94C570.77 229.43 552.27 235.12 552.27 235.12C552.27 235.12 551.77 235.12 550.91 235.12C545.77 235.12 532.39 233.96 526.19 224.04C522.983 218.666 518.881 213.88 514.06 209.89C512.409 208.597 510.403 207.836 508.31 207.71C491.18 206.61 477.31 197.94 474.54 196.09L474.03 195.74L473.92 196.06C473.27 195.13 472.64 194.14 472.05 193.12L471.75 192.57C475.896 190.489 479.385 187.299 481.83 183.356C484.275 179.413 485.58 174.87 485.6 170.23C485.6 170.06 485.6 169.88 485.6 169.71C487.107 167.105 487.9 164.149 487.9 161.14V158.14L491.81 154.66C493.6 153.07 495.45 151.39 496.36 149.2C496.725 148.314 496.889 147.357 496.84 146.4C496.928 145.58 496.805 144.751 496.483 143.991C496.161 143.232 495.65 142.567 495 142.06C492 139.99 487 142.06 484.83 139.18C483.83 137.88 484.01 136.11 483.52 134.58C482.52 131.47 478.92 129.79 475.59 129.74C472.26 129.69 469.07 130.9 465.87 131.81C459.147 133.719 452.131 134.376 445.17 133.75C443.287 133.415 441.355 133.483 439.5 133.95C438.367 134.418 437.361 135.147 436.561 136.076C435.762 137.005 435.193 138.11 434.9 139.3C434.653 140.194 434.505 141.113 434.46 142.04C431.67 145.187 430.127 149.245 430.12 153.45V161.14C430.126 165.245 431.598 169.214 434.27 172.33C434.585 175.948 435.685 179.455 437.494 182.605C439.302 185.755 441.775 188.473 444.74 190.57C444.74 190.77 444.74 190.973 444.74 191.18L444.87 191.26C444.708 193.644 444.34 196.01 443.77 198.33V197.82C443.77 197.82 429.77 205.27 414.77 205.45H413.12C410.161 205.35 407.284 206.429 405.12 208.45C400.68 212.63 392.9 219.24 388.12 219.24C387.12 219.24 361.88 224.17 357.7 224.99L349.89 217.34L349.65 217.79L349.19 217.34C348.336 217.406 347.487 217.53 346.65 217.71C342.65 212.97 334.65 201.95 332.8 187.16C332.8 187.16 350.07 167.49 343.72 149.16C338.3 133.54 323.37 167.02 319.13 177.11C318.388 178.871 318.296 180.838 318.87 182.66L332.9 227.88C331.564 231.384 331.181 235.18 331.79 238.88H331.63L341.85 251.99C341.85 251.99 349.54 255.27 361.57 255.21C370.387 255.225 379.125 253.548 387.31 250.27H389.68L389.23 250.44H401.4L409.14 273.85C408.88 275.98 405.14 305.71 402.14 312.36C401.25 314.582 400.847 316.969 400.96 319.36C401.117 323.954 401.867 328.508 403.19 332.91L409.97 332.66L409.71 333.19C403.97 344.96 394.38 365.93 388.71 385.53L378.84 405.53L386.24 495.23H386.54L387.11 495.32C387.91 495.44 389.11 495.62 390.69 495.82L390.11 496.82L373.8 523.82C373.8 523.82 362.17 547.63 387.9 543.14C387.9 543.14 397.41 540.38 401.29 524.14L418.21 508.27C418.21 508.27 419 497.73 414.21 493.52C413.91 488.65 413.15 474.43 414.32 471.01C415.73 466.87 408.32 419.26 408.32 419.26C408.32 419.26 435.1 363.71 451.32 362.33C452.509 362.247 453.703 362.403 454.83 362.79C468.16 367.13 484.31 399.36 489.06 409.39L489.28 409.85V409.94L489.46 410.33V410.44L489.62 410.78V410.87L489.76 411.18V411.25L489.88 411.5V411.6L489.97 411.79V411.87L490.03 412.01V412.09V412.18L490.08 412.3L492.19 474.75L492.4 474.86H492.5L492.32 476.15L491.4 482.6C491.4 482.6 503.03 507.1 502.32 510.2C501.61 513.3 510.07 525.73 522.05 522.28C534.03 518.83 526.9 499.38 526.9 499.38L515.36 475.6L514.85 474.54C515.999 473.835 517.084 473.028 518.09 472.13C518.09 472.13 514.57 446.6 518.09 441.08C521.61 435.56 522.67 410.37 522.67 410.37C522.67 410.37 520.2 393.12 515.97 385.53L498.25 322.28C503.56 327.22 507.69 329.15 511.14 329.02H511.71C513.227 329.049 514.724 328.676 516.05 327.94C516.762 327.538 517.432 327.066 518.05 326.53C518.168 326.428 518.278 326.318 518.38 326.2V326.2C523.31 322.06 512.74 305.84 506.75 296.2C500.98 286.9 508.93 261.63 509.53 259.75C510.064 259.358 510.637 259.023 511.24 258.75C512.48 258.219 513.811 257.93 515.16 257.9C520.9 258.1 527.96 261.4 536.7 263.06C542.774 264.093 548.929 264.572 555.09 264.49H555.45C557.9 264.49 560.12 264.44 561.92 264.37C563.562 264.305 565.169 263.871 566.62 263.1V263.1C567.864 262.375 568.99 261.464 569.96 260.4L585.3 243.07L584.9 243.26C585.643 241.295 585.643 239.125 584.9 237.16L601.11 209.16C601.928 207.78 602.424 206.234 602.561 204.635C602.698 203.037 602.472 201.429 601.9 199.93V199.93Z" fill="url(#paint0_linear)"/>
<path d="M419.78 505.9L403.45 521.55C399.71 537.55 390.52 540.26 390.52 540.26C365.69 544.68 376.91 521.26 376.91 521.26L392.66 494.61L394.6 491.32C394.6 491.32 405.83 487.92 413.31 489.96C414.254 490.219 415.127 490.691 415.86 491.34C420.55 495.41 419.78 505.9 419.78 505.9Z" fill="#444176"/>
<path d="M520.47 519.85C508.9 523.25 500.74 511.01 501.47 507.94C502.2 504.87 490.9 480.76 490.9 480.76L491.78 474.4L492.6 468.51L511.6 469.87L513.39 473.63L524.53 497.08C524.53 497.08 532.04 516.45 520.47 519.85Z" fill="#444176"/>
<path opacity="0.1" d="M416.04 494C414.25 497.07 399.74 495.52 392.67 494.56L394.61 491.27C394.61 491.27 405.84 487.87 413.32 489.91C414.264 490.169 415.137 490.641 415.87 491.29C415.97 492.95 416.04 494 416.04 494Z" fill="black"/>
<path opacity="0.1" d="M513.41 473.61C503.68 480.09 493.32 475.19 491.76 474.38L492.58 468.49L511.58 469.85L513.41 473.61Z" fill="black"/>
<path d="M516.05 439.57C512.65 445.01 516.05 470.19 516.05 470.19C504.82 480.4 491.56 472.91 491.56 472.91L489.56 411.34C489.56 411.34 467.45 360.65 451.8 362.01C436.15 363.37 410.3 418.14 410.3 418.14C410.3 418.14 417.44 465.08 416.08 469.14C414.72 473.2 416.08 492.95 416.08 492.95C413.7 497.03 388.87 492.95 388.87 492.95L381.73 404.5L391.21 384.76C396.66 365.44 405.92 344.76 411.46 333.16C414.21 327.39 416.05 323.87 416.05 323.87L434.15 320.1L492.9 307.92L514.01 384.76C518.09 392.24 520.47 409.25 520.47 409.25C520.47 409.25 519.45 434.13 516.05 439.57Z" fill="#34CB79"/>
<g opacity="0.1">
<path opacity="0.1" d="M497 472.91L495 411.34C495 411.34 472.89 360.65 457.24 362.01C456.54 362.078 455.852 362.233 455.19 362.47C470.45 367.54 489.56 411.34 489.56 411.34L491.56 472.91C495.732 475.036 500.436 475.894 505.09 475.38C502.269 475.041 499.53 474.204 497 472.91V472.91Z" fill="black"/>
<path opacity="0.1" d="M394.27 492.98L387.13 404.53L396.65 384.76C402.1 365.44 411.36 344.76 416.9 333.16C419.65 327.39 421.49 323.87 421.49 323.87L439.59 320.1L493.22 308.95L492.93 307.88L434.15 320.1L416.05 323.87C416.05 323.87 414.21 327.39 411.46 333.16C405.9 344.76 396.66 365.48 391.21 384.76L381.69 404.49L388.83 492.94C388.83 492.94 402.39 495.17 410.43 494.68C405.018 494.386 399.624 493.819 394.27 492.98V492.98Z" fill="black"/>
</g>
<path d="M352.9 218.97C352.9 218.97 333.51 219.97 336.23 240.4L341.67 241.08L349.83 232.24L353.91 224.76V223.06L352.9 218.97Z" fill="#CED2DF"/>
<path opacity="0.1" d="M352.9 218.97C352.9 218.97 333.51 219.97 336.23 240.4L341.67 241.08L349.83 232.24L353.91 224.76V223.06L352.9 218.97Z" fill="black"/>
<path d="M568.61 226.45C568.61 226.45 584.61 234.95 580.52 244.82L575.42 246.82L568.62 243.08L567.62 234.24L568.3 228.12L568.61 226.45Z" fill="#CED2DF"/>
<path opacity="0.1" d="M568.61 226.45C568.61 226.45 584.61 234.95 580.52 244.82L575.42 246.82L568.62 243.08L567.62 234.24L568.3 228.12L568.61 226.45Z" fill="black"/>
<path d="M465.88 138.68H452.27C440.622 138.68 431.18 148.122 431.18 159.77C431.18 171.418 440.622 180.86 452.27 180.86H465.88C477.528 180.86 486.97 171.418 486.97 159.77C486.97 148.122 477.528 138.68 465.88 138.68Z" fill="#051F38"/>
<path d="M352.77 221.86L340.86 240.86L339.86 237.48L323.68 184.76C323.127 182.963 323.215 181.029 323.93 179.29C328.02 169.35 342.44 136.29 347.67 151.74C353.79 169.74 337.12 189.16 337.12 189.16C339.02 204.92 347.87 216.34 351.35 220.3C352.23 221.33 352.77 221.86 352.77 221.86Z" fill="#FFB39F"/>
<path d="M566.06 230.02C566.06 230.02 584.77 212.33 584.06 205.19C584.06 205.19 566.37 176.62 575.22 170.19C582.22 165.07 592.85 190.87 596.97 201.84C597.515 203.301 597.733 204.864 597.611 206.419C597.488 207.973 597.027 209.482 596.26 210.84L573.9 250.43L566.06 230.02Z" fill="#FFB39F"/>
<path d="M444.95 180.7C444.95 180.7 448.35 202.47 438.49 210.64C428.63 218.81 466.73 218.76 466.73 218.76L480.34 206.17C480.34 206.17 464.69 191.54 469.45 180.66L444.95 180.7Z" fill="#FFB39F"/>
<path opacity="0.1" d="M444.27 205.53C444.27 205.53 458.9 216.42 473.52 204.17L497.33 253.5L495.97 313.71C495.97 313.71 446.64 339.22 426.23 323.58C405.82 307.94 422.83 299.77 422.83 299.77L418.07 253.51L423.17 223.57C423.17 223.57 432.35 209.28 433.04 209.28C433.73 209.28 444.27 205.53 444.27 205.53Z" fill="black"/>
<path d="M444.27 204.85C444.27 204.85 458.9 215.76 473.53 203.49L497.34 252.82L495.98 313.03C495.98 313.03 446.65 338.54 426.24 322.9C405.83 307.26 422.84 299.09 422.84 299.09L418.08 252.83L423.18 222.89C423.18 222.89 432.36 208.6 433.05 208.6C433.74 208.6 444.27 204.85 444.27 204.85Z" fill="#EBF1F6"/>
<path opacity="0.1" d="M444.27 199.76C444.27 199.76 430.4 207.66 415.34 207.27C413.927 207.226 412.52 207.463 411.2 207.968C409.88 208.472 408.673 209.235 407.65 210.21C403.36 214.33 395.85 220.85 391.2 220.85C390.2 220.85 361.26 226.63 361.26 226.63L353.61 218.98C353.61 218.98 342.21 241.26 336.77 240.24L346.64 253.17C346.64 253.17 365.35 261.33 389.84 251.47H404.13L411.61 274.6C411.61 274.6 407.87 305.9 404.81 312.7C401.75 319.5 405.81 332.77 405.81 332.77L432.68 331.77C432.68 331.77 434.04 318.5 436.08 316.77C438.12 315.04 428.94 256.56 428.94 256.56C428.94 256.56 422.82 223.56 445.27 211.66L444.27 199.76Z" fill="black"/>
<path opacity="0.1" d="M434.14 320.14C433.15 324.176 432.445 328.276 432.03 332.41L411.46 333.19C414.21 327.42 416.05 323.9 416.05 323.9L434.14 320.14Z" fill="black"/>
<path opacity="0.1" d="M352.77 221.86L340.86 240.86L339.86 237.48C344.23 233.14 349.35 224.07 351.39 220.29C352.23 221.33 352.77 221.86 352.77 221.86Z" fill="black"/>
<path d="M444.27 199.76C444.27 199.76 429.71 207.66 414.66 207.27C413.247 207.226 411.84 207.463 410.52 207.968C409.2 208.472 407.993 209.235 406.97 210.21C402.68 214.33 395.17 220.85 390.52 220.85C389.52 220.85 360.58 226.63 360.58 226.63L352.9 218.97C352.9 218.97 341.5 241.25 336.06 240.23L345.93 253.16C345.93 253.16 364.64 261.32 389.13 251.46H403.42L410.9 274.58C410.9 274.58 407.16 305.88 404.1 312.68C401.04 319.48 405.1 332.75 405.1 332.75L431.97 331.75C431.97 331.75 433.33 318.48 435.37 316.75C437.41 315.02 428.23 256.54 428.23 256.54C428.23 256.54 422.11 223.54 444.56 211.64L444.27 199.76Z" fill="#6633CC"/>
<path opacity="0.1" d="M473.53 197.7C473.53 197.7 487.41 208.28 505.94 209.5C507.967 209.627 509.906 210.378 511.49 211.65C516.163 215.615 520.124 220.35 523.2 225.65C530.68 237.9 549.05 236.54 549.05 236.54C549.05 236.54 566.91 230.93 567.93 226.54C567.93 226.54 568.44 250.54 579.67 244.74L564.9 261.76C563.969 262.835 562.828 263.708 561.546 264.326C560.265 264.943 558.871 265.292 557.45 265.35C551.9 265.57 542.26 265.64 534.12 264.06C521.87 261.68 513.03 255.9 506.57 261C506.57 261 498.07 287.53 503.85 297.06C509.63 306.59 519.85 322.57 515.08 326.66C510.31 330.75 504.53 330.4 495.01 320.54C485.49 310.68 484.46 294.01 484.46 294.01L486.84 251.15C486.84 251.15 477.66 218.83 468.84 212.37L473.53 197.7Z" fill="black"/>
<path opacity="0.1" d="M581.02 244.31L566.21 261.4C565.226 262.534 564.008 263.441 562.64 264.06V264.06C561.424 264.609 560.113 264.918 558.78 264.97C553.23 265.2 543.59 265.27 535.45 263.68C523.99 261.45 515.51 256.25 509.17 259.76C508.721 260.008 508.293 260.292 507.89 260.61C507.89 260.61 499.39 287.14 505.17 296.67C510.95 306.2 521.17 322.18 516.4 326.27C515.602 326.972 514.706 327.555 513.74 328C509.46 329.93 504.15 328.26 496.33 320.15C486.81 310.28 485.78 293.62 485.78 293.62L488.16 250.76C488.16 250.76 478.98 218.44 470.16 211.98L474.05 198.03C476.73 199.85 490.11 208.4 506.65 209.49C508.677 209.617 510.616 210.368 512.2 211.64C516.873 215.605 520.833 220.34 523.91 225.64C531.39 237.89 549.76 236.53 549.76 236.53C554.164 235.125 558.464 233.414 562.63 231.41V231.41C565.24 230.13 567.54 228.73 568.63 227.41C568.936 227.065 569.158 226.655 569.28 226.21C569.28 226.21 569.8 250.09 581.02 244.31Z" fill="black"/>
<path d="M580.34 244.65L565.54 261.76C564.726 262.699 563.751 263.485 562.66 264.08V264.08C561.262 264.839 559.709 265.267 558.12 265.33C552.57 265.56 542.93 265.63 534.79 264.04C523.74 261.89 515.45 256.97 509.2 259.78C508.486 260.091 507.814 260.491 507.2 260.97C507.2 260.97 498.7 287.5 504.48 297.03C510.26 306.56 520.48 322.54 515.71 326.63C515.093 327.161 514.423 327.627 513.71 328.02C509.31 330.45 503.87 329.02 495.62 320.51C486.1 310.64 485.07 293.98 485.07 293.98L487.45 251.12C487.45 251.12 478.27 218.8 469.45 212.34L473.53 197.71L474.02 198.05C476.7 199.87 490.08 208.42 506.62 209.51C508.647 209.637 510.586 210.388 512.17 211.66C516.843 215.625 520.803 220.36 523.88 225.66C531.36 237.91 549.73 236.55 549.73 236.55C554.134 235.145 558.434 233.434 562.6 231.43V231.43C565.69 229.85 568.21 228.12 568.6 226.54C568.6 226.54 568.6 226.85 568.6 227.4C568.9 231.53 570.4 249.76 580.34 244.65Z" fill="#6633CC"/>
<path opacity="0.1" d="M469.75 181.21H444.75C445.3 185.185 445.457 189.204 445.22 193.21C449.036 195.896 453.512 197.491 458.166 197.826C462.821 198.161 467.479 197.222 471.64 195.11C469.24 190.67 467.78 185.63 469.75 181.21Z" fill="black"/>
<path d="M459.92 197.36C473.633 197.36 484.75 186.243 484.75 172.53C484.75 158.817 473.633 147.7 459.92 147.7C446.207 147.7 435.09 158.817 435.09 172.53C435.09 186.243 446.207 197.36 459.92 197.36Z" fill="#FFB39F"/>
<path opacity="0.1" d="M454.76 168.11C457.53 167.78 460.3 166.8 463.03 167.35C465.51 167.85 467.62 169.56 470.1 170.08C474.88 171.08 479.32 167.56 482.93 164.28L490.73 157.18C492.46 155.61 494.24 153.96 495.13 151.8C496.02 149.64 495.71 146.8 493.81 145.44C490.96 143.44 486.05 145.44 483.99 142.6C483.06 141.32 483.2 139.6 482.72 138.07C481.72 135.01 478.28 133.34 475.06 133.3C471.84 133.26 468.76 134.44 465.68 135.3C459.192 137.182 452.407 137.83 445.68 137.21C443.864 136.878 441.998 136.942 440.21 137.4C439.109 137.87 438.134 138.591 437.363 139.507C436.592 140.422 436.046 141.506 435.77 142.67C434.23 148.11 436.86 156.88 439.5 161.75C442.14 166.62 449.49 168.76 454.76 168.11Z" fill="black"/>
<path d="M454.76 167.43C457.53 167.1 460.3 166.12 463.03 166.67C465.51 167.17 467.62 168.88 470.1 169.4C474.88 170.4 479.32 166.88 482.93 163.6L490.73 156.5C492.46 154.93 494.24 153.28 495.13 151.12C496.02 148.96 495.71 146.12 493.81 144.76C490.96 142.76 486.05 144.76 483.99 141.92C483.06 140.64 483.2 138.92 482.72 137.39C481.72 134.33 478.28 132.66 475.06 132.62C471.84 132.58 468.76 133.76 465.68 134.62C459.192 136.502 452.407 137.15 445.68 136.53C443.864 136.198 441.998 136.262 440.21 136.72C439.109 137.19 438.134 137.911 437.363 138.827C436.592 139.742 436.046 140.826 435.77 141.99C434.23 147.43 436.86 156.2 439.5 161.07C442.14 165.94 449.49 168.03 454.76 167.43Z" fill="#051F38"/>
<path opacity="0.1" d="M411.45 274.76C411.45 274.76 416.89 275.44 419.61 278.84C422.33 282.24 427.09 283.26 427.09 283.26" fill="black"/>
<path opacity="0.1" d="M362.46 229.85C362.46 229.85 366.9 239.76 364.16 240.76C361.42 241.76 362.46 248.92 362.46 248.92" fill="black"/>
<g opacity="0.1">
<path opacity="0.1" d="M363.99 226.45C363.99 226.45 392.9 220.67 393.9 220.67C398.56 220.67 406.06 214.15 410.35 210.03C411.655 208.78 413.26 207.888 415.01 207.44H414.64C413.227 207.396 411.82 207.633 410.5 208.138C409.179 208.642 407.973 209.405 406.95 210.38C402.66 214.5 395.15 221.02 390.5 221.02C389.69 221.02 371.19 224.69 363.68 226.18L363.99 226.45Z" fill="black"/>
<path opacity="0.1" d="M444.31 201.19V199.92C437.355 203.466 429.871 205.861 422.15 207.01C429.811 206.328 437.302 204.361 444.31 201.19V201.19Z" fill="black"/>
<path opacity="0.1" d="M408.56 332.58C408.56 332.58 404.48 319.31 407.56 312.51C410.64 305.71 414.36 274.41 414.36 274.41L406.9 251.28H392.57L391.7 251.62H403.45L410.9 274.76C410.9 274.76 407.16 306.06 404.1 312.86C401.04 319.66 405.1 332.93 405.1 332.93L431.97 331.93V331.72L408.56 332.58Z" fill="black"/>
</g>
<g opacity="0.1">
<path opacity="0.1" d="M516.05 321.19C515.433 321.721 514.763 322.187 514.05 322.58C509.65 325.01 504.21 323.58 495.96 315.07C488.4 307.24 486.2 295.07 485.61 290.46L485.41 293.98C485.41 293.98 486.41 310.65 495.96 320.51C504.21 329.05 509.65 330.45 514.05 328.02C514.763 327.627 515.433 327.161 516.05 326.63C517.48 325.4 517.56 323.09 516.81 320.21C516.624 320.584 516.366 320.917 516.05 321.19V321.19Z" fill="black"/>
<path opacity="0.1" d="M575.53 245.16L565.9 256.29C565.086 257.229 564.111 258.015 563.02 258.61V258.61C561.622 259.369 560.069 259.797 558.48 259.86C552.93 260.09 543.29 260.16 535.15 258.57C524.1 256.42 515.81 251.5 509.56 254.31C508.846 254.621 508.174 255.021 507.56 255.5C507.56 255.5 502.07 272.64 502.91 284.31C503.56 273.4 507.56 260.94 507.56 260.94C508.174 260.461 508.846 260.061 509.56 259.75C515.82 256.94 524.1 261.86 535.15 264.01C543.29 265.59 552.92 265.52 558.48 265.3C560.069 265.237 561.622 264.809 563.02 264.05C564.108 263.464 565.084 262.688 565.9 261.76L580.71 244.67C579.944 245.147 579.077 245.44 578.178 245.525C577.279 245.61 576.372 245.485 575.53 245.16V245.16Z" fill="black"/>
</g>
<path d="M140.64 367.65C140.759 367.765 140.911 367.839 141.075 367.86C141.239 367.882 141.406 367.85 141.55 367.77C141.242 367.775 140.936 367.735 140.64 367.65V367.65Z" fill="url(#paint1_linear)"/>
<path d="M242.55 202C240.75 201.48 238.18 200.63 235.09 199.55C238.301 195.419 240.651 190.685 242 185.63L241.74 185.73C241.83 185.42 241.92 185.12 242 184.8C236.07 187.21 229.51 183.13 225.33 177.89C221.15 172.65 218.33 166.15 213.75 161.33C211.841 159.413 209.789 157.644 207.61 156.04C206.26 155.04 204.81 153.91 203.16 153.86C200.49 153.78 198.4 156.4 195.83 157.17C194.139 157.551 192.378 157.485 190.72 156.98C184.09 155.46 177.72 152.65 170.95 151.91C167.328 151.463 163.651 151.877 160.22 153.12C156.82 154.41 155.27 156.98 152.52 159.04C149.52 161.25 143.66 161.2 140.17 161.59C135.935 162.074 131.671 162.251 127.41 162.12C124.962 161.908 122.496 161.998 120.07 162.39C115 163.5 110.93 167.53 107.13 171.39C106.093 172.263 105.346 173.432 104.99 174.74C104.941 175.108 104.941 175.482 104.99 175.85C104.952 176.858 105.125 177.863 105.5 178.8C106.67 182.271 108.323 185.56 110.41 188.57C111.96 190.79 113.77 192.88 114.65 195.51C115.067 196.803 115.286 198.151 115.3 199.51C115.257 200.952 115.106 202.39 114.85 203.81C114.179 207.736 113.076 211.576 111.56 215.26C110.619 217.151 109.972 219.174 109.64 221.26C109.611 221.686 109.611 222.114 109.64 222.54C109.39 229.14 116.05 233.89 117.34 240.45C117.446 240.994 117.509 241.546 117.53 242.1C117.39 246.19 115.06 250.19 111.62 251.78C111.92 251.9 112.23 252 112.54 252.1C112.244 252.286 111.937 252.453 111.62 252.6C112.25 252.84 112.89 253.05 113.54 253.22C109.63 256.625 106.345 260.686 103.83 265.22C92.26 286.76 13.9 328.95 13.9 328.95L15.06 329.61L14.12 330.22C7.33998 334.73 -8.57002 347.88 5.80998 364.51C5.80998 364.51 17.04 346.79 24.91 339.24C25.26 338.9 25.61 338.59 25.91 338.3C26.0829 338.566 26.1988 338.865 26.2504 339.179C26.3021 339.492 26.2883 339.812 26.21 340.12L77.73 311.17C77.73 311.17 96.04 298.35 101.15 295.46C104.747 293.219 108.661 291.534 112.76 290.46L112.16 290.71C114.086 290.18 116.072 289.898 118.07 289.87C127.19 290.01 137.07 296.69 140.32 323.14C144.68 358.56 142.66 364.95 141.26 365.82C141.087 365.807 140.917 365.777 140.75 365.73C140.793 365.768 140.84 365.801 140.89 365.83C140.7 365.817 140.513 365.783 140.33 365.73C140.431 365.822 140.553 365.888 140.687 365.919C140.82 365.951 140.958 365.947 141.09 365.91C141.185 365.939 141.284 365.947 141.382 365.935C141.481 365.923 141.575 365.891 141.66 365.84C141.89 365.853 142.12 365.853 142.35 365.84C142.35 366.167 142.327 366.5 142.28 366.84C142.21 366.84 141.87 367.03 142.28 367.05C142.17 369.05 142.18 371.22 142.28 373.49C137.75 373.74 133.22 374.01 129.28 374.25L129.63 372.38L129.79 371.54C133.27 371.26 136.57 370.24 136.96 367.42C137.81 361.22 129.3 357.91 122.06 357.5C114.82 357.09 71.4 359.98 71.4 359.98C71.4 359.98 64.89 368.41 85.54 370.98C86.1533 371.3 86.79 371.633 87.45 371.98C95.54 376.59 106.51 385.08 111.77 389.26L112.5 389.84L110.14 391.76C122.91 394.65 135.26 443.45 142.07 465.76C148.88 488.07 163.78 487.26 176.13 483.95C187.7 480.85 189.13 447.25 189.32 443.03V442.6L209.9 468.02L211.46 469.95C212.06 470.263 212.653 470.557 213.24 470.83C228.82 478.24 246.03 464.03 241.14 447.83C236.19 431.5 228.51 407.35 223.39 397.14C219.1 388.59 213.56 374.39 210.2 365.5C210.636 365.325 211.061 365.121 211.47 364.89C211.47 364.89 211.39 364.49 211.26 363.76L211.47 363.65C211.47 363.65 206.47 337.93 206.25 319.65C206.25 319.33 206.25 318.997 206.25 318.65C206.25 318.45 206.25 318.25 206.25 318.06C209.97 317.21 212.33 316.88 212.33 316.88L212.4 316.08L211.97 316.17L214.04 292.48C214.04 292.48 221.64 276.31 215.82 269.58C214.051 267.612 212.869 265.186 212.41 262.58C211.41 256.39 212.41 246.06 225.96 237.48C246.82 224.25 254.96 213.48 254.96 213.48C254.96 213.48 255.32 205.76 242.55 202ZM201.12 218.44V207.49C204.99 207.3 208.94 207.75 212.83 207.49C214.74 207.357 216.632 207.038 218.48 206.54L219.42 207.19C213.729 211.568 207.595 215.338 201.12 218.44V218.44ZM141.97 390.08C143.5 391.14 145.04 392.24 146.55 393.35C147.49 398.75 148.32 402.56 148.38 402.83C146.654 398.386 144.508 394.116 141.97 390.08V390.08Z" fill="url(#paint2_linear)"/>
<path d="M175.03 381.08L174.13 385.97L173.44 389.71L172.18 396.55L159.96 405.1C159.96 405.1 158.86 404.16 157.04 402.67C152.04 398.55 141.51 390.19 133.78 385.67C131.794 384.402 129.644 383.409 127.39 382.72L175.03 381.08Z" fill="#FFBDC6"/>
<path opacity="0.1" d="M175.03 381.08L174.13 385.97C171.436 386.12 168.735 385.982 166.07 385.56L137.56 385.97C136.21 385.89 134.95 385.78 133.77 385.66C131.784 384.392 129.634 383.399 127.38 382.71L175.03 381.08Z" fill="black"/>
<path d="M166.07 384.76C166.07 384.76 180.33 387.2 181.14 381.09C181.95 374.98 173.81 371.76 166.9 371.3C159.99 370.84 118.42 373.76 118.42 373.76C118.42 373.76 111.09 383.53 137.56 385.16L166.07 384.76Z" fill="#7679B4"/>
<path opacity="0.1" d="M175.03 381.08L174.13 385.97L173.44 389.71L172.18 396.55L159.96 405.1C159.96 405.1 158.86 404.16 157.04 402.67C152.04 398.55 141.51 390.19 133.78 385.67C131.794 384.402 129.644 383.409 127.39 382.72L175.03 381.08Z" fill="black"/>
<path opacity="0.1" d="M175.03 381.08L174.13 385.97C171.436 386.12 168.735 385.982 166.07 385.56L137.56 385.97C136.21 385.89 134.95 385.78 133.77 385.66C131.784 384.392 129.634 383.399 127.38 382.71L175.03 381.08Z" fill="black"/>
<path opacity="0.1" d="M166.07 384.76C166.07 384.76 180.33 387.2 181.14 381.09C181.95 374.98 173.81 371.76 166.9 371.3C159.99 370.84 118.42 373.76 118.42 373.76C118.42 373.76 111.09 383.53 137.56 385.16L166.07 384.76Z" fill="black"/>
<path d="M197.22 183.95H122.69V272.33H197.22V183.95Z" fill="#A66477"/>
<path opacity="0.1" d="M197.22 183.95H122.69V272.33H197.22V183.95Z" fill="black"/>
<path d="M35.33 335.26C34.1 335.57 32.54 336.75 30.79 338.47C23.26 345.91 12.52 363.36 12.52 363.36C-1.23996 346.98 13.99 334.03 20.52 329.58C22.1 328.5 23.16 327.92 23.16 327.92L35.33 335.26Z" fill="#FFBDC6"/>
<path d="M174.22 211.85C174.22 211.85 177.89 237.51 190.51 243.62C203.13 249.73 174.22 261.13 174.22 261.13L134.71 246.47C134.71 246.47 157.11 239.14 152.63 217.55L174.22 211.85Z" fill="#FFBDC6"/>
<path d="M131.9 366.21L131 371.1L130.31 374.84L129.05 381.68L116.83 390.23C116.83 390.23 115.73 389.29 113.91 387.8C108.91 383.68 98.38 375.32 90.65 370.8C88.6636 369.532 86.5139 368.539 84.26 367.85L131.9 366.21Z" fill="#FFBDC6"/>
<path opacity="0.1" d="M131.9 366.21L131 371.1C128.306 371.25 125.604 371.112 122.94 370.69L94.43 371.1C93.08 371.02 91.82 370.91 90.64 370.79C88.6536 369.522 86.5039 368.529 84.25 367.84L131.9 366.21Z" fill="black"/>
<path d="M122.9 369.88C122.9 369.88 137.16 372.32 137.97 366.21C138.78 360.1 130.64 356.84 123.71 356.44C116.78 356.04 75.2399 358.88 75.2399 358.88C75.2399 358.88 67.9099 368.65 94.3799 370.28L122.9 369.88Z" fill="#7679B4"/>
<path opacity="0.1" d="M130.27 374.85L129.01 381.69L116.79 390.24C116.79 390.24 115.69 389.3 113.87 387.81L130.03 374.56L130.27 374.85Z" fill="black"/>
<path d="M210.9 468.09C210.34 467.817 209.773 467.527 209.2 467.22L207.71 465.32L188.03 440.32V440.76C187.9 444.91 186.48 478.01 175.42 481.06C163.61 484.32 149.35 485.13 142.84 463.14C136.33 441.15 124.51 393.09 112.29 390.24L130.41 375.37C130.41 375.37 142.41 389.37 147.31 402.85C147.13 401.99 138.84 363.28 145.68 356.44H205.14C205.14 356.44 214.3 382.58 220.62 395.54C225.52 405.6 232.87 429.38 237.62 445.47C242.32 461.39 225.9 475.39 210.9 468.09Z" fill="#6633CC"/>
<path opacity="0.1" d="M209.24 363.76C200.07 369.19 159.75 366.98 146.61 366.1L143.04 365.84C142.65 365.84 143.1 365.62 143.1 365.62L143.47 361.92L153.24 337.08L205.58 306.76C204.52 309.95 204.16 314.84 204.25 320.45C204.51 338.43 209.24 363.76 209.24 363.76Z" fill="black"/>
<path d="M209.24 362.55C200.07 367.98 159.75 365.77 146.61 364.89L143.04 364.63H142.45L143.1 364.46L146.32 363.61L153.24 335.91L205.58 305.57C204.52 308.76 204.16 313.65 204.25 319.26C204.51 337.21 209.24 362.55 209.24 362.55Z" fill="#F2F1F2"/>
<path opacity="0.1" d="M204.25 319.22C193.61 321.67 170.19 328.88 161.19 346.22C155.19 357.8 150.19 362.77 146.62 364.85L143.05 364.59L143.11 364.37L146.33 363.52L153.25 335.82L205.59 305.48C204.51 308.76 204.16 313.61 204.25 319.22Z" fill="black"/>
<path opacity="0.1" d="M23.11 327.93L35.33 335.26C34.1 335.57 32.54 336.75 30.79 338.47C29.79 335.47 23.37 331.35 20.47 329.59C22.05 328.51 23.11 327.93 23.11 327.93Z" fill="black"/>
<path opacity="0.1" d="M140.9 365.1C140.764 365.176 140.607 365.206 140.452 365.187C140.297 365.167 140.153 365.098 140.04 364.99C140.32 365.069 140.609 365.106 140.9 365.1V365.1Z" fill="black"/>
<path d="M168.51 241.99C168.51 241.99 157.51 243.21 149.77 235.07C149.77 235.07 117.19 244.44 106.19 265.62C95.19 286.8 20.25 328.34 20.25 328.34C20.25 328.34 33.25 335.67 32.06 339.34L81.34 310.83C81.34 310.83 98.85 298.2 103.74 295.35C108.63 292.5 135.51 274.99 141.21 322.64C146.91 370.29 141.21 364.64 141.21 364.64C141.21 364.64 149.36 367.49 161.21 344.64C173.06 321.79 209.68 316.54 209.68 316.54L211.68 292.54C211.68 292.54 218.95 276.62 213.38 269.98C211.681 268.026 210.554 265.642 210.12 263.09C209.19 256.99 210.12 246.82 223.12 238.37C243.12 225.37 250.82 214.75 250.82 214.75C250.82 214.75 251.23 207.01 239.01 203.35C226.79 199.69 177.1 179.73 177.1 179.73L175.47 186.65L214.57 214.35C214.57 214.35 195.02 230.23 179.57 229.83C179.51 229.76 182.36 241.58 168.51 241.99Z" fill="#34CB79"/>
<path opacity="0.1" d="M176.06 223.02C175.097 219.738 174.345 216.398 173.81 213.02L152.22 218.76C153.165 222.88 152.996 227.177 151.73 231.21C156.142 232.387 160.804 232.237 165.131 230.779C169.459 229.32 173.26 226.618 176.06 223.01V223.02Z" fill="black"/>
<path d="M158.13 230.79C170.954 230.79 181.35 220.394 181.35 207.57C181.35 194.746 170.954 184.35 158.13 184.35C145.306 184.35 134.91 194.746 134.91 207.57C134.91 220.394 145.306 230.79 158.13 230.79Z" fill="#FFBDC6"/>
<path opacity="0.1" d="M170.47 154.76C176.91 155.49 183.04 158.26 189.38 159.76C190.964 160.257 192.652 160.322 194.27 159.95C196.73 159.19 198.73 156.61 201.27 156.69C202.84 156.69 204.27 157.81 205.53 158.84C207.617 160.424 209.58 162.165 211.4 164.05C215.77 168.8 218.49 175.2 222.48 180.36C226.47 185.52 232.76 189.54 238.43 187.17C234.58 202.17 221.94 213.64 208.28 214.57C202.83 214.94 197.28 213.81 191.97 215.41C190.654 215.946 189.265 216.284 187.85 216.41C184.85 216.41 182.37 213.62 180.47 210.91C176.03 204.53 172.47 197.29 167.47 191.48C165.82 189.56 163.87 187.73 161.54 187.38C159.21 187.03 157.06 188.14 154.98 189.22C151.55 191 148.04 192.84 145.38 195.88C142.72 198.92 141.04 203.47 142.14 207.59C142.73 209.81 144.09 211.81 144.14 214.14C144.14 217.84 140.92 220.55 140.27 224.14C140.127 225.656 140.073 227.178 140.11 228.7C139.82 233.64 136.6 237.7 133.22 240.79C131.91 242 130.45 243.29 130.07 245.16C129.81 246.43 130.07 247.78 129.9 249.07C129.41 252.28 126.21 253.9 123.38 254.32C120.075 254.804 116.7 254.404 113.6 253.16C117.6 251.29 119.99 245.96 119.07 241.16C117.81 234.55 111.17 229.81 111.73 223.07C112.043 221.006 112.663 219 113.57 217.12C115.019 213.484 116.072 209.702 116.71 205.84C117.364 202.868 117.299 199.782 116.52 196.84C115.67 194.25 113.94 192.19 112.46 190C110.456 187.023 108.874 183.782 107.76 180.37C107.356 179.362 107.202 178.271 107.31 177.19C107.632 175.915 108.329 174.766 109.31 173.89C112.95 170.08 116.85 166.11 121.69 165.01C124.003 164.625 126.355 164.534 128.69 164.74C132.767 164.87 136.848 164.696 140.9 164.22C144.24 163.83 149.9 163.88 152.72 161.7C155.35 159.7 156.84 157.15 160.09 155.87C163.407 154.656 166.971 154.275 170.47 154.76V154.76Z" fill="black"/>
<path opacity="0.1" d="M183.38 394.52C183.38 394.52 196.82 420.99 192.75 429.14Z" fill="black"/>
<path opacity="0.1" d="M207.75 465.32L188.07 440.32V440.76C188.07 440.76 186.93 432.68 190.68 435.4C198.89 441.34 212.03 451.08 212.31 452.76C212.59 454.44 209.65 461.18 207.75 465.32Z" fill="black"/>
<g opacity="0.1">
<path opacity="0.1" d="M179.9 229.76C179.9 229.76 181.56 236.64 176.19 240.08C184.46 238.66 184.82 232.23 184.57 229.43C183.026 229.68 181.463 229.79 179.9 229.76V229.76Z" fill="black"/>
<path opacity="0.1" d="M25.15 326.71C25.15 326.71 100.09 285.17 111.09 263.99C118.98 248.79 137.99 239.68 148.09 235.74C140.72 238.21 115.92 247.68 106.6 265.62C95.6 286.8 20.66 328.34 20.66 328.34L25.15 326.71Z" fill="black"/>
<path opacity="0.1" d="M194.48 226.53C207.23 222.53 219.42 212.66 219.42 212.66L180.32 184.96L181.21 181.16L177.47 179.66L175.84 186.58L214.94 214.28C208.666 219.212 201.791 223.328 194.48 226.53V226.53Z" fill="black"/>
<path opacity="0.1" d="M194.73 320.39C199.726 318.684 204.853 317.39 210.06 316.52L210.13 315.73C204.884 316.882 199.735 318.44 194.73 320.39V320.39Z" fill="black"/>
<path opacity="0.1" d="M147.34 363.06H146.98C146.844 363.136 146.687 363.166 146.532 363.147C146.377 363.127 146.233 363.058 146.12 362.95C146.4 363.028 146.69 363.065 146.98 363.06C148.32 362.28 150.33 356.2 146.12 321C141.62 283.42 123.96 286.37 114.29 290.69C124.17 287.97 137.77 290.32 141.64 322.63C145.85 357.83 143.84 363.92 142.5 364.69C144.237 364.625 145.918 364.059 147.34 363.06Z" fill="black"/>
<path opacity="0.1" d="M142.5 364.7C142.21 364.705 141.92 364.668 141.64 364.59C141.753 364.698 141.897 364.767 142.052 364.786C142.207 364.806 142.364 364.776 142.5 364.7V364.7Z" fill="black"/>
</g>
<path d="M170.47 153.97C176.91 154.7 183.04 157.47 189.38 158.97C190.964 159.467 192.652 159.532 194.27 159.16C196.73 158.4 198.73 155.82 201.27 155.9C202.84 155.9 204.27 157.02 205.53 158.05C207.617 159.634 209.58 161.375 211.4 163.26C215.77 168.01 218.49 174.41 222.48 179.57C226.47 184.73 232.76 188.75 238.43 186.38C234.58 201.38 221.94 212.85 208.28 213.78C202.83 214.15 197.28 213.02 191.97 214.62C190.654 215.156 189.265 215.493 187.85 215.62C184.85 215.62 182.37 212.83 180.47 210.12C176.03 203.74 172.47 196.5 167.47 190.69C165.82 188.77 163.87 186.94 161.54 186.59C159.21 186.24 157.06 187.35 154.98 188.43C151.55 190.21 148.04 192.05 145.38 195.09C142.72 198.13 141.04 202.68 142.14 206.8C142.73 209.02 144.09 211.02 144.14 213.35C144.14 217.05 140.92 219.76 140.27 223.35C140.127 224.865 140.073 226.388 140.11 227.91C139.82 232.85 136.6 236.91 133.22 240C131.91 241.21 130.45 242.5 130.07 244.37C129.81 245.64 130.07 246.99 129.9 248.28C129.41 251.49 126.21 253.11 123.38 253.53C120.075 254.014 116.7 253.614 113.6 252.37C117.6 250.5 119.99 245.17 119.07 240.37C117.81 233.76 111.17 229.02 111.73 222.28C112.043 220.216 112.663 218.21 113.57 216.33C115.019 212.694 116.072 208.912 116.71 205.05C117.364 202.078 117.299 198.992 116.52 196.05C115.67 193.46 113.94 191.4 112.46 189.21C110.456 186.233 108.874 182.992 107.76 179.58C107.356 178.572 107.202 177.481 107.31 176.4C107.632 175.125 108.329 173.976 109.31 173.1C112.95 169.29 116.85 165.32 121.69 164.22C124.003 163.835 126.355 163.744 128.69 163.95C132.767 164.08 136.848 163.906 140.9 163.43C144.24 163.04 149.9 163.09 152.72 160.91C155.35 158.91 156.84 156.36 160.09 155.08C163.407 153.866 166.971 153.484 170.47 153.97V153.97Z" fill="#A66477"/>
<path d="M833.5 101.85C833.5 101.72 833.5 101.6 833.5 101.48C833.5 101.36 833.5 101.22 833.44 101.1H833.28C833.28 100.83 833.28 100.56 833.28 100.27C832.88 91 820.06 71.27 814.92 77.03C810.42 82.09 817.21 94.89 820.67 100.65L820.98 101.17L820.81 101.06C820.81 101.06 806.5 143.74 804.81 145.4C803.12 147.06 791.34 180.62 775.81 184.4C772.74 185.13 770.19 185.79 768.05 186.4L768.22 185.83C769.22 182.56 770.45 179.47 770.95 175.83C771.45 172.19 770.95 167.78 769.11 166.01C768.21 165.13 767.11 165.01 766.37 163.61C765.89 162.382 765.632 161.078 765.61 159.76L764.29 143.58L765.21 143.3C770.77 141.52 776.16 137.3 776.79 131.62C776.597 131.693 776.4 131.757 776.2 131.81C776.273 131.48 776.33 131.146 776.37 130.81C771.7 132.65 767.37 127.81 762.87 125.64C755.46 122.01 746.99 125.43 739.34 126.26C730.67 127.21 722.44 123.61 713.58 124.26C708.76 124.63 703.4 127.9 703.66 132.65C703.81 135.26 705.66 137.47 706.42 139.97C708.34 146.02 704.07 152.09 700.33 157.25C697.87 160.64 695.51 164.77 695.09 168.75C686.48 159.75 677.17 149.35 676.09 145.44L651.18 102.76C651.18 102.76 650.59 103.39 649.64 104.32C649.49 103.86 649.31 103.32 649.11 102.78C645.93 93.87 636.93 72.28 625.52 76.24C614.11 80.2 630.25 102.33 637.27 111.15L638.27 112.37C637.681 112.515 637.063 112.487 636.49 112.29L664.27 159.94C664.27 159.94 669.32 169.06 673.95 171.54C673.95 171.54 708.46 215.05 708.88 223.75C709.3 232.45 724.4 255.66 724.4 255.66C724.4 255.66 729.45 293.37 720.61 300H720.72H720.79H720.9H721H721.2H721.33H721.46H721.63H721.77H721.97H722.07C721.65 300.41 721.22 300.86 720.78 301.35C714.23 308.61 705.86 324.17 717.3 350.63C734.13 389.63 736.66 404.91 736.66 404.91C736.66 404.91 704.66 406.57 698.36 407.81C692.78 408.91 671.09 409.68 666.13 409.81C664.36 407.75 659.13 403.19 652.07 409.81C643.23 418.1 636.92 445.81 636.92 445.81C636.92 445.81 633.55 468.19 644.92 462.38C644.92 462.38 658.39 443.73 662.17 442.9C664.05 442.49 666.04 439.72 667.56 437.05L667.64 437.1C667.73 437.1 668.1 436.9 668.7 436.66C671.5 435.55 679.21 432.88 685.29 434.21C688.62 434.94 702.9 435.11 717.87 435.07C714.49 443.17 708.43 464.07 708.43 464.07C708.43 464.07 705.9 483.56 714.3 482.76C720.3 482.17 729.5 466.84 734.3 458.09C737.78 455.54 747.75 446.4 755.12 447.09L804.78 428.03C804.78 428.03 816.56 421.4 810.25 399.44C805.25 381.98 791.02 346.24 785.4 332.31L785.23 331.95C783.87 328.58 783.05 326.58 783.05 326.58C780.741 320.221 779.226 313.601 778.54 306.87C778.49 306.34 778.45 305.8 778.41 305.27C779.106 304.978 779.761 304.598 780.36 304.14C780.36 304.14 775.73 257.32 780.36 252.34L780.44 252.25V252.19L780.52 252.09L780.7 251.86L780.92 251.58C781.17 251.25 781.47 250.84 781.81 250.34C784.46 246.46 789.4 237.6 787.98 227.14C787.92 226.687 787.847 226.23 787.76 225.77C787.216 222.933 786.245 220.196 784.88 217.65C784.68 216.59 784.556 215.517 784.51 214.44C784.51 213.83 784.51 213.16 784.51 212.44V212.32C784.51 212.127 784.51 211.933 784.51 211.74V211.6C784.51 211.13 784.59 210.6 784.66 210.16V209.98C784.66 209.8 784.69 209.617 784.75 209.43V209.2C784.75 209.02 784.83 208.84 784.87 208.66V208.47C784.93 208.23 784.99 207.99 785.07 207.75V207.63C785.13 207.43 785.197 207.233 785.27 207.04L785.36 206.81L785.56 206.33L785.66 206.09C785.74 205.91 785.83 205.73 785.92 205.55L785.99 205.4C786.11 205.18 786.237 204.963 786.37 204.75L786.48 204.58L786.81 204.11L786.97 203.9L787.32 203.48L787.48 203.3C787.66 203.11 787.84 202.92 788.04 202.74C793.51 197.74 817.92 160.89 817.92 160.89C817.92 160.89 823.81 152.6 823.81 147.22C824.14 147.1 834.55 112.4 833.5 101.85ZM767.97 411.6C767.37 405.92 766.77 398.88 766.22 391.6L775.74 406.44C775.74 406.44 774.84 410.96 767.97 411.6Z" fill="url(#paint3_linear)"/>
<path d="M668.71 408.46C668.71 408.46 663.01 399.46 654.45 407.65C645.89 415.84 639.79 443.08 639.79 443.08C639.79 443.08 636.53 465.08 647.53 459.37C647.53 459.37 660.53 441.04 664.23 440.23C667.93 439.42 671.97 429.23 671.97 429.23L668.71 408.46Z" fill="#493545"/>
<path d="M729.8 430.45C729.8 430.45 722.06 426.78 719.62 429.64C717.18 432.5 709.03 461 709.03 461C709.03 461 706.59 479.74 714.73 478.92C722.87 478.1 737.13 448.76 737.13 448.76L729.8 430.45Z" fill="#493545"/>
<path opacity="0.05" d="M729.8 430.45C729.8 430.45 722.06 426.78 719.62 429.64C717.18 432.5 709.03 461 709.03 461C709.03 461 706.59 479.74 714.73 478.92C722.87 478.1 737.13 448.76 737.13 448.76L729.8 430.45Z" fill="black"/>
<path d="M756.68 375.06L774.19 402.35C774.19 402.35 772.97 408.46 762.38 407.24L726.13 430.05C726.13 430.05 722.98 457.82 733.05 455.3C734.68 454.89 746.05 443.08 754.23 443.9L802.3 425.16C802.3 425.16 813.7 418.64 807.59 397.06C801.48 375.48 781.28 325.44 781.28 325.44L749.35 343.3L756.68 375.06Z" fill="#6633CC"/>
<path opacity="0.05" d="M754.017 375.62L771.527 402.91C771.527 402.91 770.307 409.02 759.717 407.8L723.467 430.61C723.467 430.61 720.317 458.38 730.387 455.86C732.017 455.45 743.387 443.64 751.567 444.46L799.637 425.72C799.637 425.72 811.037 419.2 804.927 397.62C798.817 376.04 778.617 326 778.617 326L746.687 343.86L754.017 375.62Z" fill="#030303"/>
<path d="M767.68 415.38C770.12 430.86 756.28 432.08 756.28 432.08C756.28 432.08 693.96 433.3 686.63 431.67C679.3 430.04 669.52 434.52 669.52 434.52C656.89 426.78 667.08 407.64 667.08 407.64C667.08 407.64 693.15 406.83 699.26 405.64C705.37 404.45 736.32 402.76 736.32 402.76C736.32 402.76 733.88 387.69 717.58 349.41C706.51 323.41 714.58 308.11 720.95 300.98C722.576 299.088 724.457 297.432 726.54 296.06L776.64 298.5C776.586 301.027 776.68 303.554 776.92 306.07C777.777 314.707 780.022 323.149 783.57 331.07C780.72 331.07 762.39 348.18 762.39 348.18C762.39 348.18 765.23 399.91 767.68 415.38Z" fill="#6633CC"/>
<path opacity="0.1" d="M670.74 409.27C670.74 409.27 696.81 408.46 702.92 407.27C709.03 406.08 739.98 404.42 739.98 404.42C739.98 404.42 737.54 389.35 721.24 351.07C710.17 325.07 718.24 309.77 724.61 302.64C726.235 300.748 728.117 299.092 730.2 297.72L776.62 299.98C776.62 299.5 776.62 298.98 776.62 298.53L726.52 296.09C724.437 297.462 722.555 299.118 720.93 301.01C714.59 308.15 706.49 323.44 717.56 349.44C733.9 387.69 736.32 402.76 736.32 402.76C736.32 402.76 705.32 404.39 699.26 405.61C693.2 406.83 667.08 407.61 667.08 407.61C667.08 407.61 656.9 426.76 669.52 434.53C669.52 434.53 669.9 434.35 670.52 434.09C662.13 425.46 670.74 409.27 670.74 409.27Z" fill="black"/>
<path d="M745.27 146.57H720.02V210.51H745.27V146.57Z" fill="#493545"/>
<path opacity="0.1" d="M745.27 146.57H720.02V210.51H745.27V146.57Z" fill="black"/>
<path d="M759.71 137.19C760.58 137.43 761.56 137.46 762.15 138.66C762.516 139.619 762.716 140.634 762.74 141.66L764.33 161.42C764.352 162.714 764.603 163.993 765.07 165.2C765.74 166.54 766.85 166.7 767.72 167.56C769.47 169.3 769.98 173.66 769.5 177.21C769.02 180.76 767.81 183.8 766.86 187.01C765.5 191.61 764.6 196.78 762.69 200.66C760.78 204.54 757.31 206.66 755.07 203.4C752.83 200.14 753.13 193.56 752.71 188.17C752.01 179.17 748.5 171.41 748.26 162.35C748.06 155.02 750.03 148.18 751.26 141.23C752.14 136.46 752.19 130.67 753.47 126.38C754.54 131.48 756.58 136.33 759.71 137.19Z" fill="#493545"/>
<path opacity="0.1" d="M759.71 137.19C760.58 137.43 761.56 137.46 762.15 138.66C762.516 139.619 762.716 140.634 762.74 141.66L764.33 161.42C764.352 162.714 764.603 163.993 765.07 165.2C765.74 166.54 766.85 166.7 767.72 167.56C769.47 169.3 769.98 173.66 769.5 177.21C769.02 180.76 767.81 183.8 766.86 187.01C765.5 191.61 764.6 196.78 762.69 200.66C760.78 204.54 757.31 206.66 755.07 203.4C752.83 200.14 753.13 193.56 752.71 188.17C752.01 179.17 748.5 171.41 748.26 162.35C748.06 155.02 750.03 148.18 751.26 141.23C752.14 136.46 752.19 130.67 753.47 126.38C754.54 131.48 756.58 136.33 759.71 137.19Z" fill="black"/>
<path d="M652.82 109.1L643.05 117.25C643.05 117.25 641.89 115.89 640.16 113.69C633.37 105.02 617.76 83.27 628.79 79.38C639.82 75.49 648.54 96.7 651.62 105.46C652.4 107.68 652.82 109.1 652.82 109.1Z" fill="#C77485"/>
<path d="M829.18 106.25C825.11 112.36 819.41 106.25 819.41 106.25C819.41 106.25 818.68 105.16 817.65 103.4C814.3 97.73 807.73 85.16 812.08 80.18C817.08 74.49 829.47 93.91 829.85 103.02C829.968 104.14 829.734 105.269 829.18 106.25V106.25Z" fill="#C77485"/>
<path d="M728.98 172.23C728.98 172.23 737.13 198.3 734.68 206.03C732.23 213.76 752.2 222.76 752.2 222.76H775.01C775.01 222.76 783.16 206.06 781.12 201.17C779.08 196.28 761.57 192.62 761.57 192.62C761.57 192.62 751.39 192.62 751.8 165.33L728.98 172.23Z" fill="#C77485"/>
<path opacity="0.1" d="M652.82 109.1L643.05 117.25C643.05 117.25 641.89 115.89 640.16 113.69C643.71 113.06 649.22 107.88 651.63 105.46C652.4 107.68 652.82 109.1 652.82 109.1Z" fill="black"/>
<path opacity="0.1" d="M829.18 106.25C825.11 112.36 819.41 106.25 819.41 106.25C819.41 106.25 818.68 105.16 817.65 103.4L817.78 102.99C820.42 104.88 828.63 103.27 829.85 102.99C829.974 104.12 829.74 105.26 829.18 106.25V106.25Z" fill="black"/>
<path opacity="0.1" d="M776.9 306.06C764.3 311.81 723.36 301.57 720.9 300.96C722.525 299.068 724.407 297.412 726.49 296.04L776.59 298.48C776.546 301.011 776.649 303.542 776.9 306.06V306.06Z" fill="black"/>
<path d="M734.28 194.63C734.28 194.63 724.51 197.89 710.66 185.26C710.66 185.26 679.66 154.71 677.66 147.38L653.66 105.38C653.66 105.38 643.48 116.38 639.4 114.75L666.28 161.59C666.28 161.59 671.17 170.59 675.65 172.99C675.65 172.99 709.05 215.76 709.45 224.31C709.85 232.86 724.5 255.76 724.5 255.76C724.5 255.76 729.39 292.82 720.83 299.34C720.83 299.34 768.48 311.56 778.66 303.41C778.66 303.41 774.18 257.41 778.66 252.5C778.66 252.5 792.51 236.21 783.14 218.29C783.14 218.29 781.14 208.52 786.4 203.63C791.66 198.74 815.32 162.49 815.32 162.49C815.32 162.49 821.02 154.34 821.02 149.05C821.02 149.05 831.61 113.21 830.02 103.84C830.02 103.84 820.65 105.84 817.8 103.84C817.8 103.84 803.95 145.84 802.32 147.42C800.69 149 789.32 182.04 774.22 185.71C759.12 189.38 756.71 191 756.71 191C756.71 191 786.03 209.33 771.78 217.47C757.53 225.61 734.28 194.63 734.28 194.63Z" fill="#34CB79"/>
<path opacity="0.1" d="M752.79 178.5C752.306 174.663 752.109 170.796 752.2 166.93L729.39 173.85C729.99 175.37 730.469 176.934 730.82 178.53C733.43 179.68 736.95 182.4 739.98 182.4C744.564 182.55 749.068 181.179 752.79 178.5V178.5Z" fill="black"/>
<path d="M739.57 181.19C751.268 181.19 760.75 171.707 760.75 160.01C760.75 148.313 751.268 138.83 739.57 138.83C727.873 138.83 718.39 148.313 718.39 160.01C718.39 171.707 727.873 181.19 739.57 181.19Z" fill="#C77485"/>
<path opacity="0.1" d="M714.37 127.38C709.71 127.74 704.51 130.96 704.77 135.63C704.91 138.2 706.67 140.37 707.44 142.83C709.29 148.78 705.17 154.75 701.55 159.83C697.93 164.91 694.55 171.64 697.65 177.02C698.534 178.315 699.488 179.56 700.51 180.75C704.34 185.92 704.29 192.9 705.99 199.11C708.161 207.055 713.293 213.866 720.331 218.144C727.369 222.422 735.778 223.841 743.83 222.11C740.799 218.241 739.287 213.397 739.58 208.49C739.81 204.93 740.96 201.21 739.58 197.92C737.8 193.69 732.58 192.02 729.89 188.32C727.2 184.62 727.38 179.49 728.68 175.08C729.98 170.67 732.23 166.58 733.31 162.08C733.577 160.767 733.91 159.469 734.31 158.19C736.19 152.85 741.81 149.75 747.31 148.42C752.81 147.09 758.59 147.01 763.96 145.26C769.33 143.51 774.55 139.41 775.17 133.78C770.65 135.59 766.46 130.87 762.1 128.7C754.92 125.14 746.73 128.49 739.33 129.31C730.9 130.25 722.9 126.76 714.37 127.38Z" fill="black"/>
<path d="M713.96 126.57C709.3 126.93 704.1 130.15 704.36 134.82C704.5 137.39 706.26 139.56 707.03 142.02C708.88 147.97 704.76 153.94 701.14 159.02C697.52 164.1 694.14 170.83 697.24 176.21C698.124 177.505 699.078 178.75 700.1 179.94C703.93 185.11 703.88 192.09 705.58 198.3C707.751 206.245 712.883 213.056 719.921 217.334C726.959 221.612 735.368 223.031 743.42 221.3C740.389 217.431 738.877 212.587 739.17 207.68C739.4 204.12 740.55 200.4 739.17 197.11C737.39 192.88 732.17 191.21 729.48 187.51C726.79 183.81 726.97 178.68 728.27 174.27C729.57 169.86 731.82 165.77 732.9 161.27C733.167 159.957 733.5 158.659 733.9 157.38C735.78 152.04 741.4 148.94 746.9 147.61C752.4 146.28 758.18 146.2 763.55 144.45C768.92 142.7 774.14 138.6 774.76 132.97C770.24 134.78 766.05 130.06 761.69 127.89C754.51 124.33 746.32 127.68 738.92 128.5C730.51 129.43 722.54 125.9 713.96 126.57Z" fill="#493545"/>
<path opacity="0.1" d="M760.55 207.06C760.55 207.06 769.03 214.63 770.7 217.97Z" fill="black"/>
<path opacity="0.1" d="M778.9 252.27C778.9 252.27 768.31 252.27 763.42 253.49C758.53 254.71 746.72 253.49 746.72 253.49" fill="black"/>
<g opacity="0.1">
<path opacity="0.1" d="M771.75 217.44C770.837 217.962 769.849 218.34 768.82 218.56C771.476 219.149 774.256 218.751 776.64 217.44C790.9 209.29 761.57 190.97 761.57 190.97H756.68C756.68 190.97 786.01 209.3 771.75 217.44Z" fill="black"/>
<path opacity="0.1" d="M830.09 104.55C830.09 104.29 830.03 104.04 829.99 103.81C828.315 104.157 826.622 104.414 824.92 104.58C826.639 104.769 828.373 104.759 830.09 104.55V104.55Z" fill="black"/>
<path opacity="0.1" d="M725.73 299.31C734.28 292.79 729.4 255.73 729.4 255.73C729.4 255.73 714.74 232.92 714.33 224.37C713.92 215.82 680.53 173.05 680.53 173.05C676.05 170.61 671.16 161.65 671.16 161.65C671.16 161.65 643.46 116.44 639.39 114.81L666.27 161.65C666.27 161.65 671.16 170.65 675.64 173.05C675.64 173.05 709.04 215.82 709.44 224.37C709.84 232.92 724.5 255.76 724.5 255.76C724.5 255.76 729.39 292.82 720.83 299.34C720.83 299.34 750.12 306.85 767.68 306.17C750.08 305.55 725.73 299.31 725.73 299.31Z" fill="black"/>
<path opacity="0.1" d="M734.52 194.95L734.28 194.64C734.001 194.722 733.717 194.786 733.43 194.83C733.81 194.88 734.17 194.92 734.52 194.95Z" fill="black"/>
</g>
<g opacity="0.1">
<path opacity="0.1" d="M829.99 103.76L829.74 103.81C829.31 116.32 820.63 145.71 820.63 145.71C820.63 151 814.93 159.15 814.93 159.15C814.93 159.15 791.31 195.4 786.01 200.29C780.71 205.18 782.75 214.95 782.75 214.95L782.8 215.05C782.64 211.76 783.04 206.66 786.41 203.54C791.7 198.65 815.33 162.4 815.33 162.4C815.33 162.4 821.03 154.25 821.03 148.96C821.03 149.02 831.62 113.18 829.99 103.76Z" fill="black"/>
<path opacity="0.1" d="M778.27 249.21C778.88 252.67 778.47 249.01 778.68 252.47C778.68 252.47 788.68 240.74 785.95 226.24C786.77 239.2 778.27 249.21 778.27 249.21Z" fill="black"/>
</g>
<path opacity="0.5" d="M669.9 15.31H663.62C664.215 15.3384 664.809 15.2457 665.367 15.0377C665.925 14.8296 666.435 14.5105 666.866 14.0996C667.297 13.6887 667.64 13.1945 667.874 12.6472C668.109 12.0998 668.23 11.5105 668.23 10.915C668.23 10.3195 668.109 9.73027 667.874 9.18288C667.64 8.63549 667.297 8.14137 666.866 7.73046C666.435 7.31956 665.925 7.00041 665.367 6.79235C664.809 6.58428 664.215 6.49163 663.62 6.52001H612.7C611.571 6.5739 610.505 7.06047 609.725 7.87879C608.945 8.69711 608.51 9.78436 608.51 10.915C608.51 12.0457 608.945 13.1329 609.725 13.9512C610.505 14.7696 611.571 15.2561 612.7 15.31H618.98C617.851 15.3639 616.785 15.8505 616.005 16.6688C615.225 17.4871 614.79 18.5744 614.79 19.705C614.79 20.8357 615.225 21.9229 616.005 22.7412C616.785 23.5595 617.851 24.0461 618.98 24.1H610.19C609.595 24.0716 609.001 24.1643 608.443 24.3723C607.885 24.5804 607.375 24.8996 606.944 25.3105C606.513 25.7214 606.17 26.2155 605.936 26.7629C605.701 27.3103 605.58 27.8995 605.58 28.495C605.58 29.0905 605.701 29.6798 605.936 30.2271C606.17 30.7745 606.513 31.2686 606.944 31.6796C607.375 32.0905 607.885 32.4096 608.443 32.6177C609.001 32.8257 609.595 32.9184 610.19 32.89H661.07C661.665 32.9184 662.259 32.8257 662.817 32.6177C663.375 32.4096 663.885 32.0905 664.316 31.6796C664.747 31.2686 665.09 30.7745 665.324 30.2271C665.559 29.6798 665.68 29.0905 665.68 28.495C665.68 27.8995 665.559 27.3103 665.324 26.7629C665.09 26.2155 664.747 25.7214 664.316 25.3105C663.885 24.8996 663.375 24.5804 662.817 24.3723C662.259 24.1643 661.665 24.0716 661.07 24.1H669.9C671.029 24.0461 672.095 23.5595 672.875 22.7412C673.655 21.9229 674.09 20.8357 674.09 19.705C674.09 18.5744 673.655 17.4871 672.875 16.6688C672.095 15.8505 671.029 15.3639 669.9 15.31Z" fill="#DEE3F3"/>
<path opacity="0.5" d="M375.68 40.95H370.9C371.355 40.9749 371.81 40.9068 372.237 40.7499C372.665 40.5931 373.056 40.3507 373.386 40.0376C373.717 39.7246 373.98 39.3474 374.16 38.9291C374.34 38.5109 374.433 38.0603 374.433 37.605C374.433 37.1497 374.34 36.6991 374.16 36.2809C373.98 35.8626 373.717 35.4854 373.386 35.1724C373.056 34.8593 372.665 34.6169 372.237 34.4601C371.81 34.3032 371.355 34.2351 370.9 34.26H332.18C331.325 34.3068 330.519 34.6796 329.93 35.3018C329.341 35.924 329.013 36.7482 329.013 37.605C329.013 38.4618 329.341 39.286 329.93 39.9082C330.519 40.5304 331.325 40.9032 332.18 40.95H336.96C336.505 40.9251 336.05 40.9932 335.623 41.1501C335.195 41.3069 334.804 41.5493 334.474 41.8624C334.143 42.1754 333.88 42.5526 333.7 42.9709C333.52 43.3891 333.427 43.8397 333.427 44.295C333.427 44.7503 333.52 45.2009 333.7 45.6192C333.88 46.0374 334.143 46.4146 334.474 46.7276C334.804 47.0407 335.195 47.2831 335.623 47.4399C336.05 47.5968 336.505 47.6649 336.96 47.64H330.27C329.815 47.6151 329.36 47.6832 328.933 47.8401C328.505 47.997 328.114 48.2393 327.784 48.5524C327.453 48.8654 327.19 49.2426 327.01 49.6609C326.83 50.0791 326.737 50.5297 326.737 50.985C326.737 51.4403 326.83 51.8909 327.01 52.3092C327.19 52.7274 327.453 53.1046 327.784 53.4176C328.114 53.7307 328.505 53.9731 328.933 54.1299C329.36 54.2868 329.815 54.3549 330.27 54.33H368.99C369.445 54.3549 369.9 54.2868 370.327 54.1299C370.755 53.9731 371.146 53.7307 371.476 53.4176C371.807 53.1046 372.07 52.7274 372.25 52.3092C372.43 51.8909 372.523 51.4403 372.523 50.985C372.523 50.5297 372.43 50.0791 372.25 49.6609C372.07 49.2426 371.807 48.8654 371.476 48.5524C371.146 48.2393 370.755 47.997 370.327 47.8401C369.9 47.6832 369.445 47.6151 368.99 47.64H375.68C376.536 47.5932 377.341 47.2204 377.93 46.5982C378.519 45.976 378.847 45.1518 378.847 44.295C378.847 43.4382 378.519 42.614 377.93 41.9918C377.341 41.3696 376.536 40.9968 375.68 40.95V40.95Z" fill="#DEE3F3"/>
<path opacity="0.5" d="M177.84 74.64H171.56C172.155 74.6684 172.749 74.5757 173.307 74.3676C173.865 74.1596 174.375 73.8404 174.806 73.4295C175.237 73.0186 175.58 72.5245 175.814 71.9771C176.049 71.4297 176.17 70.8404 176.17 70.245C176.17 69.6495 176.049 69.0602 175.814 68.5128C175.58 67.9654 175.237 67.4713 174.806 67.0604C174.375 66.6495 173.865 66.3304 173.307 66.1223C172.749 65.9142 172.155 65.8216 171.56 65.85H120.68C119.551 65.9039 118.485 66.3904 117.705 67.2088C116.925 68.0271 116.49 69.1143 116.49 70.245C116.49 71.3756 116.925 72.4629 117.705 73.2812C118.485 74.0995 119.551 74.5861 120.68 74.64H126.96C125.831 74.6939 124.765 75.1804 123.985 75.9987C123.205 76.8171 122.77 77.9043 122.77 79.035C122.77 80.1656 123.205 81.2529 123.985 82.0712C124.765 82.8895 125.831 83.3761 126.96 83.43H118.17C117.041 83.4839 115.975 83.9704 115.195 84.7888C114.415 85.6071 113.98 86.6943 113.98 87.825C113.98 88.9556 114.415 90.0429 115.195 90.8612C115.975 91.6795 117.041 92.1661 118.17 92.22H169.05C169.645 92.2484 170.239 92.1557 170.797 91.9476C171.355 91.7396 171.865 91.4204 172.296 91.0095C172.727 90.5986 173.07 90.1045 173.304 89.5571C173.539 89.0097 173.66 88.4204 173.66 87.825C173.66 87.2295 173.539 86.6402 173.304 86.0928C173.07 85.5454 172.727 85.0513 172.296 84.6404C171.865 84.2295 171.355 83.9104 170.797 83.7023C170.239 83.4942 169.645 83.4016 169.05 83.43H177.84C178.969 83.3761 180.035 82.8895 180.815 82.0712C181.595 81.2529 182.03 80.1656 182.03 79.035C182.03 77.9043 181.595 76.8171 180.815 75.9987C180.035 75.1804 178.969 74.6939 177.84 74.64V74.64Z" fill="#DEE3F3"/>
</g>
<defs>
<linearGradient id="paint0_linear" x1="460.5" y1="543.76" x2="460.5" y2="129.76" gradientUnits="userSpaceOnUse">
<stop stop-color="#808080" stop-opacity="0.25"/>
<stop offset="0.54" stop-color="#808080" stop-opacity="0.12"/>
<stop offset="1" stop-color="#808080" stop-opacity="0.1"/>
</linearGradient>
<linearGradient id="paint1_linear" x1="382.874" y1="473.353" x2="382.874" y2="473.305" gradientUnits="userSpaceOnUse">
<stop stop-color="#808080" stop-opacity="0.25"/>
<stop offset="0.54" stop-color="#808080" stop-opacity="0.12"/>
<stop offset="1" stop-color="#808080" stop-opacity="0.1"/>
</linearGradient>
<linearGradient id="paint2_linear" x1="64395.6" y1="202199" x2="64395.6" y2="90655.5" gradientUnits="userSpaceOnUse">
<stop stop-color="#808080" stop-opacity="0.25"/>
<stop offset="0.54" stop-color="#808080" stop-opacity="0.12"/>
<stop offset="1" stop-color="#808080" stop-opacity="0.1"/>
</linearGradient>
<linearGradient id="paint3_linear" x1="181402" y1="245104" x2="181402" y2="79445.4" gradientUnits="userSpaceOnUse">
<stop stop-color="#808080" stop-opacity="0.25"/>
<stop offset="0.54" stop-color="#808080" stop-opacity="0.12"/>
<stop offset="1" stop-color="#808080" stop-opacity="0.1"/>
</linearGradient>
<clipPath id="clip0">
<rect width="949.8" height="661.52" fill="white"/>
</clipPath>
</defs>
</svg>
