<svg width="72" height="64" viewBox="0 0 72 64" fill="none" xmlns="http://www.w3.org/2000/svg">
<path d="M69.5244 9.90234H13.0625L14.3266 15.3799H67.8389L69.5244 9.90234Z" fill="#34CB79"/>
<path d="M62.1525 46.5598H21.2809C20.2276 46.5598 19.3848 45.9277 19.1741 44.8744L10.9577 10.323C10.747 9.69093 10.9577 9.05897 11.3791 8.63757C11.8005 8.21618 12.4324 7.79492 13.0645 7.79492H69.5264C70.1585 7.79492 70.7904 8.00562 71.2118 8.63757C71.6332 9.05897 71.8439 9.90162 71.6332 10.5337L64.2595 44.6637C64.0486 45.717 63.2058 46.5598 62.1525 46.5598ZM22.9662 42.1356H60.467L66.7874 12.0085H15.8032L22.9662 42.1356Z" fill="black"/>
<path d="M13.062 12.0087C12.0087 12.0087 11.1659 11.3766 10.9552 10.3232L9.26989 4.21355H2.10685C0.842652 4.21355 0 3.1602 0 2.10685C0 1.0535 1.05335 0 2.10685 0H10.9553C12.0087 0 12.8515 0.632097 13.0622 1.68545L15.169 9.48059C15.3797 10.5339 14.7476 11.5874 13.6943 12.0087C13.4834 12.0087 13.2727 12.0087 13.062 12.0087Z" fill="black"/>
<path d="M60.0439 57.3037H14.3266C10.1131 57.3037 6.74219 53.9328 6.74219 49.7192C6.74219 45.5057 10.1131 42.1348 14.3266 42.1348H60.0439C61.3079 42.1348 62.1507 43.1881 62.1507 44.2416C62.1507 45.295 61.0974 46.3485 60.0439 46.3485H14.3266C12.4305 46.3485 10.9557 47.8232 10.9557 49.7194C10.9557 51.6155 12.4305 53.0902 14.3266 53.0902H60.0439C61.3079 53.0902 62.1507 54.1436 62.1507 55.1971C62.3614 56.461 61.3079 57.3037 60.0439 57.3037Z" fill="black"/>
<path d="M55.1995 61.5163C58.5738 61.5163 61.3092 58.7809 61.3092 55.4066C61.3092 52.0323 58.5738 49.2969 55.1995 49.2969C51.8252 49.2969 49.0898 52.0323 49.0898 55.4066C49.0898 58.7809 51.8252 61.5163 55.1995 61.5163Z" fill="#C0D0D6"/>
<path d="M55.2006 57.5145C56.3642 57.5145 57.3074 56.5712 57.3074 55.4076C57.3074 54.244 56.3642 53.3008 55.2006 53.3008C54.037 53.3008 53.0938 54.244 53.0938 55.4076C53.0938 56.5712 54.037 57.5145 55.2006 57.5145Z" fill="#34CB79"/>
<path d="M55.2005 63.6237C50.5656 63.6237 46.7734 59.8316 46.7734 55.1966C46.7734 50.5617 50.5656 46.7695 55.2005 46.7695C59.8355 46.7695 63.6276 50.5617 63.6276 55.1966C63.6276 59.8316 59.8353 63.6237 55.2005 63.6237ZM55.2005 51.4043C52.8831 51.4043 51.1977 53.3005 51.1977 55.4072C51.1977 57.7246 53.0938 59.41 55.2005 59.41C57.3072 59.41 59.2034 57.5139 59.2034 55.4072C59.2034 53.0898 57.3072 51.4043 55.2005 51.4043Z" fill="black"/>
<path d="M21.6995 61.5163C25.0738 61.5163 27.8092 58.7809 27.8092 55.4066C27.8092 52.0323 25.0738 49.2969 21.6995 49.2969C18.3252 49.2969 15.5898 52.0323 15.5898 55.4066C15.5898 58.7809 18.3252 61.5163 21.6995 61.5163Z" fill="#C0D0D6"/>
<path d="M21.7006 57.5145C22.8642 57.5145 23.8074 56.5712 23.8074 55.4076C23.8074 54.244 22.8642 53.3008 21.7006 53.3008C20.537 53.3008 19.5938 54.244 19.5938 55.4076C19.5938 56.5712 20.537 57.5145 21.7006 57.5145Z" fill="#34CB79"/>
<path d="M21.7005 63.6237C17.0656 63.6237 13.2734 59.8316 13.2734 55.1966C13.2734 50.5617 17.0656 46.7695 21.7005 46.7695C26.3355 46.7695 30.1276 50.5617 30.1276 55.1966C30.1276 59.8316 26.3355 63.6237 21.7005 63.6237ZM21.7005 51.4043C19.3831 51.4043 17.6977 53.3005 17.6977 55.4072C17.6977 57.7246 19.5938 59.41 21.7005 59.41C23.8072 59.41 25.7034 57.5139 25.7034 55.4072C25.7035 53.0898 24.0181 51.4043 21.7005 51.4043Z" fill="black"/>
<path d="M31.6029 34.3409C30.3389 34.3409 29.4961 33.2876 29.4961 32.2341V19.8041C29.4961 18.5401 30.5494 17.6973 31.6029 17.6973C32.867 17.6973 33.7098 18.7506 33.7098 19.8041V32.2342C33.7096 33.4983 32.867 34.3409 31.6029 34.3409Z" fill="black"/>
<path d="M41.2943 34.3409C40.0303 34.3409 39.1875 33.2876 39.1875 32.2341V19.8041C39.1875 18.5401 40.2409 17.6973 41.2943 17.6973C42.5584 17.6973 43.4012 18.7506 43.4012 19.8041V32.2342C43.4012 33.4983 42.5584 34.3409 41.2943 34.3409Z" fill="black"/>
<path d="M50.9818 34.3409C49.7178 34.3409 48.875 33.2876 48.875 32.2341V19.8041C48.875 18.5401 49.9284 17.6973 50.9818 17.6973C52.2459 17.6973 53.0887 18.7506 53.0887 19.8041V32.2342C53.0887 33.4983 52.246 34.3409 50.9818 34.3409Z" fill="black"/>
</svg>
